<svg xmlns="http://www.w3.org/2000/svg" xmlns:xlink="http://www.w3.org/1999/xlink" width="460" height="750" viewBox="0 0 460 750"><defs><style>.cls-1{fill:none;}.cls-2{isolation:isolate;}.cls-3{clip-path:url(#clip-path);}.cls-4{fill:#663b18;}.cls-5{fill:#592a0b;}.cls-6{fill:#52321d;}.cls-7{fill:#d4af37;}.cls-8{fill:#070707;}</style><clipPath id="clip-path"><polygon class="cls-1" points="85.62 743.71 88.64 31.04 350.83 6.29 347.81 718.95 85.62 743.71"/></clipPath></defs><title>dør til scene</title><g id="Layer_2" data-name="Layer 2"><g id="Layer_1" data-name="Layer 1"><g class="cls-2"><g class="cls-3"><path class="cls-4" d="M300.76,11l-28.05,2.65q-1.21,72.32-3,144.64Q268.45,86.24,268,14.1l-32.7,3.09q.67,52.91,1,105.83.88,142,.36,284.24-.71,161.18-4,322.56L262.48,727q1.36-98.58,3.83-197.2Q267.63,608,268,686.18q.12,20.13.22,40.28l30.13-2.84q-1.25-126.45-1.14-253.08l-8.16.77c-3.87.37-7-4.72-7-11.3l.39-92.65c0-6.58,3.22-12.26,7.09-12.63l8-.75q.61-137.84,2.31-275.7.39-33.63.9-67.27"/><path class="cls-4" d="M350.83,6.28,339.55,7.35q-.8,52.89-1.86,105.78-.62-52.74-.89-105.52l-33.41,3.15q.21,33.59.34,67.16.5,137.65,0,275.48L318.3,352c3.87-.37,7,4.72,7,11.3L324.9,456c0,6.58-3.22,12.27-7.1,12.63L303,470q-1,126.72-3.33,253.49l31.13-2.94q1.17-117.9,3.49-235.91.92,78.18,1.13,156.43.14,39.51.21,79L347.81,719l3-712.67"/><path class="cls-4" d="M158.75,24.42l-.19,0,.09,5.8c0-1.94.07-3.87.1-5.82"/><path class="cls-4" d="M233.4,17.37l-36,3.4q-1.4,94.83-3.85,189.71-1.4-78.14-1.83-156.36-.1-16.4-.19-32.79l-32.65,3.08q.15,19.48.28,39,.76,55.9,1.12,111.83.91,140.25.43,280.69t-3.15,281l29.38-2.78q1.27-76,3.24-152.15,1.35,75.79,1.79,151.68l38.08-3.6q-.48-42.29-.73-84.6Q228.45,505.82,229,366q.73-174.2,4.44-348.61"/><path class="cls-4" d="M158.32,24.46l-31,2.93q-1,72.3-2.58,144.6-.94-72.09-1.22-144.24L90.24,30.89q.51,52.92.72,105.86.6,142,.06,284.26-.69,161.18-3.46,322.52l30.58-2.89q1.2-98.57,3.27-197.15,1,78.18,1.27,156.41.09,20.16.15,40.3l30.57-2.89q-.18-19.83-.31-39.65-.92-139.14-.42-278.5.81-197.19,5.65-394.7"/><path class="cls-5" d="M297.67,470.5l-.42,0q-.06,126.63,1.14,253.08l.33,0q-.62-61.65-.79-123.35-.24-64.85-.26-129.74M301,11l-.24,0q-.51,33.64-.9,67.27-1.64,137.87-2.31,275.7l.28,0q0-14.88.11-29.77Q298.57,167.66,301,11"/><path class="cls-5" d="M158.88,24.41h-.13c0,1.95-.06,3.88-.1,5.82q.28,16.56.51,33.12-.14-19.47-.28-38.95"/><path class="cls-5" d="M88.68,31h0v3c0-1,0-2,.05-3"/><path class="cls-6" d="M303,470l-5.36.5q0,64.89.26,129.74.22,61.69.79,123.35l1-.1Q302.05,596.71,303,470m.36-459.24L301,11q-2.5,156.65-3.06,313.19-.06,14.88-.11,29.77l5.9-.55q.56-137.83,0-275.48-.12-33.58-.34-67.16"/><path class="cls-6" d="M235.33,17.19l-1.93.18Q229.53,191.77,229,366q-.6,139.83.36,279.49.26,42.3.73,84.6l2.66-.25q3.4-161.37,4-322.56Q237.29,265,236.31,123q-.31-52.92-1-105.83"/><path class="cls-6" d="M158.56,24.44l-.24,0q-5.07,197.49-5.65,394.7-.58,139.35.42,278.5.14,19.83.31,39.65l4.16-.39q2.66-140.59,3.15-281t-.43-280.69q-.37-55.93-1.12-111.83-.22-16.57-.51-33.12l-.09-5.8"/><path class="cls-6" d="M90.24,30.89,88.68,31c0,1,0,2-.05,3l-3,709.65,1.94-.18Q90.44,582.21,91,421q.62-142.22-.06-284.26-.22-52.93-.72-105.86"/><path class="cls-6" d="M339.55,7.35l-2.75.26q.29,52.79.89,105.52,1.06-52.89,1.86-105.78"/><path class="cls-6" d="M272.71,13.66,268,14.1q.5,72.15,1.65,144.2,1.83-72.33,3-144.64"/><path class="cls-6" d="M197.4,20.77l-5.87.56q.08,16.39.19,32.79.51,78.21,1.83,156.36Q196,115.6,197.4,20.77"/><path class="cls-6" d="M127.36,27.39l-3.8.36q.34,72.15,1.22,144.24,1.56-72.32,2.58-144.6"/><path class="cls-6" d="M334.32,484.64q-2.35,118-3.49,235.91l4.83-.45q-.07-39.51-.21-79-.29-78.24-1.13-156.43"/><path class="cls-6" d="M266.31,529.81q-2.49,98.64-3.83,197.2l5.78-.55q-.09-20.13-.22-40.28-.5-78.21-1.73-156.37"/><path class="cls-6" d="M190.18,582q-2,76.1-3.24,152.15l5-.47q-.51-75.88-1.79-151.68"/><path class="cls-6" d="M121.41,543.49q-2.09,98.6-3.27,197.15l4.69-.44q-.06-20.15-.15-40.3-.33-78.23-1.27-156.41"/><path class="cls-7" d="M292.59,439.11c.05-13.1,5-24.23,11.09-24.8s10.95,9.62,10.89,22.72-5,24.23-11.09,24.8-11-9.61-10.89-22.72m-5.77-54.85c.05-13.1,7.72-24.49,17.1-25.37s17,9.06,16.9,22.15-7.73,24.5-17.1,25.38-17-9.06-16.9-22.16M318.3,352l-14.57,1.38-5.9.55-.28,0-8,.75c-3.87.37-7.06,6-7.09,12.63L282.1,460c0,6.58,3.12,11.67,7,11.3l8.16-.77.42,0L303,470l14.77-1.4c3.88-.36,7.07-6.05,7.1-12.63l.39-92.65c0-6.58-3.12-11.67-7-11.3"/><path class="cls-7" d="M303.91,359.88c-9.05.86-16.45,11.77-16.51,24.32s7.27,22.08,16.32,21.22,16.46-11.76,16.51-24.32S313,359,303.91,359.88"/><path d="M303.72,405.42c-9.05.86-16.37-8.66-16.32-21.22s7.46-23.46,16.51-24.32,16.38,8.67,16.32,21.22-7.46,23.47-16.51,24.32m.2-46.53c-9.38.88-17.05,12.27-17.1,25.37s7.52,23.05,16.9,22.16,17-12.27,17.1-25.38-7.53-23-16.9-22.15"/><path class="cls-7" d="M299,450.79l3-9.22c-1.36-.92-2.3-3.22-2.29-6,0-3.76,1.77-7,3.91-7.17s3.86,2.68,3.84,6.44a9,9,0,0,1-2.19,6.3l2.94,8.79-9.19.86m4.72-35.48c-5.74.54-10.45,11.19-10.51,23.75s4.58,22.32,10.32,21.78,10.45-11.2,10.5-23.75-4.57-22.32-10.31-21.78"/><path d="M303.49,460.84c-5.74.54-10.37-9.23-10.32-21.78s4.77-23.21,10.51-23.75S314,424.53,314,437.09s-4.77,23.21-10.5,23.75m.19-46.53c-6.06.57-11,11.7-11.09,24.8s4.83,23.3,10.89,22.72,11-11.69,11.09-24.8-4.82-23.29-10.89-22.72"/><path class="cls-8" d="M303.56,428.4c-2.14.2-3.89,3.41-3.91,7.17,0,2.78.93,5.08,2.29,6l-3,9.22,9.19-.86-2.94-8.79a9,9,0,0,0,2.19-6.3c0-3.76-1.7-6.64-3.84-6.44"/></g></g></g></g></svg>