<svg xmlns="http://www.w3.org/2000/svg" width="1300" height="350" viewBox="0 0 1300 350"><defs><style>.cls-1{fill:#3d2e1c;}.cls-2,.cls-3{fill:#fff;}.cls-2{opacity:0.1;}</style></defs><title>Game over</title><g id="Layer_2" data-name="Layer 2"><g id="Layer_1" data-name="Layer 1"><path class="cls-1" d="M1204.81,55.13l-55.07,16.69c60.37-89.54-471.13-49.74-583.51-51.51-190.77-3-637.48-23.42-382.4,122.46C38.86,143-4.69,273.58,128,302.49c47.7-23.15,804.18,88.52,773.91-.48,155.55,26.46,283.84,22.87,235.64-66.22C1255.5,238.9,1288.71,114.46,1204.81,55.13Z"/><path class="cls-2" d="M762.52,316c-101.45,0-244.63-12-371-22.52-97.7-8.17-182.08-15.22-230.71-15.22-9.43,0-19.38.21-29,1.11C94.65,265.84,85.24,236.1,96.19,211.1c9.53-21.77,38.25-47.22,87.81-47.31l93.1-.17-60.22-34.44c-51.06-29.2,53.18-44.31,64.33-56C303,50.43,324,38.68,387.07,38.68c45.62,0,91,.93,131,1.75,16.75.34,32.47.66,46.76.89,2.94,0,6.12.07,9.53.07,24.81,0,60.25-1.19,105.13-2.69C741.78,36.61,819.32,34,892.5,34c172.65,0,208.71,15.15,215.65,19.79,1.68,1.12,5.62,3.75.4,11.49l-37.12,55.05L1188.35,84.9c29.46,36.12,24.18,86.24-4.9,113-12.2,11.22-26.2,16.92-41.61,16.92h0l-2,0-59.35-1.56-110.28,26c16.22,30,132.1,43.85,125,48.31-10.35,6.5-33.69,7.87-51.46,7.87-32.67,0-76.79-4.57-127.57-13.21l-180-24.05,122.88,47.3c.54,1.59.2,2.23.2,2.24h0S845.78,316,762.52,316Z"/><path class="cls-3" d="M351.37,166q0,.87-1.86,2.55l-2.71,2.43a12.16,12.16,0,0,1-3.38-2.13l-2.37-2a30.48,30.48,0,0,0-7.74-3,33.28,33.28,0,0,0-8.58-1.38q-13.28,0-20.29,8.39a21.42,21.42,0,0,0-5.33,14.11,23.26,23.26,0,0,0,6.34,15.86q7.86,8.79,21.9,8.79,12.52,0,12.52-10a8.05,8.05,0,0,0-2-4.8,10.78,10.78,0,0,0-6.26-4,19.48,19.48,0,0,1,4.4-3.36q3.47-2.15,5.41-2.14,3.21,0,8.88,3.71,0,7.67-2.2,22.68-2.88.22-12.26,1.39-7,.87-8.46.87-17,0-28.5-8.35-11.16-8.17-11.16-19.95,0-11.61,10.49-19.43,10.81-8.13,27.57-8.12a67.66,67.66,0,0,1,14.71,2.14Q351.37,162.77,351.37,166Z"/><path class="cls-3" d="M430.27,213.69h-6.18q-1.44-2-6.44-4.06a72,72,0,0,1-7.79-3.54,11.06,11.06,0,0,1-4.06-5.1q-.76-1.92-2.29-5.8H383.27a56.36,56.36,0,0,0-5.16,9.26q-3.3,7.1-4.47,9.24H357.71c3.67-2.44,5.61-3.71,5.84-3.83a15.85,15.85,0,0,0,4.56-4.7q3.81-6.78,10.57-21.57,6.51-14.26,10.74-21.58c.23-.38,2.85-1.2,7.87-2.43a20.54,20.54,0,0,1,2.2.92q4.31,8.64,16.32,33.53,1.19,2.78,4.57,10A22.71,22.71,0,0,0,430.27,213.69Zm-27.15-23q-2.44-9.27-9.12-22.9c-1,2-2.85,5.76-5.5,11.13a78.57,78.57,0,0,0-4.66,11.77Z"/><path class="cls-3" d="M532.26,213.63q-5-.47-8.16-.46a79.89,79.89,0,0,0-8.65.63A104.33,104.33,0,0,0,512.6,201a76.64,76.64,0,0,1-2.5-11.71,6.77,6.77,0,0,1,.76-2.84,6.07,6.07,0,0,0,.68-3,15.78,15.78,0,0,0-1.52-4.29,33.47,33.47,0,0,1-2-4.93,8.81,8.81,0,0,0-5.16,3.31,21.81,21.81,0,0,0-2.58,4.84,20.66,20.66,0,0,1-2.67,4.9q-2.11,2.61-6.08,8.76-5.25,8.06-6.43,9.74h-5.16q-7.28-10.26-22.58-30.8a6,6,0,0,0-1.86,4.07q-2,17.16-3.72,34.79L444,209.86a18,18,0,0,0-8-2.09q6.69-4.07,8-10.38.25-4.81.6-9.63,1.6-7.78,4.57-23.68,4-1.5,11.1-4.52l23.36,33q5.25-5.33,11.68-16.12l10.49-17.58h11.34q.93,7.43,4.4,24.94l4.65,23.72Q526.68,210.15,532.26,213.63Z"/><path class="cls-3" d="M588.91,211.14a2.27,2.27,0,0,1-1.18,1.85,4.68,4.68,0,0,1-2.71.81h-41.6V165.2q0-1.74-6.51-6.15,34.92,0,44.82.47c2.48.11,3.38.17,2.7.17a8.83,8.83,0,0,1-1.52,3.13c-1.18,1.94-1.86,3.08-2,3.43q-3.72-3.72-17.42-3.72c-4,0-6.79.45-8.54,1.34a5.73,5.73,0,0,0-3,5.51c0,.46,0,1.18.08,2.14s.08,1.69.08,2.15v5.16a3.7,3.7,0,0,0,4.06,3.36c.9,0,2.23,0,4-.14s3.07-.14,4-.14a90.63,90.63,0,0,1,11.76.81,7.46,7.46,0,0,1-1.44,3c-1.13,1.7-1.86,2.88-2.2,3.54a7.06,7.06,0,0,0-4.82-3q-.93-.17-6.6-.23a25.23,25.23,0,0,1-4.82-.52c-1.13.66-1.69,1.41-1.69,2.26a151.9,151.9,0,0,0,1.36,18.91c.11.81.95,1.57,2.53,2.29a10.53,10.53,0,0,0,4.23,1.07q5.16,0,16.15-.92,1.86-.18,6.68-3.49Z"/><path class="cls-3" d="M712.21,188.58q0,11.71-9.93,18.84t-26.94,7.14q-17.08,0-27.74-8.41-10.14-8-10.14-19.84,0-12.52,10.48-20.59,11-8.4,29.09-8.41,1.1,0,17.34,2.27a4.45,4.45,0,0,1,3.3,1.68,4.38,4.38,0,0,1-.26,2,12.24,12.24,0,0,0-.42,2.14,1.65,1.65,0,0,0,.25,1,22.74,22.74,0,0,0,5.08,4.46,24.45,24.45,0,0,1,5.16,4.53,32.32,32.32,0,0,1,3.63,6.38A19.46,19.46,0,0,1,712.21,188.58Zm-11.92-2.27a25.07,25.07,0,0,0-.85-5.56,18.63,18.63,0,0,0-2.87-6.85,6.91,6.91,0,0,0-2.37-1.59,11.19,11.19,0,0,1-2.37-1.37,44,44,0,0,0-.68-5.22q-.75-.69-6.72-2.32a42,42,0,0,0-7.4-1.62q-12.85,0-20.89,8.35-6.76,7.08-6.76,15.08,0,7.77,5.58,15.49a23.31,23.31,0,0,0,19.87,10.15q13.78,0,20.47-8.76A25.33,25.33,0,0,0,700.29,186.31Z"/><path class="cls-3" d="M792.38,159.05q-6.18,1.57-8.37,5.34-11.16,19-25.29,49.47a20.14,20.14,0,0,0-4.39-1.74,12.17,12.17,0,0,1-4.4-2.08,16,16,0,0,1-3.3-5.86,62.58,62.58,0,0,0-2.79-6.67q-2-3.37-6.09-12.65a86.62,86.62,0,0,0-7-13.34,49.66,49.66,0,0,0-12.18-12.58h17.93l7.27,16.53q3.9,8.86,6,15.19a15.25,15.25,0,0,1,.42,3.57,10,10,0,0,0,.68,3.74,35.92,35.92,0,0,0,4.65,7.08,25.59,25.59,0,0,0,2.28-2.73,74.36,74.36,0,0,0,4.82-10.86c.74-2.21,2.17-6.16,4.32-11.85.62-1.35,1.71-3.77,3.29-7.26a16.72,16.72,0,0,0,1.78-6.79,9.68,9.68,0,0,0-2-5.87,116.26,116.26,0,0,1,15-.75Q788.41,158.94,792.38,159.05Z"/><path class="cls-3" d="M850.14,211.14A2.29,2.29,0,0,1,849,213a4.73,4.73,0,0,1-2.71.81H804.64V165.2q0-1.74-6.51-6.15,34.92,0,44.82.47c2.48.11,3.38.17,2.71.17a8.93,8.93,0,0,1-1.53,3.13c-1.18,1.94-1.86,3.08-2,3.43q-3.74-3.72-17.43-3.72-5.91,0-8.54,1.34a5.73,5.73,0,0,0-3,5.51c0,.46,0,1.18.08,2.14s.09,1.69.09,2.15v5.16a3.69,3.69,0,0,0,4.06,3.36c.9,0,2.22,0,4-.14s3.07-.14,4-.14a90.36,90.36,0,0,1,11.75.81,7.46,7.46,0,0,1-1.44,3c-1.13,1.7-1.86,2.88-2.2,3.54a7,7,0,0,0-4.82-3q-.93-.17-6.59-.23a25.14,25.14,0,0,1-4.82-.52c-1.13.66-1.69,1.41-1.69,2.26a153.65,153.65,0,0,0,1.35,18.91c.11.81,1,1.57,2.54,2.29a10.45,10.45,0,0,0,4.23,1.07q5.14,0,16.15-.92c1.24-.12,3.46-1.28,6.68-3.49Z"/><path class="cls-3" d="M923.54,213.51a29.1,29.1,0,0,1-6.93.87,29.61,29.61,0,0,1-14.89-4.23,77,77,0,0,1-12.85-10l-12.52-11.59a24.91,24.91,0,0,0-2.79,1.21v24a56,56,0,0,0-14.63-5.62,7,7,0,0,0-2.53-.52q7.44-4.82,7-16.07-.25-6-.38-8.41c-.09-1.58-.13-1.78-.13-.58q0-15.25-.43-18.15c-.11-.82-.9-1.82-2.36-3a16.24,16.24,0,0,0-3.72-2.32q4.56,0,15.56-.52l11-.52a41.67,41.67,0,0,1,16.49,2.66q10.06,3.66,10.06,11.08,0,5.56-4.86,9.57t-12.9,4.47a17.44,17.44,0,0,0-4,.93q4.9,6.72,16.49,15.08A127,127,0,0,0,923.54,213.51Zm-22.75-41.29q0-4.41-5.32-7.13a24,24,0,0,0-11.42-2.56q-4.49,0-11.33,3.19v16a31.84,31.84,0,0,1,4.31.44,31.46,31.46,0,0,0,4.31.43A30.53,30.53,0,0,0,894,179.93Q900.8,176.86,900.79,172.22Z"/></g></g></svg>