<svg xmlns="http://www.w3.org/2000/svg" xmlns:xlink="http://www.w3.org/1999/xlink" width="237.2" height="290" viewBox="0 0 237.2 290"><defs><style>.cls-1,.cls-5{fill:none;}.cls-2{isolation:isolate;}.cls-3{mix-blend-mode:color-dodge;}.cls-4{fill:#d3ae37;}.cls-5{stroke:#020202;stroke-miterlimit:10;stroke-width:6px;}.cls-6{clip-path:url(#clip-path);}.cls-7{fill:#020202;}</style><clipPath id="clip-path"><polygon class="cls-1" points="88.86 277.74 87.82 204.69 132.06 200.57 133.09 273.62 88.86 277.74"/></clipPath></defs><title>lampe til scene</title><g class="cls-2"><g id="Layer_2" data-name="Layer 2"><g id="Layer_1" data-name="Layer 1"><image class="cls-3" width="403" height="467" transform="translate(-89 -83.31)" xlink:href="lampe til scene1.png"/><polygon class="cls-4" points="29.31 230.28 16.29 212.37 21.26 183.37 37.35 183.37 42.32 212.37 29.31 230.28"/><path class="cls-5" d="M160.59,208.78c0,26.79-22.63,48.51-50.54,48.51s-50.53-21.72-50.53-48.51"/><path class="cls-5" d="M195.36,224.18c0,26.79-37.11,48.51-82.88,48.51S29.6,251,29.6,224.18"/><g class="cls-2"><g class="cls-6"><path class="cls-7" d="M132.06,200.57l-1.21.11c.53,37-8.42,67.93-20,69S89.55,241.55,89,204.58l-1.2.11c.28,19.76,2.88,38,7.31,51.43,4.36,13.16,10,20.11,15.85,19.56s11.27-8.52,15.24-22.46c4-14.19,6.12-32.89,5.84-52.65"/></g></g><polygon class="cls-4" points="160.3 212.58 147.28 194.66 152.25 165.66 168.34 165.66 173.32 194.66 160.3 212.58"/><polygon class="cls-4" points="59.22 217.97 46.2 200.05 51.18 171.06 67.27 171.06 72.24 200.05 59.22 217.97"/><polygon class="cls-4" points="88.33 210.27 75.31 192.35 80.29 163.35 96.38 163.35 101.35 192.35 88.33 210.27"/><polygon class="cls-4" points="131.19 207.96 118.17 190.04 123.14 161.05 139.23 161.05 144.21 190.04 131.19 207.96"/><polygon class="cls-4" points="195.07 232.59 182.05 214.68 187.02 185.68 203.11 185.68 208.09 214.68 195.07 232.59"/><rect x="106.41" y="34.01" width="6.47" height="223.28" rx="3.23" ry="3.23"/><ellipse cx="109.65" cy="33.62" rx="25.87" ry="11.93"/></g></g></g></svg>