<svg xmlns="http://www.w3.org/2000/svg" width="1300" height="350" viewBox="0 0 1300 350"><defs><style>.cls-1{fill:#3d2e1c;}.cls-2,.cls-3{fill:#fff;}.cls-2{opacity:0.1;}</style></defs><title>Level compelte</title><g id="Layer_2" data-name="Layer 2"><g id="Layer_1" data-name="Layer 1"><path class="cls-1" d="M1204.84,55.13l-55.06,16.69c60.37-89.54-471.13-49.74-583.51-51.5-190.78-3-637.48-23.43-382.4,122.46C38.9,143-4.65,273.58,128,302.49,175.69,279.34,932.16,391,901.9,302c155.54,26.46,283.83,22.87,235.64-66.22C1255.54,238.9,1288.75,114.46,1204.84,55.13Z"/><path class="cls-2" d="M762.56,316c-101.45,0-244.64-12-371-22.52-97.69-8.17-182.07-15.22-230.7-15.22-9.43,0-19.38.21-29,1.11-37.18-13.51-46.6-43.25-35.64-68.25,9.53-21.77,38.25-47.22,87.8-47.31l93.11-.17-60.22-34.44c-51.06-29.2,53.17-44.31,64.32-56C303,50.43,324,38.68,387.11,38.68c45.62,0,91,.93,131,1.75,16.74.34,32.46.66,46.76.89,2.93,0,6.11.07,9.52.07,24.81,0,60.26-1.19,105.13-2.69,62.3-2.09,139.83-4.68,213-4.68,172.65,0,208.71,15.14,215.65,19.78,1.68,1.12,5.61,3.75.4,11.49l-37.12,55.05L1188.39,84.9c29.46,36.13,24.18,86.24-4.9,113-12.2,11.23-26.2,16.92-41.61,16.92h0l-2,0-59.36-1.56-110.27,26c16.22,30,132.1,43.85,125,48.31-10.34,6.5-33.69,7.87-51.45,7.87-32.67,0-76.79-4.57-127.58-13.21l-180-24.05,122.88,47.3c.54,1.59.2,2.24.2,2.24h0C859.28,307.67,845.82,316,762.56,316Z"/><path class="cls-3" d="M276.7,202.59h-50a7.88,7.88,0,0,0,4.9-2.19,6.85,6.85,0,0,0,2.08-3.83,53.34,53.34,0,0,0,.45-7.31c0-3.55-.11-6.2-.16-7.95V176.6q-.08-9-.33-20.1-.24-2.07-6.94-6.61l19.76.67q-3,4.16-3,5.1v21.11c0,.45.14.67.41.67a1.72,1.72,0,0,0,.61-.22,1.69,1.69,0,0,1,.7-.22c.21,0,.32.22.32.67v18.14a18.7,18.7,0,0,0,7.19,3.25,56.57,56.57,0,0,0,6,.17c4.13,0,7-.1,8.57-.28a19.9,19.9,0,0,0,9.47-3.31Z"/><path class="cls-3" d="M332.88,200.91a2.2,2.2,0,0,1-1.14,1.79,4.57,4.57,0,0,1-2.62.78H289V156.56q0-1.68-6.29-5.94,33.72,0,43.28.45c2.39.11,3.26.16,2.61.16a8.73,8.73,0,0,1-1.47,3c-1.14,1.87-1.79,3-2,3.3Q321.54,154,308.3,154q-5.71,0-8.24,1.29a5.53,5.53,0,0,0-2.94,5.32c0,.45,0,1.14.08,2.07s.08,1.62.08,2.07v5A3.56,3.56,0,0,0,301.2,173c.87,0,2.15,0,3.84-.14s3-.14,3.83-.14a85.81,85.81,0,0,1,11.35.79,7.17,7.17,0,0,1-1.39,2.91c-1.08,1.64-1.79,2.78-2.12,3.42a6.76,6.76,0,0,0-4.65-2.86c-.6-.11-2.72-.19-6.37-.22a24.3,24.3,0,0,1-4.65-.51c-1.09.64-1.64,1.36-1.64,2.19a148.28,148.28,0,0,0,1.31,18.25c.11.79.92,1.52,2.45,2.21a10.06,10.06,0,0,0,4.08,1q5,0,15.6-.9,1.79-.17,6.45-3.36Z"/><path class="cls-3" d="M410.2,150.62q-6,1.51-8.08,5.16-10.78,18.33-24.42,47.76a19.22,19.22,0,0,0-4.24-1.68,11.65,11.65,0,0,1-4.25-2,15.59,15.59,0,0,1-3.18-5.65,61.76,61.76,0,0,0-2.7-6.44q-1.87-3.25-5.87-12.21a84.36,84.36,0,0,0-6.78-12.88,48,48,0,0,0-11.76-12.15h17.31l7,16q3.76,8.57,5.8,14.67a14.82,14.82,0,0,1,.41,3.44,9.62,9.62,0,0,0,.65,3.61A34.55,34.55,0,0,0,374.6,195a24,24,0,0,0,2.21-2.64,72.74,72.74,0,0,0,4.65-10.48q1.07-3.19,4.16-11.44l3.19-7a16.24,16.24,0,0,0,1.71-6.56,9.26,9.26,0,0,0-2-5.66,110.85,110.85,0,0,1,14.54-.73C405.27,150.51,407.64,150.54,410.2,150.62Z"/><path class="cls-3" d="M466,200.91a2.2,2.2,0,0,1-1.14,1.79,4.57,4.57,0,0,1-2.62.78H422V156.56q0-1.68-6.29-5.94,33.72,0,43.28.45c2.39.11,3.26.16,2.61.16a8.73,8.73,0,0,1-1.47,3c-1.14,1.87-1.8,3-2,3.3Q454.63,154,441.39,154q-5.72,0-8.25,1.29a5.53,5.53,0,0,0-2.93,5.32c0,.45,0,1.14.08,2.07s.08,1.62.08,2.07v5a3.56,3.56,0,0,0,3.92,3.24c.87,0,2.15,0,3.84-.14s3-.14,3.83-.14a85.81,85.81,0,0,1,11.35.79,7.17,7.17,0,0,1-1.39,2.91c-1.09,1.64-1.79,2.78-2.12,3.42a6.78,6.78,0,0,0-4.65-2.86c-.6-.11-2.73-.19-6.37-.22a24.41,24.41,0,0,1-4.66-.51c-1.08.64-1.63,1.36-1.63,2.19a148.28,148.28,0,0,0,1.31,18.25c.11.79.92,1.52,2.45,2.21a10.06,10.06,0,0,0,4.08,1q5,0,15.59-.9,1.8-.17,6.46-3.36Z"/><path class="cls-3" d="M522,202.59H472a7.91,7.91,0,0,0,4.9-2.19,6.92,6.92,0,0,0,2.08-3.83,55,55,0,0,0,.45-7.31q-.09-5.32-.16-7.95V176.6q-.09-9-.33-20.1-.24-2.07-6.94-6.61l19.76.67c-2,2.77-3,4.47-3,5.1v21.11c0,.45.13.67.41.67a1.78,1.78,0,0,0,.61-.22,1.7,1.7,0,0,1,.69-.22c.22,0,.33.22.33.67v18.14a18.66,18.66,0,0,0,7.18,3.25,56.71,56.71,0,0,0,6,.17c4.14,0,7-.1,8.58-.28a19.94,19.94,0,0,0,9.47-3.31Z"/><path class="cls-3" d="M632.13,155.38a38.22,38.22,0,0,1-1.23,3.75,5.79,5.79,0,0,1-3.35,3,39.1,39.1,0,0,0-7.26-5.28,19.47,19.47,0,0,0-6.62-2.17q-.57-.1-6.2-.11-13.4,0-19.84,7.43a20.11,20.11,0,0,0-4.82,13.63,22.29,22.29,0,0,0,6.78,16q7.59,7.83,19.35,7.83a33.29,33.29,0,0,0,11.59-2.29q7.35-2.72,6.86-6.62a7.37,7.37,0,0,0,1.88.76,7.59,7.59,0,0,1,1.79.7v8.12q-3,1.45-10.12,2.52a73.06,73.06,0,0,1-10.94,1q-17.07,0-28.21-8t-11.15-19.71q0-11.09,10.58-18.34T608,150.34Q623.21,150.34,632.13,155.38Z"/><path class="cls-3" d="M711.73,179.12q0,11.31-9.59,18.2t-26,6.89q-16.49,0-26.78-8.12-9.79-7.72-9.8-19.15,0-12.09,10.13-19.88,10.61-8.12,28.09-8.12,1.05,0,16.73,2.18a4.26,4.26,0,0,1,3.19,1.63,4,4,0,0,1-.25,2,11.61,11.61,0,0,0-.4,2.07,1.61,1.61,0,0,0,.24.95,22,22,0,0,0,4.9,4.31,23.71,23.71,0,0,1,5,4.37,31.1,31.1,0,0,1,3.51,6.16A18.71,18.71,0,0,1,711.73,179.12Zm-11.51-2.18a23.83,23.83,0,0,0-.82-5.38,17.81,17.81,0,0,0-2.77-6.6,6.5,6.5,0,0,0-2.29-1.54,11.12,11.12,0,0,1-2.28-1.32,44.06,44.06,0,0,0-.66-5q-.74-.67-6.49-2.24a41.37,41.37,0,0,0-7.14-1.57q-12.42,0-20.17,8.07-6.54,6.83-6.53,14.56,0,7.5,5.39,15a22.48,22.48,0,0,0,19.18,9.8q13.32,0,19.76-8.46A24.41,24.41,0,0,0,700.22,176.94Z"/><path class="cls-3" d="M810.77,203.32q-4.78-.45-7.87-.45a78,78,0,0,0-8.35.6,100.56,100.56,0,0,0-2.76-12.37,74.83,74.83,0,0,1-2.41-11.31,6.56,6.56,0,0,1,.74-2.74,5.79,5.79,0,0,0,.65-2.91A15.07,15.07,0,0,0,789.3,170a33,33,0,0,1-2-4.76,8.53,8.53,0,0,0-5,3.2,21.42,21.42,0,0,0-2.49,4.67,20.52,20.52,0,0,1-2.57,4.74q-2,2.52-5.88,8.45c-3.38,5.19-5.44,8.33-6.21,9.41h-5q-7-9.91-21.8-29.74a5.82,5.82,0,0,0-1.79,3.92q-1.89,16.58-3.6,33.6l-7.51-3.81a17.27,17.27,0,0,0-7.67-2q6.45-3.93,7.69-10,.24-4.65.57-9.3,1.54-7.5,4.42-22.85,3.84-1.46,10.71-4.37L763.81,183q5.06-5.15,11.27-15.57l10.13-17h10.95q.9,7.17,4.25,24.08l4.49,22.91Q805.38,200,810.77,203.32Z"/><path class="cls-3" d="M866.13,165a13.68,13.68,0,0,1-1.63,7.16q-1.87,3.09-6.7,5.49a52.87,52.87,0,0,1-5.71,2.41,27,27,0,0,1-7.19.9,74.21,74.21,0,0,0-7.75.56c-2.56.44-4.11,1.4-4.66,2.85a26,26,0,0,0-1.63,9.19v9.91q-5.55-3.36-15.6-6.11a9.21,9.21,0,0,0,3.07-1.9,5.18,5.18,0,0,0,1.83-2.52q1.47-6.21,1.47-21.39c0-.75,0-1.86.08-3.33s.09-2.59.09-3.34q0-12.71-6.54-14.28h32.17q8.42,0,13.72,4.37A12.62,12.62,0,0,1,866.13,165Zm-7.43-.4q0-4.31-5.39-7.5a20.57,20.57,0,0,0-17.31-2,30.07,30.07,0,0,0-5.55,2.07v19.38h14.86q3.91,0,8.74-4.65C857.15,168.91,858.7,166.47,858.7,164.56Z"/><path class="cls-3" d="M921.82,202.59h-50a7.91,7.91,0,0,0,4.9-2.19,7,7,0,0,0,2.08-3.83,56.86,56.86,0,0,0,.45-7.31c-.06-3.55-.11-6.2-.17-7.95V176.6q-.08-9-.32-20.1-.24-2.07-6.94-6.61l19.76.67c-2,2.77-3,4.47-3,5.1v21.11c0,.45.13.67.4.67a1.74,1.74,0,0,0,.62-.22,1.7,1.7,0,0,1,.69-.22c.22,0,.33.22.33.67v18.14a18.6,18.6,0,0,0,7.18,3.25,56.71,56.71,0,0,0,6,.17c4.14,0,7-.1,8.58-.28a19.94,19.94,0,0,0,9.47-3.31Z"/><path class="cls-3" d="M978,200.91a2.2,2.2,0,0,1-1.14,1.79,4.51,4.51,0,0,1-2.61.78H934.06V156.56q0-1.68-6.28-5.94,33.72,0,43.27.45c2.4.11,3.27.16,2.62.16a8.94,8.94,0,0,1-1.47,3c-1.15,1.87-1.8,3-2,3.3q-3.6-3.59-16.82-3.58c-3.82,0-6.56.43-8.25,1.29a5.53,5.53,0,0,0-2.94,5.32c0,.45,0,1.14.08,2.07s.08,1.62.08,2.07v5a3.56,3.56,0,0,0,3.92,3.24c.87,0,2.15,0,3.84-.14s3-.14,3.84-.14a86,86,0,0,1,11.35.79,7.32,7.32,0,0,1-1.39,2.91,40,40,0,0,0-2.12,3.42,6.8,6.8,0,0,0-4.66-2.86c-.6-.11-2.72-.19-6.37-.22a24.3,24.3,0,0,1-4.65-.51c-1.09.64-1.63,1.36-1.63,2.19a148.08,148.08,0,0,0,1.3,18.25c.11.79.93,1.52,2.45,2.21a10.1,10.1,0,0,0,4.08,1q5,0,15.6-.9,1.8-.17,6.45-3.36Z"/><path class="cls-3" d="M1051.8,151.18q-2.37,5-2.2,7.11a8.7,8.7,0,0,1-2.53-.17,13.37,13.37,0,0,0-5.47-3,34.8,34.8,0,0,0-6.13-.34,24.43,24.43,0,0,0-10.12,2v21.84c-2,1.35-3.48,2.3-4.41,2.86v23.46q-5.48-2.74-7.35-3.58a34.48,34.48,0,0,0-7.26-2.46q7.42-4.26,7.42-12.55V158.91a38,38,0,0,0-6.53-3.31,27.32,27.32,0,0,0-7.84-.84,30.44,30.44,0,0,0-6.85.51,10.26,10.26,0,0,0-4.82,3.13c-1.09-1.27-2.29-3.67-3.59-7.22Z"/><path class="cls-3" d="M1107.49,200.91a2.2,2.2,0,0,1-1.14,1.79,4.57,4.57,0,0,1-2.62.78h-40.17V156.56q0-1.68-6.29-5.94,33.72,0,43.28.45c2.39.11,3.26.16,2.61.16a8.73,8.73,0,0,1-1.47,3c-1.14,1.87-1.8,3-2,3.3q-3.59-3.59-16.82-3.58-5.72,0-8.24,1.29a5.53,5.53,0,0,0-2.94,5.32c0,.45,0,1.14.08,2.07s.08,1.62.08,2.07v5a3.56,3.56,0,0,0,3.92,3.24c.87,0,2.15,0,3.84-.14s3-.14,3.83-.14a85.81,85.81,0,0,1,11.35.79,7.17,7.17,0,0,1-1.39,2.91c-1.08,1.64-1.79,2.78-2.12,3.42a6.76,6.76,0,0,0-4.65-2.86c-.6-.11-2.72-.19-6.37-.22a24.41,24.41,0,0,1-4.66-.51c-1.08.64-1.63,1.36-1.63,2.19a148.28,148.28,0,0,0,1.31,18.25c.11.79.92,1.52,2.45,2.21a10.06,10.06,0,0,0,4.08,1q5,0,15.6-.9,1.79-.17,6.45-3.36Z"/></g></g></svg>