<svg xmlns="http://www.w3.org/2000/svg" width="100" height="100" viewBox="0 0 100 100"><defs><style>.cls-1{fill:#720318;}.cls-2{fill:#bc0c26;}.cls-3,.cls-4{fill:none;}.cls-3{stroke:#3f0411;stroke-linecap:round;}.cls-3,.cls-4,.cls-8{stroke-miterlimit:10;stroke-width:2px;}.cls-4,.cls-8{stroke:#000;}.cls-5{fill:#000005;}.cls-6{fill:#646466;}.cls-7{fill:#fff;}</style></defs><title>liv scene</title><g id="Layer_2" data-name="Layer 2"><ellipse class="cls-1" cx="50.97" cy="77.26" rx="13.39" ry="16.07"/><path class="cls-2" d="M50.24,6.67s-11.68,1-14.6,8.76C35.64,15.43,10.32-6,4,31c0,0-2.43,11.2,9.25,9.25a12,12,0,0,0,6.33-2.43s-20,32.62-1,48.2c0,0,17.53,17,22.39-14.12,0,0,4.87-10.71,9.25-8.77"/><path class="cls-3" d="M50.24,82.62s-5.84,0-10-6.8"/><path class="cls-1" d="M30.28,24.68S23,30.61,19.09,38.32"/><line class="cls-4" x1="38.56" y1="20.3" x2="47.32" y2="28.09"/><path class="cls-1" d="M32.23,60.22s9.25-17.52,18-15.58"/><path class="cls-5" d="M49.27,59.25a5.84,5.84,0,0,1,0-11.68"/><path class="cls-2" d="M49.76,6.67s11.68,1,14.6,8.76C64.36,15.43,89.68-6,96,31c0,0,2.43,11.2-9.25,9.25a12,12,0,0,1-6.33-2.43s20,32.62,1,48.2c0,0-17.53,17-22.39-14.12,0,0-4.87-10.71-9.25-8.77"/><path class="cls-3" d="M50.24,82.62s5.85,0,10-6.8"/><path class="cls-1" d="M70.2,24.68A46.32,46.32,0,0,1,80.43,37.83"/><line class="cls-4" x1="61.93" y1="20.3" x2="53.16" y2="28.09"/><path class="cls-1" d="M67.77,60.22s-9.25-17.52-18-15.58"/><circle class="cls-6" cx="64.85" cy="39.78" r="8.28"/><path d="M48.78,59.25a5.84,5.84,0,0,0,0-11.68"/><path class="cls-7" d="M61.93,39.29a4.51,4.51,0,0,1,4.62-4.38c2.56,0,6.09,2.45,6.09,4.87"/><ellipse class="cls-8" cx="64.12" cy="42.21" rx="3.16" ry="4.38"/><path class="cls-7" d="M62.41,41.24a2,2,0,0,1,3.9,0"/><circle class="cls-7" cx="63.14" cy="43.43" r="0.73"/><circle class="cls-6" cx="37.59" cy="39.29" r="8.28"/><path class="cls-7" d="M40.51,38.8a4.51,4.51,0,0,0-4.63-4.38c-2.55,0-6.08,2.45-6.08,4.87"/><ellipse class="cls-8" cx="38.32" cy="41.72" rx="3.16" ry="4.38"/><path class="cls-7" d="M40,40.75a1.95,1.95,0,1,0-3.89,0"/><circle class="cls-7" cx="39.29" cy="42.94" r="0.73"/></g></svg>