<svg xmlns="http://www.w3.org/2000/svg" width="950" height="400" viewBox="0 0 950 400"><defs><style>.cls-1{fill:#3d2e1c;}.cls-2,.cls-3{fill:#fff;}.cls-2{opacity:0.1;}</style></defs><title>meow titelskærm</title><g id="Layer_2" data-name="Layer 2"><g id="Layer_1" data-name="Layer 1"><path class="cls-1" d="M903.09,107.51,860.6,120.38C907.19,51.3,497.08,82,410.36,80.64,263.16,78.33-81.52,62.57,115.3,175.13,3.44,175.34-30.16,276.06,72.18,298.37,109,280.51,692.69,366.68,669.34,298c120,20.42,219,17.65,181.82-51.1C942.21,249.31,967.84,153.29,903.09,107.51Z"/><path class="cls-2" d="M561.82,308.78c-78.28,0-188.76-9.23-286.24-17.38-75.38-6.3-140.48-11.74-178-11.74-7.28,0-15,.16-22.39.86-28.69-10.43-36-33.38-27.5-52.67,7.35-16.79,29.51-36.43,67.75-36.5l71.84-.13L140.8,164.65c-39.39-22.54,41-34.2,49.64-43.21,16.77-17.56,33-26.62,81.68-26.62,35.2,0,70.2.71,101.08,1.34,12.92.27,25.05.52,36.08.69,2.27,0,4.72.05,7.35.05,19.15,0,46.5-.91,81.12-2.07,48.07-1.61,107.9-3.62,164.37-3.62,133.22,0,161,11.69,166.39,15.27,1.3.87,4.34,2.9.31,8.86l-28.64,42.48,90.22-27.34c22.73,27.87,18.65,66.54-3.79,87.2-9.41,8.66-20.21,13-32.1,13h0c-.5,0-1,0-1.52,0l-45.8-1.21-85.09,20.05c12.52,23.13,101.93,33.83,96.46,37.27-8,5-26,6.07-39.7,6.07-25.22,0-59.26-3.52-98.44-10.19L541.53,264.14l94.82,36.5a2.45,2.45,0,0,1,.15,1.73h0S626.07,308.78,561.82,308.78Z"/><path class="cls-3" d="M327.11,276.81q-11.73-1.1-19.27-1.1a189.58,189.58,0,0,0-20.46,1.49q-1-8.91-6.75-30.29-5.08-18.78-5.9-27.69-.19-2.06,1.8-6.72c1.33-3.11,1.87-5.48,1.6-7.13q-.4-3.42-3.6-10.15a80.81,80.81,0,0,1-4.8-11.65,20.76,20.76,0,0,0-12.19,7.82q-2.81,3.57-6.1,11.45t-6.3,11.58q-5,6.18-14.39,20.71-12.41,19.05-15.19,23h-12.2Q186.17,233.89,150,185.35a14.17,14.17,0,0,0-4.4,9.6q-4.6,40.59-8.8,82.27l-18.39-9.33A42.38,42.38,0,0,0,99.6,263q15.83-9.6,18.83-24.55.6-11.39,1.4-22.77,3.81-18.37,10.82-56,9.4-3.57,26.24-10.7l55.22,78.07q12.39-12.62,27.6-38.12l24.8-41.56h26.81q2.21,17.56,10.4,59l11,56.08Q313.92,268.59,327.11,276.81Z"/><path class="cls-3" d="M461.05,270.91q0,2.47-2.8,4.39a11,11,0,0,1-6.39,1.92H353.5V162.32q0-4.11-15.4-14.54,82.57,0,106,1.1c5.86.28,8,.41,6.4.41q0,1.65-3.6,7.41-4.2,6.86-4.8,8.09Q433.26,156,400.88,156q-14,0-20.19,3.16-7.2,3.83-7.2,13c0,1.1.06,2.79.2,5.07s.2,4,.2,5.08v12.2q1.39,8,9.59,8c2.13,0,5.27-.11,9.4-.34s7.26-.34,9.4-.34a213.45,213.45,0,0,1,27.79,1.92c0,1.28-1.14,3.65-3.4,7.13q-4,6-5.2,8.36-3.8-5.62-11.4-7-2.19-.42-15.59-.55a59.29,59.29,0,0,1-11.39-1.23q-4,2.33-4,5.34a360.94,360.94,0,0,0,3.2,44.7q.39,2.88,6,5.42a24.68,24.68,0,0,0,10,2.53q12.2,0,38.18-2.19,4.4-.4,15.8-8.23Z"/><path class="cls-3" d="M652.57,217.58q0,27.69-23.49,44.56T565.41,279q-40.38,0-65.57-19.88-24-18.92-24-46.89,0-29.62,24.79-48.68,26-19.87,68.77-19.88,2.6,0,41,5.35c2.8,0,5.4,1.33,7.8,4q.39,1.24-.6,4.8a28.76,28.76,0,0,0-1,5.08,3.92,3.92,0,0,0,.6,2.33q2.79,4,12,10.56t12.2,10.69A76.75,76.75,0,0,1,650,201.53,46,46,0,0,1,652.57,217.58Zm-28.19-5.35a59.07,59.07,0,0,0-2-13.17q-2.61-10.69-6.8-16.17c-.94-1.19-2.8-2.45-5.6-3.77a26.59,26.59,0,0,1-5.6-3.23,103.67,103.67,0,0,0-1.6-12.34q-1.8-1.63-15.89-5.48t-17.49-3.84Q539,154.23,520,174q-16,16.74-16,35.65,0,18.38,13.2,36.61,17.38,24,47,24,32.58,0,48.38-20.71Q624.38,234,624.38,212.23Z"/><path class="cls-3" d="M912.86,151.35q-14,4.25-17.19,9.19-12.79,20-28,59.09-19.39,49.77-24,59.37-1.8-.83-15-4.11-10.4-2.61-13.8-6.72-7.8-9.46-13.79-28.52-7.2-22.62-11-30-11.6,14.43-37.18,69.38H731.14q-24.79-71.64-39.38-106.37-2.61-6.18-11-12.91-2.6-2.06-13.19-10.29,42.39-.27,44.59,1.23a8.85,8.85,0,0,1,2.4-.41,3,3,0,0,1,2.4,1q6,17.14,14.2,48.81,10,38.67,14,51.42c.66.19,1.46-.27,2.4-1.37q13-22.75,39.39-73.22,5.81,0,18.6,5.35,7.8,21.12,27.8,69.11a40.23,40.23,0,0,0,10.39-16.58q3.42-9.33,12.44-33.87,6.71-18.78,6.71-31.82a42.71,42.71,0,0,0-3-16.18q11-1.79,33.58-1.78Q902.28,151.08,912.86,151.35Z"/></g></g></svg>