<svg xmlns="http://www.w3.org/2000/svg" width="150" height="150" viewBox="0 0 150 150"><defs><style>.cls-1{fill:#e85646;}.cls-2{fill:#fff;}.cls-3{fill:none;stroke:#fff;stroke-linecap:round;stroke-miterlimit:10;stroke-width:9px;}</style></defs><title>minus point</title><g id="Layer_2" data-name="Layer 2"><path class="cls-1" d="M142.39,75c-27.81,5-28.93,9.72-5.34,23.88C109.71,92.73,107.3,96.12,125,116c-22.4-15.13-24.36-13.52-10,8.19-19.28-18.44-22.3-16.91-15.35,7.72C85,110,80.12,110.89,75,136.11c-5.64-25.22-11-26.29-27-5.1,6-25.17,1.36-28.2-23-15,17.92-19.63,15.66-22.74-11.37-15.69C37.81,87.55,36.91,85.13,9.13,88c26.6-7.8,26.29-10.34-1.52-13,27.81-6.25,29.57-12.13,8.28-29.37,26.79,8.16,30,4.66,16-17.59,20.7,17.19,24,15.36,16.47-9.19,15.8,21.3,21.09,20.26,26.65-5,5,25.22,9.7,26.05,24,4-5.51,25.08-1.51,27.28,20.17,11C106,51.89,110,57.06,138.49,54.47,113.77,66.71,114.58,70.77,142.39,75Z"/><rect class="cls-2" x="36.52" y="70.5" width="33" height="8" rx="1.74" ry="1.74"/><rect class="cls-2" x="74.52" y="57.5" width="28" height="8" rx="1.74" ry="1.74"/><rect class="cls-2" x="78.51" y="63.25" width="23.3" height="8.43" rx="1.74" ry="1.74" transform="translate(-21.89 56.22) rotate(-31.08)"/><path class="cls-3" d="M82.2,72.75c12.59-1.45,16.57,5.86,10.73,13.08-4.73,5.29-15.81,5.64-26.3,3.33"/></g></svg>