<svg xmlns="http://www.w3.org/2000/svg" xmlns:xlink="http://www.w3.org/1999/xlink" width="970" height="740" viewBox="0 0 970 740"><defs><style>.cls-1{fill:none;}.cls-2{isolation:isolate;}.cls-3{clip-path:url(#clip-path);}.cls-4{fill:#663100;}.cls-5{fill:#fff;opacity:0.1;}.cls-6{fill:#76461a;}.cls-7{fill:#3d2e1c;}.cls-8{fill:#514333;}.cls-9{fill:#635648;}</style><clipPath id="clip-path"><polygon class="cls-1" points="21.72 730.5 22.27 10.34 947.68 9.5 947.12 729.66 21.72 730.5"/></clipPath></defs><title>mursten til scene</title><g id="Layer_2" data-name="Layer 2"><g id="Layer_1" data-name="Layer 1"><g class="cls-2"><g class="cls-3"><path class="cls-4" d="M806,369.54c-15.6,6.43-19.58,26.28-20.65,46.37.06,4.21-.09,8.54-.36,12.69l0,2.19-.21.87a137.41,137.41,0,0,1-2.45,17.4,95.17,95.17,0,0,0,1.11,19.15,23.37,23.37,0,0,1,11.38,6.84Q793,480,789.67,480a6.27,6.27,0,0,1-.74-.05c7.77,6.15,18,7.95,29,7.94A211.85,211.85,0,0,0,841.6,486c7.84-.9,15.44-1.81,22.17-1.81,2.08,0,4.07.08,6,.27A179.69,179.69,0,0,0,888.88,486c8.82,0,17.69-1.47,22.65-7a74.26,74.26,0,0,1-10.77.71A190.78,190.78,0,0,1,878.6,478c-1.52-.17-2.88-.33-4.07-.45a60,60,0,0,0-6.39-.3A197.82,197.82,0,0,0,846.35,479a220.55,220.55,0,0,1-24.05,1.88,55.87,55.87,0,0,1-17.64-2.4l1.78-4.79-3.84-4a29.59,29.59,0,0,0-9.88-7,80.44,80.44,0,0,1,2-28.32l.3-1.22v-1.31c.23-28.82,2.92-46.92,15.78-53.18a108.81,108.81,0,0,0,24.51,2.49c8.5,0,17.11-.71,25.42-1.39,8-.64,16.36-1.32,24.3-1.32a93.5,93.5,0,0,1,22,2.28c14.43,3.48,30.1,24.15,31.06,41,.49,8.63-3.31,14.79-11.63,18.82l-50.23-9.77,33.89,15.45c-.31-.72-.64-1.45-1-2.19a81.83,81.83,0,0,0,19,2.65c46.6,0-.57-68.5-24.51-74.71l-.14,0c-8.43,1.75-21.49,2.66-35.91,2.67a343.3,343.3,0,0,1-42-2.46A94,94,0,0,1,806,369.54"/><path class="cls-5" d="M910.15,446.18c7.47,17.12,6.5,27.1,1.38,32.78,11.78-1.73,14.94-6.2,15.78-8.37,1.39-3.58.07-10.08-3.72-18.29l-13.44-6.12"/><path class="cls-6" d="M849.43,398.81a250.38,250.38,0,0,1-26.84-1.43,250.95,250.95,0,0,1,53.69,0,249.88,249.88,0,0,1-26.85,1.47M885,378.44c-7.94,0-16.26.68-24.3,1.32-8.31.68-16.92,1.38-25.42,1.39a108.81,108.81,0,0,1-24.51-2.49C798,384.92,795.26,403,795,431.84v1.31l-.3,1.22a80.44,80.44,0,0,0-2,28.32,29.59,29.59,0,0,1,9.88,7l3.84,4-1.78,4.79a55.87,55.87,0,0,0,17.64,2.4A220.55,220.55,0,0,0,846.35,479a197.82,197.82,0,0,1,21.79-1.75,60,60,0,0,1,6.39.3c1.19.12,2.55.28,4.07.45a190.78,190.78,0,0,0,22.16,1.64,74.26,74.26,0,0,0,10.77-.71c5.12-5.68,6.09-15.66-1.38-32.78l-33.89-15.45,50.23,9.77c8.32-4,12.12-10.19,11.63-18.82-1-16.81-16.63-37.48-31.06-41a93.5,93.5,0,0,0-22-2.28"/><path class="cls-4" d="M556.73,595.59a5.17,5.17,0,0,1-1-.09c-9.68-1.71-18.82-3.32-27.28-3.41-20.55-.23-36.73-1.31-42.54-12.62-4.27-8.32-3.76-24.09,1.52-46.9,7-30.41,19.89-36.65,37-36.67,6.71,0,22,37.73,29.69,38.77a2.88,2.88,0,0,0,.41,0c8.21,0,9.2-34.42,18.22-34.43.76,0,1.51,0,2.27,0,2.66-.06,5-.09,7.22-.09,17.42,0,29.41,1.68,35.39,10.19,5.55,7.89,7.63,23.38,7.35,55.1-5.16,23.57-16.94,33.65-39.19,33.67l-4.58-28.79c-9.27,0-15.06,25.27-24.56,25.28M524.52,488c-19,0-34.41,7.54-42.41,42.15-.16.71-.32,1.4-.47,2.08-.22,11.28-2.37,22.72-2.49,34.56q-.58,2.82-1.24,5.4c3.36,26.11,23.75,27.55,50.54,27.84,17,.19,38.39,7,57.41,7s35.92-7,43.48-34.72a111.09,111.09,0,0,1,.74-35.17c-2.65-38.1-14.12-45-47.78-44.93-2.32,0-4.74,0-7.28.09l-2.23,0a186.35,186.35,0,0,1-25.07-2.17l-1.55-.21c-6.21-.56-12.15-1.22-17.51-1.86-1.4-.07-2.78-.11-4.14-.11"/><path class="cls-6" d="M524.51,495.9c-17.14,0-30,6.26-37,36.67-5.28,22.81-5.79,38.58-1.52,46.9,5.81,11.31,22,12.39,42.54,12.62,8.46.09,17.6,1.7,27.28,3.41a5.17,5.17,0,0,0,1,.09c9.5,0,15.29-25.27,24.56-25.28l4.58,28.79c22.25,0,34-10.1,39.19-33.67.28-31.72-1.8-47.21-7.35-55.1-6-8.51-18-10.21-35.39-10.19-2.2,0-4.56,0-7.22.09-.76,0-1.51,0-2.27,0-9,0-10,34.43-18.22,34.43a2.88,2.88,0,0,1-.41,0c-7.7-1-23-38.77-29.69-38.77"/><path class="cls-4" d="M395.6,383.09c6.59,0,13.95-1.07,21.74-2.2,8-1.14,16.19-2.32,23.62-2.33,6.29,0-1.88,42.73,2,44.46a21,21,0,0,0,8.74,1.9,28.73,28.73,0,0,0,11.46-2.78c3.23-1.38,5.82-2.77,7.69-2.77,2.63,0,3.84,2.72,3.39,12-.27,5.38-.54,10.91-.63,16.74-5.74,26.66-15.54,32.07-29.43,32.08a128.22,128.22,0,0,1-17.55-1.75c-3.59-.52-7.31-1-11.11-1.45a67.68,67.68,0,0,0-7.11-.33,216.76,216.76,0,0,0-21.74,1.57,230.37,230.37,0,0,1-23.45,1.67c-7.35,0-13.31-.77-18.2-2.41l2.11-3.31-6.19-12.7-6.88,3.64c-1-7.4-1.36-19.58-.14-35.18,1.59-20.54,5-35.72,7.64-40.1,4.46-7.54,10.58-10.91,19.83-10.92,5.17,0,10.62,1,16.4,2A116.7,116.7,0,0,0,393.12,383c.79,0,1.63.06,2.48.06M441,370.64c-7.47,0-15.55,1.13-23.39,2.26s-15.43,2.25-21.94,2.26c-.79,0-1.56,0-2.32-.05-6.42-.29-13.19-1.8-19.87-2.91-5-.2-9.94-.55-14.52-1.12-8.3.53-15.88,3.86-21.72,13.73-2.66,4.5-5,13.85-6.71,25a67.71,67.71,0,0,1-1.92,21.51c-.27,4.45-.6,8.61-1,12.51-.31,13.46.56,25.5,3,31.62l12.34-6.52-7.7,12.1c7.6,5.29,17.44,6.85,28,6.84a229.28,229.28,0,0,0,23.21-1.63c7.72-.81,15.25-1.62,22-1.63a62.19,62.19,0,0,1,6.68.32c10.37,1.08,20.23,3.22,29.08,3.21,15.56,0,28-6.65,34.75-37.23-1.32-10.62-.59-22.78,1.51-35.21,0-18.76-3.45-33.61-22.65-42.14-4.87-2.16-10.63-2.92-16.81-2.91"/><path class="cls-6" d="M441,378.56c-7.43,0-15.66,1.19-23.62,2.33-7.79,1.13-15.15,2.19-21.74,2.2-.85,0-1.69,0-2.48-.06A116.7,116.7,0,0,1,377.78,381c-5.78-1-11.23-2-16.4-2-9.25,0-15.37,3.38-19.83,10.92-2.59,4.38-6.05,19.56-7.64,40.1-1.22,15.6-.88,27.78.14,35.18l6.88-3.64,6.19,12.7L345,477.51c4.89,1.64,10.85,2.42,18.2,2.41a230.37,230.37,0,0,0,23.45-1.67,216.76,216.76,0,0,1,21.74-1.57,67.68,67.68,0,0,1,7.11.33c3.8.41,7.52.93,11.11,1.45a128.22,128.22,0,0,0,17.55,1.75c13.89,0,23.69-5.42,29.43-32.08.09-5.83.36-11.36.63-16.74.45-9.3-.76-12-3.39-12-1.87,0-4.46,1.39-7.69,2.77a28.73,28.73,0,0,1-11.46,2.78A21,21,0,0,1,443,423c-3.87-1.73,4.3-44.47-2-44.46"/><path class="cls-4" d="M219.82,511.61l-17-16.41a70.32,70.32,0,0,1,18.13-2c12.77,0,27.32,1.93,40.15,3.65,9.61,1.29,17.9,2.4,24.33,2.59,18.58.55,17,18.31,21.21,27.49,4.44,9.62,15.54,13.27,15.29,38.74-5.8,26.83-16.28,32.38-30.19,32.39-6,0-12.63-1.08-19.6-2.22-5.17-.86-10.51-1.74-15.94-2.22-.89-.08-2-.12-3.27-.11-3.45,0-8.18.26-13.66.58-7.27.41-15.51.88-23.36.89-14.44,0-20.36-1.66-22.72-2.8L210,577.78,185.45,584a7.24,7.24,0,0,1-3,.89l-.33,0c-.19-.53-.74-2.46-.56-7.68.17-5,.91-10.95,1.57-16.21.54-4.25,1-8.26,1.22-11.57.21-3.77.37-7.22.52-10.56.53-11.26.95-20.15,2.6-24.66.62-1.69,1.66-4.51,8.83-4.51,1,0,2,.05,3.13.15l20.39,1.82m1.17-26.3-2.35,0a105.67,105.67,0,0,1-14,1.42c-5.67,1.19-10.46,3.19-13.89,6.32q4.55,4.41,9.1,8.81c-1.24-.11-2.4-.17-3.49-.17-17.35,0-15.78,14.37-17.59,47.07-.73,13.24-7.88,44,3.71,44a11.32,11.32,0,0,0,4.83-1.32C184.17,600.85,199,603,215.94,603c7,0,14.26-.38,20.8-.74s12.34-.73,16.23-.74c1.14,0,2.11,0,2.9.1,12.55,1.11,24.9,4.47,35.89,4.46,15.57,0,28.41-6.79,35.22-36.31.13-2.62.36-5.41.67-8.3.39-51.31-2.12-68.69-42.06-69.86-14.89-.44-42.19-6.27-64.6-6.25"/><path class="cls-6" d="M249.44,532.47c-24.35,0-44.08-1.55-44.08-1.55s19.74-1.6,44.09-1.62,44.07,1.54,44.07,1.54-19.73,1.61-44.08,1.63M221,493.24a70.32,70.32,0,0,0-18.13,2l17,16.41-20.39-1.82c-1.12-.1-2.17-.15-3.13-.15-7.17,0-8.21,2.82-8.83,4.51-1.65,4.51-2.07,13.4-2.6,24.66-.15,3.34-.31,6.79-.52,10.56-.18,3.31-.68,7.32-1.22,11.57-.66,5.26-1.4,11.22-1.57,16.21-.18,5.22.37,7.15.56,7.68l.33,0a7.24,7.24,0,0,0,3-.89L210,577.78l-16.78,14.44c2.36,1.14,8.28,2.81,22.72,2.8,7.85,0,16.09-.48,23.36-.89,5.48-.32,10.21-.58,13.66-.58,1.31,0,2.38,0,3.27.11,5.43.48,10.77,1.36,15.94,2.22,7,1.14,13.56,2.23,19.6,2.22,13.91,0,24.39-5.56,30.19-32.39.25-25.47-10.85-29.12-15.29-38.74-4.22-9.18-2.63-26.94-21.21-27.49-6.43-.19-14.72-1.3-24.33-2.59-12.83-1.72-27.38-3.67-40.15-3.65"/><path class="cls-4" d="M48.59,304.53q1.08,0,2.25-.06l14.85-11.59L54,279.54a93.68,93.68,0,0,0-11.42-11c7.16-4.59,23.44-9.47,55-9.5,19.87,0,39.27,2,47.44,4,20,4.74,28.73,31.08,28.4,53.54-.3,19.72-9.48,18.63-29.38,22.72h-.28c-5.61,0-10.4,24.17-18,24.18-7.8,0-16,.42-24,.81s-16.41.81-24.38.82c-11.75,0-21.25-.92-29.07-2.87l13-18.45L44.6,329.05c-5,1.09-8.73,20.58-11.18,21.41A134.24,134.24,0,0,0,30.3,335c-3.4-13.11-3.48-23.18-.21-30a3.54,3.54,0,0,1,3.62-2.15,42.3,42.3,0,0,1,5.89.83,51.52,51.52,0,0,0,9,.83m21.29-51.88c-18.71,2.33-34.1,7.57-37.11,17.7A83.47,83.47,0,0,1,50.42,285.7c-21.06,1.05-34.63,16.52-25.43,52,4.41,17,2.54,21.75,5.22,21.74,1.81,0,5.7-2.17,15-4.2l-8,11.34c11.5,5.09,25.45,6.4,40.12,6.39,8,0,16.23-.41,24.39-.81s16.28-.81,24-.81a134.5,134.5,0,0,1,20.11,1.26C160.31,370,170,358,175,342.57c-1.58-12.93-.27-28.68,2.8-43.39-3.54-21.24-14.22-39.83-31.8-44A160.21,160.21,0,0,0,123,254c-3.69,0-7.51.05-11.4.1s-7.81.09-11.78.09a233.68,233.68,0,0,1-29.94-1.51"/><path class="cls-6" d="M97.6,259c-31.59,0-47.87,4.91-55,9.5a93.68,93.68,0,0,1,11.42,11l11.7,13.34L50.84,304.47q-1.17.06-2.25.06a51.52,51.52,0,0,1-9-.83,42.3,42.3,0,0,0-5.89-.83A3.54,3.54,0,0,0,30.09,305c-3.27,6.78-3.19,16.85.21,30a134.24,134.24,0,0,1,3.12,15.48c2.45-.83,6.18-20.32,11.18-21.41l16.71,14.69-13,18.45c7.82,1.95,17.32,2.88,29.07,2.87,8,0,16.31-.42,24.38-.82s16.22-.81,24-.81c7.62,0,12.41-24.18,18-24.18h.28c19.9-4.09,29.08-3,29.38-22.72.33-22.46-8.41-48.8-28.4-53.54-8.17-1.95-27.57-4-47.44-4"/><path class="cls-4" d="M369,299.85a1.44,1.44,0,0,0,1.17-.42c2.88-3.48-16.39-34.59-5.38-36.58a342.32,342.32,0,0,1,53.71-4.59c11.93,0,40.58,1,49.16,10.64,15.18,17,12.78,38.18,10,49.26a73.92,73.92,0,0,1-16.36,31.27c-1.56,1.72-3.84,2.4-6.56,2.41-10.64,0-27.91-10.45-34.3-10.44l16.07,21.13c-3.5,0-8.74.3-15.38.67-10.23.57-23,1.28-35.82,1.29-13.94,0-24.8-.79-33.21-2.46-13.17-2.62-15.85-6.61-16.25-7.39-2.17-4.16-3.28-14.16-3-26.73s1.91-24.3,3.25-30.08c1-4.49,3.94-6.05,7.63-6.06,4.22,0,9.48,2,14.2,4.05s8.93,4,11,4m47.21-49.5A345.32,345.32,0,0,0,364.05,255c-25,4.52-25,4.54-33.32,40.41-.19.86-.39,1.8-.59,2.81a137.08,137.08,0,0,1-2.86,40.11c.35,8.62,1.53,16.33,4,21,3.47,6.63,14.2,10.09,27.66,11.74,4.58.57,9.48.92,14.52,1.12,3.89.16,7.87.22,11.84.22,10.63,0,21.26-.5,30.32-1s16.64-1,21-1H437c19.92,0,40.08-23.81,46.4-51.28-.22-6.88-.5-14.8-1.06-23.91a70.22,70.22,0,0,1,1.53-7.74,55.21,55.21,0,0,0-12.65-24.81c-3.83-4.3-10.39-7.25-18.46-9.18a37.43,37.43,0,0,1-8.88,1c-9.06,0-18.67-2.51-27.65-4.17"/><path class="cls-6" d="M418.47,258.26a342.32,342.32,0,0,0-53.71,4.59c-11,2,8.26,33.1,5.38,36.58a1.44,1.44,0,0,1-1.17.42c-2.1,0-6.3-2-11-4s-10-4.05-14.2-4.05c-3.69,0-6.59,1.57-7.63,6.06-1.34,5.78-2.92,17.66-3.25,30.08s.79,22.57,3,26.73c.4.78,3.08,4.77,16.25,7.39,8.41,1.67,19.27,2.47,33.21,2.46,12.85,0,25.59-.72,35.82-1.29,6.64-.37,11.88-.66,15.38-.67L420.41,341.4c6.39,0,23.66,10.45,34.3,10.44,2.72,0,5-.69,6.56-2.41a73.92,73.92,0,0,0,16.36-31.27c2.78-11.08,5.18-32.22-10-49.26-8.58-9.63-37.23-10.65-49.16-10.64"/><path class="cls-4" d="M789.16,113.07a62.63,62.63,0,0,1-1-14.91c2.31-11.28,3.72-21.33,5-30.23,2.12-15.21,3.66-26.2,8.18-33.49,4.77-7.7,13.52-11.92,28.35-13.69a232.19,232.19,0,0,1,27-1.7c29,0,47.85,6.93,51.8,19.08l2.85,8.78,5.59-5.64c2.29-2.32,4.4-3.6,5.91-3.6,3.34,0,5.29,8,6,11.51,4.61,23.39-.95,66.05-12.76,76a.76.76,0,0,1-.48.17c-5.09,0-28.11-42.79-54.71-42.76-26.1,0-42.66,42.48-56.77,42.49a6.74,6.74,0,0,1-1.78-.23l5.16-5.29L802,105.83l-12.88,7.24M856.71,11.12a240.54,240.54,0,0,0-27.48,1.74c-34,4-37.06,21-41.35,51.65a77,77,0,0,1-5.38,34.8,71.81,71.81,0,0,0,3.32,24.17l18.31-10.29L789.7,128c4.31,3.18,14.78,6,28,8.08,1.45.05,2.94.07,4.48.07,7.22,0,15.41-.54,24-1.07S863.91,134,872.82,134c11.11,0,22,.8,31.57,3.45,6.63-1.28,11.74-3.07,14.56-5.46,20.69-17.45,23.43-102.25,3.89-102.24-2.65,0-5.72,1.57-9.21,5.09-6.28-19.33-33.31-23.73-56.92-23.71"/><path class="cls-6" d="M856.69,19.05a232.19,232.19,0,0,0-27,1.7c-14.83,1.77-23.58,6-28.35,13.69-4.52,7.29-6.06,18.28-8.18,33.49-1.24,8.9-2.65,18.95-5,30.23a62.63,62.63,0,0,0,1,14.91L802,105.83l5.42,13.75-5.16,5.29a6.74,6.74,0,0,0,1.78.23c14.11,0,30.67-42.47,56.77-42.49,26.6,0,49.62,42.76,54.71,42.76a.76.76,0,0,0,.48-.17c11.81-10,17.37-52.63,12.76-76-.67-3.46-2.62-11.51-6-11.51-1.51,0-3.62,1.28-5.91,3.6l-5.59,5.64-2.85-8.78c-4-12.15-22.83-19.11-51.8-19.08"/><path class="cls-4" d="M485.17,228.69c-1.07-7.75,0-16.57,1.2-25.77,1-8.06,2.06-16.39,1.7-24.6,4.27-28.24,14.78-34,30.31-34,6,0,12.38.91,19.19,1.87,7.33,1,14.9,2.11,22.48,2.1h.37a162.33,162.33,0,0,0,17.52-1.4,152.12,152.12,0,0,1,17.16-1.36c17.61,0,26.87,7.44,31.93,25.7,6.41,23,2.09,39.46-2.65,49.2a7.14,7.14,0,0,1-6.9,4.35c-11.48,0-31.61-18.29-43.25-18.28L587.78,245c-5.8,0-12.92.39-21.16.83-9.88.53-21.09,1.13-32,1.14-17.5,0-30.29-1.53-38.75-4.72l6.28-10.72-7.47-11.64-9.55,8.85m33.22-92.27c-17.26,0-31.14,7.29-36,41.4a81.61,81.61,0,0,1-.25,11.86,151.93,151.93,0,0,1-2.73,24.75c-.71,9.19-.43,18.17,3,26.29l15.4-14.26-11.28,19.25c6.58,4.83,17,7.27,28.84,8.37,8.32-2.57,17.55-3.5,27-3.5,11.33,0,22.93,1.3,33.55,2.66,4.47-.21,8.54-.36,12-.36h.73c17.72,0,34-12.13,42.05-31.69.27-13.36,4-31.27,3.22-43.51.07-.51.15-1,.22-1.5-.5-2.57-1.11-5.17-1.85-7.81-7.07-25.46-21.24-30.76-37.19-30.74-11.31,0-23.51,2.69-34.7,2.75H560a153.24,153.24,0,0,1-21.35-2c-7-1-13.9-2-20.3-2"/><path class="cls-6" d="M535.69,156.57a101.49,101.49,0,0,1-19.22-1.84,100.71,100.71,0,0,1,38.43,0,101,101,0,0,1-19.21,1.88m-17.31-12.23c-15.53,0-26,5.74-30.31,34,.36,8.21-.69,16.54-1.7,24.6-1.16,9.2-2.27,18-1.2,25.77l9.55-8.85,7.47,11.64-6.28,10.72c8.46,3.19,21.25,4.74,38.75,4.72,10.87,0,22.08-.61,32-1.14,8.24-.44,15.36-.82,21.16-.83l-13.55-38.43c11.64,0,31.77,18.29,43.25,18.28a7.14,7.14,0,0,0,6.9-4.35c4.74-9.74,9.06-26.16,2.65-49.2C622,153,612.71,145.53,595.1,145.55a152.12,152.12,0,0,0-17.16,1.36,162.33,162.33,0,0,1-17.52,1.4h-.37c-7.58,0-15.15-1.07-22.48-2.1-6.81-1-13.24-1.87-19.19-1.87"/><path class="cls-4" d="M263.1,40.2l-.43,0,.16.26.27-.29M201,123.89c-8.12,0-12.49-1.49-15.09-5.17s-3.84-10.46-3.83-20.31a229,229,0,0,0,3.25-27.27C186.84,51.75,188,36.44,200,25.9c5.41-4.74,13.43-7.35,22.62-7.36,15.05,0,30.8,7,36.64,16.31l3,4.78,1.24.09,3.51-3.9a5.29,5.29,0,0,1,3.95-2c7.31,0,15.35,17.62,21.92,17.61,8.94,0,14.35-15.61,18.45-15.62.66,0,1.3.42,1.91,1.39,5.92,9.43,10,22.49,11.08,35.8,1.08,12.85-.63,25.23-4.82,34.86-4.82,11.06-12.62,18.49-23.22,22.07a42.44,42.44,0,0,1-13.56,1.86c-10.31,0-22.24-2.23-33.77-4.4-11-2.06-10.6-7.68-19.41-7.73l-10.73-17.43c-3.2,0-7,21.26-10,21.41-2.77.14-5.39.27-7.88.27M222.66,10.61c-9.55,0-18.81,2.61-25.61,8.57C176.36,37.34,182.51,68,176.42,97.29c-.32,30.43,10.23,34.55,24.56,34.54,2.66,0,5.45-.15,8.33-.3s5.91-.29,9-.29h.52c17.29.1,42.32,8.1,62.53,8.45l5.87-.14a41,41,0,0,0,10.43-1.94C314.32,132,323.91,117.82,328,101c0-1.24,0-2.53,0-3.86,1-4.9,1.75-9.63,2.33-14.21.84-33.33-15.56-68.83-39.11-68.82-8.45,0-17.81,4.59-27.63,15.48-7.12-11.35-24.44-19-40.89-19"/><path class="cls-6" d="M222.66,18.54c-9.19,0-17.21,2.62-22.62,7.36-12,10.54-13.2,25.85-14.73,45.24a229,229,0,0,1-3.25,27.27c0,9.85,1.28,16.68,3.83,20.31s7,5.18,15.09,5.17c2.49,0,5.11-.13,7.88-.27,3-.15,6.78-21.4,10-21.41l10.73,17.43c8.81,0,8.43,5.67,19.41,7.73,11.53,2.17,23.46,4.41,33.77,4.4a42.44,42.44,0,0,0,13.56-1.86c10.6-3.58,18.4-11,23.22-22.07,4.19-9.63,5.9-22,4.82-34.86-1.12-13.31-5.16-26.37-11.08-35.8-.61-1-1.25-1.39-1.91-1.39-4.1,0-9.51,15.62-18.45,15.62-6.57,0-14.61-17.61-21.92-17.61a5.29,5.29,0,0,0-3.95,2l-3.51,3.9c1.71.12,2.68.22,2.68.22s-1.13.11-3.11.26l-.27.29-.16-.26c-4.18.31-11.66.75-20.2.75-13.1,0-23.73-1-23.73-1s10.63-1,23.73-1c8.29,0,15.58.4,19.82.7l-3-4.78c-5.84-9.31-21.59-16.32-36.64-16.31"/><path class="cls-7" d="M585.93,398.35a5.28,5.28,0,0,0,.58,0c7.24-1,0-19.07,6.82-19.08,10,0,16.53,2.29,19.48,6.83,1.83,2.8,2.54,6.93,2.17,12.6l-1.11,17.1,10-9.93a17.72,17.72,0,0,1,4.1-3.27c.47,3,.93,12.14-3.74,36.16-3.2,16.46-7.07,31.08-8.14,34.79-2.45,3.39-11.08,9.91-41.37,9.94-20.27,0-42.94-2.89-56.49-4.63-3.56-.46-6.65-.85-9-1.11-10.45-1.15-17.72-6.42-21.61-15.67-5.88-13.94-4.73-37.91,3-65.15l3.23,2.42L501,387.52a17.84,17.84,0,0,1-2.26-5.79h0c1.62,0,40.41,26.14,51,26.13,8.92,0-15.44-26.31-9.11-26.32a2.93,2.93,0,0,1,.49,0A100.18,100.18,0,0,0,552.46,383h1c5.22,0,25.27,15.3,32.49,15.3m-72.79-27.7c-14.88,0-26,4.38-16.65,21.66l-8.68-6.49a218.24,218.24,0,0,0-7.39,29.87c-2.1,12.43-2.83,24.59-1.51,35.21,2.32,18.73,11,32.65,29.87,34.71,4.43.49,11.45,1.46,19.88,2.48,5.36.64,11.3,1.3,17.51,1.86,9.25.83,19.1,1.44,28.55,1.43,21,0,40.07-3.08,46.12-13.44h0c.21,0,5.76-20.31,9.55-40.92a289.59,289.59,0,0,1,3.52-29.39c.05-8-1.31-13.33-5-13.33-2,0-4.72,1.55-8.25,5.06,1.48-22.85-11.42-28.08-27.28-28.07a160.86,160.86,0,0,0-21,1.91c-6.93,1-13.53,1.9-18.92,1.91h-.91c-5.76-.11-24.49-4.48-39.41-4.46"/><path class="cls-8" d="M593.33,379.23c-6.84,0,.42,18.08-6.82,19.08a5.28,5.28,0,0,1-.58,0c-7.22,0-27.27-15.31-32.49-15.3h-1a100.18,100.18,0,0,1-11.31-1.47,2.93,2.93,0,0,0-.49,0c-6.33,0,18,26.32,9.11,26.32-10.58,0-49.37-26.14-51-26.13h0a17.84,17.84,0,0,0,2.26,5.79l-7.17,11.79-3.23-2.42c-7.71,27.24-8.86,51.21-3,65.15,3.89,9.25,11.16,14.52,21.61,15.67,2.35.26,5.44.65,9,1.11,13.55,1.74,36.22,4.65,56.49,4.63,30.29,0,38.92-6.55,41.37-9.94,1.07-3.71,4.94-18.33,8.14-34.79,4.67-24,4.21-33.2,3.74-36.16a17.72,17.72,0,0,0-4.1,3.27l-10,9.93,1.11-17.1c.37-5.67-.34-9.8-2.17-12.6-2.95-4.54-9.51-6.84-19.48-6.83"/><path class="cls-7" d="M665.74,520.39a4.73,4.73,0,0,0,.93-.09c8.19-1.65,23.34-28.23,45.76-28.26,35,0,50,5.76,56.31,10.2l-41.62,45,50.24-31c2.76,9.61,1.73,19.71.58,31.08-.59,5.8-1.2,11.79-1.32,18-2.84,12.71-8.58,21.64-17.55,27.28-8.05,5.06-18.67,7.52-32.47,7.54-12.68,0-26.26-2.08-38.24-3.91-7.92-1.21-15.39-2.35-21.9-2.82-2.26-.16-4.49-.23-6.64-.3-14.24-.46-20.31-1.74-23.07-12.75-5-19.93-3.19-42.9,4.83-61.46,1.6-3.68,3.82-5,6.34-5,2.86,0,6.1,1.63,9.23,3.26s6.15,3.26,8.59,3.26m64.36-33.84c-5.94,0-13.37.61-21.47,1.21S691.73,489,683.06,489a127.38,127.38,0,0,1-19-1.25c-1.26.21-2.39.41-3.39.62-12.62,2.55-25.88,22.73-30.6,48.78a111.09,111.09,0,0,0-.74,35.17,103.28,103.28,0,0,0,2.08,10.63c5.06,20.17,19.66,17.26,34.74,18.32,14.09,1,33.16,5.34,51.87,6.47l.87-.12a177.76,177.76,0,0,1,23.84-2.15c1.63,0,3.23,0,4.8.14,16.47-4.31,29.75-15.24,34.71-39.11-1.2-11-.49-26.42,2.4-40.85a51.91,51.91,0,0,0-5.11-20.41l-7.82,6.35,4.29-12c-5-6.43-15.31-10.41-27.86-12.71-1.17.05-2.38.07-3.61.07-3.63,0-7.54-.16-11.75-.31-.86,0-1.75,0-2.69,0"/><path class="cls-8" d="M712.43,492c-22.42,0-37.57,26.61-45.76,28.26a4.73,4.73,0,0,1-.93.09c-2.44,0-5.46-1.63-8.59-3.26s-6.37-3.27-9.23-3.26c-2.52,0-4.74,1.28-6.34,5-8,18.56-9.83,41.53-4.83,61.46,2.76,11,8.83,12.29,23.07,12.75,2.15.07,4.38.14,6.64.3,6.51.47,14,1.61,21.9,2.82,12,1.83,25.56,3.92,38.24,3.91,13.8,0,24.42-2.48,32.47-7.54,9-5.64,14.71-14.57,17.55-27.28.12-6.22.73-12.21,1.32-18,1.15-11.37,2.18-21.47-.58-31.08l-50.24,31,41.62-45c-6.31-4.44-21.28-10.23-56.31-10.2"/><path class="cls-7" d="M698.85,382.82c6.7,0,14.12-1.1,21.29-2.15s14.87-2.2,21.78-2.2a39.85,39.85,0,0,1,13.19,1.89c4.4,1.55,10.54,8.53,13.16,11.51,1.5,1.71-2.86,18.26-1.46,18.26.66,0,2.6-3.69,7.05-14.37h.44c1,0,1.75.33,2.61,2,4.74,9.08,2.69,37.26,0,49-3.17,14-7,22.63-12.17,27.06S753.06,479,744.56,479h0c-3.16,0-6.61-.13-10.26-.27l-1.35,0c-.9,0-1.85-.05-2.83-.05-5.53,0-12.31.51-19.5,1.06-8.52.64-18.2,1.37-27.54,1.38-26.9,0-2.94-20.09-7.31-32.89-1.34-3.95-40.75-3.91-38.62-22.75,2.1-18.58,5.44-32.32,7.51-35.81,4.46-7.51,10.61-10.87,19.94-10.87,5.2,0,10.91,1,16.44,2a119.94,119.94,0,0,0,15.2,2c.84,0,1.72.06,2.62.06m43.07-12.27c-7.07,0-14.56,1.09-21.93,2.17s-14.57,2.16-21.09,2.17c-.84,0-1.67,0-2.48-.05-6-.27-12.31-1.6-18.59-2.66-5.64-.19-11.13-.58-16.23-1.26-8.15.62-15.58,4-21.3,13.62-2.3,3.87-4.57,12.63-6.39,23.1A289.59,289.59,0,0,0,630.39,437c-.82,12.34-.64,23.31,1.12,28.47,4.71,13.85,17.36,19.91,32.56,22.24a127.38,127.38,0,0,0,19,1.25c8.67,0,17.47-.62,25.57-1.23s15.53-1.21,21.47-1.21c.94,0,1.83,0,2.69,0,4.21.15,8.12.31,11.75.31,1.23,0,2.44,0,3.61-.07,16.84-.65,27.13-6.59,34.19-37.77a137.41,137.41,0,0,0,2.45-17.4q.13-1.52.24-3.06c.27-4.15.42-8.48.36-12.69-.2-14.71-2.88-28.1-11.08-28.09h-.44c-.64,0-9.8-12.5-17.39-15.15a43.68,43.68,0,0,0-14.56-2.13"/><path class="cls-8" d="M741.92,378.47c-6.91,0-14.47,1.12-21.78,2.2s-14.59,2.14-21.29,2.15c-.9,0-1.78,0-2.62-.06a119.94,119.94,0,0,1-15.2-2c-5.53-1-11.24-2-16.44-2-9.33,0-15.48,3.36-19.94,10.87-2.07,3.49-5.41,17.23-7.51,35.81-2.13,18.84,37.28,18.8,38.62,22.75,4.37,12.8-19.59,32.91,7.31,32.89,9.34,0,19-.74,27.54-1.38,7.19-.55,14-1.06,19.5-1.06,1,0,1.93,0,2.83.05l1.35,0c3.65.14,7.1.27,10.26.27h0c8.5,0,15.19-.91,20.22-5.25s9-13,12.17-27.06c2.65-11.7,4.7-39.88,0-49-.86-1.63-1.63-2-2.61-2h-.44c-4.45,10.68-6.39,14.37-7.05,14.37-1.4,0,3-16.55,1.46-18.26-2.62-3-8.76-10-13.16-11.51a39.85,39.85,0,0,0-13.19-1.89"/><path class="cls-7" d="M747.32,286c-3.25,0-2.38,8.12-6,9.22-12.85,3.9,5.14,16.82,7.48,17.35a1.17,1.17,0,0,0,.32,0c3.57,0,4-14.81,3.35-20.08-.38-3.29-2.27-5.93-4.6-6.47a2.52,2.52,0,0,0-.52-.06m33-11.13,0,0,0,0m-5.19,1.31a8.23,8.23,0,0,1-4-1.52,8.23,8.23,0,0,0,4,1.52m5.43-1.46.26-.15-.26.15m-9.77-.28-.1-.08.1.08m4.67-10.65a22.62,22.62,0,0,0-3.68,6l0,.05c.08.1.17.2.24.3L767.64,281a12.79,12.79,0,0,0,8.11,3.1v-7.93h0v-1A48.37,48.37,0,0,1,783,299.56c1-4.92,2.26-9.73,3.66-14.31a54.64,54.64,0,0,0-11.2-21.47m-56.91-13.59a332.19,332.19,0,0,0-51.43,4.52c-25,4.52-25,4.54-33.31,40.41-.39,1.67-.79,3.79-1.17,6.23.05,1,.09,2,.13,3a154.51,154.51,0,0,1-2.58,31.76c.2,9.66,1.36,18.34,4.14,22.95,4,6.65,14.38,10.16,27.24,11.86,5.1.68,10.59,1.07,16.23,1.26,3.15.11,6.35.15,9.55.15,10.61,0,21.27-.54,30.47-1.08s17.06-1.07,21.81-1.07H740c15,0,30.52-13.91,39.91-32.76a112.11,112.11,0,0,1,0-16.08c-7.07,22.83-24.47,40.91-39.92,40.92h-.5c-3.94,0-9.85.35-16.68.76-10.2.62-22.9,1.36-35.47,1.38-13.36,0-23.83-.81-32-2.5-12.26-2.55,7.29-28.68,6.36-30.23-4.86-8.05-25.67-20.49-22.51-34.12,3.7-16,5.73-24.81,8.7-28.41s8.94-4.58,19.94-6.57a330.1,330.1,0,0,1,52.36-4.46c36.09,0,47.81,7.29,51.59,11.69a22.62,22.62,0,0,1,3.68-6c-6.74-7.94-21.52-11.64-38.28-13-1.37,0-2.73.08-4.1.08-2.4,0-4.8-.07-7.17-.2s-4.91-.31-7.36-.49"/><path class="cls-8" d="M749.09,312.6a1.17,1.17,0,0,1-.32,0c-2.34-.53-20.33-13.45-7.48-17.35,3.65-1.1,2.78-9.22,6-9.22a2.52,2.52,0,0,1,.52.06c2.33.54,4.22,3.18,4.6,6.47.62,5.27.22,20.08-3.35,20.08m-28.87-54.49a330.1,330.1,0,0,0-52.36,4.46c-11,2-17.06,3.09-19.94,6.57s-5,12.4-8.7,28.41c-3.16,13.63,17.65,26.07,22.51,34.12.93,1.55-18.62,27.68-6.36,30.23,8.2,1.69,18.67,2.51,32,2.5,12.57,0,25.27-.76,35.47-1.38,6.83-.41,12.74-.76,16.68-.76h.5c15.45,0,32.85-18.09,39.92-40.92A162.07,162.07,0,0,1,783,299.56a48.37,48.37,0,0,0-7.26-24.39v1h0v7.93a12.79,12.79,0,0,1-8.11-3.1l4.45-10.87c-.07-.1-.16-.2-.24-.3l0-.05a27.71,27.71,0,0,0-1.37,4.33,27.71,27.71,0,0,1,1.37-4.33c-3.78-4.4-15.5-11.73-51.59-11.69"/><path class="cls-7" d="M588.07,362.83c-14.17,0-31-2.22-43.29-3.86-7.23-1-12.94-1.72-16.1-1.76-18.5-.2-30.95-.66-35.4-5-3.23-3.16-3.61-11.32-4.16-29.5-.23-7.34-.51-16.42-1.13-27,2.55-16.29,11.34-37.19,54.36-37.23,12.9,0-4.89,51.11,6.93,52.66h.1c2.64,0,12.73-11.91,22.73-23.83s19.91-23.85,22.16-23.85h.06c11.51,1.18,20.19,3.13,25.14,8.77,4.68,5.34,7,15.37,7.69,32.52a145.33,145.33,0,0,1-1.25,22.35c-1.2,9-3.1,15.94-5.22,19.07-1,1.44-1.57,1.45-1.83,1.45a2.42,2.42,0,0,1-.61-.1l-9.42-2.88,2.8,12.94a1.11,1.11,0,0,1,0,.23c-.69,1-4.76,5-23.6,5M542.36,250.58c-9.43,0-18.66.93-27,3.5-14.78,4.57-26.66,14.35-31.56,33.44a70.22,70.22,0,0,0-1.53,7.74c.56,9.11.84,17,1.06,23.91,1.36,43.18,0,45.46,45.28,46,8,.09,36.79,5.64,59.42,5.62,17.67,0,31.59-3.42,29-15.47a6.18,6.18,0,0,0,1.81.28c5.67,0,9.25-8.8,11.37-19.46a154.51,154.51,0,0,0,2.58-31.76c0-1-.08-2-.13-3-1.88-37-12.42-43.15-37.91-45.77-5.67-.58-12.06-1.47-18.85-2.34-10.62-1.36-22.22-2.67-33.55-2.66"/><path class="cls-8" d="M593.48,330.42a131.59,131.59,0,0,1-18.93-1.36,129.66,129.66,0,0,1,37.87,0,131.53,131.53,0,0,1-18.94,1.4M542.35,258.5c-43,0-51.81,20.94-54.36,37.23.62,10.55.9,19.63,1.13,27,.55,18.18.93,26.34,4.16,29.5,4.45,4.35,16.9,4.81,35.4,5,3.16,0,8.87.81,16.1,1.76,12.29,1.64,29.12,3.87,43.29,3.86,18.84,0,22.91-4,23.6-5a1.11,1.11,0,0,0,0-.23l-2.8-12.94,9.42,2.88a2.42,2.42,0,0,0,.61.1c.26,0,.87,0,1.83-1.45,2.12-3.13,4-10.08,5.22-19.07a145.33,145.33,0,0,0,1.25-22.35c-.64-17.15-3-27.18-7.69-32.52-5-5.64-13.63-7.59-25.14-8.77h-.06c-2.25,0-12.16,11.92-22.16,23.85S552,311.16,549.38,311.17h-.1c-11.82-1.55,6-52.67-6.93-52.66"/><path class="cls-7" d="M420.36,159.16a4.56,4.56,0,0,0,.75-.06c7.6-1.19,12.45-15.14,20.08-15.15,12.3,0,16,3.52,17.1,5.61,1,1.86,1,5,.08,9.24L453,183.56l20.2-22.93c2.44,7,3.63,17,3.32,28.61-.53,19.81-48.56,30-54.87,38-4.95,6.33,31.48,19.32,22.21,19.33-6.54,0-13.63-1.43-20.49-2.83a139.29,139.29,0,0,0-15.29-2.55c-1-.09-2.07-.14-3.26-.14-5.47,0-12.56,1-20.07,2-8.82,1.18-17.94,2.39-26,2.4-10.64,0-15.13-2.18-17-4-9-8.76-8.39-19.47-6.47-37.66.86-8.14,1.75-16.53,1.33-25.32,4.24-28.29,13.21-33.87,27.19-33.88a124.23,124.23,0,0,1,17,1.7,167.73,167.73,0,0,0,20.34,2h.57c3.9,0,12.49,10.85,18.7,10.85m-56.65-22.52c-15.87,0-28,7.2-32.89,41.31a133.62,133.62,0,0,1-.94,22,115.24,115.24,0,0,1-1.42,15.69c-.63,12.26.78,23.44,10,32.36,4.23,4.1,11.64,5.42,20.23,5.41,7.75,0,16.46-1.09,24.64-2.18s15.85-2.17,21.5-2.17c1,0,2,0,2.87.11,2.73.24,5.58.69,8.49,1.23,9,1.66,18.59,4.18,27.65,4.17a37.43,37.43,0,0,0,8.88-1,27.85,27.85,0,0,0,15.78-10.36c4.73-6,8.52-16.62,10.91-28.74a151.93,151.93,0,0,0,2.73-24.75c.45-16.23-1.83-31.78-7.78-40.58-3.52,4-7.06,8-10.58,12,3.29-15.08-2.54-21.62-12-24A44.28,44.28,0,0,1,438.12,139a109,109,0,0,1-15.51-1.28l-3.27.49c-7,1.09-13.39,2.17-17.66,2.17h-.5c-13.5-.27-26.39-3.75-37.47-3.74"/><path class="cls-8" d="M441.19,144c-7.63,0-12.48,14-20.08,15.15a4.56,4.56,0,0,1-.75.06c-6.21,0-14.8-10.86-18.7-10.85h-.57a167.73,167.73,0,0,1-20.34-2,124.23,124.23,0,0,0-17-1.7c-14,0-22.95,5.59-27.19,33.88.42,8.79-.47,17.18-1.33,25.32-1.92,18.19-2.57,28.9,6.47,37.66,1.9,1.82,6.39,4,17,4,8.09,0,17.21-1.22,26-2.4,7.51-1,14.6-1.95,20.07-2,1.19,0,2.26.05,3.26.14a139.29,139.29,0,0,1,15.29,2.55c6.86,1.4,14,2.84,20.49,2.83,9.27,0-27.16-13-22.21-19.33,6.31-8,54.34-18.21,54.87-38,.31-11.62-.88-21.6-3.32-28.61L453,183.56l5.4-24.76c.93-4.27.91-7.38-.08-9.24-1.1-2.09-4.8-5.62-17.1-5.61"/><path class="cls-7" d="M183.65,463.82c-.93,0-1.79-.93-1.93-2.34-1.42-13.76.13-34.71,2.75-46.08,3.7-16,5.74-24.8,8.71-28.4s8.93-4.59,19.94-6.58a330.82,330.82,0,0,1,52.49-4.48c25.09,0,38.34,3.53,45.34,7.15a3,3,0,0,1,1.2,3.16,29,29,0,0,0-.42,5v3.64a2.86,2.86,0,0,0,1.27,2.57l2.45,1.24a11,11,0,0,0,5,1.26,8,8,0,0,0,1,0h.13c.82,0,1.56.73,1.84,1.83a55,55,0,0,1-.19,27l-.16.63a5.2,5.2,0,0,0-.11.67l0,.66c-.78,13-6.68,16.71-14.71,16.72-5.21,0-11.32-1.54-17.52-3.09s-12.48-3.09-18-3.09a20.69,20.69,0,0,0-6.65,1c-2.21.76,25.08,41.16,22,41.17-7.47,0-16.32-2.17-24.88-4.26-8.16-2-15.85-3.9-22.59-4.06l-1.32,0a119.15,119.15,0,0,0-17.94,1.92,116.92,116.92,0,0,1-17.69,1.89,38.91,38.91,0,0,1-7.49-.65c-1.5-.28-2.2-2.76-1.25-4.41a3.65,3.65,0,0,0,0-3.5l-5.12-8.38a1.8,1.8,0,0,0-1.48-1,1.51,1.51,0,0,0-1,.37l-2.68,2.15a1.52,1.52,0,0,1-1,.37m117.72-92.31c-9.9,2-24.63,3-40.47,3.06a354.89,354.89,0,0,1-44.59-2.67q-2.16.35-3.9.66c-24.73,4.47-25,4.53-33,39.2a114.75,114.75,0,0,1-3.8,41.23c.2,9.62,1.32,18.44,4,23.71l12-9.65q-4,7-8,14c6.14,4.37,13,5.73,20.13,5.72h1a105.67,105.67,0,0,0,14-1.42l3.06-.47A115.28,115.28,0,0,1,239.32,483h1.16c13.36.33,32.52,8.34,47.58,8.33a29.15,29.15,0,0,0,9.29-1.36c20.29-6.91,27.37-20.92,30.19-46.11.43-3.9.76-8.06,1-12.51a67.71,67.71,0,0,0,1.92-21.51,66.17,66.17,0,0,0-4.82-20.13,7.72,7.72,0,0,1-5.19,2.34,6.76,6.76,0,0,1-3.1-.79,16.23,16.23,0,0,1,3.13-9.85c-4-4.62-10.82-7.78-19.14-9.86"/><path class="cls-8" d="M265.61,375.94a330.82,330.82,0,0,0-52.49,4.48c-11,2-17.07,3.09-19.94,6.58s-5,12.41-8.71,28.4c-2.62,11.37-4.17,32.32-2.75,46.08.14,1.41,1,2.34,1.93,2.34a1.52,1.52,0,0,0,1-.37l2.68-2.15a1.51,1.51,0,0,1,1-.37,1.8,1.8,0,0,1,1.48,1l5.12,8.38a3.65,3.65,0,0,1,0,3.5c-1,1.65-.25,4.13,1.25,4.41a38.91,38.91,0,0,0,7.49.65,116.92,116.92,0,0,0,17.69-1.89A119.15,119.15,0,0,1,239.27,475l1.32,0c6.74.16,14.43,2.06,22.59,4.06,8.56,2.09,17.41,4.26,24.88,4.26,3.07,0-24.22-40.41-22-41.17a20.69,20.69,0,0,1,6.65-1c5.53,0,11.81,1.54,18,3.09s12.31,3.09,17.52,3.09c8,0,13.93-3.7,14.71-16.72l0-.66a5.2,5.2,0,0,1,.11-.67l.16-.63a55,55,0,0,0,.19-27c-.28-1.1-1-1.83-1.84-1.83h-.13a8,8,0,0,1-1,0,11,11,0,0,1-5-1.26L313,397.43a2.86,2.86,0,0,1-1.27-2.57v-3.64a29,29,0,0,1,.42-5,3,3,0,0,0-1.2-3.16c-7-3.62-20.25-7.18-45.34-7.15"/><path class="cls-7" d="M260.9,366.64a334.71,334.71,0,0,1-50-3.48c-22.11-3.5-26.31-8-26.73-8.5-5.5-10.68-5.68-32.55-.46-55.78,3.77-16.77,11.16-35.46,18-38.73,2.68-1.29,6.64-1.94,11.76-1.95,9.15,0,20.41,2,31.29,4,9.93,1.78,19.3,3.48,26.4,3.47l1,0c3.91-.09,8-.56,11.88-1a115.42,115.42,0,0,1,12.95-1c9.06,0,15.13,2.42,19.69,7.86,5.83,6.95-19.45,30-20.61,49.43-1.21,20.57,21.59,33,13.57,39.72-2.86,2.4-18.2,6-48.76,6M200.53,252.37l-.6.27c-8.78,4.22-17.49,24.19-22.14,46.54-3.07,14.71-4.38,30.46-2.8,43.39a49.92,49.92,0,0,0,4.73,16.9c3.06,5.86,17.86,10,36.59,12.43a354.89,354.89,0,0,0,44.59,2.67c15.84,0,30.57-1,40.47-3.06,5.32-1.08,9.24-2.45,11.2-4.1,6.94-5.86,11.81-16.6,14.71-29.1a137.08,137.08,0,0,0,2.86-40.11c-1.07-14-4.37-26.33-9.77-32.78-6.53-7.79-14.73-9.75-23.34-9.74-8.28,0-17,1.83-24.93,2h-.91c-7.16,0-17.08-1.86-27.46-3.71-2.51-.45-5-.9-7.58-1.33-6.41.49-12.89.88-19.17.88a98.67,98.67,0,0,1-16.45-1.18"/><path class="cls-8" d="M213.51,258.2c-5.12,0-9.08.66-11.76,1.95-6.84,3.27-14.23,22-18,38.73-5.22,23.23-5,45.1.46,55.78.42.52,4.62,5,26.73,8.5a334.71,334.71,0,0,0,50,3.48c30.56,0,45.9-3.62,48.76-6,8-6.77-14.78-19.15-13.57-39.72,1.16-19.44,26.44-42.48,20.61-49.43-4.56-5.44-10.63-7.87-19.69-7.86a115.42,115.42,0,0,0-12.95,1c-3.91.44-8,.91-11.88,1l-1,0c-7.1,0-16.47-1.69-26.4-3.47-10.88-1.95-22.14-4-31.29-4"/><path class="cls-7" d="M199.28,162.32l6.64-12.42-4-6.43a61.42,61.42,0,0,1,15-1.55c11.29,0,24.49,1.75,36.13,3.31,10,1.32,18.53,2.47,24.91,2.46h1.19l1.91-.06c3.37-.08,6.56-.16,9.58-.17,22.21,0,32.09,3.77,33.53,40.2.83,20.74-12,31.13-17.8,39.72s-5.29,16.35-21.63,16.36c-3.71,0-7.87-.17-13.12-.55-2-.16-4.12-.23-6.51-.22-6.88,0-14.48.62-22.53,1.27h-.34c-8.18,0-9.59-23.94-17.81-23.94-9.54,0-24,22.25-30.59,22.25a2.29,2.29,0,0,1-.83-.13,27,27,0,0,0-.13-5.59l-.52-4.13L189.59,231a11.15,11.15,0,0,0-5.9-1.83,10.32,10.32,0,0,0-1.24.08c-1.14-8.84-1.07-22.15.31-36.55s3.92-28.2,6.69-36.78l9.83,6.41M216.89,134c-10.43,0-19.47,1.47-24.84,5.82q4.83,7.67,9.62,15.32l-14.57-9.53c-3,5.88-5.68,16.32-7.65,28.32a110,110,0,0,1-3.45,42c.08,9.64.92,18.05,2.76,23.57a6.91,6.91,0,0,1,4.92-2.42,6.76,6.76,0,0,1,3.61,1.14,13.42,13.42,0,0,1-1.85,9.06,44.66,44.66,0,0,0,15.09,5.08A98.67,98.67,0,0,0,217,253.55c6.28,0,12.76-.39,19.17-.88,1.93-.14,3.85-.3,5.75-.45,8.25-.66,16.21-1.33,23.21-1.33,2.16,0,4.22.05,6.17.2,4.63.34,9.13.57,13.43.57,21.83,0,38.77-6.19,43.75-36.07a115.24,115.24,0,0,0,1.42-15.69q.18-5.91-.09-12.7c-1.71-43-16.1-47.7-39.17-47.68l-3.43,0-5.87.14-2.29.06-1.09,0c-6.83,0-16.87-1.44-27.82-2.89S227.34,134,216.89,134"/><path class="cls-8" d="M216.89,141.92a61.42,61.42,0,0,0-15,1.55l4,6.43-6.64,12.42-9.83-6.41c-2.77,8.58-5.3,22.27-6.69,36.78s-1.45,27.71-.31,36.55a10.32,10.32,0,0,1,1.24-.08,11.15,11.15,0,0,1,5.9,1.83l2.74,1.71.52,4.13a27,27,0,0,1,.13,5.59,2.29,2.29,0,0,0,.83.13c6.57,0,21.05-22.24,30.59-22.25,8.22,0,9.63,23.95,17.81,23.94h.34c8-.65,15.65-1.27,22.53-1.27,2.39,0,4.52.06,6.51.22,5.25.38,9.41.55,13.12.55,16.34,0,15.81-7.74,21.63-16.36s18.63-19,17.8-39.72c-1.44-36.43-11.32-40.22-33.53-40.2-3,0-6.21.09-9.58.17l-1.91.06h-1.19c-6.38,0-15-1.14-24.91-2.46-11.64-1.56-24.84-3.32-36.13-3.31"/><path class="cls-7" d="M352.24,124.08c-7.43,0-11.94-1.69-14.62-5.49s-4-10.62-4-20.3A270.24,270.24,0,0,0,337.45,69c2-22.08,3.25-35.4,20.51-45a48.48,48.48,0,0,1,23.57-6A49.69,49.69,0,0,1,423,39.77l13,19.38-3.36-26.24c-.09-.75-.27-2.59.18-3.35.59-1,2.69-2.17,6.66-2.17,13.33,0,17.8,25.17,20.66,31.8,4.6,10.63,19.16,13.15,15.21,30.15-4.19,18-12.56,33.42-20.83,38.28-3.88,2.29-9.41,3.45-16.44,3.46-10.29,0-22.17-2.35-33.66-4.64-10-2-19.55-3.87-27.14-4h-.77c-4.36,0-8.74.43-13,.84-4,.39-7.79.77-11.33.77M381.54,10a52.77,52.77,0,0,0-25.66,6.61C331.22,30.37,334.07,53.19,330.29,83c-.58,4.58-1.32,9.31-2.33,14.21,0,1.33,0,2.62,0,3.86.65,26.22,11,31,24.26,31,3.8,0,7.83-.4,11.93-.79s8.32-.81,12.44-.81h.65c11.76.13,29,4.95,45.35,7.32A109,109,0,0,0,438.12,139a44.28,44.28,0,0,0,13.69-1.87,25.21,25.21,0,0,0,4.93-2.19c9.58-5.65,18.23-21.31,23-39.22,1.71-8.64,2.85-18.25,4-27.65.11-9.6-1.25-18.76-4.52-26.32-4.41-10.2-25.67-22.3-39.69-22.29-8.11,0-13.79,4.06-12.41,14.87A54.73,54.73,0,0,0,381.54,10"/><path class="cls-8" d="M376.65,99.05c-11.08,0-20.07-.54-20.07-.54s9-.57,20.07-.58,20.06.54,20.06.54-9,.57-20.06.58m4.88-81.11A48.48,48.48,0,0,0,358,24c-17.26,9.64-18.48,23-20.51,45a270.24,270.24,0,0,1-3.84,29.27c0,9.68,1.34,16.51,4,20.3s7.19,5.5,14.62,5.49c3.54,0,7.32-.38,11.33-.77,4.24-.41,8.62-.83,13-.84h.77c7.59.09,17.09,2,27.14,4,11.49,2.29,23.37,4.65,33.66,4.64,7,0,12.56-1.17,16.44-3.46,8.27-4.86,16.64-20.24,20.83-38.28,3.95-17-10.61-19.52-15.21-30.15-2.86-6.63-7.33-31.81-20.66-31.8-4,0-6.07,1.17-6.66,2.17-.45.76-.27,2.6-.18,3.35L436,59.15,423,39.77a49.69,49.69,0,0,0-41.47-21.83"/><path class="cls-7" d="M524.25,44.07l3.21-6.88c5.82-12.45,12.62-17.53,23.5-17.54,5.93,0,12.71,1.47,19.89,3,3.61.79,7.35,1.6,11.25,2.29,2.27.41,5.23.66,8.65.95,8.41.71,24.06,2,28.3,7.58,2.65,3.46,6,14.23,7.52,30.49,1.41,15.18.71,30.25-1.86,39.34-2.27,8.1-4.88,8.11-5.73,8.11a5.46,5.46,0,0,1-1.87-.38l-8.17-3,1,10.12c-1.41,1.36-6.35,4.83-21.77,7.56-11.92,2.11-27.48,3.28-43.84,3.3-17.9,0-34.55-1.38-44.56-3.59a43.37,43.37,0,0,0,1.56-8.52l.71-8.24-5.9-.6c-.47,0-.94-.07-1.39-.07a13.22,13.22,0,0,0-8.95,3.58,117.75,117.75,0,0,1-.61-13.42c1.84-9.12,3-19.08,4.15-28.72C492.24,44.53,494.72,28.2,502,28.2c2.83,0,8.15,1.92,17.43,11.13l4.78,4.74M551,11.72c-11.08,0-20.5,4.61-28.22,21.14-8.93-8.86-15.61-12.59-20.69-12.59-12.66,0-15.4,23.15-18.31,47.8-1.11,9.4-2.25,19-4,27.65-.09.44-.18.87-.26,1.3-.07,5.85,0,23.28,4.48,28.81q3.93-9.9,10.7-9.9a8.15,8.15,0,0,1,1,0,30.56,30.56,0,0,1-5,14.69c8.1,4,30.21,6.29,53.62,6.27,34.85,0,72.6-5.29,71.38-18.21a9.64,9.64,0,0,0,3.32.64c6.16,0,10-7.31,12.11-17.87,0-1.52,0-3.07,0-4.62a120.84,120.84,0,0,0,1.88-18.4c-.1-20.65-4.05-43-10-50.78-7.47-9.76-31.1-9-40.09-10.58C571,15,560.38,11.71,551,11.72"/><path class="cls-8" d="M551,19.65c-10.88,0-17.68,5.09-23.5,17.54l-3.21,6.88-4.78-4.74c-9.28-9.21-14.6-11.14-17.43-11.13-7.32,0-9.8,16.33-12.74,41.24-1.14,9.64-2.31,19.6-4.15,28.72a117.75,117.75,0,0,0,.61,13.42,13.22,13.22,0,0,1,8.95-3.58c.45,0,.92,0,1.39.07l5.9.6-.71,8.24a43.37,43.37,0,0,1-1.56,8.52c10,2.21,26.66,3.6,44.56,3.59,16.36,0,31.92-1.19,43.84-3.3,15.42-2.73,20.36-6.2,21.77-7.56l-1-10.12,8.17,3a5.46,5.46,0,0,0,1.87.38c.85,0,3.46,0,5.73-8.11,2.57-9.09,3.27-24.16,1.86-39.34-1.52-16.26-4.87-27-7.52-30.49-4.24-5.55-19.89-6.87-28.3-7.58-3.42-.29-6.38-.54-8.65-.95-3.9-.69-7.64-1.5-11.25-2.29-7.18-1.57-14-3.05-19.89-3"/><path class="cls-7" d="M640.15,231.38c-.95,0-2.2-.18-2.72-1-2.18-3.59-.56-17.7.5-27,1-8.6,2-17.47,1.69-25.11C643.9,149.75,654.18,144,669.31,144c5.92,0,12.39.94,19.23,2,7.49,1.1,15.24,2.25,23.07,2.24H712c6.15,0,12.33-.68,18.31-1.3h.2c5.75,0,9.23,25.42,14.45,25.42,10.12,0,19-7.54,25.53-7.55,4.36,0,7.65,3.37,9.52,14.63,3.23,19.51,2,34.53-3.75,44.64-7.11,12.56-21.61,18.94-43.11,19-2.22,0-4.56-.07-7-.2-6-.34-12.1-.87-18-1.37-9.05-.78-18.42-1.59-27.84-1.75h-.18c-2.17,0-5.45.71-10,1.69-5.87,1.27-13.18,2.86-18.59,2.86a21.2,21.2,0,0,1-2.35-.12c.12-.19.23-.39.35-.61l10.33-17.63L644,230.7a13.78,13.78,0,0,1-3.88.68m29.16-95.32c-16.73,0-30.09,7.18-35.16,40.12-.07.49-.15,1-.22,1.5.75,12.24-2.95,30.15-3.22,43.51-.21,10.45,1.68,18.12,9.44,18.11a17.74,17.74,0,0,0,5.07-.86c-6.28,10.73-1.53,13.69,6.35,13.68,4.87,0,10.93-1.14,16.32-2.27s10.12-2.28,12.28-2.28h.1c12.91.22,25.53,1.65,38.31,2.62,2.45.18,4.9.35,7.36.49s4.77.2,7.17.2c1.37,0,2.73,0,4.1-.08,19.9-.78,39.58-7.47,47-30.08-1-3.89-1.68-6.59-1.73-6.59v.05c-1.16-9.53.28-24.43,2.68-38.24-5.76-32-20.53-38.21-38.22-38.2-11,0-23.2,2.44-35,2.5h-.36a150.94,150.94,0,0,1-21.8-2.08c-7.14-1-14.07-2.11-20.49-2.1"/><path class="cls-8" d="M669.31,144c-15.13,0-25.41,5.77-29.69,34.22.32,7.64-.71,16.51-1.69,25.11-1.06,9.34-2.68,23.45-.5,27,.52.85,1.77,1,2.72,1a13.78,13.78,0,0,0,3.88-.68l15.88-4.87-10.33,17.63c-.12.22-.23.42-.35.61a21.2,21.2,0,0,0,2.35.12c5.41,0,12.72-1.59,18.59-2.86,4.55-1,7.83-1.69,10-1.69h.18c9.42.16,18.79,1,27.84,1.75,5.88.5,12,1,18,1.37,2.39.13,4.73.2,7,.2,21.5,0,36-6.4,43.11-19,5.72-10.11,7-25.13,3.75-44.64-1.87-11.26-5.16-14.63-9.52-14.63-6.51,0-15.41,7.54-25.53,7.55-5.22,0-8.7-25.43-14.45-25.42h-.2c-6,.62-12.16,1.27-18.31,1.3h-.36c-7.83,0-15.58-1.14-23.07-2.24-6.84-1-13.31-2-19.23-2"/><path class="cls-7" d="M681.07,38.15l.88,0,1.78-.08,1.42-1.51A57.9,57.9,0,0,0,695.6,20.76c11.67.63,23.43,1.85,35,3.65h.11c2.74.35,5.58.58,8.58.81,12.91,1,27.53,2.16,34.73,14.35,12.43,21.07,8.43,41.68,4.94,52.07-7.07,21-23,35.72-38.71,35.73h-.15c-9.29,0-19.8-22-29-23.24a7.73,7.73,0,0,0-1-.06c-9.41,0-18.29,18.1-28.1,18.11l-1.7,0c-1.39,0-3.5.48-7.76,1.45-5.54,1.24-13.14,3-17.86,3a6.93,6.93,0,0,1-2.26-.23c.4.16,1.67,1.15,2.24,3.49a8.74,8.74,0,0,1,.22,2.69L649.57,120a12.52,12.52,0,0,1-5.59,1.7,4.14,4.14,0,0,1-3.69-1.93c-1.37-2-3.62-7.36-3.58-21.83,1.46-7.65,1.8-16.44,2.14-25.72.61-16,1.24-32.53,7.84-40.4,4.21-5,7.61-7.59,10.09-7.59,2.06,0,4,1.8,7.05,4.76,4.16,4.06,9.35,9.13,17.24,9.12m11.39-25.47a52.94,52.94,0,0,1-10.7,17.52l-.69,0c-5.7,0-9.64-3.47-13.23-6.94s-6.81-6.94-11.06-6.94c-3.58,0-7.89,2.47-13.76,9.49-9.53,11.38-9.2,33.62-10.08,52.65a120.84,120.84,0,0,1-1.88,18.4c0,1.55,0,3.1,0,4.62.35,15,3.36,28.17,12.89,28.16a16.63,16.63,0,0,0,7.55-2.19c-4.4,5.41-1.89,7.08,3.15,7.08,8.13,0,22.83-4.37,25.68-4.42l1.65,0c19.48,0,38.73,5.11,58.07,5.2h.17c17.29,0,33.88-15.21,42.25-36a77,77,0,0,0,5.38-34.8,69.8,69.8,0,0,0-9.5-30c-10.59-18-31.8-16-47.14-18a356.53,356.53,0,0,0-38.78-3.85"/><path class="cls-8" d="M695.6,20.76a57.9,57.9,0,0,1-10.45,15.77L683.73,38l-1.78.08-.88,0c-7.89,0-13.08-5.06-17.24-9.12-3-3-5-4.77-7.05-4.76-2.48,0-5.88,2.55-10.09,7.59-6.6,7.87-7.23,24.41-7.84,40.4-.34,9.28-.68,18.07-2.14,25.72,0,14.47,2.21,19.88,3.58,21.83a4.14,4.14,0,0,0,3.69,1.93,12.52,12.52,0,0,0,5.59-1.7l5.32,12.53a8.74,8.74,0,0,0-.22-2.69c-.57-2.34-1.84-3.33-2.24-3.49a6.93,6.93,0,0,0,2.26.23c4.72,0,12.32-1.72,17.86-3,4.26-1,6.37-1.43,7.76-1.45l1.7,0c9.81,0,18.69-18.1,28.1-18.11a7.73,7.73,0,0,1,1,.06c9.24,1.24,19.75,23.2,29,23.24h.15c15.73,0,31.64-14.7,38.71-35.73,3.49-10.39,7.49-31-4.94-52.07-7.2-12.19-21.82-13.34-34.73-14.35-3-.23-5.84-.46-8.58-.81h-.11c-11.58-1.8-23.34-3-35-3.65"/><path class="cls-7" d="M796.55,154.89a4.57,4.57,0,0,1-.82-.16,4.57,4.57,0,0,0,.82.16m-1.81-.55a9.09,9.09,0,0,1-3.27-3,9.09,9.09,0,0,0,3.27,3m27.45-10.28c7,0,14.73-.49,22.94-1,9-.56,18.42-1.15,27.67-1.15,35.9,0,53.74,9.19,57.83,30.51a17.85,17.85,0,0,0-3.36,1l-6.46,2.7.29.05-.7.11-1,.44,4.89,8.88c.66,2.24,1.38,11.75.25,25.8-1.22,15.27-3.62,22.9-4.63,24.31L915,240.14a1.12,1.12,0,0,1-.27,0c-5.39,0-37.68-36.3-53.4-36.29-17.06,0-13.68,36.2-29.5,36.21l-.84,0c-12.52-.95-23.34-1.78-30.09-1.77a36.71,36.71,0,0,0-5.6.33c-1.29-4.06-3.27-11.1-6.37-23.11-.32-1.27-.59-2.31-.78-3,0-.17-.09-.34-.14-.51-1.13-11.59,2-33.79,5.9-49.7a9.48,9.48,0,0,0,3.26.59V154l1.46.74h0l5.3,2.72a24.12,24.12,0,0,0,.79-6.06h-7.54v-.09a18.78,18.78,0,0,1,1.51-2.9,14.91,14.91,0,0,0-3.07-5.81,14.91,14.91,0,0,1,3.07,5.81,13.22,13.22,0,0,1,7.58-5.7,75,75,0,0,0,15.92,1.34M872.82,134c-8.91,0-18,.54-26.57,1.07s-16.81,1.07-24,1.07c-1.54,0-3,0-4.48-.07a57.3,57.3,0,0,1-11.52-1.39q-11.09,2.69-15.15,16.08a201.77,201.77,0,0,0-5.87,25.19c-2.4,13.81-3.84,28.71-2.68,38.24v-.05c.05,0,.72,2.7,1.73,6.59.81,3.13,1.83,7,2.9,10.93,2.4,8.75,5.07,17.51,6.22,17.51.28,0,.46-.51.54-1.65.05-.93,2.61-1.29,7-1.29,1.72,0,3.73.05,6,.15l.27-2.08a158.75,158.75,0,0,0,18.75,3.32l12.16.93c4.31.32,8.76.64,13.25.94,3.62.11,7.23.17,10.81.16,15.58,0,30.39-1.09,40.92-3l.32,3.5c10.61-1,18.37-3.23,20.78-7.37-.37-.13-.74-.27-1.11-.43,3.63-3.26,6.12-17,7.17-30.76,1-13.45.69-26.92-1.31-30.53a13.94,13.94,0,0,1,5.42-1.08,15,15,0,0,1,2.87.26c-.9-25.85-14.41-37.71-32.77-42.79-9.57-2.65-20.46-3.46-31.57-3.45"/><path class="cls-5" d="M797.18,154.93h0m1.45-.19-.22,0,.22,0"/><path class="cls-8" d="M797.18,154.93h0m75.62-13c-9.25,0-18.62.59-27.67,1.15-8.21.51-16,1-22.94,1a75,75,0,0,1-15.92-1.34,13.22,13.22,0,0,0-7.58,5.7,11.84,11.84,0,0,1,.38,3,11.84,11.84,0,0,0-.38-3,18.78,18.78,0,0,0-1.51,2.9v.09h7.54a24.12,24.12,0,0,1-.79,6.06l-5.3-2.72-.22,0,.22,0-1.46-.74v8.86a9.48,9.48,0,0,1-3.26-.59c-3.93,15.91-7,38.11-5.9,49.7,0,.17.09.34.14.51.19.72.46,1.76.78,3,3.1,12,5.08,19.05,6.37,23.11a36.71,36.71,0,0,1,5.6-.33c6.75,0,17.57.82,30.09,1.77l.84,0c15.82,0,12.44-36.19,29.5-36.21,15.72,0,48,36.3,53.4,36.29a1.12,1.12,0,0,0,.27,0l4.89-4.39c1-1.41,3.41-9,4.63-24.31,1.13-14.05.41-23.56-.25-25.8l-4.89-8.88,1-.44a154.74,154.74,0,0,1-23.61,1.87,152.92,152.92,0,0,1-24.3-1.94,150.28,150.28,0,0,1,48.32-.09l6.46-2.7a17.85,17.85,0,0,1,3.36-1c-4.09-21.32-21.93-30.55-57.83-30.51"/><path class="cls-7" d="M822.89,263.14c7.45,6.91,17.27,29.54,25.61,29.53h.32c8.06-.58,15-17.35,22.29-27.32-2.93.08-5.91.12-8.92.13a309.3,309.3,0,0,1-39.3-2.33m80.6-11.39.75,8.18c8.41,1.63,15.48,4.55,18.33,9.58,4.84,8.57,4.18,10.72,2.42,16.46a52.58,52.58,0,0,0-2.77,18.81,47.77,47.77,0,0,0,3.62,16.09c2.12,5.66,3.4,9.08-1.14,21.32-4.82,13-6.45,14.61-15.62,19.87-4,2.27-18.3,4.56-41.48,4.58l-7-23.26c-16.79,0-27.87,19.72-41.08,19.73a13.54,13.54,0,0,1-2.18-.18c-23.59-3.94-27.11-9.06-27.25-9.28-5.66-8.93-6.37-29-1.82-51.23s12.65-38.37,18.35-42.15l-1.54-.37,1-7.8c-7.11,2.93-14.34,16.39-19.44,33.15-1.4,4.58-2.63,9.39-3.66,14.31A162.07,162.07,0,0,0,780,321.34a112.11,112.11,0,0,0,0,16.08c.67,8.59,2.54,16.11,6,21.51,4.06,6.39,20.21,10.72,39.72,13.17a343.3,343.3,0,0,0,42,2.46c14.42,0,27.48-.92,35.91-2.67a27.88,27.88,0,0,0,7.71-2.49c10.4-6,13.11-9,18.51-23.57,9.06-24.47-1.2-25.68-1.86-41.54-.74-17.77,10.23-20.07-.86-39.7-4-7.11-12.6-10.94-23.51-12.84"/><path class="cls-8" d="M904.24,259.93l.22,2.43a231.9,231.9,0,0,1-33.35,3c-7.32,10-14.23,26.74-22.29,27.32h-.32c-8.34,0-18.16-22.62-25.61-29.53-5.8-.76-11.28-1.71-16.22-2.87-5.7,3.78-13.77,19.82-18.35,42.15s-3.84,42.3,1.82,51.23c.14.22,3.66,5.34,27.25,9.28a13.54,13.54,0,0,0,2.18.18c13.21,0,24.29-19.72,41.08-19.73l7,23.26c23.18,0,37.53-2.31,41.48-4.58,9.17-5.26,10.8-6.87,15.62-19.87,4.54-12.24,3.26-15.66,1.14-21.32a47.77,47.77,0,0,1-3.62-16.09A52.58,52.58,0,0,1,925,286c1.76-5.74,2.42-7.89-2.42-16.46-2.85-5-9.92-7.95-18.33-9.58"/><path class="cls-5" d="M903.34,250.14c-2.62.25-5.42.43-8.35.54,3,.25,5.8.6,8.5,1.07l-.15-1.61m-96.48-3.77-.73,5.73,26.43.65c4.89-.29,10.1-.68,15.47-1.06,6.67-.48,13.6-1,20.47-1.25-5.7-.24-11.5-.58-17.21-1-8.68-.27-17.34-.88-25.41-1.87-7.28-.55-13.79-1-19-1.24"/><path class="cls-8" d="M903,246.64c-10.53,1.91-25.34,3-40.92,3-3.58,0-7.19,0-10.81-.16,5.71.38,11.51.72,17.21,1,4.14-.18,8.26-.29,12.3-.29,4.9,0,9.67.15,14.19.53,2.93-.11,5.73-.29,8.35-.54l-.32-3.5m-95.89-2.35-.27,2.08c5.23.23,11.74.69,19,1.24a158.75,158.75,0,0,1-18.75-3.32"/><path class="cls-8" d="M880.8,250.15c-4,0-8.16.11-12.3.29-6.87.29-13.8.77-20.47,1.25-5.37.38-10.58.77-15.47,1.06l71.18,1.74c-10.82,2-25.76,3-41.39,3.05-20,0-41.14-1.69-56.22-5.44l-1,7.8,1.54.37,0,0a66.64,66.64,0,0,0,12.41.91,6.05,6.05,0,0,1,3.78,2,309.3,309.3,0,0,0,39.3,2.33c3,0,6-.05,8.92-.13,3.11-4.25,6.3-7.26,9.68-7.26a127.91,127.91,0,0,1,23.45,1.85l-.75-8.18c-2.7-.47-5.55-.82-8.5-1.07-4.52-.38-9.29-.54-14.19-.53"/><path class="cls-9" d="M806.7,260.25l0,0c4.94,1.16,10.42,2.11,16.22,2.87a6.05,6.05,0,0,0-3.78-2,66.64,66.64,0,0,1-12.41-.91m74.09-2.17c-3.38,0-6.57,3-9.68,7.26a231.9,231.9,0,0,0,33.35-3l-.22-2.43a127.91,127.91,0,0,0-23.45-1.85"/><path class="cls-8" d="M806.13,252.1c15.08,3.75,36.22,5.46,56.22,5.44,15.63,0,30.57-1.08,41.39-3.05l-71.18-1.74-26.43-.65"/><path class="cls-7" d="M828.64,497.35c8.92,0,18.07-.85,26.9-1.65,8.56-.78,17.39-1.59,25.74-1.59,10.11,0,18.16,1.12,25.32,3.56C919.15,502,933.92,536,932.53,552c-.32,3.78-1.3,4.94-4.18,4.94h0c-.29,0-.6,0-.92,0l-13.58-1.34L922.73,570C924,572,926.89,577.16,926,580c-.82,2.52-7.77,15.08-63.79,15.14-16.49,0-31.48-1.07-39.52-1.64-2.15-.15-3.7-.27-4.72-.31-2.45-.13-4.68-.2-6.83-.27-8.49-.26-14.11-.43-17-3.35s-4.7-10.09-6.24-24.31c-1.31-12,0-28.56,3.29-42.21,2.08-8.63,6.78-23.38,15.25-27.94a100.08,100.08,0,0,0,22.26,2.22m52.66-11.16c-8.56,0-17.38.81-26.23,1.62s-17.72,1.61-26.42,1.62A93.49,93.49,0,0,1,806,487c-10.8,4.46-17.73,20.79-21.3,38.66-2.89,14.43-3.6,29.86-2.4,40.85,4,37.27,10.87,33.43,35.46,34.64,4.66.22,23.43,2,44.44,2,38.6,0,84.75-6,64.86-38.32.46,0,.9.07,1.32.07,23.4,0,.87-67.59-20.39-74.85-8.41-2.87-17.38-3.8-26.64-3.79"/><path class="cls-8" d="M881.28,494.11c-8.35,0-17.18.81-25.74,1.59-8.83.8-18,1.64-26.9,1.65a100.08,100.08,0,0,1-22.26-2.22c-8.47,4.56-13.17,19.31-15.25,27.94-3.31,13.65-4.6,30.22-3.29,42.21,1.54,14.22,3.4,21.49,6.24,24.31s8.52,3.09,17,3.35c2.15.07,4.38.14,6.83.27,1,0,2.57.16,4.72.31,8,.57,23,1.65,39.52,1.64,56-.06,63-12.62,63.79-15.14.94-2.86-1.93-8-3.22-10.07l-8.89-14.43,13.58,1.34c.32,0,.63,0,.92,0h0c2.88,0,3.86-1.16,4.18-4.94,1.39-16-13.38-50-25.93-54.29-7.16-2.44-15.21-3.57-25.32-3.56"/><path class="cls-7" d="M834.09,719.15c-1.19,0-4.11-1.31-5.42-1.43-29.63-2.74-39.62-3.66-39.53-42.9.06-24.73,3.3-40.92,9.9-49.54,5.29-6.9,13.18-9.85,26.37-9.86,5.6,0,22.34,38.14,28.78,38.66h.17c7.12,0,4.17-36.43,12.08-36.44,1.45,0,2.88,0,4.26-.07,2.51-.08,5-.19,7.59-.3,4.55-.2,9.26-.41,13.76-.42,13,0,27.26,1.5,34.15,12.76,4.47,7.32,6,18.65,4.61,34.56a19.53,19.53,0,0,0-2.92,7.52c-.69,3.33-1.15,7.51-1.63,11.93-.53,4.83-1.08,9.84-1.93,14s-1.68,5.49-1.93,5.81c-.33,0-1.56-.41-3.95-2.92l-8.53-9-.51,15c-.33,9.76-12.71,15.16-34.84,15.18-11.56,0-23.65-1.44-32.47-2.5-2-.24-9.41-9.16-10.93-9.16-.73,0-.07,2.1,3.27,8.29.35.66.15.89-.35.89m-8.67-111.66c-20.8,0-36.07,6.68-40.57,42.77a181.82,181.82,0,0,1-1.35,27.27c.52,46.81,17.66,45.41,50.53,48.63,8.81.87,25,3.41,40.54,3.39,20.42,0,39.86-4.42,40.49-22.74,3,3.17,5.43,4.52,7.41,4.52,5.51,0,7.48-10.51,8.75-21s1.84-21,4.55-21a.9.9,0,0,1,.23,0c5.92-53.58-17.34-60.4-43.94-60.37-7.09,0-14.4.49-21.47.72-1.42,0-2.82.06-4.22.06-7.41,0-14.61-.55-21.46-1.11s-13.42-1.12-19.49-1.12"/><path class="cls-8" d="M825.41,615.42c-13.19,0-21.08,3-26.37,9.86-6.6,8.62-9.84,24.81-9.9,49.54-.09,39.24,9.9,40.16,39.53,42.9,1.31.12,4.23,1.43,5.42,1.43.5,0,.7-.23.35-.89-3.34-6.19-4-8.29-3.27-8.29,1.52,0,9,8.92,10.93,9.16,8.82,1.06,20.91,2.51,32.47,2.5,22.13,0,34.51-5.42,34.84-15.18l.51-15,8.53,9c2.39,2.51,3.62,2.87,3.95,2.92.25-.32,1.05-1.62,1.93-5.81s1.4-9.12,1.93-14c.48-4.42.94-8.6,1.63-11.93a19.53,19.53,0,0,1,2.92-7.52c1.38-15.91-.14-27.24-4.61-34.56-6.89-11.26-21.13-12.77-34.15-12.76-4.5,0-9.21.22-13.76.42-2.55.11-5.08.22-7.59.3-1.38,0-2.81.07-4.26.07-7.91,0-5,36.44-12.08,36.44h-.17c-6.44-.52-23.18-38.66-28.78-38.66"/><path class="cls-7" d="M698.07,617.68h0c5.61,0,12.43-.95,19.64-1.95,8.33-1.15,16.94-2.34,25-2.35,12.49,0,20.5,2.88,24.5,8.82,2.5,3.72,3.57,9,3.28,16.1l-.72,17.34L779,645.7c1,16.37-1,41.09-6.63,52.51-2.55,5.15-4.68,5.19-5.4,5.19h0a6.19,6.19,0,0,1-3-.94l-37-34,29.35,43.38c.13.67.08.76,0,1-.73,1.32-5.82,7.9-35.07,7.93-12,0-23.51-1.06-30.42-1.7-1.37-.13-2.54-.23-3.46-.3-3.17-.27-6.19-.47-9.12-.65-25.63-1.66-37.33-2.42-42.1-35.61-3.24-22.46-1.92-38.93,3.93-49,2.08-3.57,4.75-4.91,7.84-4.91,9.31,0,22.39,12.15,34.47,12.14,4.69,0,9.15-23.13,13.59-23.14h.06c.65,0,1.33,0,2,0m44.67-12.22a177.76,177.76,0,0,0-23.84,2.15l-.87.12c-7.44,1-14.39,2-19.93,2-.64,0-1.26,0-1.87,0-4.72-.21-9.46-.38-14.13-.38-21.84,0-42,4-49.83,26.8,3,14.81,2.18,33.14-1.67,47.85v.09c6.29,43.71,25.71,40,56.43,42.59,5.48.45,19.65,2,34.22,2,21.33,0,43.51-3.46,40.58-18.88a10.25,10.25,0,0,0,5.09,1.53c9,0,14.25-15.8,16.57-33.8a181.82,181.82,0,0,0,1.35-27.27c-.21-7.57-.94-14.19-2.11-18.63q-3.29,3.57-6.58,7.12c1-24.8-12.07-32.09-28.62-33.15-1.57-.1-3.17-.15-4.8-.14"/><path class="cls-8" d="M742.74,613.38c-8.08,0-16.69,1.2-25,2.35-7.21,1-14,1.94-19.64,1.95h0c-.69,0-1.37,0-2,0H696c-4.44,0-8.9,23.13-13.59,23.14-12.08,0-25.16-12.15-34.47-12.14-3.09,0-5.76,1.34-7.84,4.91-5.85,10-7.17,26.49-3.93,49,4.77,33.19,16.47,34,42.1,35.61,2.93.18,6,.38,9.12.65.92.07,2.09.17,3.46.3,6.91.64,18.47,1.71,30.42,1.7,29.25,0,34.34-6.61,35.07-7.93.12-.22.17-.31,0-1L727,668.46l37,34a6.19,6.19,0,0,0,3,.94h0c.72,0,2.85,0,5.4-5.19C778,686.79,780,662.07,779,645.7l-9.18,9.94.72-17.34c.29-7.12-.78-12.38-3.28-16.1-4-5.94-12-8.83-24.5-8.82"/><path class="cls-7" d="M538.21,719.16l-4.11-.07c-26.49-.45-43-2.09-49.31-29.19-2-8.63,13.66-24.42,16.76-40.26,3.17-16.17-6.59-29.89-1.78-33.92,1.78-1.48,10.39-4,31.31-4a315.79,315.79,0,0,1,53.53,4.71c21.4,3.92,29.53,8.73,30.84,10.74a5.39,5.39,0,0,1-.38-3.48l9.65,7.12a69.23,69.23,0,0,1,3.66,20.85c.44,11.29-28.33,14.43-31.34,24.1-1.65,5.27,21,26.44,13.62,26.45h-.46l-5.89-.38,0,8.26c0,6.51-9.51,11.25-22.56,11.26a57.12,57.12,0,0,1-21.36-4.17c-5.93-2.49-10.43-6-12-9.3l-11.21-23.24,1.09,34.57m-7.13-115.4c-16.56,0-30,1.64-34.2,5.16-6.45,5.4-11.82,19.61-15.15,35.34,1.91,15.77,1.2,34.68-2.7,46.21q.18,1,.39,1.89c8.9,38.48,36.45,33.72,64.7,34.91l-.48-15c5.1,10.57,22.42,17,38.07,16.94,14.83,0,28.17-5.77,28.22-19.15l.73,0c9.07,0,16-11.19,19.94-26.11,3.85-14.71,4.71-33,1.67-47.85-1.37-6.65-3.52-12.59-6.55-17.16a35,35,0,0,0-5.22,6.86c2.8-13.66-51.5-22.11-89.42-22.07"/><path class="cls-8" d="M531.08,611.68c-20.92,0-29.53,2.56-31.31,4-4.81,4,5,17.75,1.78,33.92-3.1,15.84-18.76,31.63-16.76,40.26,6.27,27.1,22.82,28.74,49.31,29.19l4.11.07-1.09-34.57,11.21,23.24c1.6,3.33,6.1,6.81,12,9.3a57.12,57.12,0,0,0,21.36,4.17c13,0,22.53-4.75,22.56-11.26l0-8.26,5.89.38h.46c7.4,0-15.27-21.18-13.62-26.45,3-9.67,31.78-12.81,31.34-24.1a69.23,69.23,0,0,0-3.66-20.85l-9.65-7.12a5.39,5.39,0,0,0,.38,3.48c-1.31-2-9.44-6.82-30.84-10.74a315.79,315.79,0,0,0-53.53-4.71"/><path class="cls-7" d="M335.6,582.21c-1.06,0-1.76-.25-2.05-.75-2.41-4.05-.12-21.29,1.39-32.7.35-2.65.7-5.31,1-8,2.23-18,4-28.08,7.56-33.52,3.17-4.86,8.67-7.36,21-9.57l.23,0c5.51,0,22.08,32.37,39.08,32.35,15.67,0,28-31.44,38.62-31.45a5,5,0,0,1,1,.1c18.09,3.59,21.64,9.06,22.16,10.12.19.37.29.57,0,1.51L459,535.72l15.83-16.81c2,8.92,1,18.23,0,28.63-.59,5.78-1.19,11.77-1.32,18-5.74,26.68-15.53,32.08-29.42,32.09h0a129.72,129.72,0,0,1-17.55-1.74c-3.59-.52-7.31-1.06-11.11-1.46a76.13,76.13,0,0,0-8-.38c-7.05,0-14.68.79-22.05,1.55s-15.23,1.57-22.46,1.58a62,62,0,0,1-15.3-1.61l11.18-23.68-16,8.06c-3.7,1.86-6,2.25-7.19,2.25m66.69-94.69c-17.35,0-32.67,1.32-38.42,2.35-25.49,4.54-28.66,11.15-33.46,49.59-.93,7.42-2,15-2.76,22-.31,2.89-.54,5.68-.67,8.3-.59,11.89,1,20.43,8.61,20.42,2.4,0,5.4-.85,9.11-2.72-2.06,4.33-4.1,8.68-6.16,13,6.83,3.39,14.73,4.56,23.07,4.66C368.42,603.85,379,603,391,603c5.67-.56,11.23-1,16.49-1a70.7,70.7,0,0,1,7.52.36c10.37,1.09,20.24,3.23,29.09,3.22,14.89,0,26.94-6.09,33.83-33.4q.66-2.58,1.24-5.4c.12-11.84,2.27-23.28,2.49-34.56.16-8.56-.8-17-4.63-25.52l-6,6.37c5.47-20.81-35.37-25.57-68.73-25.54"/><path class="cls-8" d="M364.79,497.7l-.23,0c-12.35,2.21-17.85,4.71-21,9.57-3.54,5.44-5.33,15.56-7.56,33.52-.34,2.64-.69,5.3-1,8-1.51,11.41-3.8,28.65-1.39,32.7.29.5,1,.75,2.05.75,1.24,0,3.49-.39,7.19-2.25l16-8.06-11.18,23.68a62,62,0,0,0,15.3,1.61c7.23,0,15-.81,22.46-1.58s15-1.54,22.05-1.55a76.13,76.13,0,0,1,8,.38c3.8.4,7.52.94,11.11,1.46a129.72,129.72,0,0,0,17.55,1.74h0c13.89,0,23.68-5.41,29.42-32.09.13-6.24.73-12.23,1.32-18,1.05-10.4,2-19.71,0-28.63L459,535.72l6.68-25.39c.25-.94.15-1.14,0-1.51-.52-1.06-4.07-6.53-22.16-10.12a5,5,0,0,0-1-.1c-10.58,0-22.95,31.44-38.62,31.45-17,0-33.57-32.35-39.08-32.35"/><path class="cls-7" d="M333.44,700.31c-.18-4.46.61-13,1.13-18.46.47-5,1-10.13,1.24-15.17,1-17.95,1.79-29.43,4.78-37.51,2.06-5.57,5.81-11.75,18.05-15.35,5.94-1.75,18.78-2.88,32.72-2.89,36.55,0,66.2,7.1,72.12,17.36a3.92,3.92,0,0,1,.61,2.93l-3.71,24.38,13.07-16.92,1.32-1.72c3.38,15.57,3.17,39.67-1.21,51.17-1.91,5-3.58,5-4.13,5h0c-.92,0-3-.53-6.27-4.08l-8.09-8.64-1,14.2c-.63,9-.78,15.11-.8,19.22a28.09,28.09,0,0,0-9.84,4c-3.12,1.91-7.85,2.84-14.46,2.84-3.63,0-7.38-.25-11-.51-3.38-.23-6.58-.45-9.49-.45h-.33c-3.76,0-7.84.29-12.16.56-4.91.32-10,.65-15,.65-26.82,0-31.17-10.72-31.88-21.23l-1-14.27-8.1,8.75a39.77,39.77,0,0,1-6.64,6.07M391.36,603H391c-12,0-22.56.85-29.37,2.11a39.57,39.57,0,0,0-4.12.95c-23.95,7-25.39,24.88-27.32,60-1.08,19.68-5.66,42.94,1.69,42.94,2.41,0,6.11-2.52,11.66-8.5,1.64,24.23,19.17,28.42,37.5,28.4,9.55,0,19.31-1.16,27.16-1.21h.3c2.93,0,6.27.24,9.77.49s7.15.48,10.74.47c6.21,0,12.19-.74,16.7-3.5,4.94-3,8.05-3.59,10-3.6a10.21,10.21,0,0,1,1.53.12,8,8,0,0,0,1,.12c1.63,0-.11-2.71,1.53-26.44,3.71,4,6.93,5.71,9.7,5.7,4.27,0,7.44-4.15,9.62-10.6,3.9-11.53,4.61-30.44,2.7-46.21-1-8.38-2.77-15.87-5.19-20.91-2.24,3.26-4.55,6.44-6.92,9.51,3.51-23-43.09-29.9-78.26-29.87"/><path class="cls-8" d="M391.36,610.93c-13.94,0-26.78,1.14-32.72,2.89-12.24,3.6-16,9.78-18.05,15.35-3,8.08-3.8,19.56-4.78,37.51-.28,5-.77,10.19-1.24,15.17-.52,5.5-1.31,14-1.13,18.46a39.77,39.77,0,0,0,6.64-6.07l8.1-8.75,1,14.27C349.85,710.27,354.2,721,381,721c5,0,10.07-.33,15-.65,4.32-.27,8.4-.54,12.16-.56h.33c2.91,0,6.11.22,9.49.45,3.63.26,7.38.52,11,.51,6.61,0,11.34-.93,14.46-2.84a28.09,28.09,0,0,1,9.84-4c0-4.11.17-10.22.8-19.22l1-14.2,8.09,8.64c3.31,3.55,5.35,4.08,6.27,4.08h0c.55,0,2.22,0,4.13-5,4.38-11.5,4.59-35.6,1.21-51.17l-1.32,1.72L460.38,655.6l3.71-24.38a3.92,3.92,0,0,0-.61-2.93c-5.92-10.26-35.57-17.4-72.12-17.36"/><path class="cls-7" d="M213.71,717.09c-11.64-2.11-19.33-3.5-23.76-7.68-3.36-3.17-6.07-8.87-8.44-26.41-2.79-20.8-.88-36.42,5.83-47.8,9.59-16.24,29.15-24.14,59.8-24.17,16.09,0,32.25,2.08,46.51,3.93,4.23.56,8.23,1.08,11.92,1.5,6.16.79,10.77,4.51,14,11.38,3,6.35-16.74,14.66-16.42,25.16.28,9.38,20.85,20.32,18.92,29-3.39,15.26-6.18,20.76-12.89,29.89-1.18-1.44-2.63-3.48-3.55-4.8-3.63-5.11-6.25-8.81-9.83-8.81-2.74,0-5.14,2.4-6.13,6.1l-.52,2,.24,2.07c.33,2.9-.25,4.33-.88,5.36-1.56,2.57-7.56,8.56-29.48,8.58-16.23,0-32.36-35.87-41.81-37.59l-3.55,32.32m33.43-114c-29.23,0-57.51,7-68.11,35.39,2.58,15.24,1.26,33.17-3.37,43.59.09.79.2,1.59.3,2.4,4.75,35.28,12.17,36,38.49,40.73,9.17,1.67,27.65,5.09,44.62,5.08,20.08,0,38.05-4.86,35.94-23.15.17-.64.45-.92.82-.92,1.35,0,3.87,3.73,6.53,7.47s5.47,7.48,7.4,7.48a1.45,1.45,0,0,0,1.19-.65c8.76-11.59,12.47-17.79,16.55-36.18,6-27.12,4.34-72.48-21.46-75.78-15.84-1.81-37.62-5.48-58.9-5.46"/><path class="cls-8" d="M247.14,611c-30.65,0-50.21,7.93-59.8,24.17-6.71,11.38-8.62,27-5.83,47.8,2.37,17.54,5.08,23.24,8.44,26.41,4.43,4.18,12.12,5.57,23.76,7.68l3.55-32.32c9.45,1.72,25.58,37.61,41.81,37.59,21.92,0,27.92-6,29.48-8.58.63-1,1.21-2.46.88-5.36l-.24-2.07.52-2c1-3.7,3.39-6.09,6.13-6.1,3.58,0,6.2,3.7,9.83,8.81.92,1.32,2.37,3.36,3.55,4.8,6.71-9.13,9.5-14.63,12.89-29.89,1.93-8.68-18.64-19.62-18.92-29-.32-10.5,19.43-18.81,16.42-25.16-3.27-6.87-7.88-10.59-14-11.38-3.69-.42-7.69-.94-11.92-1.5-14.26-1.85-30.42-4-46.51-3.93"/><path class="cls-7" d="M92.05,617.53c3.23,0,7.86-.46,13.72-1,8.12-.8,18.23-1.78,27.77-1.79,22.52,0,27.21,5.68,28.13,7.44.21.42.72,1.41,0,4.33l-4.85,20.76,15.25-13.37c3.83,13.62,3.13,32.52-.67,42.62-1.59,4.23-3.43,6.38-5.43,6.39h-.26l-7.74-.59-14.39,9.81c2.11,11.31,17.21,16.52,16.29,18.2-1.35,2.46-4.4,3-6.71,3-4.27,0-10-1.71-16.64-5l-23.46-9,16,17.82a3.14,3.14,0,0,1,0,.85s-1.76,3.13-12.62,3.14c-13.23,0-31.9-4.48-48.37-8.45-12.74-3.07-23.74-5.72-30.08-5.72a14.56,14.56,0,0,0-3.79.43c-4.84-5.09-6.06-16.31-4.63-25.73,1.25-8.22,5-17.82,11.47-17.86l12.14-.08-7.84-13c-6.66-11,7-16.71,8.4-21.13,2.84-8.58,5.59-13,13.82-13,6,0,11.86.34,17.08.64,2.19.13,4.24.25,6.1.34l1.24,0m41.5-10.74c-8.18,0-16.67.71-24.06,1.41s-13.67,1.39-17.43,1.4l-1.06,0c-6.32-.28-14.78-1-23.35-1-25.21,0-51.34,6.18-26.55,47.21-18.91.12-24.63,49.36-7.34,60.25.61-.85,2.1-1.22,4.28-1.22,6.82,0,20.43,3.54,35.33,7.09S104.48,729,116.5,729c11.63,0,19.34-3.34,18.19-13.21,6.81,3.34,13.22,5.41,18.5,5.41,10.42,0,16.4-8.11,12.25-30.42l.56,0c4,0,7.28-3.37,9.66-8.72,4.63-10.42,6-28.35,3.37-43.59a59.11,59.11,0,0,0-4.76-15.85l-7.19,6.3c3.32-14.18-7-19.75-21.14-21.49l-.23,0q-1.1-.16-2.22-.3c-3.19-.29-6.54-.41-9.94-.4"/><path class="cls-8" d="M133.54,614.71c-9.54,0-19.65,1-27.77,1.79-5.86.57-10.49,1-13.72,1l-1.24,0c-1.86-.09-3.91-.21-6.1-.34-5.22-.3-11.13-.65-17.08-.64-8.23,0-11,4.44-13.82,13-1.45,4.42-15.06,10.12-8.4,21.13l7.84,13-12.14.08c-6.47,0-10.22,9.64-11.47,17.86-1.43,9.42-.21,20.64,4.63,25.73a14.56,14.56,0,0,1,3.79-.43c6.34,0,17.34,2.65,30.08,5.72,16.47,4,35.14,8.46,48.37,8.45,10.86,0,12.61-3.14,12.62-3.14a3.14,3.14,0,0,0,0-.85l-16-17.82,23.46,9c6.62,3.26,12.37,5,16.64,5,2.31,0,5.36-.52,6.71-3,.92-1.68-14.18-6.89-16.29-18.2L158,682.28l7.74.59H166c2,0,3.84-2.16,5.43-6.39,3.8-10.1,4.5-29,.67-42.62l-15.25,13.37,4.85-20.76c.68-2.92.17-3.91,0-4.33-.92-1.76-5.61-7.46-28.13-7.44"/><path class="cls-7" d="M52.72,517.19a5.15,5.15,0,0,0,3-1.09c.27-.05-4.52-21.23-3.46-21.24,6.06,0,17.86,2.3,26.47,4a106.86,106.86,0,0,0,11.16,1.9c.54,0,1.1,0,1.69,0a163.86,163.86,0,0,0,17-1.48,8.21,8.21,0,0,1,.84-.05c7.66,0,13.42,12,21.51,12,14.64,0,22.83-7.43,25.62-7.43a.89.89,0,0,1,.84.45c.39.67,1.4,2.42.69,7.06l-15.86,14.19,23-5a4.18,4.18,0,0,1,1.62-.38c3,0,4.72,8.17,5.06,15.77,1.09,24.07-8.4,59.54-26.33,63.56a129.29,129.29,0,0,0-18.31-1.09c-7.83,0-16.28.45-24.45.88-8.45.44-17.18.9-25.53.9-9.35,0-22-.47-33-4.05a31.87,31.87,0,0,0,1.71-7.37l9.66-7.69-14.19-1.36a18.59,18.59,0,0,0-4.72-.61,18.84,18.84,0,0,0-6.39,1.15c-.92-8.37-.12-17.72.65-26.82.31-3.61.63-7.34.84-10.94.07-1.35.15-2.44.23-3.31l.48,0c4.61,0,8.55-3.77,12.1-11.51,3.94-8.61,0-16.18-1.82-19.82a20.82,20.82,0,0,1-1.59-3.57v0c.15,0,1.46,3.23,3.5,6.45s4.82,6.44,7.91,6.44m-.4-30.25c-2,0-3.41.21-4.12.73-25.77,18.59-3.05,24.42-8.24,35.77-3,6.52-5.41,7.85-7.35,7.85a6.61,6.61,0,0,1-1.83-.31,6.25,6.25,0,0,0-1.51-.31c-1.52,0-2.48,1.77-3,11.22-.89,15.66-4,33.65.33,49A17,17,0,0,1,36.79,587a14.1,14.1,0,0,1,3.68.49,18.76,18.76,0,0,1-6.3,12.52c11.66,6.47,26.94,8.1,43.13,8.09,8.33,0,16.9-.45,25.35-.9s16.79-.88,24.64-.89a134.27,134.27,0,0,1,16.2.84q1.13.13,2.22.3l.23,0c33.28-6.45,40.59-95.21,20.95-95.21a8.2,8.2,0,0,0-3.28.75c2.91-19.17-11.85-23.64-29.4-23.62a209.21,209.21,0,0,0-23.46,1.74c-7.51.87-14.3,1.74-19.11,1.74-.53,0-1,0-1.52,0-4.2-.18-27.71-5.89-37.8-5.88"/><path class="cls-8" d="M52.3,494.86c-1.06,0,3.73,21.19,3.46,21.24a5.15,5.15,0,0,1-3,1.09c-3.09,0-5.87-3.22-7.91-6.44s-3.35-6.45-3.5-6.45v0a20.82,20.82,0,0,0,1.59,3.57c1.86,3.64,5.76,11.21,1.82,19.82-3.55,7.74-7.49,11.5-12.1,11.51l-.48,0c-.08.87-.16,2-.23,3.31-.21,3.6-.53,7.33-.84,10.94-.77,9.1-1.57,18.45-.65,26.82a18.84,18.84,0,0,1,6.39-1.15,18.59,18.59,0,0,1,4.72.61l14.19,1.36-9.66,7.69a31.87,31.87,0,0,1-1.71,7.37c10.94,3.58,23.63,4.06,33,4.05,8.35,0,17.08-.46,25.53-.9,8.17-.43,16.62-.87,24.45-.88a129.29,129.29,0,0,1,18.31,1.09c17.93-4,27.42-39.49,26.33-63.56-.34-7.6-2.07-15.78-5.06-15.77a4.18,4.18,0,0,0-1.62.38l-23,5,15.86-14.19c.71-4.64-.3-6.39-.69-7.06a.89.89,0,0,0-.84-.45c-2.79,0-11,7.42-25.62,7.43-8.09,0-13.85-12-21.51-12a8.21,8.21,0,0,0-.84.05,163.86,163.86,0,0,1-17,1.48c-.59,0-1.15,0-1.69,0a106.86,106.86,0,0,1-11.16-1.9c-8.61-1.69-20.41-4-26.47-4"/><path class="cls-7" d="M42.94,472.21a6.27,6.27,0,0,1-1.43-.16l6.94-2.46-8-9.94C30.29,447,24.11,415.23,37.19,392.38c5.78-10.09,10.64-12.12,16.62-12.13a68,68,0,0,1,9,.88A102.66,102.66,0,0,0,75,382.33c1.48,0,3.05.06,4.65.06,7.5,0,15.27-.45,22.77-.86s15.2-.85,22.62-.86a143,143,0,0,1,14.59.67,64.18,64.18,0,0,0,7,.29h2.23c5.26,0,9.06.27,14,3.78-.1.76-.22,1.58-.31,2.25-.87,6-21.45,14.76-17.31,19.77L166.28,409l2.3-.21a11.05,11.05,0,0,0,4.47-1.36,102,102,0,0,1-5.13,49.94c-3.14,8.18-10.15,22.13-22.2,24.75-24.93-3.72-52.3-26.48-80.3-27h0c-2.09,0-5.53,4.28-9.53,8.57s-8.55,8.58-12.92,8.58m10.87-99.88c-7.52,0-14,2.85-21,15.09-15,26.14-8.45,62.74,3.93,78.16-33.19,11.76,24.43,18,30.25,18.1a598.77,598.77,0,0,1,78.83,6.38c14-2.54,24.34-18,29.77-37.07a114.75,114.75,0,0,0,3.8-41.23,79,79,0,0,0-3.91-18.58q-2,7.19-7.23,7.66c-3.09-3.75,2.23-18.29-.3-20.46-7.48-6.38-12.93-6.68-19.21-6.68h-2.26a58.48,58.48,0,0,1-6.44-.28,145,145,0,0,0-15-.68c-7.53,0-15.18.43-22.81.85s-15.24.85-22.67.86c-1.51,0-3,0-4.49,0-8.32-.21-15.13-2.09-21.26-2.08"/><path class="cls-8" d="M53.81,380.25c-6,0-10.84,2-16.62,12.13-13.08,22.85-6.9,54.58,3.29,67.27l8,9.94-6.94,2.46a6.27,6.27,0,0,0,1.43.16c4.37,0,8.93-4.29,12.92-8.58s7.44-8.57,9.53-8.57h0c28,.53,55.37,23.29,80.3,27,12.05-2.62,19.06-16.57,22.2-24.75a102,102,0,0,0,5.13-49.94,11.05,11.05,0,0,1-4.47,1.36l-2.3.21-21.14-1.52c-4.14-5,16.44-13.8,17.31-19.77.09-.67.21-1.49.31-2.25-4.9-3.51-8.7-3.78-14-3.78h-2.23a64.18,64.18,0,0,1-7-.29,143,143,0,0,0-14.59-.67c-7.42,0-15.15.44-22.62.86s-15.27.85-22.77.86c-1.6,0-3.17,0-4.65-.06a102.66,102.66,0,0,1-12.19-1.2,68,68,0,0,0-9-.88"/><path class="cls-7" d="M100.4,244.64c-30.23,0-59.5-2.77-68.83-23.29-5.36-11.77-4-30,4-54.32,6.69-20.22,16.25-24.37,28.56-24.38,5.78,0,12.07,1,18.73,2.06,7.45,1.2,15.15,2.43,23.1,2.42h.37c3.5,0,8.38-.83,14-1.77,6.38-1.07,13.62-2.27,19.11-2.28a15.69,15.69,0,0,1,5.62.72l.71.28h.73c4.77.1-1.22,18.72,3.28,20.81-.15,4.06,4.89,2.5,6.22,6.34l6.83-7-.06,15.67h0c1,0,5.09-16,6-16a7.74,7.74,0,0,0,3.39-.79c4.2,13.76,3.78,32.8-1.48,50.27-5.41,18-14.45,29.95-24.28,32.15a171.13,171.13,0,0,0-22.95-1.16c-3.62,0-7.27.05-11.15.1s-7.92.09-11.94.09h0m35.09-107.78c-10.24.68-23.36,3.89-29.73,3.93h-.35a131.4,131.4,0,0,1-20.83-2.1c-2.29.05-4.57.09-6.83.09a144.22,144.22,0,0,1-23-1.55C44.57,139.57,36,147,29.9,165.29c-21.55,65.14,4.89,82.8,40,87.36a233.68,233.68,0,0,0,29.94,1.51c4,0,7.91,0,11.78-.09s7.71-.1,11.4-.1a160.21,160.21,0,0,1,23,1.21c13.56-2.47,24.41-19.08,30-39.24a110,110,0,0,0,3.45-42A62.55,62.55,0,0,0,173,152.27c-1,3.57-2.58,5.36-4.73,5.37a4.76,4.76,0,0,1-1.48-.26,22,22,0,0,1-.35-13.4,39.69,39.69,0,0,0-20.36-6.23,93.55,93.55,0,0,0-10.59-.89"/><path class="cls-8" d="M64.15,142.65c-12.31,0-21.87,4.16-28.56,24.38-8,24.27-9.38,42.55-4,54.32,9.33,20.52,38.6,23.32,68.83,23.29h0c4,0,8,0,11.94-.09s7.53-.09,11.15-.1a171.13,171.13,0,0,1,22.95,1.16c9.83-2.2,18.87-14.15,24.28-32.15C176,196,176.41,177,172.21,163.19a7.74,7.74,0,0,1-3.39.79c-.87,0-5,16-6,16h0l.06-15.67-6.83,7c-1.33-3.84-6.37-2.28-6.22-6.34-4.5-2.09,1.49-20.71-3.28-20.81h-.73l-.71-.28a15.69,15.69,0,0,0-5.62-.72c-5.49,0-12.73,1.21-19.11,2.28-5.66.94-10.54,1.75-14,1.77H106c-8,0-15.65-1.22-23.1-2.42-6.66-1.07-12.95-2.07-18.73-2.06"/><path class="cls-7" d="M52.29,38.16a2.06,2.06,0,0,1-1.15-.29c-1-.63-3.56-5.89-2.66-7.36,0-.06,1-1.54,6.26-2.42,4.61-.78,10.6-.8,16.95-.84,3,0,6,0,9.07-.12,1.95-.07,3.94-.1,5.95-.1a267,267,0,0,1,52.44,5.56c24.8,5,32,7.85,33,37.8.71,21.86-5.87,48.55-26.69,52.38a130.3,130.3,0,0,0-15.84-.79c-7.77,0-16.1.41-24.92.85-9.07.44-18.46.91-27.45.91-2.1,0-4.33,0-6.66-.08l-12.37-16-9.14-2.94c-4.66-1.49-8.42-2.33-11.44-3-2.6-.59-5.83-1.3-6.45-2-1.08-1.8-.56-13.67-.38-18.14.17-3.77,0-12,2.21-15,1-1.4,2.84-1.7,4.84-1.7.72,0,1.46,0,2.19.08s1.41.07,2.07.07a8.62,8.62,0,0,0,2.33-.27,35.83,35.83,0,0,1,5.39-1.64,6,6,0,0,1,.74,0,15.17,15.17,0,0,1,3.15.46,14.87,14.87,0,0,0,3.11.45A5.28,5.28,0,0,0,58,63.93c5.38-1.19,5.53-15.1,5.36-21.11a5.23,5.23,0,0,0-.3-1.92,3,3,0,0,0-1.13-1.24,11.64,11.64,0,0,0-6-2.06h-.09a8.31,8.31,0,0,0-1.71.28,8.47,8.47,0,0,1-1.82.28M87.3,13c-2,0-4.08,0-6.1.11-25,.87-52-4.34-29.31,35.07-3.5,7.48-7.43,8.65-11.15,8.66-.84,0-1.67-.06-2.49-.12s-1.62-.12-2.39-.12c-5.18,0-9.28,2.69-10.15,26-1.33,35.16.92,26.49,22.47,34.34L32,128.7c6.1,4.47,14,7.09,22.78,8.53a144.22,144.22,0,0,0,23,1.55c2.26,0,4.54,0,6.83-.09,6.68-.17,13.45-.54,20.1-.91,8.91-.49,17.58-1,25.48-1,1.82,0,3.6,0,5.33.08a93.55,93.55,0,0,1,10.59.89c23.85-4.34,33.14-36.74,32.25-67.85-1.14-40-12.08-44.51-37.67-50.45A240.7,240.7,0,0,0,87.3,13"/><path class="cls-8" d="M124.34,70.49C100,70.52,80.26,69,80.26,69s19.73-1.6,44.08-1.62,44.08,1.54,44.08,1.54-19.74,1.6-44.08,1.62M86.71,27c-2,0-4,0-5.95.1-3.05.09-6.11.1-9.07.12-6.35,0-12.34.06-16.95.84-5.28.88-6.22,2.36-6.26,2.42-.9,1.47,1.67,6.73,2.66,7.36a2.06,2.06,0,0,0,1.15.29,8.47,8.47,0,0,0,1.82-.28,8.31,8.31,0,0,1,1.71-.28h.09a11.64,11.64,0,0,1,6,2.06,3,3,0,0,1,1.13,1.24,5.23,5.23,0,0,1,.3,1.92c.17,6,0,19.92-5.36,21.11a5.28,5.28,0,0,1-1.19.12,14.87,14.87,0,0,1-3.11-.45,15.17,15.17,0,0,0-3.15-.46,6,6,0,0,0-.74,0,35.83,35.83,0,0,0-5.39,1.64,8.62,8.62,0,0,1-2.33.27c-.66,0-1.36,0-2.07-.07s-1.47-.08-2.19-.08c-2,0-3.84.3-4.84,1.7-2.16,3-2,11.25-2.21,15-.18,4.47-.7,16.34.38,18.14.62.67,3.85,1.38,6.45,2,3,.66,6.78,1.5,11.44,3l9.14,2.94,12.37,16c2.33.06,4.56.09,6.66.08,9,0,18.38-.47,27.45-.91,8.82-.44,17.15-.85,24.92-.85a130.3,130.3,0,0,1,15.84.79c20.82-3.83,27.4-30.52,26.69-52.38-1-29.95-8.17-32.75-33-37.8A267,267,0,0,0,86.71,27"/><path class="cls-7" d="M124.34,67.33C100,67.35,80.26,69,80.26,69s19.73,1.57,44.08,1.54,44.08-1.62,44.08-1.62-19.73-1.57-44.08-1.54"/><path class="cls-7" d="M242.47,38.93c-13.1,0-23.73,1-23.73,1s10.63,1,23.73,1c8.54,0,16-.44,20.2-.75l.43,0c2-.15,3.11-.26,3.11-.26s-1-.1-2.68-.22l-1.24-.09c-4.24-.3-11.53-.7-19.82-.7"/><path class="cls-7" d="M376.65,97.93c-11.08,0-20.07.58-20.07.58s9,.55,20.07.54,20.06-.58,20.06-.58-9-.55-20.06-.54"/><path class="cls-7" d="M535.69,152.86a101.88,101.88,0,0,0-19.22,1.87,100.18,100.18,0,0,0,38.43,0,101.71,101.71,0,0,0-19.21-1.83"/><path class="cls-7" d="M249.45,529.3c-24.35,0-44.09,1.62-44.09,1.62s19.73,1.57,44.08,1.55,44.08-1.63,44.08-1.63-19.73-1.56-44.07-1.54"/><path class="cls-7" d="M849.43,395.92a251.51,251.51,0,0,0-26.84,1.46,249.23,249.23,0,0,0,53.69,0,252.18,252.18,0,0,0-26.85-1.42"/><path class="cls-7" d="M896.79,174.25a151.36,151.36,0,0,0-24.3,2,152.92,152.92,0,0,0,24.3,1.94,154.74,154.74,0,0,0,23.61-1.87l.7-.11-.29-.05a152.83,152.83,0,0,0-24-1.91"/><path class="cls-7" d="M593.48,327.65a130.38,130.38,0,0,0-18.93,1.41,130.59,130.59,0,0,0,37.87,0,130.72,130.72,0,0,0-18.94-1.37"/></g></g></g></g></svg>