<svg xmlns="http://www.w3.org/2000/svg" width="1920" height="1080" viewBox="0 0 1920 1080"><defs><style>.cls-1{fill:#663100;}.cls-2{fill:#fff;opacity:0.1;}.cls-3{fill:#3d2e1c;}</style></defs><title>mursten til titelskærm</title><g id="Layer_2" data-name="Layer 2"><g id="Layer_1" data-name="Layer 1"><path class="cls-1" d="M1625.39,537.75c-40.37,11.85-43.13,54.68-43.49,90.49a99,99,0,0,0-3.15,55.29,55,55,0,0,1,23.59,10.13q-4.2,8.05-12.23,7.17c42.38,23.95,120.1,3.37,167.48,6.9,36.81,2.73,129.18,13.46,81.68-59.82,158.07,27.38,43.5-96.27-11.56-106.49C1763.66,529.54,1692.06,549.61,1625.39,537.75Z"/><path class="cls-2" d="M1659.29,702.35c-14.43,0-26.55-1.18-36.57-3.58l3.69-7.07-8-6a66,66,0,0,0-20.49-10.35,86.34,86.34,0,0,1,4.1-41.84l.63-1.81,0-1.92c.42-42.59,6-69.33,32.61-78.58a312.38,312.38,0,0,0,50.81,3.71c17.62,0,35.45-1,52.69-2,16.66-1,33.89-1.94,50.36-1.94,17.41,0,32.33,1.12,45.63,3.41,29.91,5.16,62.43,35.72,64.44,60.56,1,12.76-6.84,21.85-24.07,27.8L1771,628.28l98.12,31.93c7.88,12.15,10.63,21.75,7.76,27-2.19,4-11.93,13.38-55,13.38h0c-16.82,0-33.65-1.41-45.93-2.44-3.15-.26-6-.5-8.44-.69-4.08-.3-8.41-.45-13.24-.45-13.93,0-29.11,1.24-45.18,2.55C1692.54,701,1675.4,702.35,1659.29,702.35Z"/><path class="cls-1" d="M1262.32,828.76c1.33-100.37-17.49-111.49-115.53-109.9-83.4,1.35-162.77-36.19-192.51,55.78-32,98.81,19.43,102.67,96.16,103.33C1123.55,878.6,1235.39,921.49,1262.32,828.76Z"/><path class="cls-2" d="M1159.92,834.14c-19.87,0-32,39.83-52.84,37.19-20.07-2.53-39-4.93-56.54-5.08-42.59-.36-76.13-2-88.2-18.71-8.86-12.28-7.82-35.6,3.08-69.3,14.53-44.92,41.17-54.13,76.69-54.13,13.91,0,45.63,55.78,61.59,57.33,17.81,1.72,19.56-50.83,38.56-50.83,1.57,0,3.15,0,4.72,0,5.5-.09,10.4-.13,15-.13,36.09,0,61,2.53,73.37,15.11,11.52,11.67,15.84,34.56,15.32,81.43-10.66,34.83-35,49.72-81.18,49.72C1169.44,876.7,1159.93,834.14,1159.92,834.14Z"/><path class="cls-1" d="M948.21,655.22c.68-50.85,16.79-92.51-44.62-112-36-11.42-95.42,3.46-133.59,2.22-40.65-1.32-88.2-19.6-116.28,14.26-17,20.53-27.52,109.37-13.61,133.92L665.69,684l-15.94,17.87c42.24,21,117.94,2.27,165.54,5.87C875.18,712.25,926.85,728.81,948.21,655.22Z"/><path class="cls-2" d="M875.58,700.81c-11.16,0-23.41-1.26-36.38-2.6-7.45-.77-15.15-1.57-23-2.17-4.52-.34-9.34-.5-14.75-.5-14,0-29.08,1.12-45,2.3-16.19,1.2-32.92,2.44-48.61,2.44-15.23,0-27.58-1.16-37.71-3.59l4.37-4.9L661.57,673l-14.25,5.36c-2.12-10.94-2.85-28.93-.36-52,3.29-30.36,10.43-52.78,15.78-59.23C672,556,684.66,551,703.82,551c10.72,0,22,1.46,34,3,10.47,1.35,21.3,2.75,31.82,3.09,1.63.05,3.36.08,5.12.08,13.65,0,28.91-1.56,45.06-3.21,16.49-1.68,33.54-3.42,49-3.42,13,0-3.83,63.15,4.2,65.7,41.92,13.31,67.53-26.93,64.84,12.42-.55,7.94-1.11,16.13-1.27,24.73-11.88,39.4-32.17,47.37-60.94,47.37Z"/><path class="cls-1" d="M634.11,828.76c1.09-82.09-1.52-109.55-87.19-111.4-48.4-1-160.08-21.73-196.66,2.12l18.88,13c-43.63-2.81-39.7,17.92-43.63,69.27-1.67,21.84-19.86,75.91,17.79,63.09-12.46,27,115.77,13.35,142.19,15C549.53,884,611.05,908.18,634.11,828.76Z"/><path class="cls-2" d="M559.89,874.82c-12.51,0-26.16-1.61-40.61-3.32-10.71-1.26-21.79-2.57-33-3.29-1.83-.12-4.05-.17-6.77-.17-7.15,0-16.95.39-28.31.84-15.06.6-32.14,1.28-48.41,1.28-29.95,0-42.21-2.46-47.1-4.16l34.75-21.31-50.86,9.09a20.12,20.12,0,0,1-6.23,1.32,5.06,5.06,0,0,1-.67,0c-.41-.77-1.54-3.63-1.19-11.34.34-7.37,1.88-16.19,3.24-24,1.1-6.28,2.14-12.2,2.51-17.09.43-5.57.75-10.67,1.07-15.61,1.07-16.63,1.91-29.78,5.34-36.44,1.28-2.49,3.42-6.65,18.29-6.65,2,0,4.17.08,6.5.23l42.24,2.72-35.18-24.29c9.85-1.91,22.4-2.87,37.57-2.87,26.48,0,56.63,2.9,83.23,5.46,19.9,1.91,37.09,3.56,50.42,3.85,38.5.83,35.24,27.09,44,40.65,9.2,14.23,32.22,19.63,31.74,57.27-12,39.65-33.69,47.83-62.53,47.83Z"/><path class="cls-1" d="M257.21,541.42c92.91-12,90.34-158.21,0-173.55-42.58-7.23-219-15.23-234.64,22.27a169.39,169.39,0,0,1,36.62,22.71c-43.64,1.52-71.76,24.37-52.62,76.82,15.37,42.12-5.92,33.33,42,25.94L32,532.38C93.71,551.84,189.26,534.07,257.21,541.42Z"/><path class="cls-2" d="M115.15,530.15c-24.36,0-44-1.38-60.26-4.28l27-27.24L47.2,476.9C36.83,478.5,29.13,507.3,24,508.53a147.84,147.84,0,0,0-6.47-22.88c-7.07-19.38-7.24-34.27-.5-44.27,4.83-7.17,16.62.13,43-.79l30.78-17.12L66.57,403.76a181,181,0,0,0-23.69-16.31c14.85-6.76,48.57-14,114.05-14,41.19,0,81.4,3.05,98.32,5.93,41.45,7,59.61,46,58.95,79.17-.58,29.14-19.61,27.51-60.85,33.54-11.89-1.22-21.83,35.68-37.9,35.68s-33.25.59-49.78,1.16c-16.72.58-34,1.18-50.51,1.18Z"/><path class="cls-1" d="M641.37,522c21.78,29.71,181.43,16.43,218.76,16.58,70.48.3,142.48-102,71.06-159.17-35.14-28.13-179.85-17-222-11.57-51.85,6.65-51.83,6.67-69,59.67C633.54,448.05,627.11,502.59,641.37,522Z"/><path class="cls-2" d="M753.33,529.73c-28.89,0-51.41-1.21-68.84-3.69-27.27-3.88-32.84-9.79-33.68-10.93-4.51-6.16-6.82-20.93-6.17-39.51.65-18.36,3.91-35.91,6.68-44.46,7.65-23.66,64.4,7.74,70.54,2.42,6-5.15-34-51.15-11.22-54.07A990,990,0,0,1,822,372.79c24.7,0,84.09,1.54,101.9,15.79,31.49,25.2,26.55,56.44,20.8,72.81-6.11,17.42-18.13,33.82-33.86,46.18s-68.06-11.93-84.71-11.93l33.36,31.26c-7.25,0-18.12.42-31.87,1C806.37,528.69,780,529.73,753.33,529.73Z"/><path class="cls-1" d="M1576.41,134.59a78.69,78.69,0,0,0,6.69,39.52L1621,158.92l-29.91,21.84c32.49,17.09,233.29,26.9,267.9,6.09,48.68-29.27,49.21-187-11.17-143.57C1829,1.9,1720,6.72,1672.89,10.69,1580.68,18.44,1598.35,59,1576.41,134.59Z"/><path class="cls-2" d="M1738.54,113.8c-56.39,0-91.23,68.16-121.29,62.39l10.69-7.81L1616.68,148,1590,158.72a66.76,66.76,0,0,1-2-22c4.78-16.66,7.67-31.52,10.24-44.67,4.37-22.47,7.54-38.7,16.89-49.47,9.87-11.38,28-17.61,58.76-20.19,19.65-1.65,38.47-2.49,55.94-2.49,60,0,99.18,10.3,107.38,28.27l5.92,13,11.57-8.32c4.77-3.43,9.11-5.31,12.25-5.31,6.92,0,11,11.9,12.39,17,9.59,34.57-1.89,97.61-26.34,112.31C1844.88,181.69,1795.65,113.8,1738.54,113.8Z"/><path class="cls-1" d="M954.28,254c2.58,29.78-16.57,64.85.18,92.94l31.91-21L963,354.33c42.16,22.08,159.46,10.53,211.22,10.73,63.67.26,118.74-53.21,90.77-124.83-25.12-64.3-93.16-41.64-149-41.45C1046.62,199,971.84,165.89,954.28,254Z"/><path class="cls-2" d="M1062.75,356.19c-36.27,0-62.79-2.31-80.33-7l13-15.83-15.5-17.21-19.79,13.05c-2.21-11.44.08-24.48,2.46-38.07,2.09-11.92,4.25-24.22,3.49-36.34,8.79-41.74,30.57-50.18,62.76-50.18,12.33,0,25.66,1.35,39.78,2.78,15.19,1.54,30.9,3.13,46.59,3.13h.78c11.9,0,24.3-1.06,36.29-2s24.17-2,35.57-2c36.5,0,55.69,11,66.24,38,13.29,34.05,4.39,58.32-5.43,72.69-15.24,22.31-73.57-20.66-104-20.66l28.15,56.83c-12,0-26.77.55-43.85,1.2C1108.51,355.32,1085.29,356.19,1062.75,356.19Z"/><path class="cls-1" d="M320,134.59c-.83,62.27,41.43,50,87.89,50.22s119.67,20,163.39,9.52c133.89-32.19,47.25-252.95-70.8-159.64C477.17,8.17,401-4.79,362.67,19.19,319.82,46,332.59,91.28,320,134.59Z"/><path class="cls-2" d="M540.47,185.69c-21.38,0-46.1-3.33-70-6.55-22.74-3.07-22-11.37-40.24-11.46L408,141.91c-6.63,0-14.41,31.41-20.64,31.63-5.76.2-11.19.39-16.34.39h0c-16.85,0-25.91-2.22-31.28-7.66s-8-15.47-8-30c3.81-13.74,5.28-27.23,6.7-40.3,3.12-28.66,5.59-51.29,30.45-66.83,11.2-7,27.84-10.86,46.86-10.86,31.2,0,63.86,10.39,76,24.16l7.34,8.34,8.71-6.89C524.81,30.4,545.27,67,561.39,67c21.56,0,33.17-31.22,42.17-21,12.3,14,20.7,33.24,23,52.91,2.25,19-1.28,37.29-9.94,51.52-10,16.34-26.14,27.3-48.09,32.57C560.87,184.79,551.68,185.69,540.47,185.69Z"/><path class="cls-3" d="M1241.72,697.69c.4,1.68,60.94-159.68-.59-116.11,5.68-63.24-93.06-35.22-141.1-35.93-23.85-.35-154.91-25.84-116.15,25.33l-18-9.59c-28.53,63.4-35.37,141.27,43.62,147.49C1052.61,712.27,1213.86,731.74,1241.72,697.69Z"/><path class="cls-2" d="M1146.16,705.78c-42,0-89-4.34-117.09-6.92-7.39-.69-13.77-1.27-18.67-1.66-21.64-1.71-36.71-9.5-44.81-23.17-12.21-20.62-9.84-56,6.08-96.28l6.7,3.57,14.85-17.41c-3.75-4.94-4.54-7.61-4.7-8.56,1.34-1,83.6,38.68,105.81,38.68,18.91,0-34.44-40.74-17.92-38.85,10.33,1.18,18.49,2.11,23.45,2.18l2,0h0c11.12,0,54.76,23.94,68.57,22.6,15-1.47-.08-28.2,14.09-28.2,20.67,0,34.26,3.41,40.4,10.12,3.79,4.15,5.27,10.24,4.51,18.63l-2.26,25.27,20.7-14.66a38.1,38.1,0,0,1,8.48-4.83c1,4.37,2,18-7.68,53.43a538,538,0,0,1-16.84,51.4c-5,5-22.93,14.64-85.7,14.64Z"/><path class="cls-3" d="M1576.41,828.76c.41-31.38,14.52-61.24-5.72-90.53l-16.18,9.39,8.87-17.8C1528.06,697.55,1367,707,1324.33,713.13c-40.39,5.81-83.81,73.65-60.51,139.73,10.52,29.83,40.77,25.55,72.06,27.13C1409.79,883.74,1550.1,919.38,1576.41,828.76Z"/><path class="cls-2" d="M1461.11,878.31c-26.27,0-54.42-3.1-79.25-5.83-16.41-1.8-31.91-3.5-45.39-4.19-4.68-.23-9.3-.34-13.76-.45-29.51-.7-42.1-2.6-47.84-18.88-10.39-29.45-6.68-63.4,9.93-90.82,11.25-18.57,37.82,4.25,52,2.21,17-2.44,48.31-41.69,94.79-41.69,72.61,0,103.63,8.58,116.73,15.14l-86.2,66.38,104.09-45.8c5.72,14.2,3.61,29.13,1.24,45.92a234.79,234.79,0,0,0-2.71,26.63c-5.84,18.77-17.73,32-36.32,40.28-16.68,7.47-38.7,11.1-67.29,11.1Z"/><path class="cls-3" d="M1558.75,564.75c-1.27,0-20.31-18.5-36-22.43-36.27-9.07-86.9,4.33-124.49,3.11-40.41-1.31-88.31-19.33-116.28,14.26-14.28,17.16-27.88,99.22-18.11,119.63,24.88,52,155.69,29.87,209.94,31.31,54.56,1.44,84.08,3.27,102.65-55.4C1583.49,632.85,1591.42,563.42,1558.75,564.75Z"/><path class="cls-2" d="M1370.73,702.38c-55.77,0-6.15-29.69-15.2-48.61-2.8-5.84-84.48-5.83-80.1-33.67,4.31-27.46,11.21-47.76,15.5-52.92,9.24-11.09,22-16,41.32-16,10.76,0,22.61,1.51,34.07,3,10.39,1.33,21.13,2.69,31.51,3,1.74.06,3.57.08,5.43.08,13.89,0,29.26-1.6,44.13-3.15,15.14-1.58,30.81-3.21,45.12-3.21,10.82,0,19.76.92,27.34,2.82,9.14,2.28,21.87,12.61,27.31,17,4.57,3.71-17.11,55,11.58,5.76h.25l.68,0c2,0,3.63.49,5.4,2.9,9.83,13.43,5.64,55.06.17,72.35-6.56,20.74-14.56,33.44-25.18,40-10.43,6.41-24.3,7.72-41.92,7.72h0c-6.55,0-13.7-.19-21.26-.39l-2.81-.07c-1.87,0-3.83-.08-5.86-.08-11.47,0-25.52.75-40.41,1.54C1410.13,701.32,1390.09,702.38,1370.73,702.38Z"/><path class="cls-3" d="M1561.91,381.42a32.54,32.54,0,0,0-10.44,15.29q10,5.78,21.56.65-11.55,5.11-21.56-.65a32.54,32.54,0,0,1,10.44-15.29c-35.83-30.09-181-19.14-224.55-13.55-51.85,6.65-51.84,6.67-69,59.67-6.16,19-13.77,76.84,1.19,94.49,25.83,30.48,178.27,16.41,218.75,16.58C1556.6,538.9,1631,439.42,1561.91,381.42Z"/><path class="cls-2" d="M1379.5,530c-27.69,0-49.4-1.22-66.38-3.74-25.42-3.78,15.06-42.38,13.12-44.66-10.08-11.9-53.23-30.31-46.71-50.45,7.65-23.66,11.85-36.65,18-42,6-5.16,18.52-6.77,41.32-9.69A947.49,947.49,0,0,1,1447.36,373c75.06,0,99.27,10.92,107,17.43l.51.43-9.23,16.07a33.53,33.53,0,0,0,16.83,4.59V398.25c20.65,23.28,15.91,49.16,10.73,63.38-13.11,36-51.06,65.27-84.6,65.27h-1c-8.18,0-20.41.51-34.57,1.11C1431.87,528.89,1405.55,530,1379.5,530Zm125.13-115.7c-8-1.31-5.6,11.83-13.54,13.54-26.63,5.73,10.68,24.85,15.53,25.65,8,1.31,8.89-21.6,7.57-29.62A11.71,11.71,0,0,0,1504.63,414.29Z"/><path class="cls-3" d="M954.28,427.54c8.5,98-12.66,102.4,96.16,103.34,29.61.25,195.58,26.17,183.22-14.44,27.27,6,33.76-53.18,32.59-75.25-3.11-58.58-24.69-68.12-78.93-72.12C1111.37,363.47,972,338.54,954.28,427.54Z"/><path class="cls-2" d="M1173.62,527.55c-29.36,0-64.25-3.33-89.72-5.77-15-1.43-26.83-2.56-33.36-2.61-38.34-.33-64.17-1-73.38-7.46-6.7-4.68-7.51-16.75-8.69-43.6-.47-10.85-1.06-24.27-2.38-39.86,5.28-24.06,23.44-54.94,112.62-54.94,26.73,0-10,75.52,14.45,77.82,10.22,1,84.42-71,93.3-70.38,23.84,1.76,41.82,4.64,52.11,13,9.71,7.89,14.64,22.71,16,48.06a153.41,153.41,0,0,1-2.55,33c-2.47,13.28-6.39,23.55-10.78,28.18-2,2.11-3.25,2.13-3.79,2.13h0a6.71,6.71,0,0,1-1.25-.15l-19.52-4.27,5.82,19.12c0,.13.07.25.09.35C1221.11,521.6,1212.68,527.55,1173.62,527.55Z"/><path class="cls-3" d="M640.17,254c3.34,38.54-21.7,77.47,15.92,103.45,26.11,18,110.41-.3,143.49,1.81,40.94,2.61,93.32,21.05,126-8.71,28.53-26,40.49-109,12-139l-21.9,17.74c17.81-58.46-94.21-30.19-129.76-30.72C717.81,197.55,657.23,168.44,640.17,254Z"/><path class="cls-2" d="M874.5,355.58c-13.57,0-28.26-2.14-42.47-4.22-10.56-1.54-21.48-3.13-31.7-3.79-2.07-.13-4.28-.19-6.77-.19-11.31,0-26,1.39-41.58,2.86-18.27,1.72-37.17,3.51-54,3.51-22,0-31.35-3.23-35.27-5.94C644,334.86,645.32,319,649.27,292.16c1.76-12,3.59-24.44,2.71-37.42,8.74-41.8,27.31-50,56.3-50,10.75,0,22.68,1.23,35.31,2.53,13.52,1.39,27.51,2.83,42.16,3h1.19c8.41,0,27.39,17.4,40.34,16C843,224.51,853,203.9,868.86,203.9c25.49,0,33.15,5.2,35.45,8.31,2,2.75,2.1,7.34.18,13.65l-11.15,36.59,41.82-33.87c5.08,10.37,7.56,25.13,6.93,42.29C941,300.14,841.51,315.1,828.45,327,818.18,336.32,893.72,355.58,874.5,355.58Z"/><path class="cls-3" d="M327.06,695.26,351.89,681l-16.57,20.68c34.72,17.61,80.43,2.23,118.09,2.91,33.83.62,85.6,18.19,117.89,10.37,48.54-11.75,60.58-37.53,64.61-86.57q11-31.74-6.08-61.54-8.4,5.46-17.18,2.27a19.75,19.75,0,0,1,6.47-14.55c-36.27-29.65-180.32-18.77-224.06-13.16-51.84,6.65-51.84,6.67-69,59.67C319.41,621.74,313.2,675.49,327.06,695.26Z"/><path class="cls-2" d="M552,705.26c-15.48,0-33.83-3.22-51.58-6.34-16.9-3-32.86-5.77-46.83-6l-2.72,0c-12.1,0-24.85,1.43-37.19,2.81s-24.85,2.78-36.65,2.78a114.29,114.29,0,0,1-15.52-1,4.05,4.05,0,0,1-2.61-6.54h0a4,4,0,0,0-.08-5.15l-10.61-12.4a4.06,4.06,0,0,0-5.09-.88l-5.55,3.19a4,4,0,0,1-6-2.94c-2.95-20.32.21-51.28,5.64-68.08,7.64-23.63,11.84-36.64,18-42,6-5.16,18.52-6.77,41.33-9.69a950.69,950.69,0,0,1,108.77-6.56c52,0,79.49,5.27,94,10.63a4,4,0,0,1,2.5,4.68,30.85,30.85,0,0,0-.87,7.34v5.37a4,4,0,0,0,2.66,3.8l5,1.84A30.49,30.49,0,0,0,619.08,582c.68,0,1.36,0,2-.07a4.06,4.06,0,0,1,4.09,2.7c4.55,13,4.42,26.16-.36,39.9l-.32.92a4.35,4.35,0,0,0-.21,1l-.08,1c-4.07,49.6-78.77,7.49-117.89,17C501.76,645.51,558.4,705.26,552,705.26Z"/><path class="cls-3" d="M327.27,522c18.65,25.43,246.94,29,275.36,11.91,44.71-26.86,47.8-123.66,16-150.69-26.59-22.62-66.34-12-100.07-11.49C480.8,372.38,401.79,353,369,364.2,332.83,376.55,297.3,481.15,327.27,522Z"/><path class="cls-2" d="M495.54,532.74c-36.63,0-74.37-1.9-103.55-5.21-45.81-5.2-54.53-11.83-55.4-12.6-11.41-15.8-11.83-48.11-1-82.43,7.78-24.77,23.08-52.38,37.24-57.21,5.55-1.9,13.75-2.87,24.35-2.87,19,0,42.31,3,64.88,5.92,20.57,2.65,40,5.15,54.73,5.15l2,0c8.1-.13,16.5-.81,24.63-1.47,8.93-.73,18.17-1.48,26.84-1.48,18.76,0,31.35,3.6,40.82,11.65,12.09,10.28-40.28,44.29-42.64,73-2.49,30.4,44.8,48.72,28.18,58.71-5.92,3.55-37.71,8.84-101.05,8.84Z"/><path class="cls-3" d="M325.11,344.75a16.68,16.68,0,0,1,17.67-1.87A15.32,15.32,0,0,1,339,356.26c44.61,18.6,128.31,3.11,177.93,5.73,70.92,3.75,126.44-.94,121.15-94.34-4.17-73.62-43.52-71.28-105.29-70.17-41,.73-146.29-19.68-180.24,0l19.94,22.65L342.24,206C324,231.57,311.48,315.6,325.11,344.75Z"/><path class="cls-2" d="M419.67,316.44c-20.67,0-52.45,35.84-65.08,32.64a28.52,28.52,0,0,0-.28-8.27l-1.1-6.1-5.67-2.53a29.94,29.94,0,0,0-12.23-2.71c-.86,0-1.72,0-2.57.12-2.38-13.07-2.24-32.75.59-54,2.85-21.45,8.07-41.68,13.8-54.36l20.37,9.5,13.74-18.36-8.37-9.5c8.1-1.5,18.49-2.26,31.1-2.26,23.39,0,50.76,2.62,74.9,4.93,20.61,2,38.42,3.68,51.64,3.68l2.45,0,4-.08c7-.12,13.59-.25,19.86-.25,46,0,66.52,5.63,69.57,59.46,1.73,30.64-24.86,46-36.84,58.66s-10.93,24.16-44.81,24.16c-7.67,0-16.31-.27-27.19-.85-4.14-.22-8.55-.32-13.49-.32-14.26,0-30,.89-46.7,1.84C439.74,352.81,436.93,316.44,419.67,316.44Z"/><path class="cls-3" d="M634.11,134.59c-.91,68.49,54,48.8,102.23,49.2,44,.37,125.24,23.36,164.73,6.8,40.27-16.88,72.54-94.67,46.44-137.68-14.44-23.78-115.86-54.62-108-11C805.64,6,740.34-3.65,691.85,15.61,632.89,39,649.87,80.31,634.11,134.59Z"/><path class="cls-2" d="M862.49,184.87c-21.34,0-46-3.51-69.78-6.89-20.85-3-40.53-5.77-56.28-5.9h-1.58c-9,0-18.11.63-26.9,1.23-8.3.57-16.15,1.1-23.47,1.1h0c-15.42,0-24.77-2.5-30.31-8.11s-8.35-15.72-8.36-30c4.41-15.71,6.27-30.31,7.92-43.24,4.16-32.63,6.67-52.33,42.44-66.53A133.54,133.54,0,0,1,745,17.59c34.74,0,66.88,12.09,86,32.33l27,28.66-7-38.78c-.21-1.12-.57-3.84.36-5,1.23-1.47,5.58-3.2,13.8-3.2,27.62,0,36.94,37.22,42.88,47,9.54,15.71,39.73,19.45,31.57,44.57-8.66,26.64-26,49.37-43.12,56.55C888.51,183.16,877.05,184.87,862.49,184.87Z"/><path class="cls-3" d="M948.21,134.59c-.11,8.64,0,34.4,9.35,42.59q8.72-15.68,24.2-14.55a37.63,37.63,0,0,1-10.38,21.7c41.77,14.58,263.31,14.46,259-17.48,48.8,12.94,41.43-109.78,14.89-134.5-15.5-14.43-64.48-13.31-83.11-15.69-53.27-6.8-94.94-22-124.49,23.17C954.61-19,965.54,74.92,948.21,134.59Z"/><path class="cls-2" d="M1082.52,182c-37.09,0-71.62-2.09-92.36-5.36A48.37,48.37,0,0,0,993.39,164l1.44-12.17L982.61,151c-1-.07-2-.11-2.9-.11a34.18,34.18,0,0,0-18.52,5.27,122.86,122.86,0,0,1-1.28-19.83c3.77-13.47,6.2-28.18,8.54-42.44,6.06-36.8,11.16-60.92,26.34-60.92,5.86,0,16.9,2.86,36.14,16.47l9.92,7,6.65-10.17c12-18.39,26.13-25.89,48.66-25.89,12.3,0,26.36,2.2,41.24,4.52,7.49,1.17,15.23,2.38,23.3,3.41,4.73.61,10.86,1,18,1.41,17.43,1.06,49.86,3,58.66,11.23,5.5,5.12,12.46,21,15.63,45.08,3,22.43,1.51,44.7-3.77,58.13-4.71,12-10.11,12-11.88,12a15.45,15.45,0,0,1-3.88-.56L1216.48,151l2,15c-2.92,2-13.16,7.12-45.11,11.14C1148.69,180.25,1116.42,182,1082.52,182Z"/><path class="cls-3" d="M1268.38,254c3,34.92-28.26,101.05,23.5,89.8-29.23,35.59,57,13.32,72.66,13.53,31.86.42,62.88,3.36,94.65,4.66,67.19,2.74,146-10.81,123.28-108-18.65-79.75-88-55.44-152.42-55.22C1359.65,199,1286.16,164.82,1268.38,254Z"/><path class="cls-2" d="M1305.07,352.3c-2,0-3.56-.07-4.85-.18.22-.28.45-.58.71-.89l21.38-26-32.92,7.16a38.49,38.49,0,0,1-8,1c-2,0-4.57-.26-5.64-1.51-4.54-5.32-1.21-26.17,1-40,2-12.71,4.12-25.82,3.46-37.11,8.83-42,30.11-50.53,61.47-50.53,12.29,0,25.68,1.42,39.86,2.91,15.53,1.64,31.6,3.34,47.81,3.34h.77c12.73,0,25.53-1,37.92-1.9,12.18-.9,19.47,37.57,30.41,37.57,35.06,0,62.94-31,72.65,10.51,6.74,28.84,4.16,51-7.69,66-14.71,18.55-44.76,27.95-89.31,27.95-4.61,0-9.46-.1-14.4-.3-12.47-.51-25.08-1.29-37.28-2.05-18.77-1.16-38.18-2.37-57.7-2.62h-.37c-4.49,0-11.3,1-20.72,2.49C1331.43,350,1316.28,352.3,1305.07,352.3Z"/><path class="cls-3" d="M1262.32,134.59c-.4,29.84,7.53,58.2,42.47,45.23-23.84,20.88,50.19,4.08,59.75,4,41.54-.45,82.57,7.56,123.78,7.74,69.3.28,133.36-83.56,79.22-148.9-22-26.54-65.94-23.75-97.73-26.65q-40.08-4.46-80.37-5.74a79.29,79.29,0,0,1-22.17,25.88c-34.88,1.2-38.69-42-80.29-6.51C1260.26,52.38,1271,104.57,1262.32,134.59Z"/><path class="cls-2" d="M1300.71,168.84a34.5,34.5,0,0,1-11.57,2.49h0c-4.31,0-6.36-1.52-7.67-2.85-2.84-2.88-7.52-10.87-7.45-32.25,3-11.31,3.68-24.3,4.4-38,1.24-23.63,2.52-48.06,16.16-59.69,8.73-7.43,15.76-11.21,20.91-11.21,4.27,0,8.34,2.68,14.62,7.05,8.64,6,19.39,13.5,35.75,13.5l1.81,0,3.69-.13,3-2.21A90.6,90.6,0,0,0,1396,22.19c24.19.94,48.56,2.77,72.55,5.43l.23,0c5.69.52,11.57.86,17.79,1.21,26.75,1.51,57.06,3.23,72,21.25,25.81,31.16,17.54,61.6,10.31,77-14.6,31.05-47.56,52.74-80.16,52.74h-.31c-19.25-.08-41.06-32.55-60.22-34.38-20.25-1.94-39.19,26.63-60.19,26.63l-3.55,0c-2.88,0-7.25.71-16.07,2.13-11.49,1.84-27.22,4.36-37,4.36a20.16,20.16,0,0,1-4.69-.34,8.26,8.26,0,0,1,4.64,5.16,9.2,9.2,0,0,1,.47,4Z"/><path class="cls-3" d="M1625.39,190.66q-23,4-31.37,23.75,6.86,7.5,15.67,5.91,3.46-9.49-6.24-17.92,9.71,8.41,6.24,17.92-8.81,1.59-15.67-5.91c-10.24,22.85-21.73,69.78-17.61,93.72-.43-2.5,22.25,65.22,23.64,49.27.82-9.42,247.42,20.64,269.88-6.82a43.76,43.76,0,0,1-15.47-7.23c28.79,43.58,39.48-114.6,17.19-80.53a39.12,39.12,0,0,1,25.21-4.64C1891.68,154.52,1694.42,203,1625.39,190.66Z"/><path class="cls-2" d="M1739.71,293c-36,0-28,55.35-62.82,53.44-26-1.43-48.38-2.67-62.38-2.67a108.28,108.28,0,0,0-11.61.48c-2.66-6-6.79-16.39-13.22-34.15l-1.63-4.49c-.1-.25-.19-.5-.29-.74-2.36-17.13,4-49.94,12.16-73.44a26.75,26.75,0,0,0,6.75.87V219.22l14,5.12a26,26,0,0,0,1.62-9h-15.63v-.14c4-6.72,10.07-10.81,18.85-12.69,8.66,1.36,19.23,2,33,2,14.42,0,30.5-.7,47.52-1.44,18.78-.82,38.19-1.67,57.35-1.67,74.4,0,111.4,13.66,119.91,45.16a50.42,50.42,0,0,0-7,1.53L1860,253l10.15,13.13c1.37,3.31,2.88,17.36.57,38.11-2.52,22.57-7.48,33.85-9.57,35.93L1851,346.66C1841.71,348.69,1772.87,293,1739.71,293Z"/><path class="cls-3" d="M1625.39,364.2c-37,10.87-75.46,119.91-41.72,157.83,22.67,25.49,227.35,28.86,259.7,15.65,21.55-8.81,27.16-13.28,38.32-34.8,18.76-36.16-2.52-37.95-3.91-61.38-1.56-26.28,21.17-29.66-1.84-58.69C1844.15,342.73,1674.54,373,1625.39,364.2Z"/><path class="cls-2" d="M1738.54,499.16c-36.7,0-60.18,32.36-89.62,28.84-48.91-5.85-56.22-13.43-56.5-13.75-11.74-13.2-13.25-42.91-3.85-75.71,9.48-33.06,26.23-56.77,38-62.3a191.89,191.89,0,0,0,25.72,1.36c16,0,41.09,47.63,61.63,46.59,23.81-1.2,42.76-51.06,66.2-51.06,33.38,0,75.5,2.94,86.62,17,10,12.66,8.68,15.84,5.06,24.32-2.74,6.4-6.48,15.16-5.73,27.79.63,10.72,4.45,18,7.52,23.8,4.4,8.36,7.06,13.41-2.32,31.48-10,19.21-13.35,21.59-32.35,29.36-8.17,3.33-37.92,6.7-86,6.7Z"/><path class="cls-3" d="M1625.39,364.2c55.69,9.91,151.19,10.27,202.31,3.67"/><path class="cls-2" d="M1741.61,384c-41.67,0-85.95-2.54-118.27-8.29l4.1-23.06c31.11,5.53,73.77,8,114,8,32.29,0,63-1.58,84.82-4.4l3,23.24C1806.68,382.39,1775,384,1741.61,384Z"/><path class="cls-3" d="M1625.39,711.3c-40.44,11.87-54.56,81.11-49,117.46,8.45,55.08,22.58,49.41,73.56,51.23,27.4,1,290.21,20.15,226.47-53.59,52.94,3.76,5.22-99.58-39.64-110.54C1772.75,700.22,1693.18,723.36,1625.39,711.3Z"/><path class="cls-2" d="M1742.08,871.23c-34.2,0-65.24-1.61-81.92-2.47-4.46-.23-7.67-.4-9.77-.47-5.1-.19-9.71-.29-14.16-.39-17.61-.41-29.24-.67-35.28-5-5.86-4.17-9.74-14.92-13-35.93-2.72-17.72-.07-42.21,6.75-62.39,4.31-12.74,14-34.53,31.58-41.26a286.28,286.28,0,0,0,46.12,3.31c18.5,0,37.44-1.22,55.76-2.4,17.72-1.14,36-2.32,53.34-2.32,21,0,37.64,1.69,52.48,5.31,26,6.36,56.69,56.66,53.84,80.27-.67,5.58-2.7,7.28-8.67,7.28h0c-.61,0-1.25,0-1.91-.07l-28.14-2,18.45,21.34c2.65,3.07,8.62,10.67,6.68,14.9C1872.56,852.68,1858.2,871.23,1742.08,871.23Z"/><path class="cls-3" d="M1895.25,980.91c15.41-100.25-66-89.75-135.69-88.23-97.55,2.12-180.11-34.87-180.41,96.14-.16,73.3,35.41,71.08,104.84,76,42.2,3,165.66,19.21,167.9-28.49C1893.52,1067.56,1881.24,978.79,1895.25,980.91Z"/><path class="cls-2" d="M1768,1058.14c-24,0-49-2.15-67.29-3.73-6.1-.52-37.13-29.35-15.89-1.3,2.48,3.28-8.08-.55-12-.81-61.43-4.08-82.12-5.45-82-63.45.08-36.53,6.76-60.46,20.43-73.18,11-10.2,27.3-14.55,54.63-14.55,11.61,0,46.37,56.39,59.72,57.18,15.22.9,8.81-53.82,25.33-53.82,3,0,6,0,8.84-.09,5.19-.12,10.45-.28,15.73-.44,9.43-.29,19.19-.6,28.52-.6,27,0,56.48,2.25,70.77,18.91,9.29,10.81,12.45,27.56,9.63,51.08-2.38,2.32-4.52,5.85-6,11.1a145.72,145.72,0,0,0-3.36,17.62c-1.09,7.14-2.21,14.53-4,20.61s-3.48,8.12-4,8.59c-.69-.08-3.25-.61-8.19-4.32l-17.69-13.29-1,22.11C1839.51,1050.19,1813.87,1058.14,1768,1058.14Z"/><path class="cls-3" d="M1577.52,925l-13.61,10.51c4.3-75.32-114.9-41.37-165.7-43-77.71-2.52-158.54-1.79-135.89,109.79,13.11,64.61,53.33,59.21,117,63,28,1.67,165.27,13.56,155-24.82C1580.05,1059.3,1589.05,956,1577.52,925Z"/><path class="cls-2" d="M1450.26,1056.65c-24.77,0-48.73-1.6-63-2.56-2.85-.19-5.27-.35-7.18-.46-6.57-.39-12.84-.68-18.9-1-53.13-2.48-77.38-3.61-87.33-52.68-6.74-33.19-4-57.52,8.08-72.32,17.29-21.16,54.35,10.73,87.7,10.73,9.76,0,19-34.46,28.25-34.16,1.36,0,2.75.06,4.2.06h0c11.64,0,25.76-1.38,40.71-2.85,17.26-1.69,35.11-3.44,51.86-3.44,25.87,0,42.48,4.28,50.79,13.08,5.19,5.49,7.41,13.27,6.81,23.79l-1.46,25.62,19-14.68c2.15,24.2-1.93,60.73-13.65,77.6-5.28,7.6-9.71,7.65-11.2,7.65h0a16.39,16.39,0,0,1-6.11-1.39l-76.67-50.29,60.9,64.15c.26,1,.16,1.11-.08,1.44C1521.43,1046.92,1510.89,1056.65,1450.26,1056.65Z"/><path class="cls-3" d="M1252.07,906.1a58.34,58.34,0,0,0-10.8,10.14c8.32-29-227.58-42.24-256.23-25.16-28.23,16.83-46.35,91.71-36.07,123.28,18.51,56.88,75.59,49.89,134.15,51.68l-1-22.15c20.62,30.44,137.2,37.47,137.37-3.18C1266.21,1042.89,1286.91,943.62,1252.07,906.1Z"/><path class="cls-2" d="M1161,1057.27a160.41,160.41,0,0,1-44.28-6.19c-12.29-3.7-21.61-8.84-24.94-13.76L1068.54,1003l2.31,51.08-8.51-.11c-54.89-.7-89.2-3.16-102.24-43.21C956,998,988.37,974.67,994.77,951.27c6.54-23.9-13.7-44.18-3.73-50.12,3.69-2.21,21.51-5.94,64.86-5.94a909.9,909.9,0,0,1,111,7c44.37,5.81,61.23,13,63.94,15.91a6,6,0,0,1-.8-5.14l20,10.52c4.29,8.28,6.93,18.85,7.6,30.82.94,16.7-58.69,21.29-64.91,35.58-3.4,7.79,43.63,39.11,28.28,39.11h0l-1,0-12.2-.56-.06,12.21C1207.74,1050.28,1188.08,1057.27,1161,1057.27Z"/><path class="cls-3" d="M948.21,828.76C948.62,798,962.09,769,943.68,740l-12.42,9.4C948.46,702.66,744,710.57,709.15,715c-52.81,6.68-59.38,16.45-69.26,73.24-7.44,42.74-20.65,88.95,29.69,70.89l-12.73,19.26c44.29,15.71,110.28-.74,158.44,2.9C875.18,885.79,926.85,902.35,948.21,828.76Z"/><path class="cls-2" d="M875.58,874.35c-11.16,0-23.41-1.27-36.38-2.61-7.45-.77-15.15-1.56-23-2.16-5.13-.38-10.55-.57-16.58-.57-14.61,0-30.42,1.15-45.7,2.26-15.51,1.13-31.55,2.3-46.54,2.3a180,180,0,0,1-31.71-2.39l23.12-35-33.13,11.88c-7.68,2.76-12.35,3.33-14.92,3.33-2.21,0-3.64-.37-4.25-1.11-5-6-.28-31.46,2.84-48.32.72-3.91,1.45-7.85,2.13-11.75,4.61-26.55,8.3-41.49,15.64-49.52,6.55-7.18,17.95-10.87,43.55-14.11,10.93-1.38,45.79,47.82,81.52,47.82,33.51,0,59.67-49.46,82.09-46.28,37.52,5.34,44.87,13.42,46,15,.38.54.59.84.08,2.23l-13.8,37.5L939.25,758c4.08,13.19,2.14,26.94,0,42.3A231.53,231.53,0,0,0,936.54,827c-11.88,39.42-32.17,47.4-60.95,47.4Z"/><path class="cls-3" d="M942.91,912.38q-7,7.23-14.34,14c10.3-48.44-190-48.64-232.45-39.76-49.63,10.38-52.58,36.74-56.52,88.66-2.93,38.64-18.69,86.62,27.72,50.91,5.22,54.45,86.52,40.47,134,40.26,22.59-.09,57.43,5.14,77.76-3.69,38.73-16.84,23.11,17.69,29-44C960.21,1058.54,966,946.84,942.91,912.38Z"/><path class="cls-2" d="M745.06,1056.55c-55.57,0-64.59-15.89-66.08-31.43L677,1004,660.18,1017c-6.77,5.2-11.14,7.73-13.77,9-.37-6.6,1.27-19.15,2.34-27.27,1-7.36,2-15,2.53-22.44,2-26.51,3.68-43.47,9.85-55.41,4.26-8.23,12-17.36,37.39-22.66,12.3-2.58,38.92-4.24,67.8-4.24,75.75,0,137.24,10.6,149.52,25.77,1.6,2,1.52,3.17,1.27,4.32l-7.66,36,27.06-25,2.73-2.54c7,23,6.64,58.62-2.43,75.62-3.93,7.37-7.39,7.41-8.55,7.41h0c-1.9,0-6.12-.78-13-6l-16.76-12.8-2,21c-1.27,13.31-1.58,22.33-1.62,28.4a73.06,73.06,0,0,0-20.39,6c-6.47,2.8-16.27,4.17-30,4.17-7.52,0-15.29-.39-22.81-.77-7-.35-13.64-.68-19.69-.68h-.68c-7.78,0-16.24.42-25.2.82C765.94,1056.07,755.42,1056.55,745.06,1056.55Z"/><path class="cls-3" d="M589.49,890.3c-96.19-7.89-298.24-39.52-269.47,112,9.9,52.15,25.28,53.17,79.83,60.26,41.52,5.39,175.07,23.25,166.94-26.61,3.23-8.68,25.47,27,33.06,19.8,18.13-17.13,25.82-26.28,34.26-53.45C646.56,962.24,643,895.22,589.49,890.3Z"/><path class="cls-2" d="M492.33,1058.41c-33.64,0-67.12-53.05-86.72-55.6l-7.3,47.75c-24.13-3.13-40.07-5.2-49.24-11.38-7-4.69-12.62-13.13-17.55-39.05-5.83-30.73-1.9-53.83,12-70.63,19.86-24,60.39-35.64,123.9-35.64,33.35,0,66.85,3.13,96.4,5.89,8.77.82,17,1.59,24.71,2.22,12.77,1.18,22.33,6.69,29.12,16.84,6.26,9.38-34.67,21.64-34,37.15.6,13.86,43.26,30.06,39.27,42.88-7,22.55-12.77,30.67-26.67,44.16-2.45-2.13-5.46-5.15-7.38-7.09-7.53-7.56-13-13-20.38-13a13.5,13.5,0,0,0-12.68,9l-1.08,2.91.5,3.06c.69,4.28-.52,6.4-1.81,7.91C550.19,1049.56,537.76,1058.41,492.33,1058.41Z"/><path class="cls-3" d="M316.41,910.92l-14.89,9.31c16.32-49.91-127.34-27.73-157.71-28.71-51.57-1.67-172.31-13-103.36,68.25-39.18.15-50.95,72.91-15.1,89,12.89-12.9,217.35,49.34,209.17-.27,42,14.75,76.72,12.75,63.7-36.91C330.11,1013.35,339.09,944,316.41,910.92Z"/><path class="cls-2" d="M196.86,1056.31c-27.42,0-66.12-6.67-100.26-12.55-26.41-4.56-49.22-8.49-62.36-8.49a42,42,0,0,0-7.85.62c-10-7.53-12.59-24.1-9.63-38,2.58-12.13,10.34-26.31,23.73-26.36l25.17-.1L49.38,952.2C35.58,935.92,63.76,927.5,66.77,921c5.88-12.69,11.56-19.23,28.61-19.23,12.33,0,24.59.51,35.41,1,4.53.19,8.78.37,12.64.5.79,0,1.65,0,2.57,0,6.71,0,16.29-.66,28.42-1.49,16.84-1.17,37.79-2.61,57.57-2.61,46.67,0,56.42,8.44,58.29,11,.46.63,1.52,2.09.11,6.4l-10,30.69L312,927.52c8,20.13,6.53,48.06-1.33,63-3.29,6.26-7.08,9.43-11.24,9.43h-.54l-16-.88L253,1013.52c4.39,16.72,35.71,24.44,33.79,26.92-2.8,3.63-9.11,4.39-13.91,4.39-8.83,0-20.75-2.54-34.48-7.36l-48.65-13.41L223,1050.43a3.63,3.63,0,0,1,.05,1.25h0S219.37,1056.31,196.86,1056.31Z"/><path class="cls-3" d="M257.21,888.51c73-9.42,86-154.72,36.93-139.63,11.59-54.57-112.68-28.61-152.33-29.9-10.39-.34-77.85-12.34-86.91-7.68-53.37,27.44-6.28,36.09-17,52.86C20.34,791.5,12.21,757,9.52,791.41c-1.81,23.13-8.27,49.71.77,72.34q14.24-7.62,28.77-4.89-1.87,11.57-13,18.5C85.46,900.88,190.07,881.25,257.21,888.51Z"/><path class="cls-2" d="M115.44,877.64c-19.38,0-45.68-.73-68.36-6a36.28,36.28,0,0,0,3.54-10.88l20-11.35-29.42-2a53.86,53.86,0,0,0-9.78-.91,52.92,52.92,0,0,0-13.25,1.7c-1.92-12.38-.28-26.19,1.32-39.65.63-5.32,1.28-10.83,1.7-16.16.15-2,.32-3.59.48-4.89.33,0,.66,0,1,0,9.54,0,17.73-5.55,25-17,8.16-12.72.08-23.92-3.8-29.31-1.13-1.57-3-4.15-3.3-5.27.35-.81,14.12,25.69,30,17.43.55-.08-9.41-31.39-7.21-31.39,12.55,0,37,3.42,54.86,5.92,12.74,1.78,19.55,2.71,23.15,2.83,1.1,0,2.27,0,3.48,0,9.29,0,21.28-1,35.18-2.14,16.74-1.39,29,17.7,46.32,17.7,34.51,0,51.7-14.16,54.84-10.28.79,1,2.89,3.57,1.43,10.43l-32.85,20.93,47.76-7.31a11.69,11.69,0,0,1,3.35-.57c6.19,0,9.79,12.09,10.51,23.32,2.28,35.57-17.33,88-54.46,93.89a376.94,376.94,0,0,0-38-1.63c-16.23,0-33.75.64-50.68,1.26-17.5.64-35.6,1.3-52.91,1.3Z"/><path class="cls-3" d="M257.21,715c58.5-7.55,86.17-92.69,61.3-143.13q-4,10.6-15,11.3c-6.41-5.53,4.59-27-.66-30.22-22.12-13.47-35.68-8.65-57.86-10.3-43.37-3.23-90.77,2.15-134.6,1.35C72,543.26,49.13,530.31,22.8,563.15c-30.95,38.6-17.4,92.69,8.28,115.49-68.77,17.34,50.66,26.63,62.73,26.8C148.86,706.22,202.3,709,257.21,715Z"/><path class="cls-2" d="M257,703.17c-51.67-5.54-108.45-39.22-166.48-40C81.42,663,59.92,691.32,41,688.22l14.39-3.63-16.55-14.7c-21.13-18.77-34-65.67-6.92-99.42,12-14.9,22-17.89,34.42-17.89,5.59,0,11.9.63,18.58,1.31,7.47.76,15.93,1.62,25.26,1.79,3.08.05,6.32.08,9.63.08,15.55,0,31.64-.63,47.21-1.24s31.48-1.23,46.86-1.23c11.24,0,21.13.33,30.25,1,5.26.39,10.06.44,14.46.44h4.63c10.92,0,18.78.42,28.94,5.6-.21,1.13-.45,2.34-.65,3.32-1.79,8.84-44.42,21.79-35.84,29.2l43.81,2.27,4.78-.3a30.4,30.4,0,0,0,9.25-2c5.29,23,1.57,51.17-10.55,73.77C296.5,678.7,282,699.31,257,703.17Z"/><path class="cls-3" d="M257.21,367.87c58.06-7.49,92-104.13,55.81-152q-3.78,9.63-12.86,7.55a23.77,23.77,0,0,1-.74-19.82,107.73,107.73,0,0,0-42.21-9.23c-18.14-5.08-64.86,4.39-83.55,4.45-64.52.22-126.61-30-157.2,36.1C-61,402.23,162,357.58,257.21,367.87Z"/><path class="cls-2" d="M258.16,353.73C243.07,352.2,225.7,352,210.59,352c-7.51,0-15.08.06-23.1.12s-16.43.13-24.76.13h0c-62.66,0-123.32-4.18-142.71-34.51-11.12-17.41-8.34-44.42,8.25-80.27,13.84-29.88,33.65-36,59.15-36,12,0,25,1.49,38.82,3.08,15.44,1.77,31.41,3.61,47.9,3.61h.74c7.26,0,17.39-1.22,29.11-2.61,13.23-1.56,28.22-3.33,39.6-3.33,6.48,0,9.91.57,11.64,1.06l1.47.41,1.52,0c9.89.15-2.5,27.65,6.85,30.75-.31,6,10.12,3.71,12.88,9.37l14.15-10.28L292,256.7c1.93.44,10.56-23.58,12.4-23.58a21.19,21.19,0,0,0,7-1.15c8.73,20.34,7.88,48.46-3,74.28C297.25,332.85,278.53,350.49,258.16,353.73Z"/><path class="cls-3" d="M257.21,194.33C306.65,188,325.84,140.08,324,94.1c-2.43-59.17-25.11-65.78-78.17-74.58-39.8-6.6-83-10.4-123.24-9.43C70.68,11.34,14.82,3.6,61.85,61.88,40.3,94.7,11.13,45.25,7.64,112.69c-2.7,52,2,39.15,46.64,50.78L20.74,180.81C74.49,208.92,193.35,187.43,257.21,194.33Z"/><path class="cls-2" d="M75,149.8l-19-4.34C46.4,143.25,38.6,142,32.34,141c-5.39-.86-12.1-1.93-13.38-2.91-2.22-2.66-1.19-20.21-.8-26.81.33-5.58.07-17.68,4.56-22.18s17.17-1.3,23.69-2.68c3.75-.8,7.32-2.08,11.17-2.42,5.57-.49,11.57,2,17,1.12C85.68,83.38,86,62.83,85.61,53.94A5.67,5.67,0,0,0,85,51.11a5.43,5.43,0,0,0-2.36-1.83,30.56,30.56,0,0,0-12.49-3.06c-2.84-.09-7.24,1.57-9.87.39-2.05-.93-7.37-8.7-5.52-10.88.07-.09,2-2.27,13-3.57,9.56-1.14,22-1.18,35.12-1.22,6.14,0,12.5,0,18.81-.17,4-.08,8.19-.13,12.34-.13a768,768,0,0,1,108.7,8.29c51.41,7.5,66.32,11.63,68.38,55.89,1.51,32.32-12.09,71.75-55.23,77.39C246.68,171.4,235.92,171,223,171c-16.12,0-33.38.6-51.66,1.23-18.8.64-38.25,1.31-56.89,1.31-4.34,0-9,0-13.81-.13"/><path class="cls-3" d="M303.4,92.58S262.5,94.92,212,94.92s-91.36-2.34-91.36-2.34,40.9-2.35,91.36-2.35S303.4,92.58,303.4,92.58Z"/><path class="cls-3" d="M506,50s-22,1.52-49.19,1.52S407.65,50,407.65,50s22-1.51,49.19-1.51S506,50,506,50Z"/><path class="cls-3" d="M776.6,136.63s-18.62.82-41.58.82-41.58-.82-41.58-.82,18.62-.83,41.58-.83S776.6,136.63,776.6,136.63Z"/><path class="cls-3" d="M1104.56,219.93a292.41,292.41,0,0,1-39.82,2.74,292.47,292.47,0,0,1-39.83-2.74,290.79,290.79,0,0,1,79.65,0Z"/><path class="cls-3" d="M563.43,775.44s-40.91,2.34-91.36,2.34-91.36-2.34-91.36-2.34,40.9-2.35,91.36-2.35S563.43,775.44,563.43,775.44Z"/><path class="cls-3" d="M1771,578.93s-24.91,2.12-55.63,2.12-55.64-2.12-55.64-2.12,24.91-2.13,55.64-2.13S1771,578.93,1771,578.93Z"/><path class="cls-3" d="M1863.55,252.19a437.56,437.56,0,0,1-50.36,2.92,437.63,437.63,0,0,1-50.37-2.92,437.3,437.3,0,0,1,100.73,0Z"/><path class="cls-3" d="M1224,477.61a378.32,378.32,0,0,1-78.47,0,378.32,378.32,0,0,1,78.47,0Z"/></g></g></svg>