<svg xmlns="http://www.w3.org/2000/svg" width="700" height="700" viewBox="0 0 700 700"><defs><style>.cls-1{fill:#fff;}.cls-2{fill:#96969a;}.cls-3,.cls-4,.cls-6{fill:none;}.cls-3{stroke:#fff;}.cls-3,.cls-4,.cls-6,.cls-7{stroke-miterlimit:10;}.cls-4,.cls-6,.cls-7{stroke:#000;}.cls-5{fill:#646466;}.cls-6{stroke-width:9px;}.cls-7{stroke-width:2px;}</style></defs><title>mus titelskærm</title><g id="Layer_2" data-name="Layer 2"><g id="Layer_1" data-name="Layer 1"><path class="cls-1" d="M608.24,472.72a77,77,0,0,0,14.5-45A78.11,78.11,0,0,0,590,364.38a77,77,0,0,0,14.5-45c0-32.57-20.3-60.53-49.26-72.57a76.86,76.86,0,0,0,4.65-26.35c0-43.57-36.32-78.9-81.11-78.9-.88,0-1.75,0-2.63.07-9.08-33.92-40.78-58.95-78.49-58.95a82.58,82.58,0,0,0-34.74,7.6,81.89,81.89,0,0,0-60.56-26.44c-32.33,0-60.23,18.4-73.27,45-39.1,3-70.43,32.84-74.35,70.62-27.78,12.53-47,39.87-47,71.61a77.37,77.37,0,0,0,.94,12.06c-29.15,12-49.61,40-49.61,72.73C59,366.48,77,393,103.14,406.08a76.89,76.89,0,0,0-7.63,33.42c0,36.61,25.64,67.38,60.39,76.29a77.47,77.47,0,0,0-1.58,15.56c0,43.58,36.31,78.9,81.11,78.9A82.36,82.36,0,0,0,277.14,599a82.7,82.7,0,0,0,107.61,13.86,82.47,82.47,0,0,0,126.3-13.82A82.2,82.2,0,0,0,559.88,615c44.79,0,81.11-35.32,81.11-78.9A78.11,78.11,0,0,0,608.24,472.72Z"/><rect class="cls-2" x="306.71" y="466.05" width="88.78" height="92.64"/><ellipse class="cls-2" cx="372.96" cy="474.11" rx="18.55" ry="32.22"/><ellipse class="cls-2" cx="333.21" cy="461.35" rx="18.55" ry="30.21"/><rect class="cls-2" x="323.93" y="267.34" width="53" height="181.25"/><path class="cls-2" d="M349.77,267.34h23.85s1.33-87.27,67.58-53.7c0,0,129.19,55.72-12.59,136.27,0,0-30.47,88.62-51.68,100.7"/><path d="M350.43,423.76a27.53,27.53,0,0,0,0,55.05"/><path class="cls-2" d="M350.43,267.34H326.58s-1.32-87.27-67.57-53.7c0,0-129.19,55.72,12.59,136.27,0,0,30.47,88.62,51.67,100.7"/><path class="cls-3" d="M311.35,272S275.57,280.1,269,333.8"/><path class="cls-4" d="M242.45,414.36s46.37,28.19,72.87,13.43"/><path class="cls-4" d="M251.72,439.87s42.4,9.4,63.6-4"/><path class="cls-4" d="M257,465.38s49-8.06,62.28-25.51"/><path class="cls-2" d="M306.29,561.74S285.51,534.52,288.16,505c0,0,.22-42.05,29.59-58.95"/><path d="M349.77,423.76a27.53,27.53,0,0,1,0,55.05"/><path class="cls-3" d="M388.86,272s35.78,8.06,42.4,61.76"/><path class="cls-4" d="M457.76,414.36s-46.37,28.19-72.88,13.43"/><path class="cls-4" d="M448.49,439.87s-42.4,9.4-63.61-4"/><path class="cls-4" d="M443.19,465.38s-49-8.06-62.28-25.51"/><path class="cls-2" d="M393.5,561.83s21.2-27.31,18.55-56.84c0,0-.22-42.05-29.59-58.95"/><ellipse class="cls-5" cx="322.61" cy="330.45" rx="26.5" ry="42.96"/><ellipse cx="323.27" cy="349.91" rx="16.56" ry="23.5"/><ellipse class="cls-5" cx="376.93" cy="330.45" rx="26.5" ry="42.96"/><ellipse cx="376.93" cy="349.91" rx="16.56" ry="23.5"/><ellipse class="cls-1" cx="324.6" cy="360.66" rx="7.29" ry="11.41"/><ellipse class="cls-1" cx="376.27" cy="360.66" rx="7.29" ry="11.41"/><ellipse class="cls-1" cx="317.97" cy="346.56" rx="3.31" ry="4.03"/><ellipse class="cls-1" cx="382.9" cy="346.56" rx="3.31" ry="4.03"/><rect class="cls-2" x="306.29" y="556.12" width="86.98" height="5.63"/><line class="cls-6" x1="254.75" y1="85.34" x2="277.83" y2="105.86"/><line class="cls-6" x1="316.31" y1="85.34" x2="293.23" y2="105.86"/><circle class="cls-5" cx="324.01" cy="136.64" r="21.8"/><path class="cls-1" d="M316.31,135.36c0-6.37,5.46-11.54,12.19-11.54s16,6.45,16,12.82"/><ellipse class="cls-7" cx="322.08" cy="143.06" rx="8.34" ry="11.54"/><path class="cls-1" d="M317.59,140.49a5.14,5.14,0,0,1,10.27,0"/><circle class="cls-1" cx="319.52" cy="146.26" r="1.92"/><circle class="cls-5" cx="252.18" cy="135.36" r="21.8"/><path class="cls-1" d="M259.88,134.08c0-6.38-5.46-11.55-12.19-11.55s-16,6.46-16,12.83"/><ellipse class="cls-7" cx="254.11" cy="141.77" rx="8.34" ry="11.54"/><path class="cls-1" d="M258.59,139.21a5.13,5.13,0,1,0-10.26,0"/><circle class="cls-1" cx="256.67" cy="144.98" r="1.92"/><line class="cls-6" x1="493.82" y1="468.13" x2="516.74" y2="488.51"/><line class="cls-6" x1="554.95" y1="468.13" x2="532.02" y2="488.51"/><circle class="cls-5" cx="562.59" cy="519.07" r="21.65"/><path class="cls-1" d="M555,517.8c0-6.33,5.41-11.46,12.1-11.46S583,512.74,583,519.07"/><ellipse class="cls-7" cx="560.68" cy="525.44" rx="8.28" ry="11.46"/><path class="cls-1" d="M556.22,522.89a5.1,5.1,0,0,1,10.19,0"/><circle class="cls-1" cx="558.13" cy="528.62" r="1.91"/><circle class="cls-5" cx="491.27" cy="517.8" r="21.65"/><path class="cls-1" d="M498.91,516.52c0-6.33-5.41-11.46-12.09-11.46s-15.92,6.41-15.92,12.74"/><ellipse class="cls-7" cx="493.18" cy="524.17" rx="8.28" ry="11.46"/><path class="cls-1" d="M497.64,521.62a5.1,5.1,0,1,0-10.19,0"/><circle class="cls-1" cx="495.73" cy="527.35" r="1.91"/></g></g></svg>