<svg xmlns="http://www.w3.org/2000/svg" xmlns:xlink="http://www.w3.org/1999/xlink" width="500" height="479" viewBox="0 0 500 479"><defs><style>.cls-1{fill:none;}.cls-2{isolation:isolate;}.cls-3{clip-path:url(#clip-path);}.cls-4{fill:#28164a;}.cls-5{clip-path:url(#clip-path-2);}.cls-6{clip-path:url(#clip-path-3);}.cls-7{fill:#a3a3a3;}.cls-8{fill:#29174b;}.cls-9{clip-path:url(#clip-path-4);}.cls-10{fill:#2b1850;}.cls-11{fill:#2a174d;}.cls-12{clip-path:url(#clip-path-5);}.cls-13{fill:#311c5b;}.cls-14{fill:#301b58;}.cls-15{fill:#2e1a55;}.cls-16{fill:#2d1952;}.cls-17{clip-path:url(#clip-path-6);}.cls-18{fill:#858585;}.cls-19{fill:#9f9f9f;}.cls-20{clip-path:url(#clip-path-7);}.cls-21{fill:#949494;}.cls-22{fill:#999;}.cls-23{fill:#9e9e9e;}.cls-24{fill:gray;}.cls-25{clip-path:url(#clip-path-8);}.cls-26{clip-path:url(#clip-path-9);}.cls-27{fill:#8a8a8a;}.cls-28{fill:#8f8f8f;}.cls-29{fill:#e0e0e0;}.cls-30{clip-path:url(#clip-path-10);}.cls-31{fill:#43267c;}</style><clipPath id="clip-path"><path class="cls-1" d="M389.88,255.84a20,20,0,0,0,3.82-3.43l6.41,4.19a20.09,20.09,0,0,1-3.82,3.44Z"/></clipPath><clipPath id="clip-path-2"><path class="cls-1" d="M393.7,252.41a19.64,19.64,0,0,0-3.95-29.16l6.41,4.2a19.63,19.63,0,0,1,3.95,29.15Z"/></clipPath><clipPath id="clip-path-3"><path class="cls-1" d="M389.74,223.24l6.41,4.2-.5-.31-6.41-4.2Z"/></clipPath><clipPath id="clip-path-4"><path class="cls-1" d="M193.44,390.58a19.86,19.86,0,0,0,5.18-2.57L205,392.2a20.22,20.22,0,0,1-5.18,2.58Z"/></clipPath><clipPath id="clip-path-5"><path class="cls-1" d="M188.11,391.52a19.16,19.16,0,0,0,5.33-.94l6.41,4.2a19.16,19.16,0,0,1-5.33.94,19.54,19.54,0,0,1-11.29-3.21l-6.41-4.2A19.54,19.54,0,0,0,188.11,391.52Z"/></clipPath><clipPath id="clip-path-6"><path class="cls-1" d="M183.26,392.52l-6.41-4.19a19.16,19.16,0,0,1-8.7-15.86l6.41,4.2A19.14,19.14,0,0,0,183.26,392.52Z"/></clipPath><clipPath id="clip-path-7"><path class="cls-1" d="M188.83,104l-6.41-4.2a19.09,19.09,0,0,1,10.64,2.86l6.41,4.2A19.09,19.09,0,0,0,188.83,104Z"/></clipPath><clipPath id="clip-path-8"><path class="cls-1" d="M377.82,36.89l6.41,4.2a233.64,233.64,0,0,0-135.67-38l-6.41-4.2A233.64,233.64,0,0,1,377.82,36.89Z"/></clipPath><clipPath id="clip-path-9"><path class="cls-1" d="M169.65,124.19,163.23,120a19.86,19.86,0,0,1,19.19-20.24l6.41,4.2A19.84,19.84,0,0,0,169.65,124.19Z"/></clipPath><clipPath id="clip-path-10"><path class="cls-1" d="M122.18,442.11l-6.41-4.2A235.59,235.59,0,0,1,9.32,244.66C6.75,112.93,111,2.87,242.15-1.15l6.41,4.2C117.4,7.06,13.16,117.12,15.73,248.86A235.61,235.61,0,0,0,122.18,442.11Z"/></clipPath></defs><title>plauknap titelskærm</title><g id="Layer_2" data-name="Layer 2"><g class="cls-2"><g class="cls-2"><g class="cls-3"><g class="cls-2"><path class="cls-4" d="M396.29,260l-6.41-4.2c11.55-8,11.38-25.05-.14-32.59l6.41,4.19c11.52,7.55,11.69,24.61.14,32.6"/></g></g></g><g class="cls-2"><g class="cls-5"><g class="cls-2"><path class="cls-4" d="M396.29,260l-6.41-4.2c11.55-8,11.38-25.05-.14-32.59l6.41,4.19c11.52,7.55,11.69,24.61.14,32.6"/></g></g></g><g class="cls-2"><g class="cls-6"><g class="cls-2"><path class="cls-7" d="M395.65,227.13l-6.41-4.2.5.31,6.41,4.2-.5-.31"/></g></g></g><polygon class="cls-8" points="205.03 392.2 198.62 388 389.88 255.84 396.29 260.04 205.03 392.2"/><g class="cls-2"><g class="cls-9"><g class="cls-2"><path class="cls-10" d="M197.57,395.37l-6.41-4.19a19.6,19.6,0,0,0,3.09-.88l6.41,4.2a19.55,19.55,0,0,1-3.09.87"/><path class="cls-11" d="M200.66,394.5l-6.41-4.2a20.19,20.19,0,0,0,3.43-1.69l6.41,4.2a20.19,20.19,0,0,1-3.43,1.69"/><path class="cls-4" d="M204.09,392.81l-6.41-4.2c.32-.19.63-.39.94-.6L205,392.2c-.31.22-.62.42-.94.61"/></g></g></g><g class="cls-2"><g class="cls-12"><g class="cls-2"><path class="cls-13" d="M183.26,392.52l-6.41-4.19c.53.35,1.08.67,1.65,1l6.41,4.19a17,17,0,0,1-1.65-1"/><path class="cls-14" d="M184.91,393.49l-6.41-4.19a19.6,19.6,0,0,0,5.85,2l6.41,4.2a19.43,19.43,0,0,1-5.85-2"/><path class="cls-15" d="M190.76,395.46l-6.41-4.2a19.32,19.32,0,0,0,3.65.26l6.41,4.2a19.32,19.32,0,0,1-3.65-.26"/><path class="cls-16" d="M194.41,395.72l-6.41-4.2h.11a19.91,19.91,0,0,0,3-.34l6.41,4.19a19.94,19.94,0,0,1-3,.35h-.11"/><path class="cls-10" d="M197.57,395.37l-6.41-4.19a19.6,19.6,0,0,0,3.09-.88l6.41,4.2a19.55,19.55,0,0,1-3.09.87"/></g></g></g><g class="cls-2"><g class="cls-17"><g class="cls-2"><path class="cls-18" d="M183.26,392.52l-6.41-4.19a19.16,19.16,0,0,1-8.7-15.86l6.41,4.2a19.14,19.14,0,0,0,8.7,15.85"/></g></g></g><polygon class="cls-19" points="199.47 106.82 193.06 102.63 389.24 222.93 395.65 227.13 199.47 106.82"/><g class="cls-2"><g class="cls-20"><g class="cls-2"><path class="cls-21" d="M188.83,104l-6.41-4.2h.1l6.41,4.2h-.1"/><path class="cls-22" d="M188.93,104l-6.41-4.2a18.65,18.65,0,0,1,3.57.25l6.42,4.2a18.81,18.81,0,0,0-3.58-.25"/><path class="cls-23" d="M192.51,104.2l-6.42-4.2a19.26,19.26,0,0,1,5.7,1.91l6.41,4.19a19.27,19.27,0,0,0-5.69-1.9"/><path class="cls-7" d="M198.2,106.1l-6.41-4.19c.43.22.85.46,1.27.71l6.41,4.2c-.42-.26-.84-.49-1.27-.72"/></g></g></g><polygon class="cls-24" points="174.56 376.67 168.15 372.47 163.24 120 169.65 124.19 174.56 376.67"/><g class="cls-2"><g class="cls-25"><g class="cls-2"><path class="cls-16" d="M248.56,3.05l-6.41-4.2,1.3,0L249.87,3l-1.31,0"/><path class="cls-15" d="M249.87,3l-6.42-4.19A236.87,236.87,0,0,1,288.51,2l6.41,4.2A237.64,237.64,0,0,0,249.87,3"/><path class="cls-14" d="M294.92,6.16,288.51,2a233.26,233.26,0,0,1,69.8,23.46l6.41,4.2a232.7,232.7,0,0,0-69.8-23.46"/><path class="cls-13" d="M364.72,29.62l-6.41-4.2q10.05,5.28,19.51,11.47l6.41,4.2q-9.45-6.2-19.51-11.47"/></g></g></g><g class="cls-2"><g class="cls-26"><g class="cls-2"><path class="cls-18" d="M169.65,124.19,163.23,120a19.69,19.69,0,0,1,9.44-17.29l6.41,4.2a19.66,19.66,0,0,0-9.43,17.28"/><path class="cls-27" d="M179.08,106.91l-6.41-4.2a19.57,19.57,0,0,1,3.47-1.7l6.41,4.2a19.57,19.57,0,0,0-3.47,1.7"/><path class="cls-28" d="M182.55,105.21l-6.41-4.2a19.52,19.52,0,0,1,3.18-.9l6.41,4.19a19.56,19.56,0,0,0-3.18.91"/><path class="cls-21" d="M185.73,104.3l-6.41-4.19a18.86,18.86,0,0,1,3.1-.35l6.41,4.2a19,19,0,0,0-3.1.34"/></g></g></g><path class="cls-29" d="M188.83,104a19.09,19.09,0,0,1,10.64,2.86L395.65,227.13c12,7.37,12.35,24.81.64,32.9L205,392.2a19.33,19.33,0,0,1-30.47-15.53l-4.91-252.48A19.84,19.84,0,0,1,188.83,104Z"/><g class="cls-2"><g class="cls-30"><g class="cls-2"><path class="cls-4" d="M122.18,442.11l-6.41-4.2A235.59,235.59,0,0,1,9.32,244.66C7.6,156.25,54,77.6,124.32,34.22l6.41,4.2C60.39,81.8,14,160.45,15.73,248.86A235.61,235.61,0,0,0,122.18,442.11"/><path class="cls-11" d="M130.73,38.42l-6.41-4.2A238.88,238.88,0,0,1,165.61,14l6.42,4.2a238.25,238.25,0,0,0-41.3,20.27"/><path class="cls-10" d="M172,18.15,165.61,14A237.1,237.1,0,0,1,203.78,3.14l6.41,4.2A235.68,235.68,0,0,0,172,18.15"/><path class="cls-16" d="M210.19,7.34l-6.41-4.2a238.54,238.54,0,0,1,38.37-4.29l6.41,4.2a238.67,238.67,0,0,0-38.37,4.29"/></g></g></g><path class="cls-31" d="M248.56,3.05c131.16-4,239.56,99.54,242.12,231.28S389,476.13,257.85,480.14,18.29,380.6,15.73,248.86,117.4,7.06,248.56,3.05ZM396.29,260c11.71-8.1,11.37-25.54-.64-32.91L199.47,106.82A19.09,19.09,0,0,0,188.83,104a19.84,19.84,0,0,0-19.18,20.23l4.91,252.48A19.33,19.33,0,0,0,205,392.2L396.29,260"/></g></g></svg>