<svg xmlns="http://www.w3.org/2000/svg" width="150" height="150" viewBox="0 0 150 150"><defs><style>.cls-1{fill:#e85646;}.cls-2{fill:#fff;}</style></defs><title>plus point</title><g id="Layer_2" data-name="Layer 2"><path class="cls-1" d="M142.39,75c-27.81,5-28.93,9.72-5.34,23.88C109.71,92.73,107.3,96.12,125,116c-22.4-15.13-24.36-13.52-10,8.19-19.28-18.44-22.3-16.91-15.35,7.72C85,110,80.12,110.89,75,136.11c-5.64-25.22-11-26.29-27-5.1,6-25.17,1.36-28.2-23-15,17.92-19.63,15.66-22.74-11.37-15.69C37.81,87.55,36.91,85.13,9.13,88c26.6-7.8,26.29-10.34-1.52-13,27.81-6.25,29.57-12.13,8.28-29.37,26.79,8.16,30,4.66,16-17.59,20.7,17.19,24,15.36,16.47-9.19,15.8,21.3,21.09,20.26,26.65-5,5,25.22,9.7,26.05,24,4-5.51,25.08-1.51,27.28,20.17,11C106,51.89,110,57.06,138.49,54.47,113.77,66.71,114.58,70.77,142.39,75Z"/><rect class="cls-2" x="43.02" y="67" width="33" height="8" rx="1.74" ry="1.74" transform="translate(130.52 11.48) rotate(90)"/><rect class="cls-2" x="85.63" y="84.06" width="20.89" height="8.44" rx="1.88" ry="1.88"/><rect class="cls-2" x="78.65" y="70.91" width="34.83" height="8.36" transform="translate(171.15 -20.99) rotate(90)"/><path class="cls-2" d="M84,55.66l13.13-5a2.3,2.3,0,0,1,3.12,2.15v9.94a2.3,2.3,0,0,1-3.12,2.15L84,60A2.3,2.3,0,0,1,84,55.66Z"/><rect class="cls-2" x="42.52" y="66.5" width="33" height="8" rx="1.74" ry="1.74"/></g></svg>