<svg xmlns="http://www.w3.org/2000/svg" xmlns:xlink="http://www.w3.org/1999/xlink" width="170" height="170" viewBox="0 0 170 170"><defs><style>.cls-1{fill:none;}.cls-2{isolation:isolate;}.cls-3{clip-path:url(#clip-path);}.cls-4{fill:#4b3176;}.cls-5{fill:#4e327a;}.cls-6{clip-path:url(#clip-path-2);}.cls-7{fill:#442c6a;}.cls-8{fill:#462d6e;}.cls-9{fill:#492f72;}.cls-10{fill:#744bb6;}.cls-11{clip-path:url(#clip-path-3);}.cls-12{fill:#858585;}.cls-13{fill:#8a8a8a;}.cls-14{fill:#8f8f8f;}.cls-15{fill:#949494;}.cls-16{clip-path:url(#clip-path-4);}.cls-17{fill:#999;}.cls-18{fill:#e0e0e0;}.cls-19{clip-path:url(#clip-path-5);}.cls-20{clip-path:url(#clip-path-6);}.cls-21{fill:#828383;}.cls-22{clip-path:url(#clip-path-7);}.cls-23{fill:#919292;}.cls-24{fill:#969797;}.cls-25{clip-path:url(#clip-path-8);}.cls-26{fill:#878888;}.cls-27{fill:#8c8d8d;}.cls-28{fill:#7d7e7e;}.cls-29{clip-path:url(#clip-path-9);}.cls-30{fill:#dbdcdd;}</style><clipPath id="clip-path"><path class="cls-1" d="M97.52,5.87l8.06,1.69A78.67,78.67,0,0,0,90.35,5.9l-8-1.7A77.88,77.88,0,0,1,97.52,5.87Z"/></clipPath><clipPath id="clip-path-2"><path class="cls-1" d="M72.48,164.13l-8.06-1.69C28.24,154.83,1.38,122.12,2,83.26,2.76,39.1,38.7,3.71,82.3,4.2l8,1.7C46.75,5.4,10.81,40.8,10.08,85,9.44,123.82,36.3,156.52,72.48,164.13Z"/></clipPath><clipPath id="clip-path-3"><path class="cls-1" d="M83.6,123.63l-3.14-.79a8.5,8.5,0,0,1,2.23-16.74,31.49,31.49,0,0,0,17.79-5.16,31.66,31.66,0,0,0,14.38-26.12A31.45,31.45,0,0,0,109.74,57,31.88,31.88,0,0,0,96,45.28a32.49,32.49,0,0,0-5-1.71l3.14.8a31.34,31.34,0,0,1,5,1.71,31.76,31.76,0,0,1-13.29,60.81,8.5,8.5,0,0,0-2.22,16.74Z"/></clipPath><clipPath id="clip-path-4"><path class="cls-1" d="M95.17,27.09l3.13.79a48.31,48.31,0,0,0-11.22-1.47L84,25.61A48.86,48.86,0,0,1,95.17,27.09Z"/></clipPath><clipPath id="clip-path-5"><path class="cls-1" d="M44.06,82.79,40.92,82a8.47,8.47,0,0,1-6.38-8.36A48.71,48.71,0,0,1,84,25.61l3.13.8a48.76,48.76,0,0,0-49.41,48A8.49,8.49,0,0,0,44.06,82.79Z"/></clipPath><clipPath id="clip-path-6"><path class="cls-1" d="M77.68,135.1l-3.13-.79-.68-.2,3.14.79C77.23,135,77.46,135,77.68,135.1Z"/></clipPath><clipPath id="clip-path-7"><path class="cls-1" d="M74.27,95l3.13.79a8.62,8.62,0,0,0-2-.27l-3.13-.79A8.62,8.62,0,0,1,74.27,95Z"/></clipPath><clipPath id="clip-path-8"><path class="cls-1" d="M69.53,97.67l-3.13-.79a8.56,8.56,0,0,1,5.85-2.18l3.13.79A8.6,8.6,0,0,0,69.53,97.67Z"/></clipPath><clipPath id="clip-path-9"><path class="cls-1" d="M55.36,127.61l-3.14-.8a8.71,8.71,0,0,1-3-14.78l3.14.79A8.71,8.71,0,0,0,55.36,127.61Z"/></clipPath></defs><title>restart</title><g id="Layer_2" data-name="Layer 2"><g id="Layer_1" data-name="Layer 1"><g class="cls-2"><g class="cls-2"><g class="cls-3"><g class="cls-2"><path class="cls-4" d="M90.35,5.9l-8-1.7A77.88,77.88,0,0,1,94.7,5.33L102.76,7A79.19,79.19,0,0,0,90.35,5.9"/><path class="cls-5" d="M102.76,7,94.7,5.33q1.42.24,2.82.54l8.06,1.69c-.94-.2-1.88-.37-2.82-.54"/></g></g></g><g class="cls-2"><g class="cls-6"><g class="cls-2"><path class="cls-7" d="M72.48,164.13l-8.06-1.69C28.24,154.83,1.38,122.12,2,83.26A80.58,80.58,0,0,1,43.65,13.89l8.05,1.69A80.65,80.65,0,0,0,10.08,85c-.64,38.87,26.22,71.57,62.4,79.18"/><path class="cls-8" d="M51.7,15.58l-8.05-1.69A78.56,78.56,0,0,1,60.11,7.14l8.06,1.69A78.64,78.64,0,0,0,51.7,15.58"/><path class="cls-9" d="M68.17,8.83,60.11,7.14A77.33,77.33,0,0,1,76.22,4.37l8,1.69a77.9,77.9,0,0,0-16.1,2.77"/><path class="cls-4" d="M84.27,6.06l-8-1.69q3-.19,6.08-.17l8,1.7c-2,0-4.07,0-6.08.16"/></g></g></g><ellipse class="cls-10" cx="89.03" cy="85.85" rx="80" ry="78.91" transform="translate(-13.3 155.3) rotate(-78.12)"/></g><g class="cls-2"><g class="cls-2"><g class="cls-11"><g class="cls-2"><path class="cls-12" d="M83.6,123.63l-3.14-.79a8.5,8.5,0,0,1-1-16.16l3.13.79a8.5,8.5,0,0,0,1,16.16"/><path class="cls-13" d="M82.61,107.47l-3.13-.79a8.62,8.62,0,0,1,1.6-.45l3.14.79a8.51,8.51,0,0,0-1.61.45"/><path class="cls-14" d="M84.22,107l-3.14-.79a8,8,0,0,1,1.48-.13l3.13.79a8.83,8.83,0,0,0-1.47.13"/><path class="cls-15" d="M85.69,106.89l-3.13-.79h.62l3.13.8h-.62"/><path class="cls-14" d="M86.31,106.9l-3.13-.8a31.08,31.08,0,0,0,5.5-.48l3.13.79a32.05,32.05,0,0,1-5.5.49"/><path class="cls-13" d="M91.81,106.41l-3.13-.79a31.39,31.39,0,0,0,6-1.67l3.13.79a30.67,30.67,0,0,1-6,1.67"/><path class="cls-12" d="M97.78,104.74,94.65,104a31.53,31.53,0,0,0,5.83-3,31.66,31.66,0,0,0,14.38-26.12A31.45,31.45,0,0,0,109.74,57,31.88,31.88,0,0,0,96,45.28a32.49,32.49,0,0,0-5-1.71l3.14.8a31.34,31.34,0,0,1,5,1.71,31.78,31.78,0,0,1-1.33,58.66"/></g></g></g><g class="cls-2"><g class="cls-16"><g class="cls-2"><path class="cls-15" d="M87.08,26.41,84,25.61a49,49,0,0,1,7.72.73l3.14.8a48.09,48.09,0,0,0-7.73-.73"/><path class="cls-17" d="M94.81,27.14l-3.14-.8c1.18.21,2.35.46,3.5.75l3.13.79c-1.15-.29-2.31-.54-3.49-.74"/></g></g></g><path class="cls-18" d="M87.08,26.41A48.75,48.75,0,0,1,126.23,103a48.59,48.59,0,0,1-40.67,20.89,8.5,8.5,0,0,1,.26-17,31.53,31.53,0,0,0,17.79-5.15A31.67,31.67,0,0,0,118,75.61a31.68,31.68,0,1,0-63.36-.93,8.49,8.49,0,1,1-17-.25,48.68,48.68,0,0,1,49.41-48Z"/><g class="cls-2"><g class="cls-19"><g class="cls-2"><path class="cls-12" d="M44.06,82.79,40.92,82a8.47,8.47,0,0,1-6.38-8.36A48.83,48.83,0,0,1,65,29.17l.61-.25,3.13.8-.61.24A48.83,48.83,0,0,0,37.67,74.43a8.49,8.49,0,0,0,6.39,8.36"/><path class="cls-13" d="M68.69,29.72l-3.13-.8a48.81,48.81,0,0,1,9.21-2.57l3.13.79a48.3,48.3,0,0,0-9.21,2.58"/><path class="cls-14" d="M77.9,27.14l-3.13-.79a47.77,47.77,0,0,1,8.42-.74l3.13.79a48.82,48.82,0,0,0-8.42.74"/><path class="cls-15" d="M86.32,26.4l-3.13-.79H84l3.13.8h-.76"/></g></g></g></g><g class="cls-2"><g class="cls-2"><g class="cls-20"><g class="cls-2"><path class="cls-21" d="M77.68,135.1l-3.13-.79-.68-.2,3.14.79c.22.08.45.14.67.2"/></g></g></g><g class="cls-2"><g class="cls-22"><g class="cls-2"><path class="cls-23" d="M75.38,95.49l-3.13-.79a8.17,8.17,0,0,1,1.39.13l3.13.79a9.21,9.21,0,0,0-1.39-.13"/><path class="cls-24" d="M76.77,95.62l-3.13-.79c.21,0,.42.08.63.14l3.13.79-.63-.14"/></g></g></g><g class="cls-2"><g class="cls-25"><g class="cls-2"><path class="cls-21" d="M69.53,97.67l-3.13-.79A8.84,8.84,0,0,1,69,95.28l3.13.79a8.84,8.84,0,0,0-2.61,1.6"/><path class="cls-26" d="M72.14,96.07,69,95.28a7.81,7.81,0,0,1,1.62-.45l3.13.79a9.53,9.53,0,0,0-1.62.45"/><path class="cls-27" d="M73.76,95.62l-3.13-.79a8.22,8.22,0,0,1,1.48-.13l3.14.79a8.33,8.33,0,0,0-1.49.13"/><path class="cls-23" d="M75.25,95.49l-3.14-.79h.14l3.13.79h-.13"/></g></g></g><polygon class="cls-28" points="77.01 134.9 73.87 134.11 52.22 126.81 55.36 127.61 77.01 134.9"/><polygon class="cls-28" points="52.39 112.82 49.26 112.03 66.4 96.88 69.53 97.67 52.39 112.82"/><g class="cls-2"><g class="cls-29"><g class="cls-2"><path class="cls-21" d="M55.36,127.61l-3.14-.8a8.71,8.71,0,0,1-3-14.78l3.14.79a8.71,8.71,0,0,0,3,14.79"/></g></g></g><path class="cls-30" d="M75.38,95.49a8.67,8.67,0,0,1,8.42,7l4.5,22.44A8.68,8.68,0,0,1,77,134.9l-21.65-7.29a8.71,8.71,0,0,1-3-14.79L69.53,97.67A8.6,8.6,0,0,1,75.38,95.49Z"/></g></g></g></svg>
