<svg xmlns="http://www.w3.org/2000/svg" xmlns:xlink="http://www.w3.org/1999/xlink" width="1290" height="580" viewBox="0 0 1290 580"><defs><style>.cls-1{fill:none;}.cls-2{fill:#3d2e1c;opacity:0.7;}.cls-3{fill:#fff;opacity:0.1;}.cls-4{isolation:isolate;}.cls-5{clip-path:url(#clip-path);}.cls-6{fill:#4b3176;}.cls-7{fill:#4e327a;}.cls-8{fill:#51347e;}.cls-9{fill:#724ab3;}.cls-10{fill:#412a66;}.cls-11{fill:#4c3177;}.cls-12{clip-path:url(#clip-path-2);}.cls-13{fill:#442c6a;}.cls-14{fill:#462d6e;}.cls-15{fill:#492f72;}.cls-16{clip-path:url(#clip-path-3);}.cls-17{clip-path:url(#clip-path-4);}.cls-18{fill:#ddcef2;}</style><clipPath id="clip-path"><path class="cls-1" d="M925.79,215.64l5.8,3.25a25,25,0,0,0-12-3.18l-5.8-3.25A25.11,25.11,0,0,1,925.79,215.64Z"/></clipPath><clipPath id="clip-path-2"><path class="cls-1" d="M830.22,264.09l-5.8-3.25a25.21,25.21,0,0,1-12.89-22,25.63,25.63,0,0,1,23.81-25.61l5.8,3.25A25.62,25.62,0,0,0,817.33,242,25.23,25.23,0,0,0,830.22,264.09Z"/></clipPath><clipPath id="clip-path-3"><path class="cls-1" d="M925.79,350.64l5.8,3.25a25,25,0,0,0-12-3.18l-5.8-3.25A25.11,25.11,0,0,1,925.79,350.64Z"/></clipPath><clipPath id="clip-path-4"><path class="cls-1" d="M830.22,399.09l-5.8-3.25a25.21,25.21,0,0,1-12.89-22,25.63,25.63,0,0,1,23.81-25.61l5.8,3.25A25.62,25.62,0,0,0,817.33,377,25.23,25.23,0,0,0,830.22,399.09Z"/></clipPath></defs><title>settings</title><g id="Layer_2" data-name="Layer 2"><g id="Layer_1" data-name="Layer 1"><path class="cls-2" d="M1231.87,81.81l-58.25,29c63.87-155.5-498.35-86.38-617.23-89.45C354.59,16.13-117.94-19.34,151.89,234c-153.35.46-199.42,227.18-59.11,277.4,50.46-40.21,850.65,153.75,818.64-.84,164.53,46,300.24,39.73,249.26-115C1285.5,401,1320.63,184.86,1231.87,81.81Z"/><path class="cls-3" d="M738.21,530.36c-107.31,0-258.77-20.43-392.4-38.47-103.35-13.94-192.6-26-244-26a207.26,207.26,0,0,0-30.7,1.89c-39.33-23.07-49.28-73.86-37.7-116.54,10.09-37.17,40.46-80.63,92.88-80.79l98.49-.29L161,211.38c-54-49.87,56.25-75.68,68-95.61,23-38.88,45.25-58.93,112-58.93,48.26,0,96.24,1.58,138.58,3,17.71.59,34.34,1.13,49.46,1.52,3.1.08,6.47.11,10.08.11,26.24,0,63.73-2,111.2-4.59,65.9-3.56,147.91-8,225.33-8,182.63,0,220.77,25.86,228.12,33.78,1.77,1.92,5.93,6.41.42,19.62l-39.27,94,123.68-60.52c31.16,61.69,25.58,147.27-5.19,193-12.9,19.17-27.71,28.9-44,28.9h0c-.68,0-1.39,0-2.09-.05l-62.78-2.67L957.93,399.27c17.16,51.2,139.74,74.87,132.23,82.48-10.94,11.11-35.64,13.44-54.42,13.44-34.57,0-81.23-7.8-135-22.56L710.4,431.56l130,80.78a8.46,8.46,0,0,1,.21,3.83h0C840.53,516.17,826.29,530.36,738.21,530.36Z"/><g class="cls-4"><g class="cls-4"><g class="cls-5"><g class="cls-4"><path class="cls-6" d="M919.61,215.71l-5.8-3.25h.61l5.8,3.25h-.61"/><path class="cls-7" d="M920.22,215.72l-5.8-3.25a25.19,25.19,0,0,1,5,.69l5.8,3.25a25.19,25.19,0,0,0-5-.69"/><path class="cls-8" d="M925.25,216.41l-5.8-3.25a24.89,24.89,0,0,1,6.34,2.48l5.8,3.25a24.89,24.89,0,0,0-6.34-2.48"/></g></g></g><path class="cls-9" d="M919.61,215.71a25.15,25.15,0,0,1,24.86,25.22,25.64,25.64,0,0,1-24.8,25.66Z"/><polygon class="cls-10" points="919.67 266.59 913.87 263.34 913.81 212.46 919.61 215.71 919.67 266.59"/></g><g class="cls-4"><polygon class="cls-9" points="919.61 215.7 919.67 266.59 841.2 267.29 841.14 216.44 919.61 215.7"/><polygon class="cls-10" points="841.2 267.29 835.4 264.04 835.34 213.19 841.14 216.44 841.2 267.29"/><polygon class="cls-11" points="841.14 216.44 835.34 213.19 913.81 212.46 919.61 215.7 841.14 216.44"/></g><g class="cls-4"><g class="cls-4"><g class="cls-12"><g class="cls-4"><path class="cls-13" d="M830.22,264.09l-5.8-3.25a25.21,25.21,0,0,1-12.89-22,25.68,25.68,0,0,1,13.19-22.47l5.8,3.25A25.68,25.68,0,0,0,817.33,242a25.23,25.23,0,0,0,12.89,22"/><path class="cls-14" d="M830.52,219.58l-5.8-3.25a26.22,26.22,0,0,1,4.57-2l5.8,3.25a25.48,25.48,0,0,0-4.57,2"/><path class="cls-15" d="M835.09,217.59l-5.8-3.25a25.72,25.72,0,0,1,4.23-1l5.8,3.24a25.74,25.74,0,0,0-4.23,1"/><path class="cls-6" d="M839.32,216.62l-5.8-3.24c.6-.09,1.21-.15,1.82-.19l5.8,3.25c-.61,0-1.22.1-1.82.18"/></g></g></g><path class="cls-9" d="M841.14,216.44l.06,50.8A25.16,25.16,0,0,1,817.33,242,25.62,25.62,0,0,1,841.14,216.44Z"/></g><g class="cls-4"><path class="cls-9" d="M919.61,350.71a25.15,25.15,0,0,1,24.86,25.22,25.64,25.64,0,0,1-24.8,25.66Z"/><g class="cls-4"><g class="cls-16"><g class="cls-4"><path class="cls-6" d="M919.61,350.71l-5.8-3.25h.61l5.8,3.25h-.61"/><path class="cls-7" d="M920.22,350.72l-5.8-3.25a25.19,25.19,0,0,1,5,.69l5.8,3.25a25.19,25.19,0,0,0-5-.69"/><path class="cls-8" d="M925.25,351.41l-5.8-3.25a24.89,24.89,0,0,1,6.34,2.48l5.8,3.25a24.89,24.89,0,0,0-6.34-2.48"/></g></g></g><polygon class="cls-10" points="919.67 401.59 913.87 398.34 913.81 347.46 919.61 350.71 919.67 401.59"/></g><g class="cls-4"><polygon class="cls-9" points="919.61 350.7 919.67 401.59 841.2 402.29 841.14 351.44 919.61 350.7"/><polygon class="cls-10" points="841.2 402.29 835.4 399.04 835.34 348.19 841.14 351.44 841.2 402.29"/><polygon class="cls-11" points="841.14 351.44 835.34 348.19 913.81 347.45 919.61 350.7 841.14 351.44"/></g><g class="cls-4"><g class="cls-4"><g class="cls-17"><g class="cls-4"><path class="cls-13" d="M830.22,399.09l-5.8-3.25a25.21,25.21,0,0,1-12.89-22,25.68,25.68,0,0,1,13.19-22.47l5.8,3.25A25.68,25.68,0,0,0,817.33,377a25.23,25.23,0,0,0,12.89,22"/><path class="cls-14" d="M830.52,354.58l-5.8-3.25a26.22,26.22,0,0,1,4.57-2l5.8,3.25a25.48,25.48,0,0,0-4.57,2"/><path class="cls-15" d="M835.09,352.59l-5.8-3.25a25.72,25.72,0,0,1,4.23-1l5.8,3.24a25.74,25.74,0,0,0-4.23,1"/><path class="cls-6" d="M839.32,351.62l-5.8-3.24c.6-.09,1.21-.15,1.82-.19l5.8,3.25c-.61,0-1.22.1-1.82.18"/></g></g></g><path class="cls-9" d="M841.14,351.44l.06,50.8A25.16,25.16,0,0,1,817.33,377,25.62,25.62,0,0,1,841.14,351.44Z"/></g><path class="cls-18" d="M318,272.14a28.45,28.45,0,0,0-3.85-.32,26,26,0,0,0-4.1.43q-.19-2.6-1.35-8.84a74.7,74.7,0,0,1-1.18-8.08,6.28,6.28,0,0,1,.36-2,5.48,5.48,0,0,0,.32-2.07,13.66,13.66,0,0,0-.72-3,33,33,0,0,1-1-3.4,4.36,4.36,0,0,0-2.44,2.28,18.14,18.14,0,0,0-1.22,3.34,17.26,17.26,0,0,1-1.26,3.38q-1,1.8-2.88,6-2.48,5.55-3,6.72h-2.44q-3.43-7.08-10.68-21.24a5.16,5.16,0,0,0-.88,2.8q-.92,11.83-1.76,24l-3.68-2.72a6.51,6.51,0,0,0-3.76-1.45,11.27,11.27,0,0,0,3.77-7.16c.08-2.21.17-4.43.28-6.64q.76-5.35,2.16-16.32,1.89-1,5.25-3.12L295,257.62a64.15,64.15,0,0,0,5.53-11.12l5-12.12h5.36q.43,5.12,2.08,17.2l2.2,16.36Q315.38,269.74,318,272.14Z"/><path class="cls-18" d="M355.06,233.94a6.7,6.7,0,0,0-2.92,4.28,22.25,22.25,0,0,0-.4,4.84c0,1.06,0,2.65.1,4.76s.1,3.69.1,4.76q0,9.15-2.36,13.76-3.29,6.44-11.68,6.44c-2.45,0-3.82,0-4.12-.08a21.75,21.75,0,0,1-5.12-2.12q-1-.56-3.2-4.13t-2.16-4.73v-18.8q0-2-3.08-4.47a26.1,26.1,0,0,0,8.12-4.51v27.89a8.78,8.78,0,0,0,1.14,3.28,11.09,11.09,0,0,0,1.94,3c1.17,1.06,3.25,1.6,6.24,1.6a12.46,12.46,0,0,0,4.6-.64,7.31,7.31,0,0,0,3.92-4.8,24.94,24.94,0,0,0,.92-4.52,28.75,28.75,0,0,0,.28-3.68V240.3a16.43,16.43,0,0,0-.48-3.12,16.48,16.48,0,0,1-.48-3.24Z"/><path class="cls-18" d="M381.42,261.78a9.72,9.72,0,0,1-4.88,8.52,14.87,14.87,0,0,1-8.2,2.48,16.12,16.12,0,0,1-10.48-3.8c.59-1,1.36-2.26,2.32-3.88a6.66,6.66,0,0,0,3.56,3.76,10.76,10.76,0,0,0,5.12,1.36,7.65,7.65,0,0,0,5.26-1.94,6.39,6.39,0,0,0,2.18-5,16.11,16.11,0,0,0-.08-2,2.94,2.94,0,0,0-1-1.92,41.69,41.69,0,0,0-6.68-3.8,27.16,27.16,0,0,1-6.64-4.24,9.9,9.9,0,0,1-3-7.32,10,10,0,0,1,3.48-7.8,11.68,11.68,0,0,1,8.08-3,17.47,17.47,0,0,1,5.26,1,15,15,0,0,1,4.7,2.26,13.94,13.94,0,0,1-2.12,5c0-1.82-1.19-3.2-3.48-4.16a12.05,12.05,0,0,0-4.64-1q-6.64,0-6.64,5.64c0,2.4,1.35,4.5,4,6.32.59.4,3.17,1.73,7.76,4q4.36,2.16,4.92,4.24c.16.58.41,1.45.76,2.6A10,10,0,0,1,381.42,261.78Z"/><path class="cls-18" d="M396,235.5a11.88,11.88,0,0,0-2.65,2.76c-1.19,1.52-1.79,2.6-1.79,3.24v12.68c0,.32.05.48.14.48a.65.65,0,0,0,.26-.14.58.58,0,0,1,.26-.14c.12,0,.17.14.14.44v17.44a44.91,44.91,0,0,1-4.2-2q-3.29-1.76-4.12-2.12a5.28,5.28,0,0,1,.16-1.12,3,3,0,0,0,2.06-2,42.75,42.75,0,0,0,.74-9.37V246q0-9.9-3-10.45c.88,0,2.82,0,5.8,0Z"/><path class="cls-18" d="M429.14,237.9c-.32,1.57-.52,2.46-.6,2.68a3.58,3.58,0,0,1-1.64,2.12,21.38,21.38,0,0,0-3.56-3.78,7.56,7.56,0,0,0-3.24-1.54,24.92,24.92,0,0,0-3-.08,10.55,10.55,0,0,0-9.72,5.3,18.86,18.86,0,0,0-2.36,9.74,20.16,20.16,0,0,0,3.32,11.41q3.72,5.58,9.48,5.59a12,12,0,0,0,5.68-1.63q3.6-1.95,3.36-4.73a3.28,3.28,0,0,0,.92.54,3.08,3.08,0,0,1,.88.5v5.8a14.6,14.6,0,0,1-5,1.8,24.81,24.81,0,0,1-5.36.72,18.38,18.38,0,0,1-13.82-5.68A19.53,19.53,0,0,1,399,252.58,17.72,17.72,0,0,1,417.3,234.3Q424.79,234.3,429.14,237.9Z"/><path class="cls-18" d="M477.85,126.35q0,8.58-7.81,13.63a23.74,23.74,0,0,1-13.12,4,25.79,25.79,0,0,1-16.77-6.08q1.41-2.3,3.71-6.21c.77,2.44,2.67,4.44,5.7,6a17.1,17.1,0,0,0,8.19,2.18,12.23,12.23,0,0,0,8.42-3.11,10.19,10.19,0,0,0,3.48-8,26.34,26.34,0,0,0-.12-3.13,4.76,4.76,0,0,0-1.67-3.07,67.68,67.68,0,0,0-10.69-6.08q-7.49-3.72-10.62-6.79A15.8,15.8,0,0,1,441.75,98a16.08,16.08,0,0,1,5.57-12.48,18.73,18.73,0,0,1,12.93-4.74,28.48,28.48,0,0,1,8.41,1.57A24.38,24.38,0,0,1,476.18,86a22.11,22.11,0,0,1-3.39,7.93q-.06-4.35-5.57-6.65a19.16,19.16,0,0,0-7.42-1.54q-10.64,0-10.63,9,0,5.76,6.47,10.11,1.41,1,12.41,6.4,7,3.45,7.88,6.78c.25.94.66,2.33,1.21,4.16A16,16,0,0,1,477.85,126.35Z"/><path class="cls-18" d="M521.49,140.18a3.06,3.06,0,0,1-2.94,2.94H487.06V89.49q0-1.92-4.93-6.79,26.43,0,33.92.52c1.88.12,2.56.19,2.05.19A12.38,12.38,0,0,1,517,86.86c-.9,2.14-1.41,3.4-1.54,3.78q-2.8-4.1-13.18-4.1c-3,0-5.14.5-6.46,1.48q-2.31,1.78-2.31,6.08c0,.51,0,1.3.07,2.36s.06,1.86.06,2.37v5.7q.45,3.7,3.07,3.71c.68,0,1.69,0,3-.16s2.32-.16,3-.16a47,47,0,0,1,8.89.9,10.44,10.44,0,0,1-1.08,3.32c-.86,1.88-1.41,3.18-1.67,3.91a5.53,5.53,0,0,0-3.65-3.27,36.42,36.42,0,0,0-5-.25,13.35,13.35,0,0,1-3.65-.58,3.24,3.24,0,0,0-1.28,2.5q0,9,1,20.86a3.63,3.63,0,0,0,1.92,2.53,6,6,0,0,0,3.2,1.18,112.15,112.15,0,0,0,12.22-1q1.41-.19,5.06-3.84Z"/><path class="cls-18" d="M579.35,83.34c-1.24,3.8-1.81,6.51-1.73,8.13a4.87,4.87,0,0,1-2-.19,10.19,10.19,0,0,0-4.29-3.46,19.09,19.09,0,0,0-4.8-.38,14.1,14.1,0,0,0-7.94,2.24v25c-1.58,1.54-2.73,2.62-3.45,3.26v26.82q-4.29-3.14-5.76-4.1a22.11,22.11,0,0,0-5.7-2.81q5.82-4.87,5.83-14.34V92.18a28.26,28.26,0,0,0-5.12-3.78,15.16,15.16,0,0,0-6.15-1,16.72,16.72,0,0,0-5.38.58,8.4,8.4,0,0,0-3.77,3.58,35.6,35.6,0,0,1-2.82-8.26Z"/><path class="cls-18" d="M636.76,83.34Q634.9,89,635,91.47a5,5,0,0,1-2-.19,10.12,10.12,0,0,0-4.28-3.46,19.09,19.09,0,0,0-4.8-.38A14.1,14.1,0,0,0,616,89.68v25c-1.58,1.54-2.73,2.62-3.46,3.26v26.82q-4.27-3.14-5.76-4.1a21.93,21.93,0,0,0-5.69-2.81q5.82-4.87,5.82-14.34V92.18a27.56,27.56,0,0,0-5.12-3.78,15.07,15.07,0,0,0-6.14-1,16.68,16.68,0,0,0-5.38.58,8.4,8.4,0,0,0-3.77,3.58,35.12,35.12,0,0,1-2.82-8.26Z"/><path class="cls-18" d="M660.12,84.3a18.91,18.91,0,0,0-4.25,4.42Q653,92.37,653,93.9v20.29c0,.51.08.77.22.77a.91.91,0,0,0,.42-.22,1,1,0,0,1,.42-.23c.19,0,.26.24.22.71v27.9a70.44,70.44,0,0,1-6.72-3.14c-3.51-1.88-5.7-3-6.59-3.4a8.89,8.89,0,0,1,.25-1.79,4.75,4.75,0,0,0,3.3-3.27q1.19-4.74,1.19-15V101q0-15.82-4.8-16.73c1.4,0,4.5,0,9.28,0Z"/><path class="cls-18" d="M720,82.7q-1.29,8.83-1.47,26.56l-.33,32.58c-2.14-1.24-5.24-2-9.27-2.24q-4.43-6-16.07-20.29-10.43-12.74-15.8-20.48-.71,5.57-1,20-.27,17.87-.65,23.81l-5.82-4.22c-2.73-1.79-4.8-2.78-6.21-2.95a21.12,21.12,0,0,0,3.84-2.81,13.74,13.74,0,0,0,1.09-4V89.49a4.19,4.19,0,0,1,2.75-4.29c2.48-1,4.14-2.18,5-3.58L709.91,126q2.43-.64,2.43-5.89a51.39,51.39,0,0,0-.51-6c-1.11-1.06-1.67-1.94-1.67-2.62V90.32q0-1.41-1.79-4.42c-1.32-2.21-2.62-3.58-3.9-4.09h13.69Z"/><path class="cls-18" d="M773,90.32a5.61,5.61,0,0,1-1.41,2.82l-2,2.68a9.43,9.43,0,0,1-2.56-2.35l-1.79-2.16a19.85,19.85,0,0,0-5.86-3.37,18,18,0,0,0-6.49-1.52q-10,0-15.36,9.25a30.72,30.72,0,0,0-4,15.58,32.94,32.94,0,0,0,4.8,17.49q6,9.7,16.58,9.71,9.48,0,9.47-11a11.45,11.45,0,0,0-1.53-5.3,8.58,8.58,0,0,0-4.74-4.4A17.32,17.32,0,0,1,761.3,114q2.63-2.35,4.09-2.36,2.45,0,6.73,4.1,0,8.44-1.67,25-2.18.25-9.28,1.54a57.49,57.49,0,0,1-6.4,1A28.45,28.45,0,0,1,733.2,134a31,31,0,0,1-8.45-22q0-12.81,7.94-21.44,8.19-9,20.86-9A36.64,36.64,0,0,1,764.69,84Q772.94,86.8,773,90.32Z"/><path class="cls-18" d="M815.44,126.35q0,8.58-7.81,13.63a23.69,23.69,0,0,1-13.12,4,25.76,25.76,0,0,1-16.76-6.08q1.39-2.3,3.71-6.21c.77,2.44,2.67,4.44,5.69,6a17.1,17.1,0,0,0,8.2,2.18,12.21,12.21,0,0,0,8.41-3.11,10.16,10.16,0,0,0,3.49-8,23.71,23.71,0,0,0-.13-3.13,4.75,4.75,0,0,0-1.66-3.07,68.17,68.17,0,0,0-10.69-6.08q-7.49-3.72-10.62-6.79A15.8,15.8,0,0,1,779.35,98a16,16,0,0,1,5.57-12.48,18.7,18.7,0,0,1,12.92-4.74,28.54,28.54,0,0,1,8.42,1.57A24.5,24.5,0,0,1,813.78,86a22.46,22.46,0,0,1-3.39,7.93q-.07-4.35-5.57-6.65a19.21,19.21,0,0,0-7.43-1.54q-10.62,0-10.62,9,0,5.76,6.46,10.11,1.41,1,12.42,6.4,7,3.45,7.87,6.78c.26.94.66,2.33,1.22,4.16A15.88,15.88,0,0,1,815.44,126.35Z"/><path class="cls-18" d="M296.06,370.78a9.72,9.72,0,0,1-4.88,8.52,14.87,14.87,0,0,1-8.2,2.48A16.12,16.12,0,0,1,272.5,378c.59-1,1.36-2.26,2.32-3.88a6.66,6.66,0,0,0,3.56,3.76,10.76,10.76,0,0,0,5.12,1.36,7.65,7.65,0,0,0,5.26-1.94,6.39,6.39,0,0,0,2.18-5,14.23,14.23,0,0,0-.08-2,2.94,2.94,0,0,0-1-1.92,41.69,41.69,0,0,0-6.68-3.8,27.16,27.16,0,0,1-6.64-4.24,9.9,9.9,0,0,1-3-7.32,10,10,0,0,1,3.48-7.8,11.7,11.7,0,0,1,8.08-3,17.47,17.47,0,0,1,5.26,1,15,15,0,0,1,4.7,2.26,13.94,13.94,0,0,1-2.12,5c0-1.82-1.19-3.2-3.48-4.16a12,12,0,0,0-4.64-1q-6.63,0-6.64,5.64c0,2.4,1.35,4.5,4,6.32q.88.6,7.76,4,4.37,2.16,4.92,4.24c.16.58.42,1.45.76,2.6A9.63,9.63,0,0,1,296.06,370.78Z"/><path class="cls-18" d="M334.1,363.86q0,8.07-4.7,13t-12.74,4.92a16.58,16.58,0,0,1-13.12-5.8,20.11,20.11,0,0,1-4.8-13.68q0-8.64,5-14.2,5.21-5.81,13.76-5.8.53,0,8.2,1.56c.56,0,1.08.38,1.56,1.16a4.43,4.43,0,0,1-.12,1.4,12.41,12.41,0,0,0-.2,1.48,1.56,1.56,0,0,0,.12.68,13.56,13.56,0,0,0,2.4,3.08,14.26,14.26,0,0,1,2.44,3.12,26.13,26.13,0,0,1,1.72,4.4A18.87,18.87,0,0,1,334.1,363.86Zm-5.64-1.56a24.2,24.2,0,0,0-.4-3.84,16.38,16.38,0,0,0-1.36-4.72,3.44,3.44,0,0,0-1.12-1.1,5.6,5.6,0,0,1-1.12-.94c0-.86-.13-2.06-.32-3.6a10.34,10.34,0,0,0-3.18-1.6,14.53,14.53,0,0,0-3.5-1.12q-6.07,0-9.88,5.76a18.65,18.65,0,0,0-3.2,10.4A23.85,23.85,0,0,0,307,372.22q3.48,7,9.4,7,6.52,0,9.68-6A23.3,23.3,0,0,0,328.46,362.3Z"/><path class="cls-18" d="M371.94,342.94a6.7,6.7,0,0,0-2.92,4.28,21.63,21.63,0,0,0-.4,4.84c0,1.06,0,2.65.1,4.76s.1,3.69.1,4.76q0,9.15-2.36,13.76-3.29,6.44-11.68,6.44c-2.45,0-3.82,0-4.12-.08a21.75,21.75,0,0,1-5.12-2.12q-1-.56-3.2-4.13t-2.16-4.73v-18.8q0-2-3.08-4.47a26.1,26.1,0,0,0,8.12-4.51v27.89a8.78,8.78,0,0,0,1.14,3.28,11.09,11.09,0,0,0,1.94,3c1.17,1.06,3.25,1.6,6.24,1.6a12.46,12.46,0,0,0,4.6-.64,7.31,7.31,0,0,0,3.92-4.8,24.94,24.94,0,0,0,.92-4.52,28.75,28.75,0,0,0,.28-3.68V349.3a16.43,16.43,0,0,0-.48-3.12,16.48,16.48,0,0,1-.48-3.24Z"/><path class="cls-18" d="M410.1,343.5a135,135,0,0,0-.92,16.6l-.2,20.36a13.45,13.45,0,0,0-5.8-1.4q-2.76-3.76-10-12.68-6.51-8-9.88-12.81-.43,3.48-.6,12.52-.17,11.18-.4,14.89l-3.64-2.64a10.51,10.51,0,0,0-3.88-1.84,13.2,13.2,0,0,0,2.4-1.76,8.84,8.84,0,0,0,.68-2.48V347.74a2.6,2.6,0,0,1,1.72-2.68,6.15,6.15,0,0,0,3.12-2.24l21.12,27.72c1-.27,1.52-1.5,1.52-3.68a32.54,32.54,0,0,0-.32-3.76c-.69-.67-1-1.22-1-1.64v-13.2a6.38,6.38,0,0,0-1.12-2.76,5.8,5.8,0,0,0-2.44-2.56h8.56Z"/><path class="cls-18" d="M445.06,362.82a18.25,18.25,0,0,1-5.2,13.08,17,17,0,0,1-12.8,5.44,24.17,24.17,0,0,1-3.84-.16,14.44,14.44,0,0,1-3.32-1.84,32.41,32.41,0,0,0-3.32-2.12V348.14a3.71,3.71,0,0,0-1.28-2.4,8.77,8.77,0,0,0-2.24-1.72,69.55,69.55,0,0,1,10-.72q9.24,0,15.4,5A17.74,17.74,0,0,1,445.06,362.82Zm-4.48.73a18.38,18.38,0,0,0-4-11.34q-4.49-5.91-11-5.91a5.47,5.47,0,0,0-2.34.69,9.46,9.46,0,0,0-2.18,1.46v14a3.32,3.32,0,0,0,.76,1.59,3.52,3.52,0,0,1,.76,1.48c0,.77-.07,1.92-.2,3.44s-.2,2.66-.2,3.43a11.25,11.25,0,0,0,1.08,5.16,6.65,6.65,0,0,0,4,1.2q5.68,0,9.64-5A16.09,16.09,0,0,0,440.58,363.55Z"/><path class="cls-18" d="M492.38,379.42a1.92,1.92,0,0,1-1.84,1.84H470.86V347.74c0-.8-1-2.22-3.08-4.24q16.52,0,21.2.32c1.17.08,1.6.12,1.28.12a7.82,7.82,0,0,1-.72,2.16c-.56,1.33-.88,2.12-1,2.36q-1.75-2.56-8.24-2.56a6.84,6.84,0,0,0-4,.92,4.52,4.52,0,0,0-1.44,3.8c0,.32,0,.81,0,1.48s0,1.16,0,1.48v3.56c.19,1.54.83,2.32,1.92,2.32.43,0,1.05,0,1.88-.1s1.45-.1,1.88-.1a29,29,0,0,1,5.56.56,6.64,6.64,0,0,1-.68,2.08c-.53,1.17-.88,2-1,2.44a3.43,3.43,0,0,0-2.28-2,20.76,20.76,0,0,0-3.12-.16,8.65,8.65,0,0,1-2.28-.36,2,2,0,0,0-.8,1.56q0,5.64.64,13a2.28,2.28,0,0,0,1.2,1.58,3.78,3.78,0,0,0,2,.74,71.54,71.54,0,0,0,7.64-.64c.59-.08,1.64-.88,3.16-2.4Z"/><path class="cls-18" d="M517.9,344.86a11.36,11.36,0,0,1-1.68,3.56c-.19,0-.41-.19-.68-.55l-.12-.16-.48-.63c-.72-.41-2.39-.62-5-.62h-1.8a6.8,6.8,0,0,0-5.16,1.82v10.14a9.1,9.1,0,0,0,4.84,1h3a9.82,9.82,0,0,1,3.48.47,6.78,6.78,0,0,1-.68,2.1,22,22,0,0,0-.92,2.31c-.24,0-.57-.19-1-.64l-1.32-1.4h-5.88q0,2.16-.12,6.46c-.08,2.86-.12,5-.12,6.46,0,2.26.08,4.28.24,6q-3.19-1.68-9.12-4.24a11.77,11.77,0,0,0,3.56-6.72q-.19-5.68-.2-9.12c0-.67,0-1.67.1-3s.1-1.9.1-1.68a11.24,11.24,0,0,1-.48-3.64V349.7q0-4.56-3.08-6.24h21.88l.6.48A2.76,2.76,0,0,1,517.9,344.86Z"/><path class="cls-18" d="M543.7,344.86a11.36,11.36,0,0,1-1.68,3.56c-.19,0-.41-.19-.68-.55l-.12-.16-.48-.63c-.72-.41-2.39-.62-5-.62h-1.8a6.8,6.8,0,0,0-5.16,1.82v10.14a9.1,9.1,0,0,0,4.84,1h3a9.82,9.82,0,0,1,3.48.47,6.78,6.78,0,0,1-.68,2.1,22,22,0,0,0-.92,2.31c-.24,0-.57-.19-1-.64l-1.32-1.4h-5.88q0,2.16-.12,6.46c-.08,2.86-.12,5-.12,6.46,0,2.26.08,4.28.24,6q-3.19-1.68-9.12-4.24a11.77,11.77,0,0,0,3.56-6.72q-.19-5.68-.2-9.12c0-.67,0-1.67.1-3s.1-1.9.1-1.68a11.24,11.24,0,0,1-.48-3.64V349.7q0-4.56-3.08-6.24H543l.6.48A2.76,2.76,0,0,1,543.7,344.86Z"/><path class="cls-18" d="M571.54,379.42a1.92,1.92,0,0,1-1.84,1.84H550V347.74c0-.8-1-2.22-3.08-4.24q16.51,0,21.2.32c1.17.08,1.6.12,1.28.12a7.82,7.82,0,0,1-.72,2.16c-.56,1.33-.88,2.12-1,2.36q-1.75-2.56-8.24-2.56a6.84,6.84,0,0,0-4,.92,4.52,4.52,0,0,0-1.44,3.8c0,.32,0,.81,0,1.48s0,1.16,0,1.48v3.56c.19,1.54.83,2.32,1.92,2.32.43,0,1.05,0,1.88-.1s1.45-.1,1.88-.1a29,29,0,0,1,5.56.56,6.64,6.64,0,0,1-.68,2.08c-.53,1.17-.88,2-1,2.44a3.43,3.43,0,0,0-2.28-2,20.76,20.76,0,0,0-3.12-.16,8.65,8.65,0,0,1-2.28-.36,2,2,0,0,0-.8,1.56q0,5.64.64,13A2.28,2.28,0,0,0,557,378a3.78,3.78,0,0,0,2,.74,71.54,71.54,0,0,0,7.64-.64c.59-.08,1.64-.88,3.16-2.4Z"/><path class="cls-18" d="M605.54,346.9c-.32,1.57-.52,2.46-.6,2.68a3.58,3.58,0,0,1-1.64,2.12,21.38,21.38,0,0,0-3.56-3.78,7.56,7.56,0,0,0-3.24-1.54,24.92,24.92,0,0,0-3-.08,10.55,10.55,0,0,0-9.72,5.3,18.86,18.86,0,0,0-2.36,9.74,20.16,20.16,0,0,0,3.32,11.41q3.72,5.58,9.48,5.59a12,12,0,0,0,5.68-1.63q3.6-1.95,3.36-4.73a3.28,3.28,0,0,0,.92.54,3.08,3.08,0,0,1,.88.5v5.8a14.6,14.6,0,0,1-5,1.8,24.81,24.81,0,0,1-5.36.72,18.38,18.38,0,0,1-13.82-5.68,19.53,19.53,0,0,1-5.46-14.08A17.72,17.72,0,0,1,593.7,343.3Q601.19,343.3,605.54,346.9Z"/><path class="cls-18" d="M642.38,343.9A16.55,16.55,0,0,0,641.3,349a3.27,3.27,0,0,1-1.24-.12,6.21,6.21,0,0,0-2.68-2.16,11.7,11.7,0,0,0-3-.24,8.74,8.74,0,0,0-5,1.4v15.6q-1.49,1.44-2.16,2v16.76q-2.68-2-3.6-2.56a13.61,13.61,0,0,0-3.56-1.76q3.64-3,3.64-9V349.42a17.06,17.06,0,0,0-3.2-2.36,9.42,9.42,0,0,0-3.84-.6,10.5,10.5,0,0,0-3.36.36,5.25,5.25,0,0,0-2.36,2.24,22.64,22.64,0,0,1-1.76-5.16Z"/><path class="cls-18" d="M668.62,370.78a9.72,9.72,0,0,1-4.88,8.52,14.89,14.89,0,0,1-8.2,2.48,16.1,16.1,0,0,1-10.48-3.8c.58-1,1.36-2.26,2.32-3.88a6.62,6.62,0,0,0,3.56,3.76,10.76,10.76,0,0,0,5.12,1.36,7.65,7.65,0,0,0,5.26-1.94,6.39,6.39,0,0,0,2.18-5,16.11,16.11,0,0,0-.08-2,2.94,2.94,0,0,0-1-1.92,42.17,42.17,0,0,0-6.68-3.8,27.16,27.16,0,0,1-6.64-4.24,9.9,9.9,0,0,1-3-7.32,10,10,0,0,1,3.48-7.8,11.66,11.66,0,0,1,8.08-3,17.47,17.47,0,0,1,5.26,1,15.13,15.13,0,0,1,4.7,2.26,14.12,14.12,0,0,1-2.12,5c0-1.82-1.19-3.2-3.48-4.16a12.09,12.09,0,0,0-4.64-1q-6.65,0-6.64,5.64c0,2.4,1.34,4.5,4,6.32.59.4,3.17,1.73,7.76,4q4.35,2.16,4.92,4.24c.16.58.41,1.45.76,2.6A10,10,0,0,1,668.62,370.78Z"/></g></g></svg>
