<svg xmlns="http://www.w3.org/2000/svg" width="430" height="640" viewBox="0 0 430 640"><defs><style>.cls-1{fill:#7452a4;}.cls-2{fill:#7a57ae;}.cls-3{fill:#5d4284;}.cls-4{fill:#decff3;}.cls-5{fill:none;stroke:#decff3;stroke-linecap:round;stroke-linejoin:round;stroke-width:0;}</style></defs><title>skab til scene</title><g id="Layer_2" data-name="Layer 2"><path class="cls-1" d="M187.46,381.68v-.18L8.87,375.32l.77,245.61,356.78,12.33-.76-245.42Zm114.62,94.81c5.64.16,10.2,5.32,10.15,11.46l-.13,14.29L312,514.92c-.06,6.14-4.71,11-10.35,10.86L193.52,522.6l-135.07-4c-5.64-.17-10.2-5.33-10.15-11.46l.11-12.69.13-14.29c.06-6.13,4.71-11,10.35-10.85l135.07,4Zm-1.86,66.11c5.64.16,10.2,5.32,10.15,11.46l-.12,13.48L310.13,581c-.06,6.14-4.71,11-10.35,10.86l-121.6-3.57L56.59,584.74c-5.64-.17-10.21-5.33-10.15-11.46l.12-13.48.12-13.49c0-6.13,4.71-11,10.34-10.85L178.62,539ZM312,448.82c-.06,6.13-4.71,11-10.35,10.85L193.52,456.5l-135.07-4c-5.64-.16-10.2-5.32-10.15-11.46l.11-12.69.13-14.28c.06-6.14,4.71-11,10.35-10.86l135.07,4,108.12,3.17c5.64.17,10.2,5.33,10.15,11.46l-.13,14.29Z"/><polygon class="cls-2" points="420.72 374.44 365.85 387.85 365.66 387.84 366.42 633.26 421.48 619.8 420.72 374.44"/><polygon class="cls-3" points="187.46 381.31 9.62 375.17 9.62 375.14 8.88 375.32 187.46 381.5 187.46 381.31"/><path class="cls-1" d="M187.45,381.31l-.83-268.87-5,266.41,5-266.41-.26-85.73.55-.13v-.21L8.52,20.2l1.1,354.94v0ZM50,225.8l-.76-77.72-.76-77.72a10.65,10.65,0,0,1,6.49-10.09,9.82,9.82,0,0,1,5.69-1.62L98.9,59.74,144.29,61c5.81.16,10.61,5.3,10.67,11.41l.43,43.94.43,44a10.39,10.39,0,0,1-10.45,10.81L105.77,170l.56,57.39a10.4,10.4,0,0,1-10.46,10.81l-35.23-1C54.82,237,50,231.91,50,225.8Zm122.22-8.34h0c.2,11.94-8.52,21.14-19.47,20.55h0c-10.95-.6-20-10.76-20.2-22.7h0c-.2-11.94,8.52-21.14,19.48-20.54h0C162.92,195.35,172,205.51,172.17,217.46ZM149.44,341.19c0,6.11-4.42,10.87-9.79,10.57L73.7,348.07c-5.38-.3-9.76-5.55-9.75-11.67l0-5.13V326.2c0-6.11,4.42-10.87,9.79-10.57l47.67,2.67,18.29,1c5.37.3,9.75,5.56,9.74,11.67l0,5.1Zm0-47.49c0,6.12-4.42,10.88-9.79,10.58l-65.95-3.7c-5.38-.3-9.76-5.55-9.75-11.66l0-5.13v-5.07c0-6.12,4.42-10.87,9.79-10.57l47.67,2.67,18.29,1c5.37.3,9.75,5.55,9.74,11.66l0,5.1Z"/><polygon class="cls-2" points="186.91 26.58 241.41 13.26 241.97 13.28 241.97 12.91 186.91 26.37 186.91 26.58"/><polygon class="cls-3" points="241.97 12.91 63.58 6.74 8.52 20.2 186.91 26.37 241.97 12.91"/><path class="cls-1" d="M364.75,32.88,186.36,26.71l.26,85.73,1.56-83.67-1.56,83.67.83,268.87v.37l178.2,6.16h.19ZM226.33,63.31,310,65.68a10.52,10.52,0,0,1,6.5,2.55,11.53,11.53,0,0,1,8.94,11.19L326.6,196l.41,41.61a10.4,10.4,0,0,1-10.47,10.8l-20.43-.58-14.8-.42c-5.81-.17-10.61-5.3-10.67-11.4L270,174.63l-42.62-1.21c-5.81-.17-10.61-5.3-10.67-11.41l-.43-43.95-.43-43.94C215.82,68,220.52,63.14,226.33,63.31Zm95.36,277.88c0,6.11-4.42,10.87-9.8,10.57l-65.95-3.69c-5.37-.3-9.76-5.55-9.74-11.67V326.2c0-6.11,4.43-10.87,9.8-10.57l4.13.23L312,319.32c5.38.3,9.76,5.55,9.75,11.67v5.13ZM312,276.5c5.37.3,9.76,5.55,9.74,11.66v10.2c0,6.11-4.42,10.87-9.8,10.57l-65.95-3.69c-5.37-.3-9.75-5.55-9.74-11.67v-5.12l0-5.08c0-6.11,4.42-10.87,9.79-10.57l47.67,2.67Zm-93-81.74h0c11,.59,20,10.75,20.21,22.7h0c.2,11.94-8.52,21.14-19.48,20.55h0c-11-.6-20-10.76-20.2-22.7h0C199.33,203.36,208.05,194.16,219,194.76Z"/><polygon class="cls-2" points="365.85 387.85 420.72 374.44 420.91 374.39 419.81 19.42 364.75 32.88 365.85 387.85"/><polygon class="cls-3" points="186.91 26.58 186.35 26.71 364.75 32.88 419.81 19.42 241.97 13.28 241.41 13.26 186.91 26.58"/><path class="cls-4" d="M320.7,77.09l.43,44,.43,44a10.38,10.38,0,0,1-10.46,10.8L270,174.63l.61,61.41c.06,6.1,4.86,11.23,10.67,11.4l14.8.42,20.43.58A10.4,10.4,0,0,0,327,237.64L326.6,196,325.46,79.42a11.53,11.53,0,0,0-8.94-11.19A11.78,11.78,0,0,1,320.7,77.09Z"/><path class="cls-4" d="M312,319.32l-61.82-3.46-4.13-.23c-5.37-.3-9.78,4.46-9.8,10.57v10.2c0,6.12,4.37,11.37,9.74,11.67l65.95,3.69c5.38.3,9.79-4.46,9.8-10.57l0-5.07V331C321.73,324.87,317.35,319.62,312,319.32Z"/><line class="cls-5" x1="181.66" y1="378.85" x2="186.62" y2="112.44"/><line class="cls-5" x1="188.18" y1="28.77" x2="186.62" y2="112.44"/><path class="cls-4" d="M199.53,215.31c.2,11.94,9.24,22.1,20.2,22.7h0c11,.59,19.68-8.61,19.48-20.55h0c-.2-12-9.25-22.11-20.21-22.7h0c-10.95-.6-19.67,8.6-19.47,20.54Z"/><path class="cls-4" d="M46.68,546.31l-.12,13.49-.12,13.48c-.06,6.13,4.51,11.29,10.15,11.46l121.59,3.57,121.6,3.57c5.64.17,10.29-4.72,10.35-10.86l.12-13.48.12-13.48c.05-6.14-4.51-11.3-10.15-11.46L178.62,539,57,535.46C51.39,535.29,46.73,540.18,46.68,546.31Z"/><path class="cls-4" d="M48.54,480.2l-.13,14.29-.11,12.69c0,6.13,4.51,11.29,10.15,11.46l135.07,4,108.12,3.18c5.64.17,10.29-4.72,10.35-10.86l.11-12.68.13-14.29c0-6.14-4.51-11.3-10.15-11.46L194,473.31l-135.07-4C53.25,469.18,48.6,474.07,48.54,480.2Z"/><path class="cls-4" d="M302.08,410.38,194,407.21l-135.07-4c-5.64-.16-10.29,4.72-10.35,10.86l-.13,14.28-.11,12.69c0,6.14,4.51,11.3,10.15,11.46l135.07,4,108.12,3.17c5.64.17,10.29-4.72,10.35-10.85l.11-12.69.13-14.29C312.28,415.71,307.72,410.55,302.08,410.38Z"/><path class="cls-4" d="M236.23,283.37l0,5.08v5.12c0,6.12,4.37,11.37,9.74,11.67l65.95,3.69c5.38.3,9.78-4.46,9.8-10.57v-10.2c0-6.11-4.37-11.36-9.74-11.66l-18.28-1L246,272.8C240.65,272.5,236.24,277.26,236.23,283.37Z"/><path class="cls-4" d="M139.73,319.32l-18.29-1-47.67-2.67c-5.37-.3-9.78,4.46-9.79,10.57v5.07l0,5.13c0,6.12,4.37,11.37,9.75,11.67l66,3.69c5.37.3,9.78-4.46,9.79-10.57v-5.1l0-5.1C149.48,324.88,145.1,319.62,139.73,319.32Z"/><path class="cls-4" d="M139.73,271.84l-18.29-1-47.67-2.67c-5.37-.3-9.78,4.45-9.79,10.57v5.07l0,5.13c0,6.11,4.37,11.36,9.75,11.66l66,3.7c5.37.3,9.78-4.46,9.79-10.58v-5.1l0-5.1C149.48,277.39,145.1,272.14,139.73,271.84Z"/><path class="cls-4" d="M106.33,227.4,105.77,170l-44.08-1.25c-5.82-.16-10.63-5.29-10.69-11.41l-.45-46-.41-41.88a10.78,10.78,0,0,1,4.78-9.19,10.65,10.65,0,0,0-6.49,10.09l.76,77.72L50,225.8c.06,6.11,4.87,11.24,10.69,11.4l35.23,1A10.4,10.4,0,0,0,106.33,227.4Z"/><path class="cls-4" d="M132.49,215.3h0c.2,11.94,9.25,22.1,20.2,22.7h0c11,.59,19.67-8.61,19.47-20.55h0c-.2-12-9.25-22.11-20.2-22.7h0C141,194.16,132.29,203.36,132.49,215.3Z"/><path class="cls-4" d="M50.14,69.46l.41,41.88.45,46c.06,6.12,4.87,11.25,10.69,11.41L105.77,170l39.6,1.13a10.39,10.39,0,0,0,10.45-10.81l-.43-44L155,72.44c-.06-6.11-4.86-11.25-10.67-11.41L98.9,59.74,60.61,58.65a9.82,9.82,0,0,0-5.69,1.62A10.78,10.78,0,0,0,50.14,69.46Z"/><path class="cls-4" d="M216.31,118.06l.43,43.95c.06,6.11,4.86,11.24,10.67,11.41L270,174.63l41.07,1.16A10.38,10.38,0,0,0,321.56,165L321.13,121l-.43-43.95a11.78,11.78,0,0,0-4.18-8.86,10.52,10.52,0,0,0-6.5-2.55l-83.69-2.37c-5.81-.17-10.51,4.69-10.45,10.81Z"/></g></svg>