<svg xmlns="http://www.w3.org/2000/svg" xmlns:xlink="http://www.w3.org/1999/xlink" width="170" height="170" viewBox="0 0 170 170"><defs><style>.cls-1{fill:none;}.cls-2{isolation:isolate;}.cls-3{clip-path:url(#clip-path);}.cls-4{fill:#4b3176;}.cls-5{fill:#4e327a;}.cls-6{fill:#51347e;}.cls-7{fill:#533683;}.cls-8{fill:#7149b2;}.cls-9{clip-path:url(#clip-path-2);}.cls-10{fill:#442c6a;}.cls-11{fill:#462d6e;}.cls-12{fill:#492f72;}.cls-13{clip-path:url(#clip-path-3);}.cls-14{fill:#858585;}.cls-15{clip-path:url(#clip-path-4);}.cls-16{fill:#949494;}.cls-17{fill:#999;}.cls-18{fill:#9e9e9e;}.cls-19{clip-path:url(#clip-path-5);}.cls-20{clip-path:url(#clip-path-6);}.cls-21{clip-path:url(#clip-path-7);}.cls-22{fill:#e1e1e1;}.cls-23{fill:gray;}.cls-24{clip-path:url(#clip-path-8);}.cls-25{fill:#939393;}.cls-26{clip-path:url(#clip-path-9);}.cls-27{clip-path:url(#clip-path-10);}.cls-28{clip-path:url(#clip-path-11);}.cls-29{fill:#8a8a8a;}.cls-30{fill:#8f8f8f;}.cls-31{clip-path:url(#clip-path-12);}.cls-32{fill:#818181;}.cls-33{clip-path:url(#clip-path-13);}.cls-34{clip-path:url(#clip-path-14);}.cls-35{clip-path:url(#clip-path-15);}.cls-36{clip-path:url(#clip-path-16);}.cls-37{clip-path:url(#clip-path-17);}.cls-38{clip-path:url(#clip-path-18);}.cls-39{clip-path:url(#clip-path-19);}.cls-40{clip-path:url(#clip-path-20);}.cls-41{clip-path:url(#clip-path-21);}.cls-42{clip-path:url(#clip-path-22);}.cls-43{clip-path:url(#clip-path-23);}.cls-44{clip-path:url(#clip-path-24);}.cls-45{clip-path:url(#clip-path-25);}.cls-46{clip-path:url(#clip-path-26);}.cls-47{clip-path:url(#clip-path-27);}.cls-48{clip-path:url(#clip-path-28);}.cls-49{clip-path:url(#clip-path-29);}</style><clipPath id="clip-path"><path class="cls-1" d="M131.69,18.16l3.61,2.67A80.63,80.63,0,0,0,85.38,5L81.78,2.3A80.56,80.56,0,0,1,131.69,18.16Z"/></clipPath><clipPath id="clip-path-2"><path class="cls-1" d="M38.3,151.84l-3.6-2.67A81.53,81.53,0,0,1,81.78,2.3L85.38,5A81.53,81.53,0,0,0,38.3,151.84Z"/></clipPath><clipPath id="clip-path-3"><path class="cls-1" d="M120.77,121.71l-5.26-2.09a3.36,3.36,0,0,1-1.18-.79l5.26,2.1A3.47,3.47,0,0,0,120.77,121.71Z"/></clipPath><clipPath id="clip-path-4"><path class="cls-1" d="M130.43,76.57l5.26,2.09a3.47,3.47,0,0,0-1.25-.24l-5.26-2.09A3.47,3.47,0,0,1,130.43,76.57Z"/></clipPath><clipPath id="clip-path-5"><path class="cls-1" d="M122.19,90.48a42.54,42.54,0,0,0,.59-6.62L128,86a41.35,41.35,0,0,1-.59,6.62Z"/></clipPath><clipPath id="clip-path-6"><path class="cls-1" d="M122.78,83.86h0L128,86h0l-.61-.24-.65-.26-.68-.27-.69-.27-.69-.28-.68-.27-.65-.25-.61-.25Z"/></clipPath><clipPath id="clip-path-7"><path class="cls-1" d="M109.47,113.88a41.58,41.58,0,0,0,8.68-11.39l4.65,1.85.61.24A41.58,41.58,0,0,1,114.73,116Z"/></clipPath><clipPath id="clip-path-8"><path class="cls-1" d="M122.16,76.29l5.26,2.1A41,41,0,0,1,128,86l-.61-.24-.65-.26-.68-.27-.69-.27-.69-.28-.68-.27-.65-.26-.61-.24A42,42,0,0,0,122.16,76.29Z"/></clipPath><clipPath id="clip-path-9"><path class="cls-1" d="M115.45,46.61l5.27,2.09a3.5,3.5,0,0,0-1.27-.25l-5.26-2.09A3.41,3.41,0,0,1,115.45,46.61Z"/></clipPath><clipPath id="clip-path-10"><path class="cls-1" d="M86.66,126.93h0l-.53-.22-.57-.22-.58-.23-.6-.24-.61-.24-.6-.24-.59-.23-.57-.23,2.37.94Z"/></clipPath><clipPath id="clip-path-11"><path class="cls-1" d="M117,49.46l-5.26-2.09a3.5,3.5,0,0,1,2.48-1l5.26,2.09A3.52,3.52,0,0,0,117,49.46Z"/></clipPath><clipPath id="clip-path-12"><path class="cls-1" d="M116.83,62.16a41.23,41.23,0,0,0-9.3-10.65l2.63,1.05,2,.8.61.24a41.27,41.27,0,0,1,9.31,10.65C120.52,63.62,118.13,63.26,116.83,62.16Z"/></clipPath><clipPath id="clip-path-13"><path class="cls-1" d="M80.33,137.46l-5.27-2.09a3.51,3.51,0,0,1-2.2-3.28l5.27,2.1A3.48,3.48,0,0,0,80.33,137.46Z"/></clipPath><clipPath id="clip-path-14"><path class="cls-1" d="M87.05,124.47a3.66,3.66,0,0,1,.62.25l.32.13.66.26.69.27.34.14,2.63,1a42,42,0,0,1-5.65.36h0l-5.26-2.09,5.26,2.09a41.19,41.19,0,0,1-8.45-.93l-5.27-2.09a41.37,41.37,0,0,0,8.46.93A40.52,40.52,0,0,0,87.05,124.47Z"/></clipPath><clipPath id="clip-path-15"><path class="cls-1" d="M79.24,105.47,74,103.38a21.12,21.12,0,0,0,7.61,1.47l5.26,2.09A21.16,21.16,0,0,1,79.24,105.47Z"/></clipPath><clipPath id="clip-path-16"><path class="cls-1" d="M89.61,63.93,94.87,66a21.23,21.23,0,0,1-8,40.92l-5.26-2.09a21.23,21.23,0,0,0,8-40.92Z"/></clipPath><clipPath id="clip-path-17"><path class="cls-1" d="M87.55,34.76l5.26,2.1a3.44,3.44,0,0,0-1.25-.25L86.3,34.52A3.47,3.47,0,0,1,87.55,34.76Z"/></clipPath><clipPath id="clip-path-18"><path class="cls-1" d="M42.6,74.25l-.08,0-.08,0-.08,0-.07,0-.08,0-.08,0-.07,0L42,74l5.27,2.09-.08,0-.07,0L47,76,47,76l-.08,0-.08,0-.08,0-.08,0-.08,0-.08,0-.08,0-.08,0-.08,0-.08,0-.09,0-.08,0-.33-.14-.34-.13L45,75.19l-.34-.13-.35-.14-.34-.14-.34-.13-.34-.14-.08,0-.08,0-.09,0-.08,0-.08,0-.08,0-.08,0Z"/></clipPath><clipPath id="clip-path-19"><path class="cls-1" d="M71.88,124.07,66.62,122A41,41,0,0,1,40.81,83.44,41.9,41.9,0,0,1,42,74,41.59,41.59,0,0,1,61.74,47.83a41,41,0,0,1,28-4.63A40.2,40.2,0,0,1,97,45.33l5.27,2.09A40.78,40.78,0,0,0,67,49.93,41.41,41.41,0,0,0,46.07,85.54a41,41,0,0,0,.23,4.72A40.58,40.58,0,0,0,48.91,101a41,41,0,0,0,23,23.11Z"/></clipPath><clipPath id="clip-path-20"><path class="cls-1" d="M80.91,40.06,75.64,38a3.52,3.52,0,0,1,3.52-3.48l5.26,2.09A3.5,3.5,0,0,0,80.91,40.06Z"/></clipPath><clipPath id="clip-path-21"><path class="cls-1" d="M47.79,119l-5.26-2.09a3.44,3.44,0,0,1-1.19-.79l5.27,2.09A3.27,3.27,0,0,0,47.79,119Z"/></clipPath><clipPath id="clip-path-22"><path class="cls-1" d="M47.64,100.46l1.27.5-.15.14L43.5,99l.14-.14Z"/></clipPath><clipPath id="clip-path-23"><path class="cls-1" d="M41.6,113.09,36.33,111a3.52,3.52,0,0,1,.05-4.94l5.26,2.09A3.52,3.52,0,0,0,41.6,113.09Z"/></clipPath><clipPath id="clip-path-24"><path class="cls-1" d="M46,75.6l1.27.5H47L41.71,74H42Z"/></clipPath><clipPath id="clip-path-25"><path class="cls-1" d="M55.18,41.57l5.26,2.09a3.4,3.4,0,0,0-1.26-.24l-5.26-2.09A3.44,3.44,0,0,1,55.18,41.57Z"/></clipPath><clipPath id="clip-path-26"><path class="cls-1" d="M56.71,44.43l-5.27-2.09a3.46,3.46,0,0,1,2.48-1l5.26,2.09A3.44,3.44,0,0,0,56.71,44.43Z"/></clipPath><clipPath id="clip-path-27"><path class="cls-1" d="M51.56,54.42l-5.27-2.09a3.52,3.52,0,0,1,.05-4.94l5.26,2.09A3.52,3.52,0,0,0,51.56,54.42Z"/></clipPath><clipPath id="clip-path-28"><path class="cls-1" d="M35.62,90l-5.26-2.09a3.49,3.49,0,0,1-2.2-3.27l5.26,2.09A3.51,3.51,0,0,0,35.62,90Z"/></clipPath><clipPath id="clip-path-29"><path class="cls-1" d="M33.49,79.52l-5.26-2.09A3.51,3.51,0,0,1,31.74,74L37,76A3.52,3.52,0,0,0,33.49,79.52Z"/></clipPath></defs><title>tandhjul</title><g id="Layer_2" data-name="Layer 2"><g class="cls-2"><g class="cls-2"><g class="cls-3"><g class="cls-2"><path class="cls-4" d="M85.38,5,81.78,2.3q3.57-.07,7.08.15l3.6,2.67Q89,4.89,85.38,5"/><path class="cls-5" d="M92.46,5.12l-3.6-2.67A81.14,81.14,0,0,1,103,4.63l3.61,2.67A82.06,82.06,0,0,0,92.46,5.12"/><path class="cls-6" d="M106.59,7.3,103,4.63a80.18,80.18,0,0,1,18.65,7.16l3.6,2.67A80.28,80.28,0,0,0,106.59,7.3"/><path class="cls-7" d="M125.23,14.46l-3.6-2.67a80.56,80.56,0,0,1,10.06,6.37l3.61,2.67a81.42,81.42,0,0,0-10.07-6.37"/></g></g></g><path class="cls-8" d="M85.38,5A81.38,81.38,0,0,1,88.22,167.7,81.38,81.38,0,0,1,85.38,5Z"/><g class="cls-2"><g class="cls-9"><g class="cls-2"><path class="cls-10" d="M38.3,151.84l-3.6-2.67A80.92,80.92,0,0,1,1.92,85.39,81.78,81.78,0,0,1,48.37,10.24L52,12.91A81.8,81.8,0,0,0,5.52,88.07,80.94,80.94,0,0,0,38.3,151.84"/><path class="cls-11" d="M52,12.91l-3.61-2.67A80.42,80.42,0,0,1,62.72,5l3.6,2.67A81.1,81.1,0,0,0,52,12.91"/><path class="cls-12" d="M66.32,7.64,62.72,5a81.49,81.49,0,0,1,13-2.32l3.6,2.68a80.77,80.77,0,0,0-13,2.31"/><path class="cls-4" d="M79.31,5.33l-3.6-2.68c2-.19,4-.31,6.07-.35L85.38,5c-2,0-4.06.16-6.07.36"/></g></g></g></g><g class="cls-2"><g class="cls-2"><g class="cls-13"><g class="cls-2"><path class="cls-14" d="M120.77,121.71l-5.26-2.09a3.36,3.36,0,0,1-1.18-.79l5.26,2.1a3.47,3.47,0,0,0,1.18.78"/></g></g></g><g class="cls-2"><g class="cls-15"><g class="cls-2"><path class="cls-16" d="M134.44,78.42l-5.26-2.09.36,0,5.26,2.09-.36,0"/><path class="cls-17" d="M134.8,78.44l-5.26-2.09a3.78,3.78,0,0,1,.74.17l5.26,2.09a3.62,3.62,0,0,0-.74-.17"/><path class="cls-18" d="M135.54,78.61l-5.26-2.09.15,0,5.26,2.09-.15,0"/></g></g></g><g class="cls-2"><g class="cls-19"><g class="cls-2"><path class="cls-14" d="M127.45,92.57l-5.26-2.09a42.54,42.54,0,0,0,.59-6.62,42,42,0,0,0-.62-7.57l5.26,2.1a41.73,41.73,0,0,1,0,14.18"/></g></g></g><g class="cls-2"><g class="cls-20"><g class="cls-2"><path class="cls-14" d="M127.45,92.57l-5.26-2.09a42.54,42.54,0,0,0,.59-6.62,42,42,0,0,0-.62-7.57l5.26,2.1a41.73,41.73,0,0,1,0,14.18"/></g></g></g><g class="cls-2"><g class="cls-21"><g class="cls-2"><path class="cls-14" d="M114.73,116l-5.26-2.09a41.58,41.58,0,0,0,8.68-11.39l5.26,2.09A41.58,41.58,0,0,1,114.73,116"/></g></g></g><path class="cls-22" d="M123.41,104.58l6.26,6.37a3.53,3.53,0,0,1,0,5l-5.1,5a3.49,3.49,0,0,1-4.93,0l-4.86-5A41.58,41.58,0,0,0,123.41,104.58Z"/><polygon class="cls-23" points="119.59 120.93 114.33 118.83 109.47 113.88 114.73 115.97 119.59 120.93"/><g class="cls-2"><g class="cls-24"><g class="cls-2"><path class="cls-14" d="M127.45,92.57l-5.26-2.09a42.54,42.54,0,0,0,.59-6.62,42,42,0,0,0-.62-7.57l5.26,2.1a41.73,41.73,0,0,1,0,14.18"/></g></g></g><polygon class="cls-25" points="127.42 78.39 122.16 76.3 129.18 76.33 134.44 78.42 127.42 78.39"/><path class="cls-22" d="M134.44,78.42a3.48,3.48,0,0,1,3.45,3.52l-.07,7.18a3.51,3.51,0,0,1-3.51,3.48l-6.86,0a41.73,41.73,0,0,0,0-14.18Z"/><g class="cls-2"><g class="cls-26"><g class="cls-2"><path class="cls-16" d="M119.45,48.45l-5.26-2.09.36,0,5.26,2.09-.36,0"/><path class="cls-17" d="M119.81,48.47l-5.26-2.09a3.88,3.88,0,0,1,.75.17l5.27,2.09a4,4,0,0,0-.76-.17"/><path class="cls-18" d="M120.57,48.64l-5.27-2.09.15.06,5.27,2.09-.15-.06"/></g></g></g><g class="cls-2"><g class="cls-27"><g class="cls-2"><path class="cls-16" d="M82.45,126.69l-5.27-2.09a42.12,42.12,0,0,0,4.22.24c1.11,0,2.2,0,3.29-.12L90,126.81c-1.08.08-2.18.12-3.29.12a41.75,41.75,0,0,1-4.21-.24"/></g></g></g><g class="cls-2"><g class="cls-28"><g class="cls-2"><path class="cls-14" d="M117,49.46l-5.26-2.09a3.72,3.72,0,0,1,.91-.65l5.27,2.09a3.59,3.59,0,0,0-.92.65"/><path class="cls-29" d="M117.89,48.81l-5.27-2.09a3.4,3.4,0,0,1,.67-.25l5.26,2.1a3.06,3.06,0,0,0-.66.24"/><path class="cls-30" d="M118.55,48.57l-5.26-2.1a4.31,4.31,0,0,1,.61-.1l5.27,2.09a3.22,3.22,0,0,0-.62.11"/><path class="cls-16" d="M119.17,48.46l-5.27-2.09h.29l5.26,2.09h-.28"/></g></g></g><path class="cls-22" d="M119.45,48.45a3.48,3.48,0,0,1,2.45,1l5,5.11a3.54,3.54,0,0,1,0,4.95l-4.76,4.71a41.27,41.27,0,0,0-9.31-10.65L117,49.46A3.52,3.52,0,0,1,119.45,48.45Z"/><g class="cls-2"><g class="cls-31"><g class="cls-2"><path class="cls-14" d="M122.1,64.25l-5.27-2.09a41.23,41.23,0,0,0-9.3-10.65l5.26,2.09a41.27,41.27,0,0,1,9.31,10.65"/></g></g></g><polygon class="cls-32" points="112.79 53.6 107.53 51.51 111.71 47.37 116.97 49.46 112.79 53.6"/><g class="cls-2"><g class="cls-33"><g class="cls-2"><path class="cls-14" d="M80.33,137.46l-5.27-2.09a3.51,3.51,0,0,1-2.2-3.28l5.27,2.1a3.48,3.48,0,0,0,2.2,3.27"/></g></g></g><polygon class="cls-23" points="78.13 134.19 72.86 132.09 72.94 123.91 78.21 126 78.13 134.19"/><g class="cls-2"><g class="cls-34"><g class="cls-2"><path class="cls-17" d="M78.21,126l-5.27-2.09a42.56,42.56,0,0,0,4.24.69l5.27,2.09a41.64,41.64,0,0,1-4.24-.69"/><path class="cls-16" d="M82.45,126.69l-5.27-2.09a42.12,42.12,0,0,0,4.22.24c1.11,0,2.2,0,3.29-.12L90,126.81c-1.08.08-2.18.12-3.29.12a41.75,41.75,0,0,1-4.21-.24"/><path class="cls-30" d="M90,126.81l-5.26-2.09c.79-.06,1.58-.14,2.36-.25l5.26,2.1c-.78.1-1.57.18-2.36.24"/></g></g></g><path class="cls-22" d="M78.21,126a41.19,41.19,0,0,0,8.45.93,42,42,0,0,0,5.65-.36l-.07,7.69a3.52,3.52,0,0,1-3.51,3.48l-7.15,0a3.48,3.48,0,0,1-3.45-3.51Z"/><g class="cls-2"><g class="cls-35"><g class="cls-2"><path class="cls-18" d="M79.24,105.47,74,103.38c.3.12.61.23.91.33l5.27,2.1-.92-.34"/><path class="cls-17" d="M80.16,105.81l-5.27-2.1a20.51,20.51,0,0,0,4.51,1l5.27,2.09a21.08,21.08,0,0,1-4.51-1"/><path class="cls-16" d="M84.67,106.81l-5.27-2.09c.72.08,1.45.12,2.19.13l5.26,2.09c-.74,0-1.47,0-2.18-.13"/></g></g></g><g class="cls-2"><g class="cls-36"><g class="cls-2"><path class="cls-16" d="M86.85,106.94l-5.26-2.09c.57,0,1.13,0,1.69-.06l5.27,2.09c-.56,0-1.13.06-1.7.06"/><path class="cls-30" d="M88.55,106.88l-5.27-2.09a21.61,21.61,0,0,0,3.71-.62l5.26,2.09a20.57,20.57,0,0,1-3.7.62"/><path class="cls-29" d="M92.25,106.26,87,104.17a21.1,21.1,0,0,0,4-1.48l5.27,2.09a20.53,20.53,0,0,1-4,1.48"/><path class="cls-14" d="M96.24,104.78,91,102.69a21.33,21.33,0,0,0,11.92-18.93A21.11,21.11,0,0,0,89.61,63.93L94.87,66a21.12,21.12,0,0,1,13.29,19.83,21.34,21.34,0,0,1-11.92,18.93"/></g></g></g><g class="cls-2"><g class="cls-37"><g class="cls-2"><path class="cls-16" d="M91.56,36.61,86.3,34.52l.36,0,5.26,2.09-.36,0"/><path class="cls-17" d="M91.92,36.63l-5.26-2.09a3.78,3.78,0,0,1,.74.17l5.26,2.09a3.48,3.48,0,0,0-.74-.17"/><path class="cls-18" d="M92.66,36.8,87.4,34.71l.15,0,5.26,2.1-.15-.06"/></g></g></g><polygon class="cls-25" points="84.42 36.58 79.16 34.49 86.3 34.52 91.56 36.61 84.42 36.58"/><g class="cls-2"><g class="cls-38"><g class="cls-2"><path class="cls-16" d="M47,76.09,41.71,74H42l5.27,2.09H47"/></g></g></g><g class="cls-2"><g class="cls-39"><g class="cls-2"><path class="cls-14" d="M71.88,124.07,66.62,122A41,41,0,0,1,40.81,83.44,41.9,41.9,0,0,1,42,74,41.59,41.59,0,0,1,61.74,47.83c.74-.42,1.49-.82,2.26-1.2l5.26,2.1c-.76.37-1.52.77-2.26,1.2A41.41,41.41,0,0,0,46.07,85.54a41,41,0,0,0,.23,4.72A40.58,40.58,0,0,0,48.91,101a41,41,0,0,0,23,23.11"/><path class="cls-29" d="M69.26,48.73,64,46.63a41,41,0,0,1,7.72-2.86L77,45.86a40.36,40.36,0,0,0-7.72,2.87"/><path class="cls-30" d="M77,45.86l-5.26-2.09a38.47,38.47,0,0,1,3.87-.8q1.64-.26,3.3-.39l5.27,2.09q-1.68.13-3.3.39a38.09,38.09,0,0,0-3.88.8"/><path class="cls-16" d="M84.16,44.67l-5.27-2.09c1.09-.08,2.18-.12,3.29-.11a41.75,41.75,0,0,1,4.21.24l5.27,2.09a42,42,0,0,0-4.22-.24c-1.1,0-2.2,0-3.28.11"/><path class="cls-17" d="M91.66,44.8l-5.27-2.09c1.12.12,2.22.28,3.31.49a41.27,41.27,0,0,1,5.48,1.47l5.27,2.09A40.29,40.29,0,0,0,95,45.3c-1.09-.21-2.19-.38-3.3-.5"/><path class="cls-18" d="M100.45,46.76l-5.27-2.09c.6.2,1.2.42,1.78.66l5.27,2.09c-.59-.23-1.18-.45-1.78-.66"/></g></g></g><polygon class="cls-23" points="80.86 45.06 75.59 42.97 75.64 37.97 80.91 40.06 80.86 45.06"/><g class="cls-2"><g class="cls-40"><g class="cls-2"><path class="cls-14" d="M80.91,40.06,75.64,38a3.54,3.54,0,0,1,2-3.13l5.27,2.09a3.52,3.52,0,0,0-2,3.13"/><path class="cls-29" d="M82.88,36.93l-5.27-2.09a3.71,3.71,0,0,1,.66-.24l5.26,2.09a3.91,3.91,0,0,0-.65.24"/><path class="cls-30" d="M83.53,36.69,78.27,34.6a3.11,3.11,0,0,1,.61-.1l5.26,2.09a3.11,3.11,0,0,0-.61.1"/><path class="cls-16" d="M84.14,36.59,78.88,34.5h.28l5.26,2.09h-.28"/></g></g></g><path class="cls-22" d="M91.56,36.61A3.48,3.48,0,0,1,95,40.13L95,45.3a40.74,40.74,0,0,0-14.1-.24l0-5a3.5,3.5,0,0,1,3.51-3.48Z"/><g class="cls-2"><g class="cls-41"><g class="cls-2"><path class="cls-14" d="M47.79,119l-5.26-2.09a3.44,3.44,0,0,1-1.19-.79l5.27,2.09a3.27,3.27,0,0,0,1.18.79"/></g></g></g><g class="cls-2"><g class="cls-42"><g class="cls-2"><path class="cls-14" d="M48.76,101.1,43.5,99l.14-.14L48.91,101l-.15.14"/></g></g></g><polygon class="cls-23" points="46.6 118.19 41.34 116.1 36.33 111 41.6 113.09 46.6 118.19"/><polygon class="cls-32" points="41.64 108.15 36.38 106.06 43.5 99.01 48.76 101.1 41.64 108.15"/><path class="cls-22" d="M48.91,101A41.05,41.05,0,0,0,56.5,113.3l-5,4.92a3.52,3.52,0,0,1-2.47,1,3.42,3.42,0,0,1-2.45-1l-5-5.1a3.52,3.52,0,0,1,0-4.94l7.12-7.05Z"/><g class="cls-2"><g class="cls-43"><g class="cls-2"><path class="cls-14" d="M41.6,113.09,36.33,111a3.52,3.52,0,0,1,.05-4.94l5.26,2.09a3.52,3.52,0,0,0,0,4.94"/></g></g></g><g class="cls-2"><g class="cls-44"><g class="cls-2"><path class="cls-16" d="M47,76.09,41.71,74H42l5.27,2.09H47"/></g></g></g><path class="cls-22" d="M47,76.09h.27a41.21,41.21,0,0,0-1,14.16l-9.43-.05a3.49,3.49,0,0,1-3.45-3.51l.07-7.18A3.52,3.52,0,0,1,37,76Z"/><path class="cls-22" d="M127.42,78.39a41.29,41.29,0,0,1-4,26.19A41.58,41.58,0,0,1,114.73,116a41,41,0,0,1-22.42,10.6,42,42,0,0,1-5.65.36,41.19,41.19,0,0,1-8.45-.93A41.08,41.08,0,0,1,46.07,85.54,41.51,41.51,0,0,1,67,49.93a40.69,40.69,0,0,1,45.79,3.67,41,41,0,0,1,14.63,24.79ZM86.85,106.94a21.29,21.29,0,0,0,21.31-21.09,21.06,21.06,0,0,0-20.91-21.3A21.28,21.28,0,0,0,66,85.64a21.06,21.06,0,0,0,20.89,21.3"/><g class="cls-2"><g class="cls-45"><g class="cls-2"><path class="cls-16" d="M59.18,43.42l-5.26-2.09a2.17,2.17,0,0,1,.36,0l5.26,2.09-.36,0"/><path class="cls-17" d="M59.54,43.44l-5.26-2.09a3.38,3.38,0,0,1,.75.17l5.26,2.09a3.26,3.26,0,0,0-.75-.17"/><path class="cls-18" d="M60.29,43.61,55,41.52l.15,0,5.26,2.09-.15,0"/></g></g></g><g class="cls-2"><g class="cls-46"><g class="cls-2"><path class="cls-14" d="M56.71,44.43l-5.27-2.09a3.63,3.63,0,0,1,.92-.66l5.27,2.09a3.7,3.7,0,0,0-.92.66"/><path class="cls-29" d="M57.63,43.77l-5.27-2.09a4.38,4.38,0,0,1,.66-.24l5.26,2.09a3.91,3.91,0,0,0-.65.24"/><path class="cls-30" d="M58.28,43.53,53,41.44a3.21,3.21,0,0,1,.62-.1l5.26,2.09a3.34,3.34,0,0,0-.62.1"/><path class="cls-16" d="M58.9,43.43l-5.26-2.09h.28l5.26,2.09H58.9"/></g></g></g><polygon class="cls-23" points="56.04 58.99 50.77 56.9 46.29 52.33 51.56 54.42 56.04 58.99"/><polygon class="cls-32" points="51.6 49.48 46.34 47.39 51.44 42.34 56.71 44.43 51.6 49.48"/><path class="cls-22" d="M59.18,43.42a3.41,3.41,0,0,1,2.45,1L67,49.93A41.6,41.6,0,0,0,56,59l-4.48-4.57a3.52,3.52,0,0,1,0-4.94l5.11-5A3.44,3.44,0,0,1,59.18,43.42Z"/><g class="cls-2"><g class="cls-47"><g class="cls-2"><path class="cls-14" d="M51.56,54.42l-5.27-2.09a3.52,3.52,0,0,1,.05-4.94l5.26,2.09a3.52,3.52,0,0,0,0,4.94"/></g></g></g><g class="cls-2"><g class="cls-48"><g class="cls-2"><path class="cls-14" d="M35.62,90l-5.26-2.09a3.49,3.49,0,0,1-2.2-3.27l5.26,2.09A3.51,3.51,0,0,0,35.62,90"/></g></g></g><polygon class="cls-25" points="37.01 76.04 31.74 73.95 41.71 74 46.98 76.09 37.01 76.04"/><polygon class="cls-23" points="33.42 86.7 28.16 84.61 28.23 77.43 33.49 79.52 33.42 86.7"/><g class="cls-2"><g class="cls-49"><g class="cls-2"><path class="cls-14" d="M33.49,79.52l-5.26-2.09a3.54,3.54,0,0,1,2-3.13l5.26,2.09a3.54,3.54,0,0,0-2,3.13"/><path class="cls-29" d="M35.46,76.39,30.2,74.3a3.71,3.71,0,0,1,.66-.24l5.26,2.09a3.71,3.71,0,0,0-.66.24"/><path class="cls-30" d="M36.12,76.15l-5.26-2.09a3,3,0,0,1,.6-.1l5.27,2.09a3.11,3.11,0,0,0-.61.1"/><path class="cls-16" d="M36.73,76.05,31.46,74h.28L37,76h-.28"/></g></g></g></g></g></svg>
