<svg xmlns="http://www.w3.org/2000/svg" xmlns:xlink="http://www.w3.org/1999/xlink" width="110" height="120" viewBox="0 0 110 120"><defs><style>.cls-1{fill:none;}.cls-2{isolation:isolate;}.cls-3{clip-path:url(#clip-path);}.cls-4{fill:#5f040f;}.cls-5{fill:#620410;}.cls-6{clip-path:url(#clip-path-2);}.cls-7{fill:#55040e;}.cls-8{fill:#58040e;}.cls-9{fill:#5b040f;}.cls-10{clip-path:url(#clip-path-3);}.cls-11{fill:#900617;}</style><clipPath id="clip-path"><path class="cls-1" d="M59.14,5.15l6.29,2a12.85,12.85,0,0,0-3.8-.59l-6.3-2A12.93,12.93,0,0,1,59.14,5.15Z"/></clipPath><clipPath id="clip-path-2"><path class="cls-1" d="M48.68,18.5l-6.29-2a13,13,0,0,1,12.94-12l6.3,2A13,13,0,0,0,48.68,18.5Z"/></clipPath><clipPath id="clip-path-3"><path class="cls-1" d="M43.36,113.22l-6.29-2A48.65,48.65,0,0,1,3.24,64.33,49.19,49.19,0,0,1,42.39,16.52l6.29,2A49.21,49.21,0,0,0,9.54,66.32,48.63,48.63,0,0,0,43.36,113.22Z"/></clipPath></defs><title>tid scene</title><g id="Layer_2" data-name="Layer 2"><g id="Layer_1" data-name="Layer 1"><g class="cls-2"><g class="cls-2"><g class="cls-3"><g class="cls-2"><path class="cls-4" d="M61.63,6.54l-6.3-2c.53,0,1.05,0,1.56.1l6.3,2a13.33,13.33,0,0,0-1.56-.1"/><path class="cls-5" d="M63.19,6.64l-6.3-2a12.88,12.88,0,0,1,2.25.5l6.29,2a13.72,13.72,0,0,0-2.24-.49"/></g></g></g><g class="cls-2"><g class="cls-6"><g class="cls-2"><path class="cls-7" d="M48.68,18.5l-6.29-2A13.07,13.07,0,0,1,49.44,6l6.29,2a13.1,13.1,0,0,0-7,10.55"/><path class="cls-8" d="M55.73,8,49.44,6A12.09,12.09,0,0,1,52,5l6.29,2a13.32,13.32,0,0,0-2.51,1"/><path class="cls-9" d="M58.24,7,52,5a12.36,12.36,0,0,1,2.37-.41l6.3,2a13.29,13.29,0,0,0-2.38.4"/><path class="cls-4" d="M60.62,6.58l-6.3-2c.34,0,.67,0,1,0l6.3,2c-.34,0-.68,0-1,0"/></g></g></g><g class="cls-2"><g class="cls-10"><g class="cls-2"><path class="cls-7" d="M43.36,113.22l-6.29-2A48.65,48.65,0,0,1,3.24,64.33,49.29,49.29,0,0,1,30,20.86l6.29,2A49.27,49.27,0,0,0,9.54,66.32a48.63,48.63,0,0,0,33.82,46.9"/><path class="cls-8" d="M36.31,22.85l-6.29-2a47.75,47.75,0,0,1,9.47-3.66l6.29,2a48.23,48.23,0,0,0-9.47,3.66"/><path class="cls-9" d="M45.78,19.19l-6.29-2c.95-.26,1.92-.48,2.9-.68l6.29,2c-1,.2-1.94.43-2.9.69"/></g></g></g><path class="cls-11" d="M61.63,6.54a12.87,12.87,0,0,1,12.78,13c0,.23,0,.45,0,.68a49,49,0,0,1-16.64,95.18A48.48,48.48,0,0,1,9.54,66.32,49.21,49.21,0,0,1,48.68,18.5,13,13,0,0,1,61.63,6.54Z"/></g><path d="M43.67,53.2h-.11L37,56.74l-1-3.88,8.23-4.41H48.6v37.7H43.67Z"/><path d="M87.4,66.89c0,12.82-4.75,19.9-13.11,19.9-7.36,0-12.35-6.91-12.47-19.38,0-12.64,5.46-19.6,13.11-19.6C82.88,47.81,87.4,54.89,87.4,66.89Zm-20.47.58c0,9.8,3,15.37,7.65,15.37,5.22,0,7.72-6.09,7.72-15.72,0-9.28-2.38-15.36-7.66-15.36C70.18,51.76,66.93,57.21,66.93,67.47Z"/></g></g></svg>