<svg xmlns="http://www.w3.org/2000/svg" xmlns:xlink="http://www.w3.org/1999/xlink" width="1920" height="1080" viewBox="0 0 1920 1080"><defs><style>.cls-1,.cls-3,.cls-49,.cls-50,.cls-52{fill:none;}.cls-2{fill:#8254cc;}.cls-3{stroke:#ddcef2;}.cls-3,.cls-49,.cls-50,.cls-52,.cls-53{stroke-miterlimit:10;}.cls-4{fill:#ddcef2;}.cls-46,.cls-5{fill:#fff;}.cls-6{fill:#020202;}.cls-7{fill:#e4b4ef;}.cls-8{fill:#f9e6d2;}.cls-9{fill:#8e8d8d;}.cls-10{fill:#424142;}.cls-11{fill:#f9e8e8;}.cls-12{isolation:isolate;}.cls-13{clip-path:url(#clip-path);}.cls-14{fill:#686767;}.cls-15{clip-path:url(#clip-path-2);}.cls-16{fill:#f6f6f8;}.cls-17{clip-path:url(#clip-path-3);}.cls-18{fill:#442c6a;}.cls-19{clip-path:url(#clip-path-4);}.cls-20{fill:#a3a3a3;}.cls-21{fill:#442c6b;}.cls-22{clip-path:url(#clip-path-5);}.cls-23{fill:#533683;}.cls-24{fill:#51347e;}.cls-25{fill:#4e327a;}.cls-26{fill:#4b3176;}.cls-27{fill:#492f72;}.cls-28{fill:#462d6e;}.cls-29{clip-path:url(#clip-path-6);}.cls-30{fill:#858585;}.cls-31{fill:#9f9f9f;}.cls-32{clip-path:url(#clip-path-7);}.cls-33{fill:#949494;}.cls-34{fill:#999;}.cls-35{fill:#9e9e9e;}.cls-36{fill:gray;}.cls-37{clip-path:url(#clip-path-8);}.cls-38{fill:#8a8a8a;}.cls-39{fill:#8f8f8f;}.cls-40{clip-path:url(#clip-path-9);}.cls-41{fill:#724ab3;}.cls-42{fill:#e0e0e0;}.cls-43{clip-path:url(#clip-path-10);}.cls-44{fill:#898785;}.cls-45{fill:#663100;}.cls-46{opacity:0.1;}.cls-47{fill:#3d2e1c;}.cls-48{fill:#96969a;}.cls-49{stroke:#fff;}.cls-50,.cls-52,.cls-53{stroke:#000;}.cls-51{fill:#646466;}.cls-52{stroke-width:9px;}.cls-53{stroke-width:2px;}.cls-54{clip-path:url(#clip-path-11);}.cls-55{fill:#28164a;}.cls-56{clip-path:url(#clip-path-12);}.cls-57{clip-path:url(#clip-path-13);}.cls-58{fill:#29174b;}.cls-59{clip-path:url(#clip-path-14);}.cls-60{fill:#2a174d;}.cls-61{clip-path:url(#clip-path-15);}.cls-62{fill:#311c5b;}.cls-63{fill:#301b58;}.cls-64{fill:#2e1a55;}.cls-65{fill:#2d1952;}.cls-66{fill:#2b1850;}.cls-67{clip-path:url(#clip-path-16);}.cls-68{clip-path:url(#clip-path-17);}.cls-69{clip-path:url(#clip-path-18);}.cls-70{clip-path:url(#clip-path-19);}.cls-71{clip-path:url(#clip-path-20);}.cls-72{fill:#43267c;}.cls-73{clip-path:url(#clip-path-21);}.cls-74{fill:#7149b2;}.cls-75{clip-path:url(#clip-path-22);}.cls-76{clip-path:url(#clip-path-23);}.cls-77{clip-path:url(#clip-path-24);}.cls-78{clip-path:url(#clip-path-25);}.cls-79{clip-path:url(#clip-path-26);}.cls-80{clip-path:url(#clip-path-27);}.cls-81{fill:#939393;}.cls-82{clip-path:url(#clip-path-28);}.cls-83{clip-path:url(#clip-path-29);}.cls-84{fill:#818181;}.cls-85{clip-path:url(#clip-path-30);}.cls-86{clip-path:url(#clip-path-31);}.cls-87{clip-path:url(#clip-path-32);}.cls-88{clip-path:url(#clip-path-33);}.cls-89{fill:#e1e1e1;}.cls-90{clip-path:url(#clip-path-34);}.cls-91{clip-path:url(#clip-path-35);}.cls-92{clip-path:url(#clip-path-36);}.cls-93{clip-path:url(#clip-path-37);}.cls-94{clip-path:url(#clip-path-38);}.cls-95{clip-path:url(#clip-path-39);}.cls-96{clip-path:url(#clip-path-40);}.cls-97{clip-path:url(#clip-path-41);}.cls-98{clip-path:url(#clip-path-42);}.cls-99{clip-path:url(#clip-path-43);}.cls-100{clip-path:url(#clip-path-44);}.cls-101{clip-path:url(#clip-path-45);}</style><clipPath id="clip-path"><polygon class="cls-1" points="1706.73 329.12 1706.26 304.49 1720.48 302.75 1720.96 327.38 1706.73 329.12"/></clipPath><clipPath id="clip-path-2"><polygon class="cls-1" points="1725.8 315.85 1725.63 291.27 1741.06 289.59 1741.23 314.17 1725.8 315.85"/></clipPath><clipPath id="clip-path-3"><path class="cls-1" d="M1611.66,734.74l6.41,4.19c11.51,7.54,11.68,24.61.13,32.58l-6.41-4.19C1623.34,759.34,1623.17,742.28,1611.66,734.74Z"/></clipPath><clipPath id="clip-path-4"><path class="cls-1" d="M1611.66,734.74l6.41,4.19-.51-.32-6.41-4.19Z"/></clipPath><clipPath id="clip-path-5"><path class="cls-1" d="M1511,830.91l-6.41-4.2a19.26,19.26,0,0,0,21.76-.32l6.41,4.2a19.31,19.31,0,0,1-21.76.32Z"/></clipPath><clipPath id="clip-path-6"><path class="cls-1" d="M1511,830.91l-6.41-4.2a19.12,19.12,0,0,1-8.7-15.85l6.41,4.2A19.13,19.13,0,0,0,1511,830.91Z"/></clipPath><clipPath id="clip-path-7"><path class="cls-1" d="M1519.24,682l-6.41-4.2a19.07,19.07,0,0,1,10.63,2.87l6.42,4.2A19,19,0,0,0,1519.24,682Z"/></clipPath><clipPath id="clip-path-8"><path class="cls-1" d="M1500.05,702.21l-6.41-4.2a19.86,19.86,0,0,1,19.19-20.24l6.41,4.2A19.86,19.86,0,0,0,1500.05,702.21Z"/></clipPath><clipPath id="clip-path-9"><path class="cls-1" d="M1472.69,867.88l-6.41-4.2a134.31,134.31,0,0,1-60.67-110.14c-1.46-75.08,58-137.81,132.71-140.1l6.41,4.2c-74.76,2.29-134.17,65-132.7,140.1A134.27,134.27,0,0,0,1472.69,867.88Z"/></clipPath><clipPath id="clip-path-10"><path class="cls-1" d="M1615.63,635.12l6.41,4.2a133.11,133.11,0,0,0-77.31-21.68l-6.41-4.2A133.11,133.11,0,0,1,1615.63,635.12Z"/></clipPath><clipPath id="clip-path-11"><path class="cls-1" d="M1175.1,563.46a19.67,19.67,0,0,0,8.11-12l6.41,4.19a19.68,19.68,0,0,1-8.11,12Z"/></clipPath><clipPath id="clip-path-12"><path class="cls-1" d="M1183.21,551.47a19.43,19.43,0,0,0-8.19-20.55l6.41,4.2a19.43,19.43,0,0,1,8.19,20.54Z"/></clipPath><clipPath id="clip-path-13"><path class="cls-1" d="M1175,530.89l6.41,4.2-.51-.33-6.41-4.19Z"/></clipPath><clipPath id="clip-path-14"><path class="cls-1" d="M953.79,715.82a20.2,20.2,0,0,0,3.86-2.09l6.41,4.19a20.26,20.26,0,0,1-3.86,2.1Z"/></clipPath><clipPath id="clip-path-15"><path class="cls-1" d="M947.14,717.24a19,19,0,0,0,6.65-1.42l6.41,4.2a19.22,19.22,0,0,1-6.65,1.42,19.51,19.51,0,0,1-11.28-3.21L935.86,714A19.58,19.58,0,0,0,947.14,717.24Z"/></clipPath><clipPath id="clip-path-16"><path class="cls-1" d="M942.29,718.25l-6.41-4.2a19.16,19.16,0,0,1-8.7-15.85l6.41,4.2A19.16,19.16,0,0,0,942.29,718.25Z"/></clipPath><clipPath id="clip-path-17"><path class="cls-1" d="M947.19,395.11l-6.41-4.2a19.1,19.1,0,0,1,10.64,2.87l6.41,4.2A19.1,19.1,0,0,0,947.19,395.11Z"/></clipPath><clipPath id="clip-path-18"><path class="cls-1" d="M1159.1,323.05l6.41,4.19a258.47,258.47,0,0,0-150.11-42.08L1009,281A258.4,258.4,0,0,1,1159.1,323.05Z"/></clipPath><clipPath id="clip-path-19"><path class="cls-1" d="M928,415.35l-6.41-4.2a19.86,19.86,0,0,1,19.19-20.24l6.41,4.2A19.87,19.87,0,0,0,928,415.35Z"/></clipPath><clipPath id="clip-path-20"><path class="cls-1" d="M875.56,771l-6.41-4.19A260.7,260.7,0,0,1,751.37,552.94C748.53,407.17,863.87,285.4,1009,281l6.41,4.2c-145.12,4.44-260.46,126.21-257.62,272A260.67,260.67,0,0,0,875.56,771Z"/></clipPath><clipPath id="clip-path-21"><path class="cls-1" d="M1846,925.23l3.61,2.67a63.28,63.28,0,0,0-39.2-12.45l-3.6-2.68A63.3,63.3,0,0,1,1846,925.23Z"/></clipPath><clipPath id="clip-path-22"><path class="cls-1" d="M1773.39,1030.78l-3.61-2.67a64,64,0,0,1,37-115.34l3.6,2.68a64,64,0,0,0-37,115.33Z"/></clipPath><clipPath id="clip-path-23"><path class="cls-1" d="M1838.06,1006.69l-5.27-2.09a3.47,3.47,0,0,1-1.18-.78l5.27,2.09A3.29,3.29,0,0,0,1838.06,1006.69Z"/></clipPath><clipPath id="clip-path-24"><path class="cls-1" d="M1840.47,982.09a35.51,35.51,0,0,0,.44-5.19l5.26,2.09a35.51,35.51,0,0,1-.44,5.19Z"/></clipPath><clipPath id="clip-path-25"><path class="cls-1" d="M1840.91,976.89h0l1.94.78,3.32,1.31h0l-3-1.19-.68-.27-.34-.13-.65-.26-.31-.12a.94.94,0,0,0-.3-.12Z"/></clipPath><clipPath id="clip-path-26"><path class="cls-1" d="M1844.3,971.2l5.26,2.09a3.47,3.47,0,0,0-1.25-.24l-5.26-2.09A3.47,3.47,0,0,1,1844.3,971.2Z"/></clipPath><clipPath id="clip-path-27"><path class="cls-1" d="M1829.81,1002a35,35,0,0,0,6.89-8.87l2.64,1,2,.8.62.25a35.07,35.07,0,0,1-6.89,8.87Z"/></clipPath><clipPath id="clip-path-28"><path class="cls-1" d="M1840.45,971l5.26,2.09a34.26,34.26,0,0,1,.46,5.94l-.62-.24-.32-.13-4.32-1.72A35.28,35.28,0,0,0,1840.45,971Z"/></clipPath><clipPath id="clip-path-29"><path class="cls-1" d="M1835.66,958.29a34.52,34.52,0,0,0-7.33-8.33l2.63,1,2,.8.61.24a34.56,34.56,0,0,1,7.34,8.33C1839.35,959.76,1837,959.38,1835.66,958.29Z"/></clipPath><clipPath id="clip-path-30"><path class="cls-1" d="M1804.88,1012.61l-5.26-2.09a33.68,33.68,0,0,0,6.64.68,34.12,34.12,0,0,0,4.43-.26L1816,1013a36.25,36.25,0,0,1-4.44.27A34.61,34.61,0,0,1,1804.88,1012.61Z"/></clipPath><clipPath id="clip-path-31"><path class="cls-1" d="M1806.5,992.3l-5.26-2.09a14.3,14.3,0,0,0,5.21,1l5.26,2.09A14.34,14.34,0,0,1,1806.5,992.3Z"/></clipPath><clipPath id="clip-path-32"><path class="cls-1" d="M1811.93,963.22l5.26,2.09a14.53,14.53,0,0,1-5.48,28l-5.26-2.09a14.53,14.53,0,0,0,5.48-28Z"/></clipPath><clipPath id="clip-path-33"><path class="cls-1" d="M1799.14,1010.9l-5.26-2.09a34.19,34.19,0,0,1-12.82-8.95,34.57,34.57,0,0,1-8.8-23.31,35.62,35.62,0,0,1,.87-7.43,34.76,34.76,0,0,1,16.16-22.1,34.27,34.27,0,0,1,23.52-4.24,33.48,33.48,0,0,1,6.48,1.85l5.27,2.09a34.37,34.37,0,0,0-17.56-2,34.14,34.14,0,0,0-12.45,4.42,34.8,34.8,0,0,0-16.15,22.1,34.33,34.33,0,0,0-.87,7.43,32.41,32.41,0,0,0,.16,3.7,34.35,34.35,0,0,0,21.45,28.56Z"/></clipPath><clipPath id="clip-path-34"><path class="cls-1" d="M1833.29,948l5.26,2.09a3.49,3.49,0,0,0-1.27-.24l-5.26-2.09A3.49,3.49,0,0,1,1833.29,948Z"/></clipPath><clipPath id="clip-path-35"><path class="cls-1" d="M1834.81,950.84l-5.26-2.09a3.45,3.45,0,0,1,2.47-1l5.26,2.09A3.47,3.47,0,0,0,1834.81,950.84Z"/></clipPath><clipPath id="clip-path-36"><path class="cls-1" d="M1807,1019.37l-5.26-2.09a3.51,3.51,0,0,1-2.2-3.28l5.27,2.09A3.49,3.49,0,0,0,1807,1019.37Z"/></clipPath><clipPath id="clip-path-37"><path class="cls-1" d="M1810.63,938.38l5.26,2.09a3.47,3.47,0,0,0-1.25-.24l-5.27-2.09A3.49,3.49,0,0,1,1810.63,938.38Z"/></clipPath><clipPath id="clip-path-38"><path class="cls-1" d="M1807,943.69l-5.27-2.09a3.52,3.52,0,0,1,3.52-3.48l5.26,2.09A3.51,3.51,0,0,0,1807,943.69Z"/></clipPath><clipPath id="clip-path-39"><path class="cls-1" d="M1780.75,1004.55l-5.26-2.09a3.47,3.47,0,0,1-1.19-.8l5.26,2.09A3.42,3.42,0,0,0,1780.75,1004.55Z"/></clipPath><clipPath id="clip-path-40"><path class="cls-1" d="M1776.67,1000.82l-5.26-2.09a3.52,3.52,0,0,1,0-5l5.26,2.09A3.53,3.53,0,0,0,1776.67,1000.82Z"/></clipPath><clipPath id="clip-path-41"><path class="cls-1" d="M1786,944l5.26,2.09a3.63,3.63,0,0,0-1.27-.25l-5.26-2.09A3.73,3.73,0,0,1,1786,944Z"/></clipPath><clipPath id="clip-path-42"><path class="cls-1" d="M1787.48,946.89l-5.26-2.09a3.48,3.48,0,0,1,2.47-1l5.26,2.09A3.5,3.5,0,0,0,1787.48,946.89Z"/></clipPath><clipPath id="clip-path-43"><path class="cls-1" d="M1784.49,954.75l-5.26-2.09a3.52,3.52,0,0,1,0-4.94l5.27,2.09A3.51,3.51,0,0,0,1784.49,954.75Z"/></clipPath><clipPath id="clip-path-44"><path class="cls-1" d="M1771.93,982.08l-5.26-2.09a3.51,3.51,0,0,1-2.2-3.27l5.27,2.09A3.49,3.49,0,0,0,1771.93,982.08Z"/></clipPath><clipPath id="clip-path-45"><path class="cls-1" d="M1769.78,974.67l-5.27-2.09a3.52,3.52,0,0,1,3.52-3.48l5.26,2.09A3.51,3.51,0,0,0,1769.78,974.67Z"/></clipPath></defs><title>titelskærm</title><g id="Layer_2" data-name="Layer 2"><ellipse class="cls-2" cx="630.99" cy="808.09" rx="109.25" ry="254.91"/><path class="cls-2" d="M631,556.49s-61.8-13.24-105.94,13.24c0,0-81.66-136.83-245-128,0,0-75,167.74,0,297.95l64-77.24a633.43,633.43,0,0,0-64,85.35c-22.75,36.64-43.5,80.1-46.34,119.9,0,0,150.08,181,355.33,165.53"/><path class="cls-3" d="M573.6,847.82S516.22,693.32,421.32,715.4,282.28,847.82,573.6,847.82Z"/><path class="cls-3" d="M518.43,900.78s-33.11,70.63,55.17,68.42c0,0,50.76,4.42,57.39-55.17"/><path class="cls-3" d="M558.15,914s-357.53,17.65-373,41.93"/><path class="cls-3" d="M432.35,624.91s-59.59-156.7-152.28-183.19"/><path class="cls-2" d="M615.54,556.49s61.79-13.24,105.93,13.24c0,0,81.66-136.83,245-128,0,0,75,167.74,0,297.95l-64-77.24a633.43,633.43,0,0,1,64,85.35c22.75,36.64,43.5,80.1,46.34,119.9,0,0-150.08,181-355.33,165.53"/><path class="cls-3" d="M744.08,900.78s33.11,70.63-55.17,68.42c0,0-50.76,4.42-57.38-55.17"/><path class="cls-3" d="M708.23,914s357.54,17.65,373,41.93"/><path class="cls-3" d="M676.32,847.82S733.7,693.32,828.6,715.4,967.65,847.82,676.32,847.82Z"/><path class="cls-3" d="M825.2,624.91s59.59-156.7,152.29-183.19"/><ellipse class="cls-2" cx="305.45" cy="722.02" rx="30.9" ry="40.83" transform="translate(-147.99 82.48) rotate(-12.41)"/><ellipse class="cls-2" cx="948.08" cy="711.47" rx="25.66" ry="35.65" transform="translate(-130.71 220.3) rotate(-12.41)"/><path class="cls-4" d="M574.71,847.82s-41.86-112.68-111.07-96.59S362.23,847.82,574.71,847.82Z"/><path class="cls-4" d="M676.23,847.82s41.85-112.68,111.07-96.59S888.71,847.82,676.23,847.82Z"/><path class="cls-5" d="M830.87,794.12c0-23.36-24.53-42.31-54.79-42.31s-54.8,19-54.8,42.31"/><ellipse class="cls-6" cx="729.84" cy="818.1" rx="35.96" ry="30.82"/><path class="cls-5" d="M755.53,811.25s-12.56-24.4-37.67-12.2"/><path class="cls-7" d="M681.31,917.69l-95.68-4.34a5.93,5.93,0,0,1-4.83-8.94L626.63,827a5.92,5.92,0,0,1,10.15-.07l49.86,81.78A5.92,5.92,0,0,1,681.31,917.69Z"/><path class="cls-5" d="M420.22,794.12c0-23.36,24.53-42.31,54.79-42.31s54.8,19,54.8,42.31"/><ellipse class="cls-6" cx="521.24" cy="818.1" rx="35.96" ry="30.82"/><path class="cls-5" d="M495.56,811.25s12.56-24.4,37.67-12.2"/><circle class="cls-5" cx="499.67" cy="820.23" r="4.41"/><circle class="cls-5" cx="757.89" cy="820.23" r="4.41"/><path class="cls-3" d="M399.25,644.77s-61.8,22.07-90.49,72.83"/><path class="cls-3" d="M862.72,644.77s61.8,22.07,90.49,72.83"/><path class="cls-3" d="M556,936.1s-344.3,64-366.37,97.11"/><path class="cls-3" d="M703.82,936.1s344.29,64,366.36,97.11"/><path class="cls-7" d="M676.23,970.31c0,46.31-22.23,83.86-49.66,83.86s-49.66-37.55-49.66-83.86"/><path class="cls-5" d="M1811.88,393.74c8.06-8.95,12.8-19.83,12.8-31.56,0-18.19-11.37-34.33-28.91-44.42,8.06-8.95,12.8-19.82,12.8-31.56,0-22.84-17.91-42.45-43.48-50.89a44.09,44.09,0,0,0,4.11-18.47c0-30.56-32.06-55.33-71.59-55.33-.78,0-1.55,0-2.32,0-8-23.78-36-41.34-69.27-41.34a89.19,89.19,0,0,0-30.67,5.33c-13.11-11.37-32.2-18.54-53.45-18.54-28.53,0-53.16,12.9-64.67,31.57-34.51,2.06-62.16,23-65.62,49.52-24.52,8.78-41.53,28-41.53,50.22a43.26,43.26,0,0,0,.83,8.46c-25.73,8.38-43.79,28.06-43.79,51,0,21.46,15.83,40.06,39,49.24a44.93,44.93,0,0,0-6.73,23.43c0,25.67,22.62,47.25,53.3,53.5a43.63,43.63,0,0,0-1.4,10.91c0,30.56,32.06,55.33,71.59,55.33a87.55,87.55,0,0,0,36.82-7.87c13.13,11.89,32.65,19.44,54.46,19.44a86.59,86.59,0,0,0,40.51-9.72c13,10.08,30.93,16.32,50.77,16.32,25.6,0,48.06-10.39,60.71-26a85.83,85.83,0,0,0,43.1,11.15c39.54,0,71.59-24.78,71.59-55.33C1840.79,420,1829.42,403.82,1811.88,393.74Z"/><path class="cls-5" d="M1368.42,517.44a38.81,38.81,0,0,0-53.19-36.06,38.81,38.81,0,1,0-28.35,68.13,38.81,38.81,0,0,0,76.58-9c0-1.29-.07-2.57-.19-3.82A38.62,38.62,0,0,0,1368.42,517.44Z"/><path class="cls-5" d="M1198.3,600a38.82,38.82,0,1,0-76.55,9.08,38.81,38.81,0,1,0,76.55,9.09,39.47,39.47,0,0,0-1.08-9.09A39.32,39.32,0,0,0,1198.3,600Z"/><path class="cls-8" d="M1361.51,336.52A363.28,363.28,0,0,1,1451,326.1c28.6-.47,52.88,2.81,82.64-2A271.43,271.43,0,0,0,1580,311.72a3.94,3.94,0,0,0-.44-3.54c-16.69,6.26-33.36,9.74-51.46,13-29.14,4.08-53.23.92-79.83.82-27.45.49-55.21,4.53-85.37,11-.78.67-1.07,2.11-1.35,3.56Z"/><ellipse class="cls-9" cx="1629.13" cy="308.18" rx="73.77" ry="59.64" transform="translate(-11.53 68.84) rotate(-2.41)"/><ellipse class="cls-9" cx="1728.48" cy="336.58" rx="41.29" ry="33.03"/><circle class="cls-5" cx="1739.21" cy="325.84" r="10.74"/><ellipse cx="1740.86" cy="331.63" rx="4.13" ry="4.95"/><circle class="cls-5" cx="1740.04" cy="329.97" r="1.65"/><ellipse class="cls-10" cx="1765.64" cy="338.23" rx="10.74" ry="6.61"/><ellipse class="cls-5" cx="1768.94" cy="336.58" rx="2.48" ry="1.65"/><path class="cls-11" d="M1759,358.85s-15.63-2.45-15.63-10.71"/><g class="cls-12"><g class="cls-13"><path class="cls-14" d="M1713.22,326.68c-1.64.2-3-3.31-3.12-7.85s1.17-8.37,2.81-8.57,3,3.31,3.12,7.85-1.17,8.37-2.81,8.57m.15-23.06c-3.92.48-7,6.38-6.87,13.18s3.42,11.93,7.35,11.45,7-6.38,6.87-13.18-3.42-11.93-7.35-11.45"/><path class="cls-11" d="M1712.91,310.26c-1.64.2-2.9,4-2.81,8.57s1.48,8.05,3.12,7.85,2.9-4,2.81-8.57-1.49-8.05-3.12-7.85"/></g></g><g class="cls-12"><g class="cls-15"><path class="cls-14" d="M1732.86,313.44c-1.77.2-3.24-3.32-3.27-7.84s1.38-8.35,3.16-8.55,3.24,3.32,3.27,7.85-1.39,8.35-3.16,8.54m.49-23c-4.26.46-7.68,6.35-7.63,13.13s3.53,11.91,7.8,11.45,7.67-6.34,7.63-13.13-3.54-11.91-7.8-11.45"/><path class="cls-11" d="M1732.75,297.05c-1.78.2-3.19,4-3.16,8.55s1.5,8,3.27,7.84,3.19-4,3.16-8.54-1.5-8-3.27-7.85"/></g></g><circle class="cls-16" cx="162.72" cy="457.86" r="19.95"/><circle class="cls-5" cx="115.95" cy="457.86" r="19.95"/><rect x="139.96" y="426.91" width="33.13" height="2.75" transform="translate(-244.93 212.04) rotate(-41.61)"/><rect x="120.76" y="411.72" width="2.75" height="33.13" transform="translate(-279.11 235.04) rotate(-48.37)"/><circle cx="115.95" cy="459.24" r="7.57"/><circle cx="162.72" cy="459.24" r="7.57"/><circle class="cls-16" cx="1355.17" cy="1018.65" r="18.89"/><circle class="cls-5" cx="1310.89" cy="1018.65" r="18.89"/><rect x="1333.62" y="989.34" width="31.37" height="2.6" transform="translate(-317.38 1146.12) rotate(-41.61)"/><rect x="1315.44" y="974.96" width="2.6" height="31.37" transform="translate(-298.47 1316.65) rotate(-48.37)"/><circle cx="1310.89" cy="1019.95" r="7.16"/><circle cx="1355.17" cy="1019.95" r="7.16"/><circle class="cls-16" cx="1693.17" cy="63.65" r="18.89"/><circle class="cls-5" cx="1648.89" cy="63.65" r="18.89"/><rect x="1671.62" y="34.34" width="31.37" height="2.6" transform="translate(402.16 1129.57) rotate(-41.61)"/><rect x="1653.44" y="19.96" width="2.6" height="31.37" transform="translate(528.75 1248.74) rotate(-48.37)"/><circle cx="1648.89" cy="64.95" r="7.16"/><circle cx="1693.17" cy="64.95" r="7.16"/><circle class="cls-16" cx="778.42" cy="249.19" r="20.58"/><circle class="cls-5" cx="730.15" cy="249.19" r="20.58"/><rect x="754.94" y="217.25" width="34.19" height="2.84" transform="translate(49.62 567.91) rotate(-41.61)"/><rect x="735.12" y="201.58" width="2.84" height="34.19" transform="translate(83.77 623.89) rotate(-48.37)"/><circle cx="730.15" cy="250.61" r="7.81"/><circle cx="778.42" cy="250.61" r="7.81"/><g class="cls-12"><g class="cls-12"><g class="cls-17"><g class="cls-12"><path class="cls-18" d="M1618.2,771.51l-6.41-4.19c11.55-8,11.38-25-.13-32.58l6.41,4.19c11.51,7.54,11.68,24.61.13,32.58"/></g></g></g><g class="cls-12"><g class="cls-19"><g class="cls-12"><path class="cls-20" d="M1617.56,738.61l-6.41-4.19.51.32,6.41,4.19-.51-.32"/></g></g></g><polygon class="cls-21" points="1532.71 830.59 1526.3 826.39 1611.79 767.32 1618.2 771.51 1532.71 830.59"/><g class="cls-12"><g class="cls-22"><g class="cls-12"><path class="cls-23" d="M1511,830.91l-6.41-4.2a17,17,0,0,0,1.65,1l6.41,4.2a17,17,0,0,1-1.65-1"/><path class="cls-24" d="M1512.6,831.88l-6.41-4.2a19.34,19.34,0,0,0,5.85,2l6.41,4.2a19.43,19.43,0,0,1-5.85-2"/><path class="cls-25" d="M1518.45,833.85l-6.41-4.2a19.32,19.32,0,0,0,3.65.26l6.41,4.2a19.32,19.32,0,0,1-3.65-.26"/><path class="cls-26" d="M1522.1,834.11l-6.41-4.2h.11a19.91,19.91,0,0,0,3-.34l6.41,4.19a18.73,18.73,0,0,1-3,.34h-.11"/><path class="cls-27" d="M1525.26,833.76l-6.41-4.19a20.61,20.61,0,0,0,3.08-.88l6.41,4.2a19.44,19.44,0,0,1-3.08.87"/><path class="cls-28" d="M1528.34,832.89l-6.41-4.2a20.6,20.6,0,0,0,3.44-1.68l6.41,4.19a19.91,19.91,0,0,1-3.44,1.69"/><path class="cls-18" d="M1531.78,831.2l-6.41-4.19c.31-.2.62-.4.93-.62l6.41,4.2c-.31.22-.62.42-.93.61"/></g></g></g><g class="cls-12"><g class="cls-29"><g class="cls-12"><path class="cls-30" d="M1511,830.91l-6.41-4.2a19.12,19.12,0,0,1-8.7-15.85l6.41,4.2a19.13,19.13,0,0,0,8.7,15.85"/></g></g></g><polygon class="cls-31" points="1529.88 684.84 1523.46 680.64 1611.15 734.42 1617.56 738.62 1529.88 684.84"/><g class="cls-12"><g class="cls-32"><g class="cls-12"><path class="cls-33" d="M1519.24,682l-6.41-4.2h.1l6.41,4.2h-.1"/><path class="cls-34" d="M1519.34,682l-6.41-4.2a18.71,18.71,0,0,1,3.57.25l6.41,4.19a19.54,19.54,0,0,0-3.57-.24"/><path class="cls-35" d="M1522.91,682.21,1516.5,678a18.89,18.89,0,0,1,5.69,1.9l6.41,4.2a18.92,18.92,0,0,0-5.69-1.91"/><path class="cls-20" d="M1528.6,684.12l-6.41-4.2c.43.22.85.46,1.27.72l6.42,4.2c-.43-.26-.85-.5-1.28-.72"/></g></g></g><polygon class="cls-36" points="1502.25 815.05 1495.84 810.86 1493.64 698.01 1500.05 702.21 1502.25 815.05"/><g class="cls-12"><g class="cls-37"><g class="cls-12"><path class="cls-30" d="M1500.05,702.21l-6.41-4.2a19.68,19.68,0,0,1,9.44-17.29l6.41,4.2a19.67,19.67,0,0,0-9.44,17.29"/><path class="cls-38" d="M1509.49,684.92l-6.41-4.2a21,21,0,0,1,3.47-1.7l6.41,4.2a19.57,19.57,0,0,0-3.47,1.7"/><path class="cls-39" d="M1513,683.22l-6.41-4.2a19.52,19.52,0,0,1,3.18-.9l6.41,4.2a19.52,19.52,0,0,0-3.18.9"/><path class="cls-33" d="M1516.14,682.32l-6.41-4.2a18.86,18.86,0,0,1,3.1-.35l6.41,4.2a18.86,18.86,0,0,0-3.1.35"/></g></g></g><g class="cls-12"><g class="cls-40"><g class="cls-12"><path class="cls-18" d="M1472.69,867.88l-6.41-4.2a134.31,134.31,0,0,1-60.67-110.14,137.85,137.85,0,0,1,65.55-119.94l6.41,4.2A137.81,137.81,0,0,0,1412,757.74a134.27,134.27,0,0,0,60.66,110.14"/><path class="cls-28" d="M1477.57,637.8l-6.41-4.2a135.85,135.85,0,0,1,23.53-11.55l6.42,4.19a136.36,136.36,0,0,0-23.54,11.56"/><path class="cls-27" d="M1501.11,626.24l-6.42-4.19a134.62,134.62,0,0,1,21.76-6.17l6.41,4.2a135.21,135.21,0,0,0-21.75,6.16"/><path class="cls-26" d="M1522.86,620.08l-6.41-4.2a136.68,136.68,0,0,1,21.87-2.44l6.41,4.2a136.68,136.68,0,0,0-21.87,2.44"/></g></g></g><path class="cls-41" d="M1544.73,617.64c74.75-2.29,136.53,56.73,138,131.82s-58,137.81-132.7,140.1-136.53-56.73-138-131.82S1470,619.93,1544.73,617.64Zm73.47,153.87c11.71-8.09,11.37-25.53-.64-32.89l-87.68-53.78a19,19,0,0,0-10.64-2.87,19.86,19.86,0,0,0-19.19,20.24l2.2,112.85a19.34,19.34,0,0,0,30.46,15.53l85.49-59.08"/><path class="cls-42" d="M1519.24,682a19,19,0,0,1,10.64,2.87l87.68,53.77c12,7.37,12.35,24.81.64,32.9l-85.49,59.08a19.34,19.34,0,0,1-30.46-15.53l-2.2-112.85A19.86,19.86,0,0,1,1519.24,682Z"/><g class="cls-12"><g class="cls-43"><g class="cls-12"><path class="cls-26" d="M1544.73,617.64l-6.41-4.2.74,0,6.41,4.2-.74,0"/><path class="cls-25" d="M1545.47,617.62l-6.41-4.2a134.44,134.44,0,0,1,25.68,1.8l6.41,4.19a135.25,135.25,0,0,0-25.68-1.79"/><path class="cls-24" d="M1571.15,619.41l-6.41-4.19a132.66,132.66,0,0,1,39.77,13.36l6.41,4.2a132.68,132.68,0,0,0-39.77-13.37"/><path class="cls-23" d="M1610.92,632.78l-6.41-4.2q5.73,3,11.12,6.54l6.41,4.2c-3.59-2.35-7.3-4.54-11.12-6.54"/></g></g></g></g><g id="Layer_1" data-name="Layer 1"><rect class="cls-44" x="-0.33" width="1920" height="1080"/><path class="cls-45" d="M1624.65,535.63c-40.37,11.86-43.13,54.68-43.49,90.49a99,99,0,0,0-3.15,55.29,55,55,0,0,1,23.59,10.13q-4.2,8.06-12.23,7.17c42.38,23.95,120.1,3.37,167.48,6.9,36.81,2.73,129.18,13.46,81.68-59.82C1996.6,673.17,1882,549.52,1827,539.3,1762.92,527.42,1691.32,547.5,1624.65,535.63Z"/><path class="cls-46" d="M1658.55,700.23c-14.43,0-26.55-1.18-36.57-3.58l3.69-7.07-8-6a66,66,0,0,0-20.49-10.35,86.34,86.34,0,0,1,4.1-41.84l.63-1.81,0-1.92c.42-42.59,6-69.33,32.61-78.58a312.34,312.34,0,0,0,50.8,3.71c17.63,0,35.46-1,52.7-2,16.66-1,33.89-1.93,50.35-1.93,17.42,0,32.34,1.11,45.64,3.4,29.91,5.16,62.43,35.72,64.44,60.56,1,12.76-6.84,21.85-24.07,27.8l-104.13-14.49,98.12,31.93c7.88,12.15,10.63,21.75,7.76,27-2.19,4-11.93,13.38-55,13.38h0c-16.82,0-33.65-1.41-45.93-2.44-3.15-.26-6-.5-8.44-.68-4.08-.31-8.41-.46-13.24-.46-13.93,0-29.11,1.24-45.18,2.56C1691.8,698.83,1674.66,700.23,1658.55,700.23Z"/><path class="cls-45" d="M1261.58,826.64c1.33-100.36-17.49-111.49-115.54-109.9-83.39,1.35-162.76-36.19-192.5,55.78-32,98.81,19.43,102.67,96.16,103.33C1122.81,876.48,1234.65,919.37,1261.58,826.64Z"/><path class="cls-46" d="M1159.18,832c-19.87,0-32,39.82-52.84,37.18-20.07-2.53-39-4.92-56.54-5.08-42.59-.36-76.13-2-88.2-18.71-8.86-12.28-7.82-35.6,3.08-69.3,14.53-44.92,41.17-54.13,76.69-54.13,13.91,0,45.63,55.79,61.59,57.33,17.8,1.72,19.56-50.83,38.56-50.83,1.57,0,3.15,0,4.71,0,5.51-.09,10.41-.13,15-.13,36.09,0,61,2.53,73.37,15.11,11.52,11.67,15.84,34.57,15.32,81.44-10.66,34.82-35,49.71-81.18,49.71C1168.7,874.58,1159.19,832,1159.18,832Z"/><path class="cls-45" d="M947.47,653.11c.67-50.86,16.79-92.52-44.62-112-36-11.42-95.42,3.46-133.59,2.22-40.65-1.31-88.2-19.6-116.28,14.26-17,20.53-27.52,109.37-13.61,133.92L665,681.87,649,699.74c42.24,21,117.94,2.27,165.54,5.87C874.44,710.13,926.1,726.69,947.47,653.11Z"/><path class="cls-46" d="M874.84,698.69c-11.16,0-23.41-1.26-36.38-2.6-7.45-.77-15.15-1.57-23-2.16-4.52-.34-9.35-.51-14.75-.51-14,0-29.08,1.12-45,2.3-16.19,1.2-32.92,2.44-48.61,2.44-15.23,0-27.58-1.16-37.71-3.59l4.37-4.9-12.86-18.76-14.26,5.36c-2.11-10.94-2.84-28.93-.35-52,3.29-30.36,10.43-52.78,15.78-59.23,9.25-11.16,21.92-16.13,41.08-16.13,10.72,0,22,1.46,34,3,10.47,1.35,21.3,2.75,31.81,3.09,1.64.05,3.37.08,5.13.08,13.65,0,28.91-1.56,45.06-3.21,16.49-1.68,33.53-3.42,48.95-3.42,13,0-3.83,63.15,4.2,65.7,41.92,13.31,67.53-26.93,64.84,12.42-.55,7.94-1.11,16.13-1.27,24.73-11.88,39.4-32.17,47.37-60.94,47.37Z"/><path class="cls-45" d="M633.37,826.64c1.09-82.09-1.52-109.55-87.19-111.4-48.4-1-160.08-21.73-196.66,2.12l18.88,13c-43.63-2.81-39.7,17.92-43.63,69.27-1.67,21.84-19.86,75.91,17.79,63.09-12.46,27,115.77,13.35,142.19,15C548.79,881.86,610.31,906.06,633.37,826.64Z"/><path class="cls-46" d="M559.15,872.71c-12.51,0-26.16-1.62-40.61-3.32-10.71-1.27-21.79-2.58-33-3.3-1.83-.11-4.05-.17-6.77-.17-7.15,0-17,.39-28.31.84-15.06.6-32.14,1.28-48.41,1.28-29.95,0-42.21-2.46-47.1-4.16l34.75-21.31-50.86,9.09a20.12,20.12,0,0,1-6.23,1.32,5.06,5.06,0,0,1-.67,0c-.41-.77-1.54-3.63-1.19-11.34.34-7.37,1.88-16.18,3.24-24,1.1-6.27,2.13-12.2,2.51-17.08.42-5.58.75-10.68,1.07-15.62,1.07-16.63,1.91-29.78,5.34-36.44,1.28-2.49,3.42-6.65,18.29-6.65,2,0,4.17.08,6.5.23l42.24,2.72-35.18-24.29c9.85-1.91,22.4-2.87,37.57-2.87,26.48,0,56.62,2.9,83.23,5.46,19.9,1.91,37.09,3.57,50.42,3.85,38.5.84,35.24,27.1,44,40.65,9.2,14.23,32.22,19.63,31.74,57.27-12,39.65-33.69,47.84-62.53,47.84Z"/><path class="cls-45" d="M256.47,539.3c92.91-12,90.34-158.21,0-173.55-42.58-7.23-219-15.23-234.64,22.27a169.78,169.78,0,0,1,36.62,22.71c-43.64,1.52-71.76,24.37-52.62,76.82,15.37,42.12-5.92,33.33,42,25.94L31.24,530.26C93,549.72,188.52,532,256.47,539.3Z"/><path class="cls-46" d="M114.41,528c-24.36,0-44-1.38-60.26-4.28l27-27.24L46.46,474.78c-10.37,1.6-18.07,30.4-23.16,31.63a148.46,148.46,0,0,0-6.47-22.88c-7.07-19.38-7.24-34.27-.5-44.27,4.83-7.17,16.62.13,43-.79l30.78-17.12L65.83,401.64a181,181,0,0,0-23.69-16.31c14.85-6.76,48.57-14,114.05-14,41.19,0,81.39,3.06,98.32,5.93,41.45,7,59.61,46,58.95,79.17-.58,29.14-19.61,27.51-60.85,33.54-11.89-1.22-21.83,35.68-37.91,35.68s-33.24.59-49.77,1.16c-16.72.58-34,1.18-50.52,1.18Z"/><path class="cls-45" d="M640.63,519.91c21.78,29.71,181.43,16.43,218.76,16.58,70.48.3,142.48-102,71.06-159.17-35.14-28.13-179.85-17-222-11.57-51.85,6.65-51.83,6.67-69,59.67C632.8,445.93,626.37,500.47,640.63,519.91Z"/><path class="cls-46" d="M752.59,527.61c-28.89,0-51.41-1.21-68.84-3.69-27.27-3.88-32.84-9.79-33.68-10.93-4.52-6.16-6.82-20.93-6.17-39.51.65-18.36,3.91-35.91,6.68-44.46,7.65-23.66,64.4,7.74,70.54,2.43,6-5.15-34-51.16-11.22-54.08a990,990,0,0,1,111.33-6.7c24.7,0,84.09,1.54,101.9,15.79,31.49,25.2,26.55,56.44,20.8,72.81-6.11,17.42-18.14,33.82-33.86,46.18S842,493.52,825.36,493.52l33.36,31.26c-7.26,0-18.12.43-31.87,1C805.63,526.57,779.23,527.61,752.59,527.61Z"/><path class="cls-45" d="M1575.67,132.47a78.69,78.69,0,0,0,6.69,39.52l37.94-15.19-29.91,21.84c32.49,17.09,233.29,26.9,267.9,6.09,48.68-29.27,49.21-187-11.17-143.57-18.9-41.38-127.82-36.56-175-32.59C1579.94,16.32,1597.61,56.91,1575.67,132.47Z"/><path class="cls-46" d="M1737.8,111.68c-56.39,0-91.23,68.16-121.29,62.39l10.69-7.81-11.26-20.34-26.67,10.68a66.76,66.76,0,0,1-2-22c4.78-16.66,7.67-31.52,10.24-44.67,4.37-22.47,7.54-38.7,16.89-49.47,9.87-11.38,28-17.61,58.75-20.19,19.66-1.65,38.48-2.49,55.95-2.49,60,0,99.17,10.3,107.38,28.27l5.92,13L1854,50.67c4.76-3.43,9.11-5.31,12.25-5.31,6.92,0,11,11.9,12.39,17,9.59,34.57-1.89,97.61-26.34,112.31C1844.14,179.57,1794.91,111.68,1737.8,111.68Z"/><path class="cls-45" d="M953.54,251.88c2.58,29.78-16.57,64.85.18,92.94l31.91-21-23.36,28.43c42.16,22.08,159.46,10.53,211.22,10.73,63.67.26,118.74-53.21,90.77-124.83-25.12-64.3-93.16-41.64-149-41.45C1045.88,196.9,971.1,163.77,953.54,251.88Z"/><path class="cls-46" d="M1062,354.07c-36.26,0-62.78-2.31-80.32-7l13-15.83L979.18,314l-19.79,13.05c-2.21-11.44.08-24.48,2.46-38.07,2.09-11.92,4.25-24.22,3.49-36.34,8.79-41.74,30.57-50.18,62.76-50.18,12.33,0,25.66,1.35,39.78,2.78,15.19,1.54,30.9,3.13,46.59,3.13h.78c11.9,0,24.3-1.06,36.29-2s24.17-2,35.57-2c36.5,0,55.69,11,66.24,38,13.29,34.05,4.39,58.32-5.43,72.69-15.24,22.31-73.57-20.65-104-20.65l28.15,56.82c-12,0-26.77.55-43.85,1.2C1107.77,353.2,1084.55,354.07,1062,354.07Z"/><path class="cls-45" d="M319.28,132.47c-.83,62.27,41.43,50,87.89,50.22s119.67,20,163.39,9.52C704.44,160,617.81-60.74,499.76,32.57,476.42,6.05,400.28-6.9,361.92,17.07,319.07,43.87,331.85,89.16,319.28,132.47Z"/><path class="cls-46" d="M539.73,183.57c-21.38,0-46.11-3.33-70-6.55-22.74-3.06-22-11.37-40.24-11.46L407.22,139.8c-6.63,0-14.41,31.4-20.64,31.62-5.76.2-11.19.4-16.34.4h0c-16.84,0-25.9-2.23-31.27-7.67s-8-15.47-8-30c3.81-13.74,5.28-27.23,6.7-40.3,3.12-28.65,5.59-51.29,30.45-66.83C379.33,20,396,16.16,415,16.16c31.2,0,63.86,10.38,76,24.15l7.34,8.34L507,41.76c17.05-13.48,37.51,23.07,53.63,23.07,21.56,0,33.17-31.22,42.17-21,12.3,14,20.7,33.24,23,52.92,2.25,19-1.28,37.29-10,51.51-9.95,16.34-26.13,27.3-48.08,32.58C560.13,182.67,550.94,183.57,539.73,183.57Z"/><path class="cls-47" d="M1241,695.57c.4,1.68,60.94-159.68-.59-116.11,5.68-63.24-93.06-35.22-141.1-35.93-23.85-.35-154.91-25.83-116.15,25.34l-18-9.6c-28.53,63.4-35.37,141.27,43.61,147.49C1051.87,710.15,1213.12,729.62,1241,695.57Z"/><path class="cls-46" d="M1145.42,703.66c-42,0-89-4.34-117.09-6.92-7.39-.69-13.77-1.27-18.67-1.66-21.64-1.7-36.71-9.5-44.81-23.17-12.21-20.61-9.85-56,6.08-96.28l6.7,3.57,14.84-17.41c-3.74-4.94-4.53-7.61-4.69-8.56,1.34-1,83.6,38.68,105.81,38.68,18.91,0-34.44-40.74-17.92-38.85,10.33,1.18,18.49,2.11,23.45,2.18l2,0h0c11.12,0,54.76,23.94,68.57,22.6,15-1.47-.08-28.2,14.09-28.2,20.67,0,34.26,3.41,40.4,10.12,3.79,4.15,5.27,10.25,4.51,18.63l-2.27,25.27L1247.16,589a37.88,37.88,0,0,1,8.48-4.83c1,4.37,2,17.95-7.68,53.43a536.94,536.94,0,0,1-16.84,51.4c-5,5-22.93,14.64-85.7,14.64Z"/><path class="cls-47" d="M1575.67,826.64c.41-31.38,14.52-61.24-5.72-90.53l-16.18,9.39,8.87-17.8c-35.32-32.26-196.38-22.82-239.05-16.69-40.39,5.81-83.81,73.66-60.51,139.73,10.52,29.83,40.77,25.55,72.05,27.13C1409.05,881.62,1549.36,917.26,1575.67,826.64Z"/><path class="cls-46" d="M1460.37,876.19c-26.27,0-54.42-3.1-79.25-5.82-16.41-1.81-31.91-3.51-45.39-4.19-4.68-.24-9.3-.35-13.76-.46-29.51-.7-42.1-2.6-47.84-18.88-10.39-29.45-6.68-63.4,9.93-90.81,11.25-18.58,37.82,4.24,52,2.2,17-2.44,48.32-41.69,94.8-41.69,72.61,0,103.63,8.58,116.73,15.14l-86.2,66.38,104.08-45.8c5.73,14.2,3.62,29.13,1.25,45.92a234.79,234.79,0,0,0-2.71,26.63c-5.84,18.77-17.73,32-36.32,40.28-16.68,7.47-38.7,11.1-67.29,11.1Z"/><path class="cls-47" d="M1558,562.63c-1.27,0-20.31-18.5-36.06-22.43-36.26-9.07-86.89,4.33-124.48,3.11-40.42-1.31-88.31-19.33-116.28,14.26-14.28,17.16-27.88,99.22-18.11,119.63,24.88,52,155.69,29.87,209.94,31.31,54.56,1.44,84.08,3.27,102.65-55.4C1582.75,630.73,1590.67,561.3,1558,562.63Z"/><path class="cls-46" d="M1370,700.27c-55.77,0-6.15-29.7-15.2-48.62-2.8-5.84-84.48-5.83-80.1-33.67,4.31-27.46,11.21-47.76,15.5-52.91,9.24-11.1,22-16,41.32-16,10.76,0,22.61,1.51,34.07,3,10.39,1.33,21.13,2.69,31.51,3,1.74.06,3.57.08,5.43.08,13.89,0,29.26-1.6,44.13-3.15,15.14-1.58,30.81-3.21,45.12-3.21,10.81,0,19.76.92,27.34,2.82,9.14,2.28,21.87,12.62,27.31,17,4.57,3.71-17.11,54.95,11.58,5.75h.25l.68,0c2,0,3.63.49,5.4,2.9,9.83,13.43,5.64,55.06.17,72.35-6.56,20.74-14.56,33.44-25.18,40-10.43,6.41-24.3,7.73-41.92,7.73h0c-6.55,0-13.7-.2-21.26-.4l-2.82-.07c-1.87,0-3.82-.08-5.86-.08-11.46,0-25.52.75-40.4,1.54C1409.39,699.2,1389.35,700.27,1370,700.27Z"/><path class="cls-47" d="M1561.17,379.3a32.61,32.61,0,0,0-10.45,15.3q10,5.76,21.57.64-11.55,5.11-21.57-.64a32.61,32.61,0,0,1,10.45-15.3c-35.83-30.09-181-19.14-224.55-13.55-51.85,6.65-51.84,6.67-69,59.67-6.16,19.05-13.77,76.84,1.19,94.49,25.83,30.48,178.27,16.42,218.75,16.58C1555.86,536.78,1630.22,437.3,1561.17,379.3Z"/><path class="cls-46" d="M1378.76,527.88c-27.69,0-49.4-1.23-66.38-3.75-25.42-3.78,15.06-42.38,13.12-44.66-10.08-11.9-53.23-30.3-46.71-50.45,7.65-23.66,11.85-36.65,18-42,6-5.15,18.52-6.77,41.32-9.69a949.79,949.79,0,0,1,108.5-6.53c75.07,0,99.27,10.92,107,17.43l.51.43-9.23,16.07a33.43,33.43,0,0,0,16.83,4.59V396.13c20.65,23.28,15.91,49.16,10.73,63.38-13.11,36-51.06,65.27-84.6,65.27h-1c-8.17,0-20.4.51-34.56,1.11C1431.13,526.77,1404.81,527.88,1378.76,527.88Zm125.13-115.71c-8-1.31-5.6,11.83-13.54,13.54-26.64,5.74,10.68,24.85,15.53,25.65,8,1.31,8.88-21.6,7.57-29.62A11.71,11.71,0,0,0,1503.89,412.17Z"/><path class="cls-47" d="M953.54,425.42c8.5,98-12.66,102.4,96.16,103.34,29.61.26,195.58,26.17,183.22-14.44,27.27,6,33.76-53.18,32.59-75.25-3.11-58.58-24.69-68.12-78.93-72.12C1110.63,361.35,971.28,336.42,953.54,425.42Z"/><path class="cls-46" d="M1172.88,525.43c-29.36,0-64.25-3.33-89.72-5.76-15-1.44-26.83-2.57-33.36-2.62-38.34-.33-64.17-1-73.39-7.46-6.69-4.67-7.5-16.74-8.68-43.6-.47-10.85-1.06-24.26-2.38-39.86,5.27-24.06,23.44-54.94,112.62-54.94,26.73,0-10,75.52,14.45,77.83,10.22,1,84.42-71,93.3-70.39,23.84,1.76,41.82,4.64,52.11,13,9.71,7.89,14.64,22.71,16,48.06a153.41,153.41,0,0,1-2.55,33c-2.47,13.28-6.4,23.55-10.78,28.18-2,2.11-3.25,2.13-3.79,2.13h0a6,6,0,0,1-1.25-.15l-19.52-4.27,5.82,19.12c0,.14.07.25.09.35C1220.37,519.48,1211.94,525.43,1172.88,525.43Z"/><path class="cls-47" d="M639.43,251.88c3.34,38.54-21.7,77.47,15.92,103.45,26.11,18,110.41-.29,143.49,1.81,40.94,2.61,93.32,21.05,126-8.7,28.53-26,40.49-109,12-139L915,227.16c17.81-58.46-94.21-30.19-129.76-30.72C717.07,195.44,656.49,166.33,639.43,251.88Z"/><path class="cls-46" d="M873.76,353.46c-13.57,0-28.26-2.14-42.47-4.22-10.56-1.54-21.48-3.13-31.7-3.78-2.07-.14-4.28-.2-6.77-.2-11.31,0-26,1.39-41.58,2.86-18.27,1.72-37.17,3.51-54,3.51-22,0-31.35-3.23-35.27-5.94-18.76-12.95-17.44-28.78-13.48-55.65,1.76-12,3.59-24.44,2.71-37.42,8.74-41.8,27.31-50,56.3-50,10.75,0,22.68,1.23,35.31,2.53,13.52,1.39,27.51,2.83,42.16,3h1.19c8.41,0,27.39,17.4,40.34,16,15.73-1.74,25.76-22.35,41.58-22.35,25.49,0,33.15,5.2,35.45,8.31,2,2.75,2.1,7.34.18,13.65L892.6,260.33l41.82-33.87c5.08,10.37,7.56,25.13,6.93,42.29C940.29,298,840.76,313,827.71,324.86,817.44,334.2,893,353.46,873.76,353.46Z"/><path class="cls-47" d="M326.32,693.14l24.83-14.24-16.57,20.67c34.72,17.61,80.43,2.23,118.09,2.91,33.82.62,85.6,18.19,117.89,10.37,48.54-11.75,60.58-37.53,64.61-86.57q11-31.74-6.08-61.54-8.4,5.47-17.18,2.27a19.75,19.75,0,0,1,6.47-14.55c-36.27-29.64-180.32-18.77-224.06-13.16-51.84,6.65-51.84,6.67-69,59.67C318.66,619.62,312.46,673.37,326.32,693.14Z"/><path class="cls-46" d="M551.29,703.14c-15.48,0-33.83-3.22-51.58-6.34-16.9-3-32.86-5.77-46.83-6l-2.72,0c-12.1,0-24.85,1.43-37.19,2.81s-24.85,2.78-36.65,2.78a114.29,114.29,0,0,1-15.52-1,4.05,4.05,0,0,1-2.61-6.54h0a4,4,0,0,0-.08-5.15l-10.62-12.4a4,4,0,0,0-5.08-.88l-5.55,3.19a4,4,0,0,1-6-2.94c-3-20.32.21-51.28,5.64-68.08,7.64-23.63,11.84-36.64,18-42,6-5.15,18.52-6.77,41.33-9.69a950.69,950.69,0,0,1,108.77-6.56c52,0,79.49,5.27,94,10.63a4,4,0,0,1,2.5,4.68,30.91,30.91,0,0,0-.87,7.34v5.37a4,4,0,0,0,2.66,3.8l5,1.84a30.49,30.49,0,0,0,10.43,1.88c.68,0,1.36,0,2-.07a4.06,4.06,0,0,1,4.09,2.7c4.55,13,4.42,26.16-.36,39.91l-.32.91a4.35,4.35,0,0,0-.21,1l-.08,1c-4.07,49.6-78.77,7.49-117.89,17C501,643.39,557.66,703.14,551.29,703.14Z"/><path class="cls-47" d="M326.53,519.91c18.65,25.43,246.94,29,275.36,11.91,44.71-26.86,47.8-123.66,16-150.69-26.59-22.62-66.34-12-100.07-11.49-37.78.62-116.8-18.75-149.58-7.56C332.09,374.43,296.56,479,326.53,519.91Z"/><path class="cls-46" d="M494.8,530.62c-36.63,0-74.37-1.9-103.55-5.21-45.81-5.2-54.53-11.83-55.4-12.6-11.41-15.8-11.83-48.11-1-82.42,7.78-24.78,23.08-52.39,37.24-57.22,5.55-1.9,13.75-2.86,24.35-2.86,19,0,42.31,3,64.88,5.91,20.57,2.65,40,5.15,54.73,5.15l2,0c8.1-.13,16.5-.81,24.63-1.47,8.93-.73,18.17-1.47,26.84-1.47,18.76,0,31.35,3.59,40.82,11.64,12.09,10.28-40.28,44.29-42.64,73-2.49,30.4,44.8,48.72,28.18,58.71-5.92,3.55-37.71,8.84-101.05,8.84Z"/><path class="cls-47" d="M324.37,342.63A16.7,16.7,0,0,1,342,340.76a15.32,15.32,0,0,1-3.82,13.38c44.61,18.6,128.31,3.11,177.93,5.73,70.92,3.75,126.44-.94,121.15-94.34-4.17-73.62-43.52-71.28-105.29-70.17-41,.73-146.29-19.68-180.24,0L371.71,218,341.5,203.9C323.24,229.45,310.74,313.48,324.37,342.63Z"/><path class="cls-46" d="M418.93,314.32c-20.67,0-52.45,35.84-65.08,32.64a28.44,28.44,0,0,0-.28-8.26l-1.1-6.11-5.67-2.53a29.94,29.94,0,0,0-12.23-2.71c-.86,0-1.72,0-2.57.12-2.38-13.07-2.24-32.75.59-54,2.85-21.44,8.07-41.68,13.8-54.36l20.37,9.5,13.74-18.36-8.37-9.5c8.1-1.5,18.49-2.26,31.1-2.26,23.39,0,50.76,2.62,74.9,4.93,20.61,2,38.42,3.68,51.64,3.68l2.45,0,4-.08c7-.12,13.59-.25,19.86-.25,46,0,66.52,5.63,69.57,59.46,1.73,30.64-24.86,46-36.85,58.66S577.84,349,544,349c-7.66,0-16.3-.27-27.18-.85-4.14-.21-8.55-.32-13.49-.32-14.26,0-30,.9-46.7,1.84C439,350.69,436.19,314.32,418.93,314.32Z"/><path class="cls-47" d="M633.37,132.47c-.91,68.49,54,48.8,102.23,49.2,44,.37,125.24,23.36,164.73,6.8,40.27-16.88,72.54-94.67,46.44-137.68-14.44-23.78-115.86-54.62-108-11C804.9,3.85,739.6-5.77,691.11,13.49,632.15,36.91,649.13,78.19,633.37,132.47Z"/><path class="cls-46" d="M861.75,182.75c-21.35,0-46-3.51-69.78-6.89-20.85-3-40.53-5.77-56.28-5.9h-1.58c-9,0-18.11.63-26.9,1.23-8.3.57-16.15,1.11-23.47,1.11h0c-15.42,0-24.77-2.51-30.31-8.12s-8.36-15.72-8.36-30c4.41-15.71,6.27-30.31,7.92-43.24,4.16-32.63,6.67-52.33,42.44-66.53a133.54,133.54,0,0,1,48.85-8.91c34.74,0,66.88,12.09,86,32.33l27,28.66-7-38.78c-.21-1.12-.57-3.84.36-5,1.23-1.47,5.58-3.19,13.8-3.19,27.62,0,36.94,37.21,42.88,47,9.54,15.71,39.73,19.45,31.57,44.57-8.66,26.64-26,49.37-43.12,56.55C887.77,181,876.31,182.75,861.75,182.75Z"/><path class="cls-47" d="M947.47,132.47c-.11,8.64,0,34.4,9.35,42.59q8.71-15.67,24.2-14.55a37.63,37.63,0,0,1-10.38,21.7c41.77,14.59,263.31,14.46,259-17.48,48.8,12.94,41.42-109.78,14.88-134.5-15.49-14.43-64.47-13.31-83.1-15.69-53.27-6.8-94.94-22-124.5,23.17C953.87-21.07,964.8,72.8,947.47,132.47Z"/><path class="cls-46" d="M1081.78,179.84c-37.09,0-71.62-2.09-92.36-5.36a48.26,48.26,0,0,0,3.23-12.59l1.44-12.17-12.23-.89c-1-.07-1.94-.11-2.89-.11A34.18,34.18,0,0,0,960.45,154a122.86,122.86,0,0,1-1.28-19.83c3.77-13.47,6.19-28.18,8.54-42.43,6.06-36.81,11.16-60.93,26.34-60.93,5.86,0,16.9,2.86,36.14,16.47l9.92,7,6.65-10.17c12-18.39,26.13-25.89,48.66-25.89,12.3,0,26.36,2.2,41.24,4.52,7.49,1.17,15.23,2.38,23.3,3.41,4.73.61,10.86,1,18,1.41,17.43,1.06,49.86,3,58.66,11.23,5.5,5.12,12.46,21,15.63,45.08,3,22.43,1.51,44.7-3.77,58.13-4.71,12-10.11,12-11.88,12a15.45,15.45,0,0,1-3.88-.56l-16.94-4.49,2,15c-2.92,2-13.16,7.12-45.11,11.14C1148,178.13,1115.68,179.84,1081.78,179.84Z"/><path class="cls-47" d="M1267.64,251.88c3,34.92-28.26,101.05,23.5,89.8-29.23,35.59,57,13.33,72.66,13.53,31.86.42,62.88,3.36,94.65,4.66,67.19,2.74,146-10.81,123.28-108-18.65-79.75-88-55.44-152.42-55.22C1358.91,196.89,1285.42,162.7,1267.64,251.88Z"/><path class="cls-46" d="M1304.33,350.19c-2,0-3.56-.08-4.85-.19.22-.28.45-.58.71-.89l21.38-26-32.92,7.16a38.57,38.57,0,0,1-8,1c-2,0-4.57-.27-5.64-1.52-4.54-5.32-1.21-26.17,1-40,2-12.71,4.12-25.82,3.46-37.11,8.83-42,30.11-50.53,61.47-50.53,12.29,0,25.68,1.42,39.86,2.92,15.53,1.64,31.6,3.33,47.81,3.33h.77c12.73,0,25.53-1,37.92-1.9,12.18-.9,19.47,37.57,30.41,37.57,35.06,0,62.94-31,72.65,10.51,6.74,28.84,4.15,51-7.69,66-14.71,18.55-44.76,28-89.31,28-4.61,0-9.46-.1-14.4-.3-12.47-.51-25.08-1.29-37.28-2.05-18.77-1.16-38.18-2.36-57.7-2.62h-.37c-4.49,0-11.3,1-20.72,2.49C1330.69,347.86,1315.54,350.19,1304.33,350.19Z"/><path class="cls-47" d="M1261.58,132.47c-.4,29.84,7.53,58.2,42.46,45.23-23.83,20.88,50.2,4.08,59.76,4,41.54-.45,82.57,7.57,123.78,7.74,69.3.29,133.36-83.56,79.22-148.9-22-26.53-65.94-23.75-97.73-26.65Q1429,9.41,1388.7,8.12A79.29,79.29,0,0,1,1366.53,34c-34.88,1.2-38.69-42-80.29-6.51C1259.52,50.26,1270.29,102.45,1261.58,132.47Z"/><path class="cls-46" d="M1300,166.72a34.5,34.5,0,0,1-11.57,2.49h0c-4.31,0-6.36-1.52-7.67-2.85-2.84-2.88-7.52-10.87-7.45-32.25,3-11.31,3.68-24.3,4.4-38,1.24-23.64,2.52-48.07,16.16-59.7,8.73-7.43,15.76-11.2,20.91-11.2,4.27,0,8.34,2.67,14.62,7,8.64,6,19.39,13.5,35.75,13.5l1.81,0,3.69-.12,3-2.22a90.6,90.6,0,0,0,21.65-23.3c24.19.94,48.56,2.77,72.55,5.43l.23,0c5.69.52,11.57.86,17.79,1.21,26.75,1.52,57.06,3.23,72,21.25,25.82,31.16,17.55,61.6,10.32,77-14.6,31.06-47.56,52.75-80.16,52.75h-.31c-19.25-.08-41.06-32.55-60.22-34.38-20.25-1.94-39.19,26.63-60.19,26.63l-3.55,0c-2.88,0-7.25.71-16.07,2.13-11.49,1.84-27.22,4.36-37,4.36a20.16,20.16,0,0,1-4.69-.34,8.26,8.26,0,0,1,4.64,5.16,9.2,9.2,0,0,1,.47,4Z"/><path class="cls-47" d="M1624.65,188.54q-23,4-31.37,23.75,6.85,7.5,15.67,5.91,3.46-9.49-6.24-17.92,9.7,8.41,6.24,17.92-8.81,1.59-15.67-5.91c-10.24,22.85-21.73,69.78-17.61,93.72-.43-2.5,22.25,65.22,23.64,49.27.82-9.42,247.42,20.64,269.88-6.82a43.76,43.76,0,0,1-15.47-7.23c28.79,43.58,39.48-114.6,17.19-80.52a39.06,39.06,0,0,1,25.21-4.65C1890.94,152.4,1693.68,200.83,1624.65,188.54Z"/><path class="cls-46" d="M1739,290.89c-36,0-28,55.35-62.82,53.44-26-1.43-48.38-2.67-62.38-2.67a108.28,108.28,0,0,0-11.61.48c-2.66-6-6.79-16.39-13.22-34.15-.68-1.88-1.24-3.42-1.64-4.49-.09-.25-.18-.5-.28-.74-2.37-17.13,4-49.94,12.16-73.44a26.75,26.75,0,0,0,6.75.87V217.1l14,5.12a26,26,0,0,0,1.62-9h-15.63v-.14c4-6.72,10.07-10.81,18.85-12.69,8.66,1.36,19.23,2,33,2,14.42,0,30.5-.7,47.52-1.44,18.78-.82,38.19-1.66,57.35-1.66,74.4,0,111.4,13.65,119.91,45.15a50.42,50.42,0,0,0-7,1.53l-16.37,4.88L1869.39,264c1.37,3.31,2.88,17.36.57,38.11-2.52,22.58-7.48,33.85-9.57,35.93l-10.12,6.47C1841,346.57,1772.13,290.89,1739,290.89Z"/><path class="cls-47" d="M1624.65,362.08c-37,10.87-75.46,119.91-41.72,157.83,22.67,25.49,227.35,28.86,259.7,15.65,21.55-8.81,27.16-13.28,38.32-34.8,18.76-36.16-2.52-37.95-3.91-61.38-1.56-26.28,21.17-29.66-1.84-58.69C1843.41,340.61,1673.8,370.83,1624.65,362.08Z"/><path class="cls-46" d="M1737.8,497c-36.7,0-60.18,32.36-89.62,28.84-48.91-5.85-56.22-13.43-56.5-13.75-11.74-13.19-13.25-42.91-3.85-75.71,9.48-33.06,26.23-56.77,38-62.3a191.79,191.79,0,0,0,25.72,1.36c16,0,41.09,47.63,61.63,46.6C1737,420.87,1756,371,1779.4,371c33.38,0,75.5,2.94,86.62,17,10,12.66,8.68,15.84,5.06,24.32-2.74,6.4-6.48,15.16-5.73,27.79.63,10.72,4.45,18,7.52,23.8,4.4,8.36,7.06,13.41-2.32,31.48-10,19.21-13.35,21.59-32.35,29.36-8.17,3.34-37.92,6.7-86,6.7Z"/><path class="cls-47" d="M1624.65,362.08c55.69,9.91,151.19,10.27,202.31,3.67"/><path class="cls-46" d="M1740.87,381.9c-41.68,0-85.95-2.54-118.27-8.29l4.1-23.06c31.11,5.54,73.77,8,114,8,32.29,0,63-1.58,84.82-4.4l3,23.24C1805.94,380.27,1774.23,381.9,1740.87,381.9Z"/><path class="cls-47" d="M1624.65,709.18c-40.44,11.87-54.56,81.11-49,117.46,8.45,55.08,22.58,49.41,73.56,51.23,27.4,1,290.21,20.15,226.47-53.59,52.94,3.76,5.22-99.58-39.64-110.53C1772,698.1,1692.44,721.24,1624.65,709.18Z"/><path class="cls-46" d="M1741.34,869.11c-34.2,0-65.25-1.61-81.92-2.47-4.46-.23-7.67-.4-9.77-.47-5.1-.18-9.71-.29-14.16-.39-17.61-.4-29.24-.67-35.28-5-5.86-4.17-9.74-14.92-13-35.93-2.72-17.72-.07-42.21,6.75-62.39,4.31-12.74,14-34.53,31.58-41.26a286.28,286.28,0,0,0,46.12,3.31c18.5,0,37.44-1.22,55.76-2.4,17.72-1.14,36-2.32,53.33-2.32,21,0,37.65,1.69,52.49,5.31,26,6.36,56.69,56.66,53.84,80.27-.67,5.58-2.7,7.28-8.68,7.28h0c-.61,0-1.25,0-1.91-.07l-28.14-2,18.45,21.34c2.65,3.07,8.62,10.67,6.68,14.9C1871.82,850.56,1857.46,869.11,1741.34,869.11Z"/><path class="cls-47" d="M1894.51,978.8c15.41-100.26-66-89.76-135.69-88.24-97.56,2.12-180.11-34.87-180.41,96.14-.16,73.3,35.41,71.08,104.84,76,42.2,3,165.66,19.21,167.9-28.49C1892.78,1065.45,1880.5,976.67,1894.51,978.8Z"/><path class="cls-46" d="M1767.24,1056c-24,0-49-2.15-67.28-3.73-6.1-.52-37.13-29.34-15.89-1.3,2.48,3.28-8.08-.55-12-.81-61.43-4.08-82.12-5.45-82-63.45.08-36.53,6.76-60.46,20.43-73.18,11-10.2,27.3-14.55,54.63-14.55,11.61,0,46.37,56.39,59.72,57.18,15.22.9,8.81-53.82,25.33-53.82,3,0,6,0,8.84-.09,5.19-.12,10.45-.28,15.73-.44,9.43-.29,19.19-.6,28.52-.6,27,0,56.48,2.25,70.77,18.91,9.29,10.81,12.45,27.56,9.63,51.08-2.38,2.32-4.52,5.85-6,11.1a145.72,145.72,0,0,0-3.36,17.62c-1.09,7.15-2.21,14.53-4,20.61s-3.48,8.12-4,8.59c-.68-.08-3.24-.61-8.18-4.32l-17.69-13.28-1,22.1C1838.77,1048.07,1813.13,1056,1767.24,1056Z"/><path class="cls-47" d="M1576.78,922.91l-13.61,10.51c4.3-75.32-114.9-41.37-165.7-43-77.71-2.52-158.54-1.79-135.89,109.79,13.11,64.61,53.33,59.22,117,63,28,1.67,165.27,13.56,155-24.82C1579.31,1057.19,1588.31,953.87,1576.78,922.91Z"/><path class="cls-46" d="M1449.52,1054.53c-24.77,0-48.73-1.6-63-2.55-2.85-.19-5.27-.36-7.18-.47-6.57-.39-12.84-.68-18.9-1-53.13-2.48-77.38-3.61-87.34-52.68-6.73-33.19-4-57.52,8.09-72.31,17.29-21.17,54.35,10.72,87.7,10.72,9.76,0,19-34.46,28.25-34.16,1.36,0,2.75.06,4.2.06h0c11.64,0,25.76-1.38,40.71-2.85,17.26-1.69,35.11-3.43,51.86-3.43,25.87,0,42.48,4.27,50.79,13.07,5.19,5.49,7.41,13.27,6.81,23.79L1550,958.37l19-14.68c2.15,24.2-1.93,60.73-13.65,77.6-5.28,7.6-9.71,7.65-11.2,7.65h0a16.39,16.39,0,0,1-6.11-1.39l-76.67-50.29,60.9,64.15c.26,1,.16,1.12-.09,1.44C1520.69,1044.8,1510.15,1054.53,1449.52,1054.53Z"/><path class="cls-47" d="M1251.33,904a58,58,0,0,0-10.8,10.13c8.31-29-227.58-42.24-256.23-25.15-28.23,16.82-46.35,91.7-36.07,123.27,18.51,56.88,75.59,49.89,134.15,51.68l-1-22.15c20.62,30.44,137.2,37.47,137.37-3.18C1265.47,1040.77,1286.17,941.5,1251.33,904Z"/><path class="cls-46" d="M1160.3,1055.15A160.41,160.41,0,0,1,1116,1049c-12.29-3.7-21.61-8.84-24.94-13.76l-23.28-34.35,2.31,51.08-8.51-.11c-54.89-.7-89.2-3.16-102.24-43.2-4.15-12.76,28.27-36.06,34.67-59.47,6.54-23.9-13.7-44.18-3.73-50.12,3.69-2.21,21.51-5.93,64.86-5.93a909.92,909.92,0,0,1,111,7c44.37,5.81,61.23,13,63.94,15.92a6,6,0,0,1-.8-5.15l20,10.52c4.29,8.29,6.93,18.85,7.6,30.82.94,16.7-58.69,21.29-64.91,35.58-3.4,7.79,43.63,39.11,28.28,39.11h0l-1,0-12.21-.56,0,12.21C1207,1048.16,1187.34,1055.15,1160.3,1055.15Z"/><path class="cls-47" d="M947.47,826.64c.41-30.79,13.88-59.74-4.53-88.76l-12.42,9.4c17.2-46.74-187.28-38.83-222.11-34.43-52.81,6.68-59.39,16.45-69.26,73.24C631.71,828.83,618.5,875,668.84,857l-12.73,19.26c44.28,15.71,110.28-.73,158.44,2.9C874.44,883.67,926.11,900.23,947.47,826.64Z"/><path class="cls-46" d="M874.84,872.23c-11.16,0-23.41-1.27-36.38-2.61-7.45-.77-15.15-1.56-23-2.16-5.13-.38-10.55-.57-16.58-.57-14.61,0-30.42,1.15-45.7,2.26-15.51,1.13-31.55,2.3-46.54,2.3a180,180,0,0,1-31.71-2.39l23.12-35L664.89,846c-7.68,2.76-12.35,3.33-14.92,3.33-2.21,0-3.64-.37-4.25-1.11-5-6-.28-31.46,2.84-48.32.72-3.91,1.45-7.85,2.13-11.75,4.61-26.54,8.3-41.49,15.64-49.52,6.55-7.18,17.95-10.87,43.55-14.11,10.93-1.38,45.79,47.82,81.52,47.82,33.51,0,59.67-49.46,82.08-46.28,37.53,5.34,44.88,13.42,46,15,.38.54.59.84.08,2.23l-13.8,37.5,32.78-24.81c4.07,13.19,2.14,26.94,0,42.3a233.76,233.76,0,0,0-2.7,26.61c-11.87,39.42-32.16,47.4-60.94,47.4Z"/><path class="cls-47" d="M942.17,910.26q-7,7.23-14.34,14c10.3-48.44-190-48.64-232.45-39.76-49.63,10.38-52.58,36.74-56.52,88.66-2.93,38.64-18.69,86.62,27.72,50.91,5.22,54.45,86.52,40.47,134,40.26,22.59-.09,57.43,5.14,77.76-3.69,38.73-16.84,23.11,17.69,29-44C959.47,1056.43,965.28,944.72,942.17,910.26Z"/><path class="cls-46" d="M744.32,1054.43c-55.57,0-64.59-15.89-66.08-31.43l-2-21.08-16.78,12.92c-6.76,5.2-11.13,7.73-13.76,9-.37-6.6,1.27-19.15,2.34-27.27,1-7.36,2-15,2.53-22.44,2-26.51,3.68-43.47,9.85-55.41,4.26-8.23,12-17.36,37.39-22.66,12.3-2.58,38.92-4.24,67.8-4.24,75.75,0,137.24,10.6,149.52,25.77,1.6,2,1.52,3.17,1.27,4.32l-7.66,36,27.06-25,2.73-2.54c7,23,6.64,58.62-2.43,75.62-3.93,7.37-7.39,7.41-8.56,7.41h0c-1.9,0-6.12-.78-13-6l-16.76-12.79-2,21c-1.26,13.3-1.57,22.32-1.61,28.39a73.06,73.06,0,0,0-20.39,6c-6.47,2.81-16.27,4.17-30,4.17-7.53,0-15.29-.39-22.81-.77-7-.35-13.65-.68-19.69-.68h-.68c-7.78,0-16.24.42-25.2.82C765.2,1054,754.68,1054.43,744.32,1054.43Z"/><path class="cls-47" d="M588.75,888.18c-96.19-7.89-298.24-39.52-269.47,112,9.9,52.15,25.28,53.17,79.83,60.26,41.52,5.39,175.07,23.25,166.94-26.6,3.23-8.69,25.47,27,33.06,19.79,18.13-17.13,25.82-26.28,34.26-53.45C645.82,960.12,642.23,893.1,588.75,888.18Z"/><path class="cls-46" d="M491.59,1056.29c-33.64,0-67.12-53-86.72-55.6l-7.3,47.75c-24.13-3.13-40.07-5.2-49.24-11.38-7-4.69-12.62-13.13-17.55-39-5.83-30.73-1.9-53.83,12-70.62,19.86-24,60.39-35.65,123.9-35.65,33.35,0,66.85,3.13,96.4,5.89,8.77.82,17,1.59,24.71,2.22,12.77,1.18,22.33,6.69,29.11,16.84,6.27,9.38-34.66,21.64-34,37.15.6,13.86,43.26,30.06,39.27,42.88-7,22.55-12.77,30.67-26.67,44.16-2.45-2.13-5.46-5.15-7.38-7.08-7.53-7.57-13-13-20.38-13a13.5,13.5,0,0,0-12.68,9l-1.08,2.91.5,3.06c.69,4.28-.52,6.4-1.81,7.91C549.45,1047.44,537,1056.29,491.59,1056.29Z"/><path class="cls-47" d="M313.67,909.81l-14.89,9.3c16.32-49.91-127.34-27.72-157.71-28.71-51.57-1.67-172.31-13-103.36,68.25-39.18.15-51,72.91-15.1,89,12.89-12.9,217.35,49.34,209.17-.27,42,14.75,76.72,12.75,63.7-36.91C327.37,1012.23,336.34,942.87,313.67,909.81Z"/><path class="cls-46" d="M194.12,1055.19c-27.42,0-66.12-6.67-100.27-12.55-26.4-4.56-49.21-8.49-62.35-8.49a42,42,0,0,0-7.85.62c-10-7.53-12.59-24.1-9.63-38,2.58-12.13,10.34-26.31,23.73-26.36l25.17-.1L46.64,951.08C32.84,934.8,61,926.38,64,919.87c5.88-12.69,11.56-19.23,28.61-19.23,12.33,0,24.59.52,35.41,1,4.53.19,8.78.37,12.64.5.79,0,1.65,0,2.57,0,6.71,0,16.29-.66,28.42-1.49,16.84-1.17,37.79-2.61,57.57-2.61,46.67,0,56.42,8.44,58.29,11,.46.63,1.52,2.1.11,6.41l-10,30.68,31.6-19.75c8,20.13,6.53,48.06-1.33,63-3.29,6.26-7.08,9.43-11.24,9.43h-.54l-16-.88-29.81,14.48c4.39,16.72,35.71,24.44,33.79,26.92-2.8,3.63-9.11,4.39-13.91,4.39-8.83,0-20.75-2.54-34.48-7.36L187,1023l33.22,26.36a3.61,3.61,0,0,1,.05,1.25h0S216.63,1055.19,194.12,1055.19Z"/><path class="cls-47" d="M256.47,886.39c73-9.42,86-154.72,36.93-139.63,11.59-54.57-112.68-28.61-152.33-29.9-10.39-.33-77.85-12.34-86.91-7.68-53.37,27.44-6.28,36.09-17,52.86-17.53,27.35-25.66-7.19-28.35,27.25C7,812.42.51,839,9.55,861.64q14.23-7.62,28.77-4.9-1.87,11.57-13,18.5C84.71,898.76,189.33,879.13,256.47,886.39Z"/><path class="cls-46" d="M114.7,875.52c-19.38,0-45.68-.73-68.36-6a36.31,36.31,0,0,0,3.54-10.87l20-11.36-29.42-2a52.47,52.47,0,0,0-23,.78c-1.92-12.38-.28-26.19,1.32-39.64.63-5.33,1.28-10.84,1.7-16.17.15-2,.32-3.59.48-4.89.33,0,.66,0,1,0,9.54,0,17.73-5.55,25.05-17,8.16-12.72.08-23.92-3.8-29.31-1.13-1.57-3-4.15-3.3-5.27.35-.81,14.12,25.69,30,17.43.55-.08-9.41-31.39-7.21-31.39,12.55,0,37,3.42,54.86,5.92,12.74,1.78,19.55,2.71,23.15,2.83,1.1,0,2.26,0,3.48,0,9.29,0,21.28-1,35.18-2.14,16.74-1.39,29,17.7,46.32,17.7,34.51,0,51.69-14.16,54.83-10.28.8,1,2.9,3.57,1.44,10.43l-32.85,20.93,47.76-7.3a11.34,11.34,0,0,1,3.35-.58c6.19,0,9.79,12.09,10.51,23.32,2.28,35.57-17.33,88-54.46,93.89a377,377,0,0,0-38-1.63c-16.22,0-33.74.64-50.67,1.26-17.5.64-35.6,1.3-52.91,1.3Z"/><path class="cls-47" d="M256.47,712.85c58.5-7.55,86.17-92.69,61.3-143.13q-4,10.6-15,11.3c-6.42-5.53,4.59-27-.67-30.22-22.11-13.47-35.67-8.65-57.85-10.3-43.37-3.23-90.77,2.15-134.6,1.35-38.39-.71-61.29-13.66-87.62,19.18-30.95,38.6-17.4,92.69,8.28,115.5C-38.43,693.86,81,703.15,93.07,703.32,148.12,704.1,201.56,706.91,256.47,712.85Z"/><path class="cls-46" d="M256.28,701.05c-51.67-5.54-108.45-39.22-166.48-40-9.12-.13-30.62,28.18-49.52,25.08l14.39-3.63-16.56-14.7C17,649,4.13,602.11,31.2,568.35c12-14.9,22-17.89,34.42-17.89,5.59,0,11.9.64,18.58,1.31,7.47.76,15.93,1.62,25.26,1.79,3.08.05,6.32.08,9.63.08,15.55,0,31.64-.63,47.21-1.24s31.48-1.23,46.86-1.23c11.24,0,21.13.33,30.25,1,5.26.39,10.06.44,14.46.44h4.63c10.92,0,18.78.42,28.94,5.6-.21,1.14-.45,2.34-.65,3.32-1.79,8.84-44.43,21.79-35.84,29.2L298.76,593l4.78-.3a30.46,30.46,0,0,0,9.25-2c5.29,23,1.57,51.18-10.55,73.78C295.76,676.58,281.25,697.19,256.28,701.05Z"/><path class="cls-47" d="M256.47,365.75c58.06-7.49,92-104.13,55.81-152q-3.78,9.64-12.86,7.55a23.77,23.77,0,0,1-.74-19.82,107.73,107.73,0,0,0-42.21-9.23c-18.14-5.07-64.86,4.39-83.56,4.45-64.51.22-126.6-30-157.19,36.1C-61.76,400.11,161.3,355.46,256.47,365.75Z"/><path class="cls-46" d="M257.42,351.61c-15.09-1.53-32.46-1.74-47.57-1.74-7.51,0-15.08.06-23.1.12s-16.43.13-24.76.13h0c-62.66,0-123.32-4.18-142.71-34.51-11.12-17.41-8.35-44.42,8.25-80.27,13.84-29.88,33.65-36,59.15-36,12,0,25,1.5,38.82,3.08,15.44,1.78,31.41,3.61,47.9,3.61h.74c7.26,0,17.39-1.22,29.11-2.61,13.23-1.56,28.22-3.33,39.6-3.33,6.48,0,9.91.57,11.64,1.06l1.47.41,1.52,0c9.88.15-2.5,27.65,6.85,30.75-.32,6,10.12,3.71,12.88,9.37l14.15-10.28-.09,23.16c1.93.45,10.56-23.58,12.4-23.58a21.19,21.19,0,0,0,7-1.15c8.73,20.34,7.88,48.47-3,74.28C296.51,330.73,277.79,348.37,257.42,351.61Z"/><path class="cls-47" d="M256.47,192.21C305.91,185.83,325.1,138,323.21,92,320.78,32.81,298.1,26.2,245,17.4,205.24,10.8,162,7,121.8,8,69.94,9.22,14.08,1.48,61.11,59.76,39.56,92.58,10.39,43.13,6.9,110.57c-2.7,52,1.95,39.15,46.64,50.78L20,178.69C73.75,206.8,192.61,185.31,256.47,192.21Z"/><path class="cls-46" d="M74.27,147.68l-18.95-4.34c-9.66-2.21-17.46-3.45-23.72-4.45C26.21,138,19.5,137,18.22,136c-2.22-2.66-1.19-20.21-.8-26.81.33-5.58.07-17.68,4.55-22.18s17.18-1.29,23.7-2.68c3.75-.8,7.32-2.08,11.17-2.42,5.57-.49,11.57,2,17,1.12,11.14-1.75,11.43-22.3,11.07-31.19A5.8,5.8,0,0,0,84.26,49a5.43,5.43,0,0,0-2.36-1.83A30.56,30.56,0,0,0,69.41,44.1c-2.84-.09-7.24,1.57-9.87.39-2.06-.93-7.38-8.7-5.52-10.87.07-.1,2-2.28,13-3.58,9.56-1.14,22-1.18,35.12-1.22,6.14,0,12.5,0,18.81-.17,4-.08,8.19-.13,12.34-.13A768,768,0,0,1,242,36.81c51.41,7.5,66.32,11.63,68.38,55.89,1.51,32.32-12.09,71.75-55.23,77.39-9.16-.81-19.92-1.21-32.82-1.21-16.12,0-33.38.6-51.66,1.23-18.8.64-38.25,1.31-56.89,1.31-4.34,0-9,0-13.81-.13"/><path class="cls-47" d="M266.66,96.46s-40.9,2.34-91.36,2.34-91.36-2.34-91.36-2.34,40.9-2.34,91.36-2.34S266.66,96.46,266.66,96.46Z"/><path class="cls-47" d="M469.29,53.83s-22,1.52-49.19,1.52-49.19-1.52-49.19-1.52,22-1.51,49.19-1.51S469.29,53.83,469.29,53.83Z"/><path class="cls-47" d="M739.86,140.51s-18.62.82-41.58.82-41.58-.82-41.58-.82,18.62-.83,41.58-.83S739.86,140.51,739.86,140.51Z"/><path class="cls-47" d="M1067.82,223.81a292.41,292.41,0,0,1-39.82,2.74,292.47,292.47,0,0,1-39.83-2.74,290.79,290.79,0,0,1,79.65,0Z"/><path class="cls-47" d="M526.69,779.32s-40.91,2.34-91.36,2.34S344,779.32,344,779.32s40.9-2.34,91.36-2.34S526.69,779.32,526.69,779.32Z"/><path class="cls-47" d="M1734.28,582.81s-24.91,2.13-55.63,2.13-55.64-2.13-55.64-2.13,24.91-2.13,55.64-2.13S1734.28,582.81,1734.28,582.81Z"/><path class="cls-47" d="M1826.81,256.07a437.56,437.56,0,0,1-50.36,2.92,437.63,437.63,0,0,1-50.37-2.92,437.3,437.3,0,0,1,100.73,0Z"/><path class="cls-47" d="M1187.29,481.49a378.32,378.32,0,0,1-78.47,0,378.32,378.32,0,0,1,78.47,0Z"/><path class="cls-5" d="M1774.32,497.43a81.86,81.86,0,0,0,16.54-49.17c0-28.35-14.69-53.5-37.35-69.21A81.82,81.82,0,0,0,1770,329.89c0-35.6-23.14-66.14-56.17-79.3a80.82,80.82,0,0,0,5.3-28.78c0-47.61-41.41-86.21-92.5-86.21-1,0-2,0-3,.07-10.36-37-46.5-64.4-89.5-64.4a97.67,97.67,0,0,0-39.62,8.3c-16.94-17.72-41.6-28.89-69.07-28.89-36.86,0-68.68,20.1-83.54,49.18-44.59,3.22-80.32,35.88-84.79,77.16-31.68,13.68-53.66,43.56-53.66,78.24a82,82,0,0,0,1.07,13.18c-33.24,13.07-56.57,43.72-56.57,79.46,0,33.45,20.45,62.42,50.33,76.72a80.89,80.89,0,0,0-8.71,36.51c0,40,29.24,73.62,68.87,83.35a81,81,0,0,0-1.81,17c0,47.61,41.42,86.2,92.5,86.2a97.11,97.11,0,0,0,47.57-12.27c17,18.53,42.19,30.29,70.37,30.29a96.82,96.82,0,0,0,52.34-15.14A95.68,95.68,0,0,0,1585.05,676c33.08,0,62.09-16.2,78.44-40.53a96.54,96.54,0,0,0,55.68,17.37c51.08,0,92.5-38.6,92.5-86.21C1811.67,538.29,1797,513.14,1774.32,497.43Z"/><rect class="cls-48" x="1430.47" y="490.14" width="101.24" height="101.22"/><ellipse class="cls-48" cx="1506.02" cy="498.94" rx="21.15" ry="35.21"/><ellipse class="cls-48" cx="1460.69" cy="485" rx="21.15" ry="33.01"/><rect class="cls-48" x="1450.11" y="273.03" width="60.44" height="198.04"/><path class="cls-48" d="M1479.57,273h27.2s1.51-95.35,77.06-58.68c0,0,147.33,60.88-14.35,148.9,0,0-34.75,96.82-58.93,110"/><path d="M1480.33,443.93c-17.11,0-31,13.46-31,30.07s13.87,30.07,31,30.07"/><path class="cls-48" d="M1480.33,273h-27.2s-1.51-95.35-77.06-58.68c0,0-147.32,60.88,14.35,148.9,0,0,34.76,96.82,58.93,110"/><path class="cls-49" d="M1435.75,278.16S1395,287,1387.4,345.64"/><path class="cls-50" d="M1357.18,433.66s52.89,30.81,83.11,14.67"/><path class="cls-50" d="M1367.76,461.53s48.35,10.27,72.53-4.4"/><path class="cls-50" d="M1373.8,489.4s55.91-8.8,71-27.87"/><path class="cls-48" d="M1430,594.69s-23.7-29.74-20.68-62c0,0,.25-45.94,33.75-64.41"/><path d="M1479.57,443.93c17.11,0,31,13.46,31,30.07s-13.87,30.07-31,30.07"/><path class="cls-49" d="M1524.15,278.16s40.8,8.81,48.35,67.48"/><path class="cls-50" d="M1602.72,433.66s-52.88,30.81-83.1,14.67"/><path class="cls-50" d="M1592.14,461.53s-48.35,10.27-72.52-4.4"/><path class="cls-50" d="M1586.1,489.4s-55.91-8.8-71-27.87"/><path class="cls-48" d="M1529.44,594.79s24.17-29.84,21.15-62.11c0,0-.25-45.94-33.74-64.41"/><ellipse class="cls-51" cx="1448.6" cy="341.98" rx="30.22" ry="46.94"/><ellipse cx="1449.35" cy="363.25" rx="18.89" ry="25.67"/><ellipse class="cls-51" cx="1510.55" cy="341.98" rx="30.22" ry="46.94"/><ellipse cx="1510.55" cy="363.25" rx="18.89" ry="25.67"/><ellipse class="cls-5" cx="1450.86" cy="374.98" rx="8.31" ry="12.47"/><ellipse class="cls-5" cx="1509.79" cy="374.98" rx="8.31" ry="12.47"/><ellipse class="cls-5" cx="1443.31" cy="359.58" rx="3.78" ry="4.4"/><ellipse class="cls-5" cx="1517.35" cy="359.58" rx="3.78" ry="4.4"/><rect class="cls-48" x="1429.99" y="588.54" width="99.19" height="6.15"/><line class="cls-52" x1="1371.21" y1="74.17" x2="1397.54" y2="96.59"/><line class="cls-52" x1="1441.42" y1="74.17" x2="1415.09" y2="96.59"/><ellipse class="cls-51" cx="1450.19" cy="130.23" rx="24.86" ry="23.82"/><path class="cls-5" d="M1441.42,128.82c0-7,6.22-12.61,13.89-12.61s18.29,7.05,18.29,14"/><ellipse class="cls-53" cx="1448" cy="137.23" rx="9.51" ry="12.61"/><path class="cls-5" d="M1442.88,134.43a5.86,5.86,0,0,1,11.7,0"/><ellipse class="cls-5" cx="1445.07" cy="140.74" rx="2.19" ry="2.1"/><ellipse class="cls-51" cx="1368.29" cy="128.82" rx="24.86" ry="23.82"/><path class="cls-5" d="M1377.06,127.42c0-7-6.22-12.61-13.89-12.61s-18.29,7-18.29,14"/><ellipse class="cls-53" cx="1370.48" cy="135.83" rx="9.51" ry="12.61"/><path class="cls-5" d="M1375.6,133a5.86,5.86,0,0,0-11.7,0"/><ellipse class="cls-5" cx="1373.4" cy="139.33" rx="2.19" ry="2.1"/><line class="cls-52" x1="1643.84" y1="492.41" x2="1669.98" y2="514.67"/><line class="cls-52" x1="1713.55" y1="492.41" x2="1687.41" y2="514.67"/><ellipse class="cls-51" cx="1722.26" cy="548.07" rx="24.69" ry="23.65"/><path class="cls-5" d="M1713.55,546.68c0-6.92,6.18-12.53,13.79-12.53s18.16,7,18.16,13.92"/><ellipse class="cls-53" cx="1720.08" cy="555.03" rx="9.44" ry="12.52"/><path class="cls-5" d="M1715,552.24a5.82,5.82,0,0,1,11.62,0"/><ellipse class="cls-5" cx="1717.18" cy="558.5" rx="2.18" ry="2.09"/><ellipse class="cls-51" cx="1640.94" cy="546.68" rx="24.69" ry="23.65"/><path class="cls-5" d="M1649.65,545.29c0-6.92-6.18-12.53-13.8-12.53s-18.15,7-18.15,13.92"/><ellipse class="cls-53" cx="1643.11" cy="553.63" rx="9.44" ry="12.52"/><path class="cls-5" d="M1648.2,550.85a5.82,5.82,0,0,0-11.62,0"/><ellipse class="cls-5" cx="1646.02" cy="557.11" rx="2.18" ry="2.09"/><path class="cls-47" d="M981.21,59.51,938.72,72.39C985.31,3.3,575.2,34,488.49,32.64,341.28,30.33-3.4,14.57,193.42,127.14,81.56,127.34,48,228.06,150.31,250.37c36.8-17.86,620.5,68.31,597.15-.37,120,20.42,219,17.65,181.82-51.1C1020.33,201.31,1046,105.29,981.21,59.51Z"/><path class="cls-46" d="M639.94,260.78c-78.28,0-188.76-9.23-286.24-17.38-75.38-6.3-140.48-11.74-178-11.74-7.28,0-14.95.16-22.39.86-28.69-10.43-36-33.38-27.5-52.67,7.35-16.79,29.51-36.43,67.75-36.5l71.84-.13-46.46-26.57c-39.4-22.54,41-34.2,49.63-43.21,16.77-17.56,33-26.62,81.68-26.62,35.2,0,70.2.71,101.08,1.35,12.93.26,25.06.51,36.08.68,2.27,0,4.72,0,7.35,0,19.15,0,46.5-.91,81.12-2.07,48.07-1.61,107.9-3.62,164.37-3.62,133.22,0,161,11.69,166.4,15.27,1.29.87,4.33,2.9.3,8.87L878.3,109.83l90.22-27.35c22.73,27.87,18.66,66.54-3.78,87.2-9.42,8.66-20.22,13-32.11,13h0c-.51,0-1,0-1.53,0l-45.8-1.21-85.09,20.05c12.52,23.13,101.93,33.83,96.46,37.27-8,5-26,6.07-39.7,6.07-25.21,0-59.25-3.52-98.44-10.19L619.65,216.14l94.82,36.5c.42,1.23.15,1.73.15,1.73h0S704.19,260.78,639.94,260.78Z"/><path class="cls-5" d="M405.23,228.81q-11.72-1.09-19.27-1.1a189.58,189.58,0,0,0-20.46,1.49q-1-8.91-6.75-30.29-5.08-18.78-5.9-27.69-.19-2.06,1.8-6.72c1.33-3.11,1.87-5.48,1.6-7.13q-.4-3.42-3.6-10.15-4-8.49-4.79-11.65a20.76,20.76,0,0,0-12.2,7.82q-2.81,3.57-6.1,11.45c-2.2,5.25-4.3,9.12-6.29,11.58q-5,6.18-14.4,20.71-12.39,19.05-15.19,23h-12.2q-17.19-24.27-53.37-72.81-3.81,3.43-4.4,9.6-4.61,40.59-8.8,82.27l-18.39-9.33A42.38,42.38,0,0,0,177.73,215q15.81-9.6,18.82-24.55.6-11.39,1.41-22.77,3.79-18.37,10.81-56,9.4-3.57,26.24-10.7l55.22,78.07q12.39-12.62,27.6-38.12l24.8-41.56h26.81q2.21,17.56,10.4,59l11,56.08Q392,220.59,405.23,228.81Z"/><path class="cls-5" d="M539.17,222.91q0,2.47-2.79,4.39a11.05,11.05,0,0,1-6.4,1.92H431.62V114.32q0-4.11-15.39-14.53,82.56,0,105.95,1.09c5.86.28,8,.41,6.4.41q0,1.65-3.6,7.41-4.2,6.85-4.8,8.09Q511.39,108,479,108q-14,0-20.19,3.16-7.2,3.84-7.2,13c0,1.1.07,2.79.2,5.07s.2,4,.2,5.08v12.2q1.39,8,9.6,8,3.19,0,9.39-.34c4.13-.23,7.27-.34,9.4-.34a213.33,213.33,0,0,1,27.79,1.92c0,1.28-1.14,3.65-3.4,7.13q-4,6-5.2,8.36-3.79-5.62-11.39-7-2.2-.4-15.6-.55a59.29,59.29,0,0,1-11.39-1.23q-4,2.33-4,5.34a360.94,360.94,0,0,0,3.2,44.7q.39,2.88,6,5.42a24.71,24.71,0,0,0,10,2.54q12.19,0,38.18-2.2,4.39-.41,15.8-8.23Z"/><path class="cls-5" d="M730.69,169.58q0,27.69-23.49,44.56T643.53,231q-40.38,0-65.57-19.88-24-18.92-24-46.89,0-29.62,24.79-48.68,26-19.87,68.77-19.88,2.6,0,41,5.35,4.2,0,7.8,4c.26.82.07,2.42-.6,4.79a28.76,28.76,0,0,0-1,5.08,3.89,3.89,0,0,0,.6,2.33q2.79,4,12,10.56t12.2,10.69a76.88,76.88,0,0,1,8.6,15.08A46,46,0,0,1,730.69,169.58Zm-28.18-5.35a59,59,0,0,0-2-13.16q-2.61-10.69-6.8-16.18-1.4-1.78-5.6-3.77a26.87,26.87,0,0,1-5.6-3.23,103.48,103.48,0,0,0-1.59-12.34q-1.81-1.64-15.9-5.48t-17.49-3.84q-30.39,0-49.38,19.74-16,16.74-16,35.65,0,18.38,13.19,36.61,17.4,24,47,24,32.58,0,48.38-20.71Q702.5,186,702.51,164.23Z"/><path class="cls-5" d="M991,103.35q-14,4.25-17.2,9.19-12.79,20-28,59.09-19.41,49.77-24,59.37-1.8-.81-15-4.11-10.4-2.61-13.8-6.72-7.78-9.46-13.79-28.52-7.2-22.62-11-30-11.6,14.43-37.18,69.38H809.26q-24.79-71.64-39.38-106.37-2.61-6.18-11-12.91-2.6-2.06-13.19-10.29,42.39-.27,44.59,1.24a8.54,8.54,0,0,1,2.4-.42,2.94,2.94,0,0,1,2.4,1q6,17.15,14.2,48.82,10,38.66,14,51.41c.66.19,1.46-.27,2.4-1.37q13-22.75,39.39-73.22,5.8,0,18.6,5.35,7.8,21.12,27.8,69.11a40.28,40.28,0,0,0,10.4-16.58q3.4-9.33,12.43-33.86Q941,134.07,941,121a42.71,42.71,0,0,0-3-16.18q11-1.78,33.58-1.78Q980.4,103.08,991,103.35Z"/></g><ellipse class="cls-2" cx="480.07" cy="747.65" rx="86.72" ry="202.36"/><path class="cls-2" d="M480.07,547.92S431,537.41,396,558.43c0,0-64.82-108.62-194.47-101.62,0,0-59.56,133.16,0,236.52L252.31,632a504,504,0,0,0-50.82,67.76C183.44,728.86,167,763.36,164.71,795c0,0,119.14,143.66,282.07,131.4"/><path class="cls-3" d="M434.52,779.18S389,656.54,313.63,674.06,203.26,779.18,434.52,779.18Z"/><path class="cls-3" d="M390.72,821.23s-26.28,56.06,43.8,54.31c0,0,40.29,3.5,45.55-43.8"/><path class="cls-3" d="M422.25,831.74s-283.82,14-296.08,33.29"/><path class="cls-3" d="M322.39,602.23S275.09,477.84,201.5,456.81"/><path class="cls-2" d="M467.81,547.92s49.05-10.51,84.09,10.51c0,0,64.83-108.62,194.47-101.62,0,0,59.57,133.16,0,236.52L695.57,632a503.52,503.52,0,0,1,50.81,67.76c18.06,29.09,34.53,63.59,36.78,95.18,0,0-119.13,143.66-282.07,131.4"/><path class="cls-3" d="M569.85,821.23s26.28,56.06-43.8,54.31c0,0-40.29,3.5-45.55-43.8"/><path class="cls-3" d="M541.39,831.74s283.82,14,296.09,33.29"/><path class="cls-3" d="M516.06,779.18s45.55-122.64,120.88-105.12S747.32,779.18,516.06,779.18Z"/><path class="cls-3" d="M634.25,602.23s47.3-124.39,120.88-145.42"/><ellipse class="cls-2" cx="221.65" cy="679.32" rx="24.53" ry="32.41" transform="translate(-140.77 63.48) rotate(-12.41)"/><ellipse class="cls-2" cx="731.79" cy="670.94" rx="20.37" ry="28.3" transform="translate(-127.06 172.88) rotate(-12.41)"/><path class="cls-4" d="M435.39,779.18s-33.22-89.45-88.17-76.67S266.72,779.18,435.39,779.18Z"/><path class="cls-4" d="M516,779.18s33.22-89.45,88.17-76.67S684.66,779.18,516,779.18Z"/><path class="cls-5" d="M638.75,736.56c0-18.55-19.48-33.59-43.5-33.59s-43.5,15-43.5,33.59"/><ellipse class="cls-6" cx="558.55" cy="755.59" rx="28.55" ry="24.47"/><path class="cls-5" d="M578.94,750.15s-10-19.37-29.91-9.68"/><path class="cls-7" d="M517.73,834.54l-71.63-3.25a5.92,5.92,0,0,1-4.83-8.93l34.3-58a5.92,5.92,0,0,1,10.16-.07l37.32,61.22A5.92,5.92,0,0,1,517.73,834.54Z"/><path class="cls-5" d="M312.75,736.56c0-18.55,19.48-33.59,43.5-33.59s43.5,15,43.5,33.59"/><ellipse class="cls-6" cx="392.95" cy="755.59" rx="28.55" ry="24.47"/><path class="cls-5" d="M372.56,750.15s10-19.37,29.91-9.68"/><circle class="cls-5" cx="375.83" cy="757.28" r="3.5"/><circle class="cls-5" cx="580.81" cy="757.28" r="3.5"/><path class="cls-3" d="M296.11,618s-49.05,17.52-71.83,57.81"/><path class="cls-3" d="M664,618s49.06,17.52,71.83,57.81"/><path class="cls-3" d="M420.5,849.26s-273.31,50.81-290.83,77.09"/><path class="cls-3" d="M537.89,849.26s273.31,50.81,290.83,77.09"/><path class="cls-7" d="M516,876.42c0,36.77-17.65,66.57-39.42,66.57s-39.42-29.8-39.42-66.57"/><g class="cls-12"><g class="cls-12"><g class="cls-54"><g class="cls-12"><path class="cls-55" d="M1181.51,567.66l-6.41-4.2c11.55-8,11.38-25-.13-32.57l6.41,4.2c11.51,7.54,11.68,24.6.13,32.57"/></g></g></g><g class="cls-12"><g class="cls-56"><g class="cls-12"><path class="cls-55" d="M1181.51,567.66l-6.41-4.2c11.55-8,11.38-25-.13-32.57l6.41,4.2c11.51,7.54,11.68,24.6.13,32.57"/></g></g></g><g class="cls-12"><g class="cls-57"><g class="cls-12"><path class="cls-20" d="M1180.87,534.76l-6.41-4.19.51.32,6.41,4.2-.51-.33"/></g></g></g><polygon class="cls-58" points="964.06 717.92 957.65 713.73 1175.1 563.46 1181.51 567.66 964.06 717.92"/><g class="cls-12"><g class="cls-59"><g class="cls-12"><path class="cls-60" d="M959.69,720.22l-6.41-4.2a19.41,19.41,0,0,0,3.43-1.68l6.41,4.2a20.9,20.9,0,0,1-3.43,1.68"/><path class="cls-55" d="M963.12,718.54l-6.41-4.2.94-.61,6.41,4.19c-.31.22-.63.42-.94.62"/></g></g></g><g class="cls-12"><g class="cls-61"><g class="cls-12"><path class="cls-62" d="M942.29,718.25l-6.41-4.2c.53.35,1.08.67,1.65,1l6.41,4.2c-.57-.3-1.12-.62-1.65-1"/><path class="cls-63" d="M943.94,719.22l-6.41-4.2a19.9,19.9,0,0,0,5.85,2l6.41,4.19a19.69,19.69,0,0,1-5.85-2"/><path class="cls-64" d="M949.79,721.18,943.38,717a19.32,19.32,0,0,0,3.65.25l6.41,4.2a19.32,19.32,0,0,1-3.65-.26"/><path class="cls-65" d="M953.44,721.44l-6.41-4.2h.11a18.73,18.73,0,0,0,3.05-.34l6.41,4.2a19.91,19.91,0,0,1-3.05.34h-.11"/><path class="cls-66" d="M956.6,721.1l-6.41-4.2a18.58,18.58,0,0,0,3.09-.88l6.41,4.2a20.39,20.39,0,0,1-3.09.88"/><path class="cls-60" d="M959.69,720.22l-6.41-4.2a19.41,19.41,0,0,0,3.43-1.68l6.41,4.2a20.9,20.9,0,0,1-3.43,1.68"/></g></g></g><g class="cls-12"><g class="cls-67"><g class="cls-12"><path class="cls-30" d="M942.29,718.25l-6.41-4.2a19.16,19.16,0,0,1-8.7-15.85l6.41,4.2a19.16,19.16,0,0,0,8.7,15.85"/></g></g></g><polygon class="cls-31" points="957.83 397.98 951.42 393.78 1174.46 530.57 1180.87 534.76 957.83 397.98"/><g class="cls-12"><g class="cls-68"><g class="cls-12"><path class="cls-33" d="M947.19,395.11l-6.41-4.2h.1l6.41,4.2h-.1"/><path class="cls-34" d="M947.29,395.11l-6.41-4.2a18.81,18.81,0,0,1,3.58.25l6.41,4.2a18.81,18.81,0,0,0-3.58-.25"/><path class="cls-35" d="M950.87,395.36l-6.41-4.2a19.21,19.21,0,0,1,5.68,1.9l6.41,4.2a18.84,18.84,0,0,0-5.68-1.9"/><path class="cls-20" d="M956.55,397.26l-6.41-4.2c.43.22.86.46,1.28.72l6.41,4.2c-.42-.26-.85-.5-1.28-.72"/></g></g></g><g class="cls-12"><g class="cls-69"><g class="cls-12"><path class="cls-65" d="M1015.4,285.16,1009,281l1.45,0,6.41,4.2-1.45,0"/><path class="cls-64" d="M1016.85,285.12l-6.41-4.2a262.25,262.25,0,0,1,49.85,3.48l6.41,4.2a262.2,262.2,0,0,0-49.85-3.48"/><path class="cls-63" d="M1066.7,288.6l-6.41-4.2a257.57,257.57,0,0,1,77.23,26l6.41,4.2a257.57,257.57,0,0,0-77.23-26"/><path class="cls-62" d="M1143.93,314.56l-6.41-4.2q11.12,5.83,21.58,12.69l6.41,4.19q-10.46-6.84-21.58-12.68"/></g></g></g><polygon class="cls-36" points="933.59 702.4 927.18 698.2 921.59 411.15 928 415.35 933.59 702.4"/><g class="cls-12"><g class="cls-70"><g class="cls-12"><path class="cls-30" d="M928,415.35l-6.41-4.2A19.68,19.68,0,0,1,931,393.87l6.41,4.19A19.7,19.7,0,0,0,928,415.35"/><path class="cls-38" d="M937.44,398.06,931,393.87a20.33,20.33,0,0,1,3.47-1.71l6.41,4.2a21.44,21.44,0,0,0-3.47,1.7"/><path class="cls-39" d="M940.91,396.36l-6.41-4.2a20.39,20.39,0,0,1,3.19-.9l6.41,4.2a19.36,19.36,0,0,0-3.19.9"/><path class="cls-33" d="M944.1,395.46l-6.41-4.2a18.74,18.74,0,0,1,3.09-.35l6.41,4.2a18.74,18.74,0,0,0-3.09.35"/></g></g></g><path class="cls-42" d="M947.19,395.11A19.1,19.1,0,0,1,957.83,398l223,136.78c12,7.37,12.36,24.81.64,32.9L964.06,717.92a19.33,19.33,0,0,1-30.47-15.52l-5.59-287A19.87,19.87,0,0,1,947.19,395.11Z"/><g class="cls-12"><g class="cls-71"><g class="cls-12"><path class="cls-55" d="M875.56,771l-6.41-4.19A260.7,260.7,0,0,1,751.37,552.94c-1.91-97.83,49.42-184.85,127.25-232.85l6.41,4.2c-77.83,48-129.16,135-127.25,232.84A260.67,260.67,0,0,0,875.56,771"/><path class="cls-60" d="M885,324.29l-6.41-4.2a264.43,264.43,0,0,1,45.68-22.43l6.42,4.2A264.17,264.17,0,0,0,885,324.29"/><path class="cls-66" d="M930.72,301.86l-6.42-4.2a262.57,262.57,0,0,1,42.23-12l6.41,4.2a262.16,262.16,0,0,0-42.22,12"/><path class="cls-65" d="M972.94,289.9l-6.41-4.2A263.64,263.64,0,0,1,1009,281l6.41,4.2a263.64,263.64,0,0,0-42.46,4.74"/></g></g></g><path class="cls-72" d="M1015.4,285.16c145.12-4.44,265.06,110.13,267.9,255.9S1170.8,808.6,1025.68,813,760.62,702.91,757.78,557.13,870.28,289.6,1015.4,285.16Zm166.11,282.5c11.72-8.09,11.38-25.53-.64-32.9L957.83,398a19.1,19.1,0,0,0-10.64-2.87A19.86,19.86,0,0,0,928,415.35l5.59,287a19.33,19.33,0,0,0,30.47,15.52l217.45-150.26"/></g><g class="cls-12"><g class="cls-12"><g class="cls-73"><g class="cls-12"><path class="cls-26" d="M1810.36,915.45l-3.6-2.68q2.81-.06,5.55.12l3.61,2.68c-1.84-.12-3.69-.16-5.56-.12"/><path class="cls-25" d="M1815.92,915.57l-3.61-2.68a64.35,64.35,0,0,1,11.1,1.71l3.6,2.68a62.5,62.5,0,0,0-11.09-1.71"/><path class="cls-24" d="M1827,917.28l-3.6-2.68a63.92,63.92,0,0,1,14.64,5.62l3.61,2.68a62.92,62.92,0,0,0-14.65-5.62"/><path class="cls-23" d="M1841.66,922.9l-3.61-2.68a63.48,63.48,0,0,1,7.9,5l3.61,2.67a63.41,63.41,0,0,0-7.9-5"/></g></g></g><ellipse class="cls-74" cx="1811.47" cy="979.34" rx="64" ry="63.74" transform="translate(-54.16 1851.09) rotate(-53.44)"/><g class="cls-12"><g class="cls-75"><g class="cls-12"><path class="cls-18" d="M1773.39,1030.78l-3.61-2.67A64,64,0,0,1,1780.52,919l3.6,2.67a64.23,64.23,0,0,0-36.47,59,63.53,63.53,0,0,0,25.74,50.08"/><path class="cls-28" d="M1784.12,921.68l-3.6-2.67a63.14,63.14,0,0,1,11.26-4.14l3.61,2.67a63.74,63.74,0,0,0-11.27,4.14"/><path class="cls-27" d="M1795.39,917.54l-3.61-2.67a63.56,63.56,0,0,1,10.21-1.82l3.6,2.67a64.56,64.56,0,0,0-10.2,1.82"/><path class="cls-26" d="M1805.59,915.72l-3.6-2.67c1.57-.15,3.16-.24,4.77-.28l3.6,2.68q-2.41,0-4.77.27"/></g></g></g></g><g class="cls-12"><g class="cls-12"><g class="cls-76"><g class="cls-12"><path class="cls-30" d="M1838.06,1006.69l-5.27-2.09a3.47,3.47,0,0,1-1.18-.78l5.27,2.09a3.29,3.29,0,0,0,1.18.78"/></g></g></g><g class="cls-12"><g class="cls-77"><g class="cls-12"><path class="cls-30" d="M1845.73,984.18l-5.26-2.09a34.6,34.6,0,0,0,0-11.14l5.26,2.09a34.3,34.3,0,0,1,.46,6,35.51,35.51,0,0,1-.44,5.19"/></g></g></g><g class="cls-12"><g class="cls-78"><g class="cls-12"><path class="cls-30" d="M1845.73,984.18l-5.26-2.09a34.6,34.6,0,0,0,0-11.14l5.26,2.09a34.3,34.3,0,0,1,.46,6,35.51,35.51,0,0,1-.44,5.19"/></g></g></g><g class="cls-12"><g class="cls-79"><g class="cls-12"><path class="cls-33" d="M1848.31,973.05l-5.26-2.09.36,0,5.26,2.09-.36,0"/><path class="cls-34" d="M1848.67,973.07l-5.26-2.09a3.78,3.78,0,0,1,.74.17l5.26,2.09a3.62,3.62,0,0,0-.74-.17"/><path class="cls-35" d="M1849.41,973.24l-5.26-2.09.15.05,5.26,2.09-.15,0"/></g></g></g><g class="cls-12"><g class="cls-80"><g class="cls-12"><path class="cls-30" d="M1835.08,1004.07l-5.27-2.09a35,35,0,0,0,6.89-8.87l5.27,2.09a35.07,35.07,0,0,1-6.89,8.87"/></g></g></g><polygon class="cls-36" points="1836.88 1005.91 1831.61 1003.82 1829.81 1001.98 1835.08 1004.07 1836.88 1005.91"/><polygon class="cls-81" points="1845.71 973.04 1840.45 970.95 1843.05 970.96 1848.31 973.05 1845.71 973.04"/><g class="cls-12"><g class="cls-82"><g class="cls-12"><path class="cls-30" d="M1845.73,984.18l-5.26-2.09a34.6,34.6,0,0,0,0-11.14l5.26,2.09a34.3,34.3,0,0,1,.46,6,35.51,35.51,0,0,1-.44,5.19"/></g></g></g><g class="cls-12"><g class="cls-83"><g class="cls-12"><path class="cls-30" d="M1840.93,960.38l-5.27-2.09a34.52,34.52,0,0,0-7.33-8.33l5.26,2.09a34.56,34.56,0,0,1,7.34,8.33"/></g></g></g><polygon class="cls-84" points="1833.59 952.05 1828.33 949.96 1829.55 948.75 1834.81 950.85 1833.59 952.05"/><g class="cls-12"><g class="cls-85"><g class="cls-12"><path class="cls-34" d="M1804.88,1012.61l-5.26-2.09c1,.21,2.05.37,3.11.48l5.26,2.1c-1-.12-2.09-.28-3.11-.49"/><path class="cls-33" d="M1808,1013.1l-5.26-2.1a31.71,31.71,0,0,0,3.53.2c.92,0,1.84,0,2.75-.09l5.26,2.09c-.91.07-1.82.1-2.75.1-1.19,0-2.37-.08-3.53-.2"/><path class="cls-39" d="M1814.27,1013.2l-5.26-2.09c.56,0,1.12-.1,1.68-.17L1816,1013c-.56.07-1.12.13-1.69.17"/></g></g></g><g class="cls-12"><g class="cls-86"><g class="cls-12"><path class="cls-35" d="M1806.5,992.3l-5.26-2.09.62.23,5.27,2.09-.63-.23"/><path class="cls-34" d="M1807.13,992.53l-5.27-2.09a14.44,14.44,0,0,0,3.09.69l5.26,2.09a14.35,14.35,0,0,1-3.08-.69"/><path class="cls-33" d="M1810.21,993.22l-5.26-2.09q.73.07,1.5.09l5.26,2.09c-.5,0-1,0-1.5-.09"/></g></g></g><g class="cls-12"><g class="cls-87"><g class="cls-12"><path class="cls-33" d="M1811.71,993.31l-5.26-2.09c.39,0,.77,0,1.16-.05l5.26,2.1c-.38,0-.77,0-1.16,0"/><path class="cls-39" d="M1812.87,993.27l-5.26-2.1a13.37,13.37,0,0,0,2.53-.42l5.26,2.1a15,15,0,0,1-2.53.42"/><path class="cls-38" d="M1815.4,992.85l-5.26-2.1a13.75,13.75,0,0,0,2.73-1l5.26,2.09a14.44,14.44,0,0,1-2.73,1"/><path class="cls-30" d="M1818.13,991.83l-5.26-2.09a14.52,14.52,0,0,0-.94-26.52l5.26,2.09a14.52,14.52,0,0,1,.94,26.52"/></g></g></g><g class="cls-12"><g class="cls-88"><g class="cls-12"><path class="cls-30" d="M1799.14,1010.9l-5.26-2.09a34.19,34.19,0,0,1-12.82-8.95,34.57,34.57,0,0,1-8.8-23.31,35.62,35.62,0,0,1,.87-7.43,34.76,34.76,0,0,1,16.16-22.1c.78-.46,1.57-.89,2.39-1.29l5.26,2.09c-.81.4-1.61.83-2.39,1.29a34.8,34.8,0,0,0-16.15,22.1,34.33,34.33,0,0,0-.87,7.43,32.41,32.41,0,0,0,.16,3.7,34.35,34.35,0,0,0,21.45,28.56"/><path class="cls-38" d="M1796.94,947.82l-5.26-2.09a33.67,33.67,0,0,1,6.47-2.4l5.26,2.09a33.92,33.92,0,0,0-6.47,2.4"/><path class="cls-39" d="M1803.41,945.42l-5.26-2.09a32.9,32.9,0,0,1,3.58-.73q1.2-.18,2.43-.27l5.26,2.09c-.82.06-1.62.15-2.42.27a32.59,32.59,0,0,0-3.59.73"/><path class="cls-33" d="M1809.42,944.42l-5.26-2.09c.9-.07,1.82-.1,2.75-.09a31.71,31.71,0,0,1,3.53.2l5.26,2.09a31.58,31.58,0,0,0-3.53-.2c-.92,0-1.84,0-2.75.09"/><path class="cls-34" d="M1815.7,944.53l-5.26-2.09c.8.08,1.59.2,2.37.34a33.23,33.23,0,0,1,5,1.3l5.26,2.09a33.1,33.1,0,0,0-5-1.3c-.79-.14-1.58-.26-2.38-.34"/><path class="cls-35" d="M1823.06,946.17l-5.26-2.09c.5.17,1,.35,1.49.55l5.27,2.09c-.5-.19-1-.38-1.5-.55"/></g></g></g><path class="cls-89" d="M1790,945.88a3.45,3.45,0,0,1,2.46,1l2.14,2.19a34.86,34.86,0,0,0-8.56,7.16l-1.5-1.52a3.51,3.51,0,0,1,0-4.94l2.94-2.92A3.5,3.5,0,0,1,1790,945.88Z"/><path class="cls-89" d="M1845.71,973a34.3,34.3,0,0,1,.46,6,35.51,35.51,0,0,1-.44,5.19,34.65,34.65,0,0,1-3.76,11,35.07,35.07,0,0,1-6.89,8.87,34.27,34.27,0,0,1-19.12,9,36.25,36.25,0,0,1-4.44.27,34.61,34.61,0,0,1-6.64-.69,34.29,34.29,0,0,1-27.19-30.27,32.41,32.41,0,0,1-.16-3.7,34.54,34.54,0,0,1,8.46-22.37,34.86,34.86,0,0,1,8.56-7.16,34.08,34.08,0,0,1,39,2.94,34.29,34.29,0,0,1,12.12,21Zm-34,20.27a14.56,14.56,0,0,0,14.57-14.43,14.41,14.41,0,0,0-14.3-14.57,14.57,14.57,0,0,0-14.57,14.43,14.42,14.42,0,0,0,14.3,14.57"/><path class="cls-89" d="M1842,995.2l2.82,2.87a3.52,3.52,0,0,1,0,4.95l-2.94,2.91a3.48,3.48,0,0,1-4.92,0l-1.8-1.84A35.07,35.07,0,0,0,1842,995.2Z"/><path class="cls-89" d="M1848.31,973.05a3.48,3.48,0,0,1,3.45,3.52l0,4.14a3.52,3.52,0,0,1-3.51,3.48h-2.48a35.51,35.51,0,0,0,.44-5.19,34.3,34.3,0,0,0-.46-6Z"/><g class="cls-12"><g class="cls-90"><g class="cls-12"><path class="cls-33" d="M1837.28,949.84l-5.26-2.09a2.17,2.17,0,0,1,.36,0l5.26,2.09-.36,0"/><path class="cls-34" d="M1837.64,949.86l-5.26-2.09a3.34,3.34,0,0,1,.76.17l5.26,2.09a3.34,3.34,0,0,0-.76-.17"/><path class="cls-35" d="M1838.4,950l-5.26-2.09.15,0,5.26,2.09-.15-.05"/></g></g></g><g class="cls-12"><g class="cls-91"><g class="cls-12"><path class="cls-30" d="M1834.81,950.84l-5.26-2.09a3.61,3.61,0,0,1,.91-.65l5.26,2.09a3.61,3.61,0,0,0-.91.65"/><path class="cls-38" d="M1835.72,950.19l-5.26-2.09a3.71,3.71,0,0,1,.66-.24l5.26,2.09a3.71,3.71,0,0,0-.66.24"/><path class="cls-39" d="M1836.38,950l-5.26-2.09a3.23,3.23,0,0,1,.61-.1l5.27,2.09a3.21,3.21,0,0,0-.62.1"/><path class="cls-33" d="M1837,949.85l-5.27-2.09h.29l5.26,2.09H1837"/></g></g></g><path class="cls-89" d="M1837.28,949.84a3.44,3.44,0,0,1,2.45,1l2.89,2.94a3.51,3.51,0,0,1,0,4.94l-1.64,1.63a34.56,34.56,0,0,0-7.34-8.33l1.22-1.21A3.47,3.47,0,0,1,1837.28,949.84Z"/><g class="cls-12"><g class="cls-92"><g class="cls-12"><path class="cls-30" d="M1807,1019.37l-5.26-2.09a3.51,3.51,0,0,1-2.2-3.28l5.27,2.09a3.49,3.49,0,0,0,2.19,3.28"/></g></g></g><polygon class="cls-36" points="1804.85 1016.09 1799.58 1014 1799.62 1010.52 1804.88 1012.61 1804.85 1016.09"/><path class="cls-89" d="M1804.88,1012.61a34.61,34.61,0,0,0,6.64.69,36.25,36.25,0,0,0,4.44-.27l0,3.12a3.52,3.52,0,0,1-3.52,3.48l-4.12,0a3.48,3.48,0,0,1-3.44-3.52Z"/><g class="cls-12"><g class="cls-93"><g class="cls-12"><path class="cls-33" d="M1814.64,940.23l-5.27-2.09.36,0,5.27,2.09-.36,0"/><path class="cls-34" d="M1815,940.25l-5.27-2.09a3.47,3.47,0,0,1,.74.16l5.27,2.1a3.18,3.18,0,0,0-.74-.17"/><path class="cls-35" d="M1815.74,940.42l-5.27-2.1.16.06,5.26,2.09-.15-.05"/></g></g></g><polygon class="cls-81" points="1810.52 940.21 1805.26 938.12 1809.37 938.14 1814.64 940.23 1810.52 940.21"/><polygon class="cls-36" points="1807 944.69 1801.73 942.6 1801.74 941.6 1807.01 943.69 1807 944.69"/><g class="cls-12"><g class="cls-94"><g class="cls-12"><path class="cls-30" d="M1807,943.69l-5.27-2.09a3.56,3.56,0,0,1,2-3.13l5.27,2.09a3.52,3.52,0,0,0-2,3.13"/><path class="cls-38" d="M1809,940.56l-5.27-2.09a3.71,3.71,0,0,1,.66-.24l5.27,2.09a3.71,3.71,0,0,0-.66.24"/><path class="cls-39" d="M1809.64,940.32l-5.27-2.09a3.11,3.11,0,0,1,.61-.1l5.26,2.09a3,3,0,0,0-.6.1"/><path class="cls-33" d="M1810.24,940.22l-5.26-2.09h.28l5.26,2.09h-.28"/></g></g></g><path class="cls-89" d="M1814.64,940.23a3.49,3.49,0,0,1,3.45,3.52v1.12a34.64,34.64,0,0,0-11.08-.18v-1a3.51,3.51,0,0,1,3.51-3.48Z"/><g class="cls-12"><g class="cls-95"><g class="cls-12"><path class="cls-30" d="M1780.75,1004.55l-5.26-2.09a3.47,3.47,0,0,1-1.19-.8l5.26,2.09a3.42,3.42,0,0,0,1.19.8"/></g></g></g><polygon class="cls-36" points="1779.56 1003.75 1774.3 1001.66 1771.41 998.73 1776.67 1000.82 1779.56 1003.75"/><polygon class="cls-84" points="1776.72 995.87 1771.45 993.78 1774.97 990.29 1780.24 992.39 1776.72 995.87"/><g class="cls-12"><g class="cls-96"><g class="cls-12"><path class="cls-30" d="M1776.67,1000.82l-5.26-2.09a3.52,3.52,0,0,1,0-5l5.26,2.09a3.53,3.53,0,0,0,0,5"/></g></g></g><path class="cls-89" d="M1780.24,992.39a34.31,34.31,0,0,0,6.08,9.56l-1.84,1.83a3.46,3.46,0,0,1-2.47,1,3.41,3.41,0,0,1-2.45-1l-2.89-2.93a3.53,3.53,0,0,1,0-5Z"/><g class="cls-12"><g class="cls-97"><g class="cls-12"><path class="cls-33" d="M1790,945.88l-5.26-2.09.36,0,5.27,2.1c-.12,0-.25,0-.37,0"/><path class="cls-34" d="M1790.32,945.91l-5.27-2.1a4,4,0,0,1,.76.17l5.26,2.09a3.24,3.24,0,0,0-.75-.16"/><path class="cls-35" d="M1791.07,946.07l-5.26-2.09.15.06,5.26,2.09-.15-.06"/></g></g></g><polygon class="cls-36" points="1785.99 956.27 1780.72 954.18 1779.23 952.66 1784.49 954.75 1785.99 956.27"/><g class="cls-12"><g class="cls-98"><g class="cls-12"><path class="cls-30" d="M1787.48,946.89l-5.26-2.09a3.37,3.37,0,0,1,.91-.65l5.27,2.09a3.59,3.59,0,0,0-.92.65"/><path class="cls-38" d="M1788.4,946.24l-5.27-2.09a3.06,3.06,0,0,1,.66-.24l5.26,2.09a3.91,3.91,0,0,0-.65.24"/><path class="cls-39" d="M1789.05,946l-5.26-2.09a3.22,3.22,0,0,1,.62-.11l5.26,2.09a3.36,3.36,0,0,0-.62.11"/><path class="cls-33" d="M1789.67,945.89l-5.26-2.09h.28l5.26,2.09h-.28"/></g></g></g><polygon class="cls-84" points="1784.54 949.81 1779.27 947.72 1782.22 944.8 1787.48 946.89 1784.54 949.81"/><g class="cls-12"><g class="cls-99"><g class="cls-12"><path class="cls-30" d="M1784.49,954.75l-5.26-2.09a3.52,3.52,0,0,1,0-4.94l5.27,2.09a3.51,3.51,0,0,0,0,4.94"/></g></g></g><polygon class="cls-81" points="1773.29 971.19 1768.03 969.1 1773.13 969.12 1778.4 971.21 1773.29 971.19"/><g class="cls-12"><g class="cls-100"><g class="cls-12"><path class="cls-30" d="M1771.93,982.08l-5.26-2.09a3.51,3.51,0,0,1-2.2-3.27l5.27,2.09a3.49,3.49,0,0,0,2.19,3.27"/></g></g></g><polygon class="cls-36" points="1769.74 978.81 1764.47 976.72 1764.51 972.58 1769.78 974.67 1769.74 978.81"/><path class="cls-89" d="M1778.4,971.21a34.33,34.33,0,0,0-.87,7.43,32.41,32.41,0,0,0,.16,3.7l-4.5,0a3.48,3.48,0,0,1-3.45-3.51l0-4.14a3.51,3.51,0,0,1,3.51-3.48Z"/><g class="cls-12"><g class="cls-101"><g class="cls-12"><path class="cls-30" d="M1769.78,974.67l-5.27-2.09a3.55,3.55,0,0,1,2-3.13l5.26,2.09a3.54,3.54,0,0,0-2,3.13"/><path class="cls-38" d="M1771.75,971.54l-5.26-2.09a3.35,3.35,0,0,1,.65-.24l5.27,2.09a3.71,3.71,0,0,0-.66.24"/><path class="cls-39" d="M1772.41,971.3l-5.27-2.09a3.11,3.11,0,0,1,.61-.1l5.26,2.09a3,3,0,0,0-.6.1"/><path class="cls-33" d="M1773,971.2l-5.26-2.09h.28l5.26,2.09H1773"/></g></g></g></g></g></svg>
