<svg xmlns="http://www.w3.org/2000/svg" xmlns:xlink="http://www.w3.org/1999/xlink" viewBox="0 0 1600 900"><defs><style>.cls-1,.cls-23{fill:none;}.cls-2{isolation:isolate;}.cls-3{fill:#8a8a8b;}.cls-4{fill:#69696a;}.cls-5{fill:#999;}.cls-6{clip-path:url(#clip-path);}.cls-7{fill:#663b18;}.cls-8{fill:#592a0b;}.cls-9{fill:#52321d;}.cls-10{fill:#d4af37;}.cls-11{fill:#070707;}.cls-12{clip-path:url(#clip-path-2);}.cls-13{fill:#663100;}.cls-14{fill:#fff;opacity:0.1;}.cls-15{fill:#76461a;}.cls-16{fill:#3d2e1c;}.cls-17{fill:#514333;}.cls-18{fill:#635648;}.cls-19{fill:#838384;}.cls-20{fill:#989899;}.cls-21{fill:#6b6b6c;}.cls-22{fill:#d3ae37;}.cls-23{stroke:#020202;stroke-miterlimit:10;stroke-width:6px;}.cls-24{clip-path:url(#clip-path-3);}.cls-25{fill:#020202;}</style><clipPath id="clip-path"><polygon class="cls-1" points="183.01 816.96 186.03 104.3 448.22 79.54 445.2 792.21 183.01 816.96"/></clipPath><clipPath id="clip-path-2"><polygon class="cls-1" points="644.22 761.59 644.77 41.43 1570.18 40.59 1569.62 760.76 644.22 761.59"/></clipPath><clipPath id="clip-path-3"><polygon class="cls-1" points="553.86 284.74 552.82 211.69 597.06 207.57 598.1 280.62 553.86 284.74"/></clipPath></defs><title>forstescene</title><g id="Layer_2" data-name="Layer 2"><g id="Layer_1" data-name="Layer 1"><g class="cls-2"><polygon class="cls-3" points="1709.97 5.58 1718.22 922.26 580.01 910.17 571.76 -6.51 1709.97 5.58"/><polygon class="cls-4" points="571.76 -6.51 741.77 -32.26 1879.98 -20.17 1709.97 5.58 571.76 -6.51"/></g><g class="cls-2"><polygon class="cls-5" points="620.31 -20.66 622.58 961.11 -39.26 1035.47 -41.53 53.71 620.31 -20.66"/><polygon class="cls-4" points="-41.53 53.71 -465.58 43.88 196.26 -30.48 620.31 -20.66 -41.53 53.71"/></g><g class="cls-2"><g class="cls-6"><path class="cls-7" d="M398.14,84.27l-28.05,2.65q-1.2,72.3-3,144.64-1.21-72.08-1.64-144.2l-32.7,3.09q.66,52.89,1,105.82.87,142,.35,284.24-.69,161.18-3.95,322.56l29.77-2.81q1.36-98.57,3.83-197.21,1.32,78.15,1.72,156.38.13,20.13.22,40.29l30.14-2.85q-1.25-126.43-1.14-253.07l-8.17.77c-3.87.36-7-4.72-7-11.3l.39-92.65c0-6.58,3.22-12.27,7.1-12.63l8-.76q.61-137.82,2.32-275.7.39-33.65.89-67.26"/><path class="cls-7" d="M448.22,79.54,436.94,80.6q-.81,52.89-1.87,105.79-.61-52.77-.89-105.53L400.78,84q.2,33.57.33,67.14.5,137.67,0,275.49l14.57-1.38c3.88-.36,7,4.73,7,11.31l-.39,92.65c0,6.58-3.22,12.26-7.1,12.63l-14.78,1.39q-1,126.72-3.33,253.5l31.14-2.94q1.15-117.93,3.49-235.92.9,78.2,1.12,156.43.15,39.51.21,79l12.16-1.15,3-712.66"/><path class="cls-7" d="M256.14,97.68l-.2,0c0,1.92.07,3.85.1,5.78,0-1.94.06-3.87.1-5.8"/><path class="cls-7" d="M330.78,90.63l-36,3.4q-1.39,94.82-3.84,189.71-1.4-78.15-1.84-156.37-.11-16.4-.19-32.79l-32.65,3.09q.17,19.45.29,38.94.76,55.89,1.11,111.84.93,140.22.44,280.68t-3.16,281l29.38-2.77q1.28-76.08,3.25-152.16,1.33,75.81,1.78,151.68l38.09-3.59q-.49-42.3-.74-84.61-.85-139.63-.36-279.49.74-174.18,4.44-348.6"/><path class="cls-7" d="M255.71,97.72l-31,2.92q-1,72.29-2.58,144.6Q221.23,173.14,221,101l-33.32,3.15q.5,52.92.71,105.85.6,142,.07,284.26-.69,161.18-3.46,322.52l30.58-2.89q1.2-98.55,3.27-197.15,1,78.16,1.27,156.42.09,20.15.14,40.29l30.57-2.89q-.18-19.81-.3-39.65-.91-139.14-.43-278.5.82-197.19,5.66-394.69"/><path class="cls-8" d="M395.05,543.76l-.41,0q-.06,126.63,1.14,253.07l.33,0q-.62-61.64-.8-123.34-.22-64.85-.26-129.74m3.33-459.52-.24,0q-.5,33.65-.89,67.26-1.65,137.86-2.32,275.7l.28,0q.06-14.9.11-29.78Q396,240.9,398.38,84.24"/><path class="cls-8" d="M256.26,97.67h-.12c0,1.93-.07,3.86-.1,5.8q.29,16.58.51,33.13-.14-19.49-.29-38.94"/><path class="cls-8" d="M186.07,104.29h0l0,3,.06-3"/><path class="cls-9" d="M400.41,543.25l-5.36.51q0,64.88.26,129.74.22,61.68.8,123.34l1-.09q2.35-126.78,3.33-253.5M400.78,84l-2.4.22q-2.5,156.66-3.06,313.19-.06,14.9-.11,29.78l5.9-.56q.56-137.82,0-275.49Q401,117.58,400.78,84"/><path class="cls-9" d="M332.72,90.45l-1.94.18q-3.87,174.39-4.44,348.6-.58,139.85.36,279.49.27,42.31.74,84.61l2.66-.26q3.39-161.37,3.95-322.56.61-142.22-.35-284.24-.33-52.94-1-105.82"/><path class="cls-9" d="M255.94,97.7l-.23,0q-5.09,197.48-5.66,394.69-.57,139.35.43,278.5.12,19.83.3,39.65l4.16-.39q2.65-140.59,3.16-281t-.44-280.68q-.37-55.95-1.11-111.84-.23-16.58-.51-33.13c0-1.93-.07-3.86-.1-5.78"/><path class="cls-9" d="M187.63,104.15l-1.56.14-.06,3L183,817l1.94-.18q2.88-161.32,3.46-322.52Q189,352,188.34,210q-.22-53-.71-105.85"/><path class="cls-9" d="M436.94,80.6l-2.76.26q.3,52.78.89,105.53,1.08-52.89,1.87-105.79"/><path class="cls-9" d="M370.09,86.92l-4.67.44q.48,72.12,1.64,144.2,1.85-72.34,3-144.64"/><path class="cls-9" d="M294.78,94l-5.87.55q.09,16.41.19,32.79.52,78.23,1.84,156.37,2.47-94.91,3.84-189.71"/><path class="cls-9" d="M224.75,100.64,221,101q.35,72.13,1.22,144.24,1.54-72.3,2.58-144.6"/><path class="cls-9" d="M431.71,557.89q-2.35,118-3.49,235.92l4.82-.46q-.06-39.52-.21-79-.27-78.24-1.12-156.43"/><path class="cls-9" d="M363.7,603.05q-2.49,98.66-3.83,197.21l5.77-.54q-.09-20.16-.22-40.29-.5-78.23-1.72-156.38"/><path class="cls-9" d="M287.57,655.24q-2,76.1-3.25,152.16l5-.48q-.51-75.87-1.78-151.68"/><path class="cls-9" d="M218.8,616.74q-2.1,98.58-3.27,197.15l4.68-.44q-.06-20.16-.14-40.29-.33-78.24-1.27-156.42"/><path class="cls-10" d="M390,512.36c.06-13.1,5-24.23,11.1-24.8S412,497.18,412,510.28s-5,24.24-11.09,24.81-10.95-9.63-10.9-22.73m-5.77-54.85c.06-13.11,7.73-24.48,17.1-25.37s17,9.05,16.9,22.16-7.72,24.48-17.1,25.37-17-9.05-16.9-22.16m31.48-32.24-14.57,1.38-5.9.56-.28,0-8,.76c-3.88.36-7.07,6.05-7.1,12.63l-.39,92.65c0,6.58,3.12,11.66,7,11.3l8.17-.77.41,0,5.36-.51,14.78-1.39c3.88-.37,7.07-6.05,7.1-12.63l.39-92.65c0-6.58-3.12-11.67-7-11.31"/><path class="cls-10" d="M401.3,433.14c-9.05.85-16.46,11.76-16.51,24.31s7.26,22.07,16.32,21.22,16.46-11.77,16.51-24.32-7.27-22.07-16.32-21.21"/><path d="M401.11,478.67c-9.06.85-16.38-8.67-16.32-21.22s7.46-23.46,16.51-24.31,16.37,8.66,16.32,21.21-7.47,23.46-16.51,24.32m.19-46.53c-9.37.89-17,12.26-17.1,25.37s7.53,23,16.9,22.16,17-12.27,17.1-25.37-7.52-23-16.9-22.16"/><path class="cls-10" d="M396.35,524l3-9.22c-1.36-.92-2.31-3.22-2.3-6,0-3.75,1.77-7,3.91-7.16s3.86,2.67,3.85,6.43a9.05,9.05,0,0,1-2.2,6.31l3,8.77-9.19.87m4.71-35.49c-5.74.54-10.45,11.2-10.5,23.75s4.57,22.33,10.31,21.79,10.45-11.2,10.5-23.75S406.8,488,401.06,488.55"/><path d="M400.87,534.09c-5.74.54-10.37-9.23-10.31-21.79s4.76-23.21,10.5-23.75,10.37,9.24,10.31,21.79-4.76,23.21-10.5,23.75m.2-46.53c-6.06.57-11,11.7-11.1,24.8s4.83,23.3,10.9,22.73,11-11.7,11.09-24.81-4.83-23.3-10.89-22.72"/><path class="cls-11" d="M400.94,501.66c-2.14.2-3.89,3.41-3.91,7.16,0,2.78.94,5.08,2.3,6l-3,9.22,9.19-.87-3-8.77a9.05,9.05,0,0,0,2.2-6.31c0-3.76-1.71-6.64-3.85-6.43"/></g></g><g class="cls-2"><g class="cls-12"><path class="cls-13" d="M1428.53,400.63c-15.59,6.44-19.57,26.28-20.63,46.38,0,4.21-.09,8.53-.37,12.67,0,.74,0,1.47,0,2.2l-.21.87a137.12,137.12,0,0,1-2.46,17.4v0A94.34,94.34,0,0,0,1406,499.3a23.47,23.47,0,0,1,11.37,6.84q-1.83,4.92-5.16,4.93a4.93,4.93,0,0,1-.75-.06c7.78,6.16,18,8,29,7.94a213.86,213.86,0,0,0,23.67-1.81,205,205,0,0,1,22.19-1.82,56.81,56.81,0,0,1,6,.28,180,180,0,0,0,19.15,1.44c8.82,0,17.7-1.47,22.66-7a74.41,74.41,0,0,1-10.77.7,191.2,191.2,0,0,1-22.17-1.62l-4.07-.47c-2-.19-4.06-.29-6.38-.29a200.5,200.5,0,0,0-21.81,1.74,215.35,215.35,0,0,1-24,1.89,55.52,55.52,0,0,1-17.64-2.41l1.79-4.78-3.85-4a29.69,29.69,0,0,0-9.88-7,81.15,81.15,0,0,1,2-28.32l.32-1.23v-1.29c.22-28.82,2.92-46.92,15.77-53.19a108.17,108.17,0,0,0,24.51,2.49c8.51,0,17.1-.71,25.43-1.38,8-.65,16.35-1.32,24.3-1.33a93.53,93.53,0,0,1,22,2.28c14.43,3.48,30.1,24.15,31.06,41,.49,8.63-3.32,14.79-11.63,18.81l-50.23-9.75,33.9,15.44c-.32-.72-.64-1.44-1-2.19a82.46,82.46,0,0,0,19,2.66c46.6-.05-.58-68.51-24.5-74.72l-.15,0c-8.43,1.74-21.48,2.65-35.91,2.67a344.49,344.49,0,0,1-42-2.48,93.43,93.43,0,0,1-19.52-2.55"/><path class="cls-14" d="M1532.66,477.27c7.46,17.12,6.49,27.09,1.38,32.78,11.77-1.74,14.93-6.2,15.77-8.36,1.39-3.59.06-10.08-3.73-18.3l-13.42-6.12"/><path class="cls-15" d="M1471.94,429.89a250.75,250.75,0,0,1-26.85-1.41,250.08,250.08,0,0,1,53.69-.05,251.51,251.51,0,0,1-26.84,1.46m35.61-20.36c-8,0-16.26.68-24.3,1.33-8.33.67-16.92,1.37-25.43,1.38a108.17,108.17,0,0,1-24.51-2.49c-12.85,6.27-15.55,24.37-15.77,53.19v1.29l-.32,1.23a81.15,81.15,0,0,0-2,28.32,29.69,29.69,0,0,1,9.88,7l3.85,4-1.79,4.78A55.52,55.52,0,0,0,1444.8,512a215.35,215.35,0,0,0,24-1.89,200.5,200.5,0,0,1,21.81-1.74c2.32,0,4.41.1,6.38.29l4.07.47a191.2,191.2,0,0,0,22.17,1.62,74.41,74.41,0,0,0,10.77-.7c5.11-5.69,6.08-15.66-1.38-32.78l-33.9-15.44,50.23,9.75c8.31-4,12.12-10.18,11.63-18.81-1-16.81-16.63-37.48-31.06-41a93.53,93.53,0,0,0-22-2.28"/><path class="cls-13" d="M1179.24,626.67a5.26,5.26,0,0,1-1-.08c-9.68-1.7-18.82-3.31-27.28-3.42-20.55-.22-36.73-1.29-42.54-12.61-4.27-8.31-3.75-24.09,1.52-46.9,7-30.41,19.9-36.65,37-36.66,6.71,0,22,37.72,29.68,38.76l.42,0c8.21,0,9.2-34.44,18.22-34.44l2.27,0c2.66-.07,5-.1,7.22-.1,17.41,0,29.41,1.68,35.39,10.19,5.55,7.89,7.62,23.38,7.35,55.1-5.16,23.57-16.93,33.66-39.2,33.68l-4.56-28.8c-9.28,0-15.06,25.26-24.56,25.27M1147,519.08c-19,0-34.4,7.53-42.41,42.15-.16.69-.31,1.36-.46,2-.21,11.28-2.37,22.73-2.49,34.58-.39,1.88-.81,3.68-1.24,5.39,3.36,26.13,23.74,27.56,50.54,27.86,17,.2,38.38,7,57.4,7s35.93-7,43.49-34.72a111.21,111.21,0,0,1,.74-35.19c-2.65-38.07-14.12-45-47.74-44.92-2.33,0-4.77,0-7.33.1l-2.23,0a185,185,0,0,1-25.07-2.17l-1.67-.22c-6.13-.55-12-1.21-17.3-1.84-1.43-.08-2.84-.11-4.23-.11"/><path class="cls-15" d="M1147,527c-17.13,0-30,6.25-37,36.66-5.27,22.81-5.79,38.59-1.52,46.9,5.81,11.32,22,12.39,42.54,12.61,8.46.11,17.6,1.72,27.28,3.42a5.26,5.26,0,0,0,1,.08c9.5,0,15.28-25.26,24.56-25.27l4.56,28.8c22.27,0,34-10.11,39.2-33.68.27-31.72-1.8-47.21-7.35-55.1-6-8.51-18-10.21-35.39-10.19-2.2,0-4.56,0-7.22.1l-2.27,0c-9,0-10,34.43-18.22,34.44l-.42,0c-7.69-1-23-38.77-29.68-38.76"/><path class="cls-13" d="M1018.09,414.18c6.59,0,13.95-1.07,21.75-2.19,8-1.15,16.18-2.34,23.62-2.35,6.28,0-1.88,42.75,2,44.46a21.31,21.31,0,0,0,8.75,1.91,29.15,29.15,0,0,0,11.46-2.77c3.22-1.39,5.81-2.78,7.69-2.78,2.63,0,3.84,2.72,3.38,12-.27,5.37-.54,10.92-.62,16.74-5.76,26.66-15.55,32.07-29.43,32.08a125.14,125.14,0,0,1-17.56-1.75c-3.6-.51-7.31-1.05-11.11-1.45a67.6,67.6,0,0,0-7.12-.34,217.14,217.14,0,0,0-21.73,1.58A233.1,233.1,0,0,1,985.7,511c-7.34,0-13.3-.78-18.19-2.42l2.12-3.31-6.2-12.69-6.88,3.63c-1-7.4-1.36-19.58-.14-35.18,1.6-20.55,5.05-35.72,7.64-40.09,4.47-7.55,10.58-10.92,19.83-10.93,5.17,0,10.62,1,16.39,2a118.47,118.47,0,0,0,15.36,2.07c.79,0,1.62.06,2.46.06m45.39-12.45c-7.48,0-15.56,1.13-23.41,2.26s-15.42,2.26-21.94,2.26c-.79,0-1.56,0-2.32-.05-6.41-.28-13.18-1.8-19.86-2.9-5-.2-10-.56-14.53-1.12-8.3.52-15.88,3.85-21.72,13.72-2.66,4.51-5,13.86-6.71,25a67.58,67.58,0,0,1-1.92,21.49c-.26,4.46-.6,8.63-1,12.54-.31,13.44.56,25.47,3,31.59L965.42,500q-3.87,6-7.71,12.1c7.59,5.29,17.44,6.84,28,6.83a226.38,226.38,0,0,0,23.2-1.62,220.09,220.09,0,0,1,22-1.62,62.38,62.38,0,0,1,6.68.31c10.37,1.09,20.23,3.23,29.08,3.22,15.56,0,28-6.66,34.75-37.26-1.32-10.6-.59-22.75,1.51-35.16,0-18.78-3.45-33.63-22.65-42.17-4.86-2.16-10.62-2.92-16.79-2.91"/><path class="cls-15" d="M1063.46,409.64c-7.44,0-15.66,1.2-23.62,2.35-7.8,1.12-15.16,2.18-21.75,2.19-.84,0-1.67,0-2.46-.06a118.47,118.47,0,0,1-15.36-2.07c-5.77-1.05-11.22-2-16.39-2-9.25,0-15.36,3.38-19.83,10.93-2.59,4.37-6,19.54-7.64,40.09-1.22,15.6-.87,27.78.14,35.18l6.88-3.63,6.2,12.69-2.12,3.31c4.89,1.64,10.85,2.42,18.19,2.42a233.1,233.1,0,0,0,23.46-1.68,217.14,217.14,0,0,1,21.73-1.58,67.6,67.6,0,0,1,7.12.34c3.8.4,7.51.94,11.11,1.45a125.14,125.14,0,0,0,17.56,1.75c13.88,0,23.67-5.42,29.43-32.08.08-5.82.35-11.37.62-16.74.46-9.3-.75-12-3.38-12-1.88,0-4.47,1.39-7.69,2.78A29.15,29.15,0,0,1,1074.2,456a21.31,21.31,0,0,1-8.75-1.91c-3.87-1.71,4.29-44.46-2-44.46"/><path class="cls-13" d="M842.31,542.7l-17-16.41a70.66,70.66,0,0,1,18.13-2c12.78,0,27.32,1.94,40.16,3.66,9.6,1.29,17.89,2.4,24.32,2.59,18.58.54,17,18.32,21.21,27.48,4.43,9.63,15.54,13.27,15.29,38.74-5.81,26.85-16.28,32.39-30.2,32.4-6,0-12.62-1.07-19.58-2.23-5.17-.85-10.52-1.73-15.95-2.21-.88-.08-2-.11-3.27-.11-3.45,0-8.18.27-13.66.58-7.27.41-15.51.89-23.36.89-14.45,0-20.37-1.65-22.72-2.79l16.77-14.45L808,615a7.36,7.36,0,0,1-3,.9l-.33,0c-.19-.52-.74-2.46-.56-7.68.16-5,.91-11,1.57-16.21.53-4.25,1-8.26,1.22-11.56.21-3.77.37-7.23.53-10.57.52-11.26.93-20.15,2.6-24.66.61-1.68,1.64-4.5,8.82-4.51,1,0,2,0,3.14.15l20.37,1.82m1.17-26.3-2.34,0a106.15,106.15,0,0,1-14.08,1.43c-5.65,1.18-10.44,3.18-13.86,6.31l9.1,8.81c-1.24-.11-2.41-.17-3.5-.17-17.34,0-15.78,14.37-17.59,47.07-.73,13.24-7.87,44,3.73,44a11.66,11.66,0,0,0,4.83-1.32c-3.11,9.4,11.76,11.51,28.66,11.49,7,0,14.26-.37,20.8-.74s12.34-.73,16.24-.73c1.13,0,2.1,0,2.89.09,12.56,1.12,24.91,4.47,35.9,4.46,15.57,0,28.4-6.78,35.21-36.26.13-2.65.37-5.47.68-8.4.38-51.26-2.13-68.64-42.06-69.82-14.89-.43-42.2-6.26-64.61-6.24"/><path class="cls-15" d="M871.94,563.56c-24.34,0-44.08-1.54-44.08-1.54s19.74-1.61,44.08-1.63S916,561.94,916,561.94s-19.74,1.6-44.09,1.62m-28.46-39.24a70.66,70.66,0,0,0-18.13,2l17,16.41-20.37-1.82c-1.12-.1-2.18-.15-3.14-.15-7.18,0-8.21,2.83-8.82,4.51-1.67,4.51-2.08,13.4-2.6,24.66-.16,3.34-.32,6.8-.53,10.57-.18,3.3-.69,7.31-1.22,11.56-.66,5.26-1.41,11.23-1.57,16.21-.18,5.22.37,7.16.56,7.68l.33,0a7.36,7.36,0,0,0,3-.9l24.54-6.17-16.77,14.45c2.35,1.14,8.27,2.81,22.72,2.79,7.85,0,16.09-.48,23.36-.89,5.48-.31,10.21-.58,13.66-.58,1.32,0,2.39,0,3.27.11,5.43.48,10.78,1.36,15.95,2.21,7,1.16,13.55,2.24,19.58,2.23,13.92,0,24.39-5.55,30.2-32.4.25-25.47-10.86-29.11-15.29-38.74-4.22-9.16-2.63-26.94-21.21-27.48-6.43-.19-14.72-1.3-24.32-2.59-12.84-1.72-27.38-3.67-40.16-3.66"/><path class="cls-13" d="M671.08,335.62c.73,0,1.48,0,2.26-.05L688.2,324l-11.71-13.32a93.19,93.19,0,0,0-11.42-11c7.17-4.58,23.44-9.46,55-9.49,19.87,0,39.28,2,47.44,4,20,4.75,28.74,31.09,28.4,53.55-.3,19.72-9.48,18.63-29.38,22.73a1.37,1.37,0,0,0-.28,0c-5.61,0-10.39,24.17-18,24.18s-16,.41-24,.81-16.41.81-24.38.82c-11.75,0-21.24-.92-29.07-2.87l13-18.45L667.1,360.14c-5,1.09-8.73,20.58-11.19,21.41a130.72,130.72,0,0,0-3.11-15.47c-3.4-13.11-3.47-23.19-.22-30a3.56,3.56,0,0,1,3.63-2.16,42,42,0,0,1,5.88.83,50.66,50.66,0,0,0,9,.83m21.3-51.87c-18.71,2.32-34.1,7.56-37.11,17.7a83.46,83.46,0,0,1,17.66,15.34c-21.06,1-34.65,16.52-25.44,52,4.41,17,2.54,21.75,5.22,21.74,1.81,0,5.71-2.17,15-4.2l-8,11.35c11.5,5.08,25.45,6.4,40.12,6.38,8,0,16.23-.41,24.38-.81s16.28-.8,24-.81a134.81,134.81,0,0,1,20.12,1.26c14.41-2.62,24.06-14.61,29.09-30-1.59-12.95-.27-28.7,2.8-43.42-3.54-21.23-14.22-39.82-31.8-44a160.15,160.15,0,0,0-23-1.21c-3.7,0-7.52.05-11.41.1s-7.81.09-11.78.09a233.7,233.7,0,0,1-29.94-1.5"/><path class="cls-15" d="M720.1,290.12c-31.59,0-47.86,4.91-55,9.49a93.19,93.19,0,0,1,11.42,11L688.2,324l-14.86,11.61c-.78,0-1.53.05-2.26.05a50.66,50.66,0,0,1-9-.83,42,42,0,0,0-5.88-.83,3.56,3.56,0,0,0-3.63,2.16c-3.25,6.77-3.18,16.85.22,30a130.72,130.72,0,0,1,3.11,15.47c2.46-.83,6.19-20.32,11.19-21.41l16.71,14.69-13,18.45c7.83,2,17.32,2.88,29.07,2.87,8,0,16.31-.42,24.38-.82s16.22-.8,24-.81,12.42-24.18,18-24.18a1.37,1.37,0,0,1,.28,0c19.9-4.1,29.08-3,29.38-22.73.34-22.46-8.41-48.8-28.4-53.55-8.16-1.93-27.57-4-47.44-4"/><path class="cls-13" d="M991.48,331a1.42,1.42,0,0,0,1.16-.42c2.88-3.5-16.38-34.6-5.38-36.59a342.48,342.48,0,0,1,53.72-4.59c11.92,0,40.57,1,49.16,10.64,15.17,17,12.78,38.19,10,49.27a74.13,74.13,0,0,1-16.37,31.26c-1.55,1.72-3.84,2.4-6.55,2.4-10.64,0-27.91-10.44-34.31-10.44L1059,393.62c-3.5,0-8.74.29-15.38.67-10.24.57-23,1.28-35.83,1.29-13.94,0-24.81-.79-33.22-2.46-13.15-2.62-15.83-6.61-16.24-7.38-2.18-4.17-3.28-14.17-3-26.74s1.9-24.3,3.24-30.08c1-4.49,3.93-6.05,7.63-6.05,4.22,0,9.48,2,14.21,4s8.92,4,11,4m47.18-49.51a346.62,346.62,0,0,0-52.12,4.63c-25,4.53-25,4.54-33.3,40.41-.2.85-.4,1.8-.6,2.82a137.38,137.38,0,0,1-2.86,40.1c.35,8.62,1.53,16.34,4,21,3.47,6.64,14.19,10.09,27.66,11.75,4.58.56,9.49.92,14.53,1.12,3.89.15,7.86.22,11.83.21,10.63,0,21.26-.49,30.33-1s16.63-1,21-1h.38c19.92,0,40.08-23.81,46.4-51.27-.22-6.89-.51-14.81-1.06-23.94a72.67,72.67,0,0,1,1.52-7.74,55,55,0,0,0-12.64-24.79c-3.84-4.31-10.39-7.25-18.46-9.19a37.46,37.46,0,0,1-8.89,1c-9.06,0-18.68-2.51-27.66-4.17"/><path class="cls-15" d="M1041,289.35a342.48,342.48,0,0,0-53.72,4.59c-11,2,8.26,33.09,5.38,36.59a1.42,1.42,0,0,1-1.16.42c-2.11,0-6.31-2-11-4s-10-4.05-14.21-4c-3.7,0-6.6,1.56-7.63,6.05-1.34,5.78-2.93,17.66-3.24,30.08s.77,22.57,3,26.74c.41.77,3.09,4.76,16.24,7.38,8.41,1.67,19.28,2.47,33.22,2.46,12.85,0,25.59-.72,35.83-1.29,6.64-.38,11.88-.67,15.38-.67l-16.08-21.14c6.4,0,23.67,10.45,34.31,10.44,2.71,0,5-.68,6.55-2.4a74.13,74.13,0,0,0,16.37-31.26c2.78-11.08,5.17-32.23-10-49.27-8.59-9.64-37.24-10.65-49.16-10.64"/><path class="cls-13" d="M1411.66,144.16a63.23,63.23,0,0,1-1-14.91c2.31-11.27,3.72-21.34,5-30.23,2.13-15.2,3.66-26.19,8.18-33.49,4.77-7.7,13.51-11.92,28.36-13.68a231.86,231.86,0,0,1,27-1.71c29,0,47.85,6.93,51.8,19.09l2.85,8.76,5.58-5.63c2.31-2.32,4.4-3.6,5.91-3.6,3.34,0,5.29,8,6,11.51,4.62,23.39-1,66.06-12.76,76a.71.71,0,0,1-.48.17c-5.09,0-28.11-42.77-54.71-42.75-26.1,0-42.67,42.48-56.78,42.5a6.81,6.81,0,0,1-1.78-.24l5.17-5.28-5.42-13.76-12.88,7.24m67.53-101.95a240.59,240.59,0,0,0-27.46,1.73c-34,4.05-37.06,21.06-41.35,51.7a76.91,76.91,0,0,1-5.38,34.74,71.89,71.89,0,0,0,3.32,24.19l18.31-10.29-14.44,14.79c4.32,3.18,14.81,6,28.08,8.08,1.44,0,2.92.08,4.45.08,7.21,0,15.4-.54,24-1.07s17.67-1.07,26.58-1.08c11.11,0,22,.8,31.58,3.45,6.62-1.28,11.73-3.07,14.56-5.45,20.69-17.46,23.42-102.26,3.89-102.24-2.65,0-5.72,1.57-9.21,5.09-6.28-19.35-33.33-23.74-56.94-23.72"/><path class="cls-15" d="M1479.19,50.14a231.86,231.86,0,0,0-27,1.71c-14.85,1.76-23.59,6-28.36,13.68-4.52,7.3-6,18.29-8.18,33.49-1.24,8.89-2.65,19-5,30.23a63.23,63.23,0,0,0,1,14.91l12.88-7.24,5.42,13.76-5.17,5.28a6.81,6.81,0,0,0,1.78.24c14.11,0,30.68-42.48,56.78-42.5,26.6,0,49.62,42.76,54.71,42.75a.71.71,0,0,0,.48-.17c11.8-9.95,17.38-52.62,12.76-76-.68-3.46-2.63-11.51-6-11.51-1.51,0-3.6,1.28-5.91,3.6L1533.84,78,1531,69.23c-4-12.16-22.84-19.12-51.8-19.09"/><path class="cls-13" d="M1107.66,259.77c-1.05-7.73,0-16.56,1.21-25.75,1-8.07,2.06-16.4,1.7-24.6,4.27-28.25,14.78-34,30.31-34,5.95,0,12.38.91,19.19,1.87,7.33,1,14.91,2.11,22.48,2.1h.38a162.17,162.17,0,0,0,17.5-1.4,157.3,157.3,0,0,1,17.17-1.36c17.61,0,26.86,7.43,31.94,25.7,6.39,23,2.09,39.47-2.66,49.19a7.13,7.13,0,0,1-6.9,4.36c-11.48,0-31.61-18.29-43.25-18.28L1210.28,276c-5.8,0-12.91.39-21.15.83-9.89.53-21.09,1.14-32,1.15-17.5,0-30.3-1.54-38.75-4.73l6.27-10.71-7.46-11.64-9.56,8.83m33.22-92.26c-17.25,0-31.13,7.29-36,41.4a81.91,81.91,0,0,1-.25,11.78,150.84,150.84,0,0,1-2.74,24.85c-.7,9.19-.41,18.16,3,26.27l15.4-14.26q-5.62,9.63-11.28,19.25c6.58,4.83,17,7.28,28.83,8.37,8.32-2.57,17.56-3.49,27-3.5,11.32,0,22.93,1.3,33.55,2.66,4.48-.21,8.54-.36,12-.36h.73c17.72,0,34-12.12,42-31.69.28-13.36,4-31.27,3.22-43.51.08-.5.15-1,.23-1.5-.5-2.56-1.12-5.17-1.85-7.81-7.08-25.46-21.26-30.76-37.21-30.74-11.3,0-23.5,2.69-34.68,2.75h-.38a151.74,151.74,0,0,1-21.35-2c-7-1-13.9-2-20.31-2"/><path class="cls-15" d="M1158.19,187.66a101.31,101.31,0,0,1-19.21-1.84,100.45,100.45,0,0,1,38.43,0,101.88,101.88,0,0,1-19.22,1.87m-17.31-12.23c-15.53,0-26,5.74-30.31,34,.36,8.2-.68,16.53-1.7,24.6-1.16,9.19-2.26,18-1.21,25.75l9.56-8.83,7.46,11.64-6.27,10.71c8.45,3.19,21.25,4.74,38.75,4.73,10.88,0,22.08-.62,32-1.15,8.24-.44,15.35-.82,21.15-.83l-13.55-38.43c11.64,0,31.77,18.29,43.25,18.28a7.13,7.13,0,0,0,6.9-4.36c4.75-9.72,9-26.15,2.66-49.19-5.08-18.27-14.33-25.71-31.94-25.7a157.3,157.3,0,0,0-17.17,1.36,162.17,162.17,0,0,1-17.5,1.4h-.38c-7.57,0-15.15-1.06-22.48-2.1-6.81-1-13.24-1.87-19.19-1.87"/><path class="cls-13" d="M885.6,71.29l-.43,0,.17.26.26-.29M823.48,155c-8.13,0-12.5-1.5-15.08-5.17s-3.85-10.48-3.84-20.31a233.43,233.43,0,0,0,3.26-27.28c1.51-19.38,2.72-34.7,14.73-45.23,5.4-4.74,13.43-7.36,22.6-7.37,15.06,0,30.81,7,36.66,16.31l3,4.78,1.24.09,3.51-3.89a5.26,5.26,0,0,1,3.94-2c7.3,0,15.35,17.61,21.92,17.61,9,0,14.35-15.62,18.45-15.62.67,0,1.3.41,1.91,1.38,5.93,9.44,10,22.48,11.09,35.8,1.07,12.85-.65,25.24-4.84,34.86C937.22,150,929.4,157.42,918.81,161a42.16,42.16,0,0,1-13.56,1.88c-10.31,0-22.24-2.23-33.78-4.41-11-2.06-10.6-7.68-19.41-7.73L841.34,133.3c-3.19,0-7,21.26-10,21.41-2.78.14-5.4.27-7.88.28h0M845.16,41.7c-9.55,0-18.81,2.61-25.61,8.58C798.86,68.42,805,99.07,798.91,128.39c-.31,30.42,10.24,34.53,24.56,34.52,2.66,0,5.46-.15,8.34-.29s5.92-.3,9-.3h.53c17.29.1,42.33,8.11,62.55,8.46,2-.05,3.94-.1,5.83-.13a41.59,41.59,0,0,0,10.45-2c16.69-5.64,26.29-19.8,30.36-36.6,0-1.24,0-2.52,0-3.85,1-4.88,1.75-9.61,2.33-14.17.86-33.34-15.55-68.87-39.1-68.85-8.45,0-17.81,4.58-27.64,15.47-7.12-11.35-24.44-19-40.89-19"/><path class="cls-15" d="M845.15,49.63c-9.17,0-17.2,2.63-22.6,7.37-12,10.53-13.22,25.85-14.73,45.23a233.43,233.43,0,0,1-3.26,27.28c0,9.83,1.27,16.66,3.84,20.31s7,5.17,15.08,5.17h0c2.48,0,5.1-.14,7.88-.28,3-.15,6.78-21.41,10-21.41l10.72,17.43c8.81.05,8.45,5.67,19.41,7.73,11.54,2.18,23.47,4.42,33.78,4.41A42.16,42.16,0,0,0,918.81,161c10.59-3.57,18.41-11,23.21-22.06,4.19-9.62,5.91-22,4.84-34.86-1.12-13.32-5.16-26.36-11.09-35.8-.61-1-1.24-1.39-1.91-1.38-4.1,0-9.5,15.61-18.45,15.62-6.57,0-14.62-17.62-21.92-17.61a5.26,5.26,0,0,0-3.94,2L886,70.81c1.7.13,2.67.22,2.67.22s-1.13.11-3.11.26l-.26.29-.17-.26c-4.18.31-11.66.75-20.19.76-13.12,0-23.74-1-23.74-1s10.62-1,23.74-1c8.28,0,15.57.39,19.82.69l-3-4.78c-5.85-9.31-21.6-16.32-36.66-16.31"/><path class="cls-16" d="M1208.44,429.44a3.48,3.48,0,0,0,.57,0c7.24-1,0-19.08,6.81-19.08,10,0,16.53,2.28,19.49,6.83,1.83,2.8,2.54,6.92,2.17,12.6l-1.11,17.1,10-9.92a18,18,0,0,1,4.09-3.28c.47,3,.94,12.15-3.73,36.16-3.21,16.47-7.08,31.09-8.15,34.79-2.44,3.39-11.07,9.91-41.35,9.94h0c-20.27,0-42.94-2.89-56.49-4.63-3.57-.45-6.64-.86-9-1.11-10.43-1.15-17.7-6.41-21.61-15.66-5.88-13.95-4.71-37.91,3-65.15l3.24,2.4,7.17-11.78a17.93,17.93,0,0,1-2.26-5.79h0c1.62,0,40.42,26.15,51,26.14,8.92,0-15.44-26.32-9.11-26.33a3.13,3.13,0,0,1,.49.05,106.84,106.84,0,0,0,11.31,1.46h1c5.22,0,25.27,15.31,32.5,15.3m-72.8-27.7c-14.88,0-26,4.38-16.64,21.66l-8.69-6.48a218.51,218.51,0,0,0-7.39,29.89c-2.1,12.41-2.83,24.56-1.51,35.16,2.32,18.74,11,32.67,29.86,34.73,4.45.49,11.5,1.47,20,2.49,5.31.63,11.17,1.29,17.3,1.84,9.29.84,19.18,1.45,28.66,1.44,21,0,40.08-3.08,46.13-13.44a0,0,0,0,0,0,0c.2,0,5.75-20.31,9.55-40.91a292.32,292.32,0,0,1,3.52-29.4c.06-8-1.31-13.33-5.05-13.33-2,0-4.71,1.55-8.25,5.06,1.48-22.85-11.41-28.08-27.28-28.06a158.8,158.8,0,0,0-20.94,1.9c-6.94,1-13.54,1.91-18.93,1.91h-.91c-5.76-.11-24.49-4.47-39.41-4.46"/><path class="cls-17" d="M1215.82,410.32c-6.83,0,.43,18.08-6.81,19.08a3.48,3.48,0,0,1-.57,0c-7.23,0-27.28-15.3-32.5-15.3h-1a106.84,106.84,0,0,1-11.31-1.46,3.13,3.13,0,0,0-.49-.05c-6.33,0,18,26.32,9.11,26.33-10.57,0-49.37-26.14-51-26.14h0a17.93,17.93,0,0,0,2.26,5.79l-7.17,11.78-3.24-2.4c-7.69,27.24-8.86,51.2-3,65.15,3.91,9.25,11.18,14.51,21.61,15.66,2.37.25,5.44.66,9,1.11,13.55,1.74,36.22,4.65,56.49,4.63h0c30.28,0,38.91-6.55,41.35-9.94,1.07-3.7,4.94-18.32,8.15-34.79,4.67-24,4.2-33.2,3.73-36.16a18,18,0,0,0-4.09,3.28l-10,9.92,1.11-17.1c.37-5.68-.34-9.8-2.17-12.6-3-4.55-9.51-6.84-19.49-6.83"/><path class="cls-16" d="M1288.23,551.48a4.76,4.76,0,0,0,.94-.09c8.19-1.66,23.33-28.23,45.76-28.25,35,0,50,5.76,56.32,10.19l-41.63,44.95,50.24-31c2.75,9.61,1.73,19.71.58,31.08-.6,5.79-1.2,11.79-1.33,18-2.82,12.7-8.56,21.63-17.54,27.26-8.06,5.07-18.68,7.54-32.47,7.55h0c-12.68,0-26.25-2.07-38.23-3.91-7.92-1.22-15.39-2.36-21.9-2.81-2.26-.16-4.48-.23-6.64-.3-14.24-.47-20.31-1.75-23.07-12.76-5-19.92-3.19-42.9,4.84-61.46,1.59-3.68,3.81-5,6.34-5,2.85,0,6.09,1.63,9.22,3.27s6.15,3.26,8.58,3.25m64.37-33.84c-5.95,0-13.37.61-21.47,1.22s-16.9,1.21-25.57,1.22a127.78,127.78,0,0,1-19-1.25c-1.24.2-2.36.41-3.36.61-12.62,2.56-25.87,22.73-30.6,48.78a111.21,111.21,0,0,0-.74,35.19,105,105,0,0,0,2.07,10.61c5.06,20.18,19.66,17.27,34.76,18.34,14.08,1,33.17,5.33,51.89,6.46l.85-.12a181.11,181.11,0,0,1,23.84-2.15c1.62,0,3.22,0,4.79.14,16.47-4.3,29.75-15.24,34.71-39.11-1.19-11-.49-26.42,2.4-40.85a51.91,51.91,0,0,0-5.11-20.41l-7.81,6.36,4.28-12c-5-6.43-15.31-10.41-27.86-12.71-1.17.05-2.38.07-3.61.07-3.63,0-7.54-.15-11.76-.31-.86,0-1.75,0-2.68,0"/><path class="cls-17" d="M1334.93,523.14c-22.43,0-37.57,26.59-45.76,28.25a4.76,4.76,0,0,1-.94.09c-2.43,0-5.45-1.63-8.58-3.25s-6.37-3.27-9.22-3.27c-2.53,0-4.75,1.28-6.34,5-8,18.56-9.84,41.54-4.84,61.46,2.76,11,8.83,12.29,23.07,12.76,2.16.07,4.38.14,6.64.3,6.51.45,14,1.59,21.9,2.81,12,1.84,25.55,3.92,38.23,3.91h0c13.79,0,24.41-2.48,32.47-7.55,9-5.63,14.72-14.56,17.54-27.26.13-6.23.73-12.23,1.33-18,1.15-11.37,2.17-21.47-.58-31.08l-50.24,31,41.63-44.95c-6.33-4.43-21.29-10.22-56.32-10.19"/><path class="cls-16" d="M1321.35,413.91c6.7,0,14.12-1.1,21.29-2.16s14.87-2.18,21.78-2.19a39.62,39.62,0,0,1,13.19,1.9c4.4,1.54,10.54,8.53,13.16,11.5,1.5,1.71-2.86,18.26-1.46,18.26.66,0,2.6-3.68,7-14.36h.11l.33,0c1,0,1.76.33,2.61,2,4.74,9.07,2.69,37.24,0,49-3.19,14-7,22.62-12.18,27.05s-11.73,5.24-20.23,5.25c-3.16,0-6.6-.13-10.25-.26l-1.37-.06c-.89,0-1.84,0-2.82,0-5.53,0-12.31.52-19.49,1.06-8.54.64-18.2,1.37-27.54,1.38-26.92,0-2.95-20.1-7.31-32.89-1.35-4-40.76-3.9-38.63-22.75,2.09-18.58,5.43-32.33,7.51-35.82,4.45-7.5,10.61-10.85,19.94-10.86,5.19,0,10.91,1,16.43,2a118.78,118.78,0,0,0,15.21,2c.84,0,1.72.06,2.62.06m43.07-12.27c-7.07,0-14.56,1.09-21.93,2.17S1327.92,406,1321.4,406c-.84,0-1.67,0-2.48-.05-6-.27-12.28-1.6-18.55-2.66-5.66-.19-11.17-.58-16.28-1.26-8.14.63-15.57,4-21.28,13.62-2.3,3.87-4.57,12.63-6.4,23.1a292.32,292.32,0,0,0-3.52,29.4c-.82,12.33-.64,23.3,1.11,28.46,4.72,13.85,17.35,19.91,32.54,22.24a127.78,127.78,0,0,0,19,1.25c8.67,0,17.46-.62,25.57-1.22s15.52-1.22,21.47-1.22c.93,0,1.82,0,2.68,0,4.22.16,8.13.31,11.76.31,1.23,0,2.44,0,3.61-.07,16.84-.65,27.13-6.59,34.19-37.75v0a137.12,137.12,0,0,0,2.46-17.4c.08-1,.16-2,.23-3.07.28-4.14.42-8.46.37-12.67-.2-14.71-2.89-28.1-11.09-28.1l-.44,0h0c-.64,0-9.79-12.51-17.38-15.16a43.72,43.72,0,0,0-14.56-2.13"/><path class="cls-17" d="M1364.42,409.56c-6.91,0-14.47,1.12-21.78,2.19s-14.59,2.15-21.29,2.16c-.9,0-1.78,0-2.62-.06a118.78,118.78,0,0,1-15.21-2c-5.52-1-11.24-2-16.43-2-9.33,0-15.49,3.36-19.94,10.86-2.08,3.49-5.42,17.24-7.51,35.82-2.13,18.85,37.28,18.79,38.63,22.75,4.36,12.79-19.61,32.91,7.31,32.89,9.34,0,19-.74,27.54-1.38,7.18-.54,14-1,19.49-1.06,1,0,1.93,0,2.82,0l1.37.06c3.65.13,7.09.26,10.25.26,8.5,0,15.2-.91,20.23-5.25s9-13,12.18-27.05c2.64-11.72,4.69-39.89,0-49-.85-1.64-1.63-2-2.61-2l-.33,0h-.11c-4.45,10.68-6.39,14.36-7,14.36-1.4,0,3-16.55,1.46-18.26-2.62-3-8.76-10-13.16-11.5a39.62,39.62,0,0,0-13.19-1.9"/><path class="cls-16" d="M1369.82,317.08c-3.26,0-2.37,8.12-6,9.22-12.86,3.9,5.13,16.82,7.47,17.36l.32,0c3.57,0,4-14.8,3.35-20.08-.38-3.28-2.26-5.94-4.61-6.47a1.54,1.54,0,0,0-.51-.06m27.92-9.81a8,8,0,0,1-3.62-1.21,8,8,0,0,0,3.62,1.21m5.1-1.32.5-.3-.5.3M1398,294.87a22.52,22.52,0,0,0-3.68,6s0,0,0,0l.25.3-4.46,10.87a12.77,12.77,0,0,0,8.11,3.1v-7.92h0v-1a48.3,48.3,0,0,1,7.27,24.4c1-4.92,2.26-9.75,3.66-14.33a54.71,54.71,0,0,0-11.2-21.47m-56.91-13.59a334.73,334.73,0,0,0-51.43,4.52c-25,4.52-25,4.54-33.31,40.4-.38,1.67-.78,3.79-1.17,6.23,0,1,.09,2,.13,3a154.09,154.09,0,0,1-2.58,31.78c.2,9.65,1.36,18.31,4.15,22.92,4,6.65,14.36,10.16,27.22,11.86,5.11.68,10.62,1.07,16.28,1.26,3.14.11,6.32.16,9.52.15,10.6,0,21.26-.54,30.46-1.07s17.06-1.07,21.81-1.08h.39c15,0,30.51-13.91,39.9-32.76a112,112,0,0,1,0-16.07c-7.07,22.83-24.47,40.9-39.92,40.91h-.5c-3.94,0-9.85.36-16.68.78-10.21.6-22.91,1.36-35.47,1.37-13.36,0-23.84-.81-32-2.51-12.26-2.54,7.29-28.68,6.36-30.23-4.86-8-25.68-20.48-22.52-34.11,3.71-16,5.75-24.81,8.71-28.41s8.94-4.58,19.94-6.57a328.78,328.78,0,0,1,52.36-4.46c36.11,0,47.82,7.3,51.59,11.7a22.52,22.52,0,0,1,3.68-6c-6.74-7.93-21.5-11.64-38.25-13-1.38.06-2.76.08-4.13.08-2.41,0-4.81-.07-7.18-.2s-4.9-.31-7.35-.49"/><path class="cls-17" d="M1371.59,343.69l-.32,0c-2.34-.54-20.33-13.46-7.47-17.36,3.65-1.1,2.76-9.22,6-9.22a1.54,1.54,0,0,1,.51.06c2.35.53,4.23,3.19,4.61,6.47.61,5.28.22,20.08-3.35,20.08m-28.87-54.49a328.78,328.78,0,0,0-52.36,4.46c-11,2-17.06,3.09-19.94,6.57s-5,12.39-8.71,28.41c-3.16,13.63,17.66,26.07,22.52,34.11.93,1.55-18.62,27.69-6.36,30.23,8.19,1.7,18.67,2.52,32,2.51,12.56,0,25.26-.77,35.47-1.37,6.83-.42,12.74-.77,16.68-.78h.5c15.45,0,32.85-18.08,39.92-40.91a160.56,160.56,0,0,1,3.06-21.77,48.3,48.3,0,0,0-7.27-24.4v1h0v7.92a12.77,12.77,0,0,1-8.11-3.1l4.46-10.87-.25-.3s0,0,0,0a26.38,26.38,0,0,0-1.37,4.33,26.38,26.38,0,0,1,1.37-4.33c-3.77-4.4-15.48-11.73-51.59-11.7"/><path class="cls-16" d="M1210.56,393.92c-14.16,0-31-2.22-43.28-3.86-7.23-1-13-1.72-16.09-1.75-18.5-.21-31-.67-35.41-5-3.23-3.16-3.61-11.33-4.17-29.5-.22-7.34-.5-16.41-1.12-27,2.55-16.28,11.33-37.19,54.36-37.23,12.9,0-4.88,51.11,6.93,52.66h.11c2.63,0,12.72-11.92,22.72-23.84s19.91-23.84,22.17-23.85h.06c11.5,1.17,20.17,3.12,25.13,8.78,4.68,5.33,7,15.36,7.69,32.51a145.38,145.38,0,0,1-1.25,22.35c-1.2,9-3.1,15.94-5.21,19.08-1,1.43-1.58,1.44-1.84,1.44h0a2.21,2.21,0,0,1-.59-.1l-9.42-2.88,2.79,12.93c0,.1,0,.17,0,.23-.7,1-4.77,5-23.62,5m-45.7-112.25c-9.43,0-18.67.93-27,3.5-14.77,4.58-26.65,14.35-31.56,33.43a72.67,72.67,0,0,0-1.52,7.74c.55,9.13.84,17.05,1.06,23.94,1.36,43.16,0,45.45,45.28,46,8,.08,36.79,5.63,59.42,5.61,17.67,0,31.6-3.42,29-15.47a6.24,6.24,0,0,0,1.81.28c5.67,0,9.25-8.78,11.37-19.43a154.09,154.09,0,0,0,2.58-31.78c0-1-.08-2-.13-3-1.88-37-12.43-43.14-37.91-45.76-5.66-.58-12.06-1.47-18.85-2.34-10.62-1.36-22.23-2.67-33.55-2.66"/><path class="cls-17" d="M1216,361.51a130.49,130.49,0,0,1-18.93-1.37,131,131,0,0,1,37.86,0,131.12,131.12,0,0,1-18.93,1.4m-51.13-71.92c-43,0-51.81,21-54.36,37.23.62,10.56.9,19.63,1.12,27,.56,18.17.94,26.34,4.17,29.5,4.44,4.35,16.91,4.81,35.41,5,3.14,0,8.86.79,16.09,1.75,12.29,1.64,29.12,3.88,43.28,3.86,18.85,0,22.92-4,23.62-5,0-.06,0-.13,0-.23l-2.79-12.93,9.42,2.88a2.21,2.21,0,0,0,.59.1h0c.26,0,.86,0,1.84-1.44,2.11-3.14,4-10.09,5.21-19.08a145.38,145.38,0,0,0,1.25-22.35c-.64-17.15-3-27.18-7.69-32.51-5-5.66-13.63-7.61-25.13-8.78h-.06c-2.26,0-12.17,11.93-22.17,23.85s-20.09,23.84-22.72,23.84h-.11c-11.81-1.55,6-52.67-6.93-52.66"/><path class="cls-16" d="M1042.86,190.24a4.77,4.77,0,0,0,.76-.06c7.58-1.17,12.44-15.13,20.07-15.13,12.3,0,16,3.5,17.1,5.6,1,1.87,1,5,.08,9.24l-5.4,24.76,20.2-22.93c2.44,7,3.63,17,3.32,28.62-.53,19.81-48.56,30-54.86,38-5,6.33,31.48,19.33,22.2,19.34-6.55,0-13.63-1.44-20.49-2.84a141.72,141.72,0,0,0-15.29-2.55c-1-.09-2.07-.13-3.27-.13-5.45,0-12.54.95-20.06,1.95-8.82,1.18-17.93,2.39-26,2.4-10.65,0-15.13-2.17-17-4-9-8.75-8.4-19.47-6.47-37.65.85-8.13,1.74-16.53,1.32-25.31,4.24-28.29,13.2-33.88,27.19-33.9a126,126,0,0,1,17,1.7,163.81,163.81,0,0,0,20.34,2h.57c3.9,0,12.49,10.85,18.7,10.84m-56.64-22.51c-15.88,0-28,7.21-32.89,41.32a134.76,134.76,0,0,1-1,22A115.27,115.27,0,0,1,951,246.65c-.63,12.27.77,23.47,10,32.39,4.23,4.1,11.65,5.42,20.24,5.41,7.74,0,16.44-1.09,24.61-2.17s15.84-2.18,21.48-2.18c1,0,2,0,2.9.11,2.73.24,5.57.69,8.48,1.23,9,1.66,18.6,4.18,27.66,4.17a37.46,37.46,0,0,0,8.89-1A27.79,27.79,0,0,0,1091,274.26c4.73-6,8.52-16.61,10.9-28.72a150.84,150.84,0,0,0,2.74-24.85c.44-16.2-1.84-31.72-7.79-40.5l-10.56,12c3.28-15.09-2.55-21.64-12-24a44.28,44.28,0,0,1-13.69,1.87,107.43,107.43,0,0,1-15.5-1.28l-3.28.49c-7,1.09-13.38,2.17-17.66,2.18h-.49c-13.51-.27-26.39-3.75-37.46-3.74"/><path class="cls-17" d="M1063.69,175.05c-7.63,0-12.49,14-20.07,15.13a4.77,4.77,0,0,1-.76.06c-6.21,0-14.8-10.84-18.7-10.84h-.57a163.81,163.81,0,0,1-20.34-2,126,126,0,0,0-17-1.7c-14,0-23,5.61-27.19,33.9.42,8.78-.47,17.18-1.32,25.31-1.93,18.18-2.57,28.9,6.47,37.65,1.89,1.84,6.37,4,17,4,8.1,0,17.21-1.22,26-2.4,7.52-1,14.61-1.95,20.06-1.95,1.2,0,2.27,0,3.27.13a141.72,141.72,0,0,1,15.29,2.55c6.86,1.4,13.94,2.84,20.49,2.84,9.28,0-27.16-13-22.2-19.34,6.3-8.05,54.33-18.2,54.86-38,.31-11.62-.88-21.61-3.32-28.62l-20.2,22.93,5.4-24.76c.93-4.27.9-7.37-.08-9.24-1.11-2.1-4.8-5.62-17.1-5.6"/><path class="cls-16" d="M806.15,494.91c-.93,0-1.79-.93-1.94-2.35-1.4-13.74.13-34.7,2.77-46.07,3.69-16,5.72-24.8,8.7-28.41s8.94-4.58,19.94-6.57A330.78,330.78,0,0,1,888.1,407c25.1,0,38.36,3.53,45.35,7.15a3.05,3.05,0,0,1,1.21,3.17,28.78,28.78,0,0,0-.43,5V426a2.84,2.84,0,0,0,1.29,2.56l2.43,1.24a11,11,0,0,0,5,1.28c.32,0,.65,0,1,0h.14c.83,0,1.56.74,1.83,1.84a54.76,54.76,0,0,1-.19,27l-.15.62a3.74,3.74,0,0,0-.1.67l0,.66c-.78,13-6.68,16.71-14.71,16.72-5.22,0-11.33-1.54-17.52-3.08s-12.48-3.1-18-3.1a20.63,20.63,0,0,0-6.64,1c-2.21.75,25.09,41.16,22,41.16-7.47,0-16.32-2.16-24.88-4.26-8.15-2-15.86-3.89-22.59-4.06-.44,0-.88,0-1.32,0A119,119,0,0,0,843.83,508a118.4,118.4,0,0,1-17.69,1.9,39.47,39.47,0,0,1-7.48-.65c-1.5-.29-2.21-2.76-1.26-4.42a3.61,3.61,0,0,0,0-3.49L812.25,493a1.79,1.79,0,0,0-1.48-1,1.56,1.56,0,0,0-1,.36l-2.69,2.16a1.51,1.51,0,0,1-1,.36M923.87,402.6c-9.91,2-24.64,3-40.48,3.06A354.84,354.84,0,0,1,838.81,403c-1.43.23-2.74.45-3.9.66-24.74,4.47-25,4.54-33,39.22a114.74,114.74,0,0,1-3.8,41.22c.2,9.62,1.32,18.44,3.95,23.7l12-9.66-8,14c6.14,4.37,13,5.73,20.12,5.73h.94a106.15,106.15,0,0,0,14.08-1.43l3-.47c6-1,12-1.91,17.58-1.91H863c13.36.33,32.52,8.34,47.58,8.32a29,29,0,0,0,9.31-1.36c20.27-6.9,27.36-20.91,30.18-46.07.43-3.91.77-8.08,1-12.54A67.58,67.58,0,0,0,953,440.91a66.37,66.37,0,0,0-4.82-20.15A7.7,7.7,0,0,1,943,423.1a6.83,6.83,0,0,1-3.1-.79,16.23,16.23,0,0,1,3.13-9.85c-4-4.62-10.82-7.78-19.14-9.86"/><path class="cls-17" d="M888.1,407a330.78,330.78,0,0,0-52.48,4.48c-11,2-17.06,3.09-19.94,6.57s-5,12.41-8.7,28.41c-2.64,11.37-4.17,32.33-2.77,46.07.15,1.42,1,2.35,1.94,2.35a1.51,1.51,0,0,0,1-.36l2.69-2.16a1.56,1.56,0,0,1,1-.36,1.79,1.79,0,0,1,1.48,1l5.11,8.39a3.61,3.61,0,0,1,0,3.49c-.95,1.66-.24,4.13,1.26,4.42a39.47,39.47,0,0,0,7.48.65,118.4,118.4,0,0,0,17.69-1.9,119,119,0,0,1,17.94-1.92c.44,0,.88,0,1.32,0,6.73.17,14.44,2.05,22.59,4.06,8.56,2.1,17.41,4.27,24.88,4.26,3.08,0-24.22-40.41-22-41.16a20.63,20.63,0,0,1,6.64-1c5.54,0,11.82,1.55,18,3.1s12.3,3.08,17.52,3.08c8,0,13.93-3.69,14.71-16.72l0-.66a3.74,3.74,0,0,1,.1-.67l.15-.62a54.76,54.76,0,0,0,.19-27c-.27-1.1-1-1.84-1.83-1.84H944c-.32,0-.65,0-1,0a11,11,0,0,1-5-1.28l-2.43-1.24a2.84,2.84,0,0,1-1.29-2.56v-3.64a28.78,28.78,0,0,1,.43-5,3.05,3.05,0,0,0-1.21-3.17c-7-3.62-20.25-7.17-45.35-7.15"/><path class="cls-16" d="M883.4,397.73a336.19,336.19,0,0,1-50-3.48c-22.09-3.49-26.3-8-26.72-8.49-5.49-10.69-5.68-32.56-.46-55.78,3.77-16.77,11.17-35.46,18-38.74,2.69-1.29,6.64-1.95,11.75-1.95,9.16,0,20.41,2,31.3,4,9.92,1.79,19.3,3.47,26.41,3.46h1c3.91-.09,8-.55,11.88-1a120.12,120.12,0,0,1,13-1c9,0,15.12,2.43,19.68,7.87,5.83,6.95-19.45,30-20.6,49.43-1.23,20.57,21.58,32.95,13.56,39.72-2.86,2.4-18.21,6-48.76,6M823,283.46l-.6.28c-8.78,4.21-17.48,24.18-22.14,46.52-3.07,14.72-4.39,30.47-2.8,43.42a50.16,50.16,0,0,0,4.72,16.89c3.06,5.85,17.87,10,36.6,12.42a354.84,354.84,0,0,0,44.58,2.67c15.84,0,30.57-1,40.48-3.06,5.31-1.08,9.23-2.45,11.19-4.1,6.94-5.85,11.81-16.6,14.72-29.1a137.38,137.38,0,0,0,2.86-40.1c-1.07-14-4.37-26.34-9.77-32.78-6.54-7.8-14.73-9.75-23.35-9.75-8.28,0-16.95,1.83-24.92,2h-.91c-7.15,0-17.06-1.85-27.44-3.72-2.5-.45-5-.89-7.57-1.32-6.42.49-12.92.88-19.2.89A99.72,99.72,0,0,1,823,283.46"/><path class="cls-17" d="M836,289.29c-5.11,0-9.06.66-11.75,1.95-6.83,3.28-14.23,22-18,38.74-5.22,23.22-5,45.09.46,55.78.42.51,4.63,5,26.72,8.49a336.19,336.19,0,0,0,50,3.48c30.55,0,45.9-3.62,48.76-6,8-6.77-14.79-19.15-13.56-39.72,1.15-19.44,26.43-42.48,20.6-49.43-4.56-5.44-10.64-7.88-19.68-7.87a120.12,120.12,0,0,0-13,1c-3.92.46-8,.92-11.88,1h-1c-7.11,0-16.49-1.67-26.41-3.46-10.89-1.95-22.14-4-31.3-4"/><path class="cls-16" d="M821.78,193.42,828.41,181l-4-6.42a60.93,60.93,0,0,1,15-1.54c11.28,0,24.49,1.75,36.13,3.3,9.94,1.33,18.54,2.47,24.92,2.46h1.18l1.91-.05c3.37-.09,6.55-.18,9.59-.18,22.2,0,32.09,3.78,33.53,40.2.81,20.73-12,31.12-17.81,39.71s-5.28,16.36-21.63,16.37c-3.7,0-7.87-.17-13.12-.56-2-.14-4.12-.21-6.5-.21-6.88,0-14.49.62-22.54,1.27h-.34c-8.18,0-9.6-23.94-17.81-23.93-9.55,0-24,22.24-30.58,22.25a2.49,2.49,0,0,1-.83-.14,27,27,0,0,0-.14-5.59l-.52-4.13-2.74-1.71a11.06,11.06,0,0,0-5.9-1.83,8.28,8.28,0,0,0-1.23.09c-1.14-8.85-1.07-22.16.3-36.55s3.92-28.21,6.69-36.8l9.83,6.43m17.61-28.33c-10.43,0-19.48,1.47-24.83,5.82l9.61,15.32-14.57-9.52c-3,5.87-5.68,16.31-7.65,28.31a110.26,110.26,0,0,1-3.44,42c.07,9.64.92,18.06,2.75,23.57a7,7,0,0,1,4.93-2.43,6.86,6.86,0,0,1,3.6,1.15,13.48,13.48,0,0,1-1.85,9.06A44.36,44.36,0,0,0,823,283.46a99.72,99.72,0,0,0,16.45,1.19c6.28,0,12.78-.4,19.2-.89q2.88-.21,5.72-.45c8.25-.66,16.21-1.32,23.22-1.33,2.15,0,4.21.06,6.17.2,4.62.34,9.12.57,13.42.57,21.84,0,38.79-6.19,43.75-36.1a115.27,115.27,0,0,0,1.42-15.56c.12-4,.09-8.22-.09-12.8-1.7-43-16.09-47.7-39.17-47.68l-3.44,0c-1.89,0-3.83.08-5.83.13l-2.33.06-1.09,0c-6.83,0-16.87-1.44-27.8-2.89s-22.79-2.89-33.24-2.88"/><path class="cls-17" d="M839.39,173a60.93,60.93,0,0,0-15,1.54l4,6.42-6.63,12.44L812,187c-2.77,8.59-5.3,22.28-6.69,36.8s-1.44,27.7-.3,36.55a8.28,8.28,0,0,1,1.23-.09,11.06,11.06,0,0,1,5.9,1.83l2.74,1.71.52,4.13a27,27,0,0,1,.14,5.59,2.49,2.49,0,0,0,.83.14c6.56,0,21-22.24,30.58-22.25,8.21,0,9.63,23.94,17.81,23.93h.34c8.05-.65,15.66-1.26,22.54-1.27,2.38,0,4.5.07,6.5.21,5.25.39,9.42.57,13.12.56,16.35,0,15.81-7.73,21.63-16.37s18.62-19,17.81-39.71c-1.44-36.42-11.33-40.22-33.53-40.2-3,0-6.22.09-9.59.18l-1.91.05h-1.18c-6.38,0-15-1.13-24.92-2.46-11.64-1.55-24.85-3.31-36.13-3.3"/><path class="cls-16" d="M974.74,155.16c-7.44,0-12-1.68-14.61-5.47s-4-10.64-4-20.31A270.08,270.08,0,0,0,960,100.12C962,78,963.2,64.7,980.47,55.07A48.53,48.53,0,0,1,1004,49a49.72,49.72,0,0,1,41.47,21.83l13,19.38L1055.18,64c-.1-.75-.27-2.6.18-3.34.59-1,2.7-2.18,6.66-2.18,13.32,0,17.8,25.18,20.67,31.81,4.59,10.62,19.15,13.14,15.2,30.14-4.19,18-12.56,33.42-20.84,38.29-3.87,2.29-9.4,3.44-16.42,3.45-10.3,0-22.18-2.36-33.67-4.63-10.06-2-19.55-3.89-27.15-4h-.76c-4.36,0-8.74.43-13,.84-4,.39-7.79.75-11.33.75M1004,41.1a52.77,52.77,0,0,0-25.66,6.61c-24.68,13.76-21.81,36.59-25.59,66.37-.58,4.56-1.31,9.29-2.33,14.17,0,1.33,0,2.61,0,3.85.64,26.23,11,31,24.26,31,3.79,0,7.82-.4,11.92-.8s8.33-.8,12.44-.81h.65c11.76.12,29,4.94,45.35,7.31a107.43,107.43,0,0,0,15.5,1.28,44.28,44.28,0,0,0,13.69-1.87,24.5,24.5,0,0,0,4.94-2.2c9.57-5.63,18.22-21.26,23-39.15,1.72-8.66,2.86-18.3,4-27.71.11-9.61-1.25-18.76-4.52-26.32-4.4-10.2-25.66-22.29-39.68-22.28-8.11,0-13.79,4.06-12.41,14.86A54.76,54.76,0,0,0,1004,41.1"/><path class="cls-17" d="M999.15,130.14c-11.08,0-20.06-.54-20.06-.54s9-.57,20.06-.58,20.06.54,20.06.54-9,.57-20.06.58M1004,49a48.53,48.53,0,0,0-23.57,6C963.2,64.7,962,78,960,100.12a270.08,270.08,0,0,1-3.84,29.26c0,9.67,1.34,16.51,4,20.31s7.17,5.48,14.61,5.47c3.54,0,7.32-.36,11.33-.75,4.24-.41,8.62-.84,13-.84h.76c7.6.08,17.09,2,27.15,4,11.49,2.27,23.37,4.64,33.67,4.63,7,0,12.55-1.16,16.42-3.45,8.28-4.87,16.65-20.26,20.84-38.29,3.95-17-10.61-19.52-15.2-30.14-2.87-6.63-7.35-31.82-20.67-31.81-4,0-6.07,1.18-6.66,2.18-.45.74-.28,2.59-.18,3.34l3.36,26.24-13-19.38A49.72,49.72,0,0,0,1004,49"/><path class="cls-16" d="M1146.75,75.16l3.22-6.88c5.81-12.45,12.62-17.53,23.48-17.54,5.94,0,12.72,1.47,19.91,3,3.6.79,7.34,1.61,11.23,2.3,2.29.41,5.24.66,8.67.94,8.4.71,24,2,28.29,7.58,2.65,3.46,6,14.23,7.52,30.49,1.42,15.18.7,30.25-1.85,39.34-2.28,8.11-4.88,8.11-5.74,8.11a5.26,5.26,0,0,1-1.87-.39l-8.17-3,1,10.12c-1.41,1.36-6.36,4.83-21.77,7.56-11.91,2.11-27.49,3.29-43.83,3.3-17.9,0-34.56-1.38-44.57-3.59a44.26,44.26,0,0,0,1.57-8.52l.7-8.24-5.9-.59a11,11,0,0,0-1.4-.07,13.16,13.16,0,0,0-8.94,3.57,116,116,0,0,1-.6-13.42c1.82-9.12,3-19.07,4.14-28.72,2.94-24.91,5.42-41.24,12.74-41.24,2.83,0,8.15,1.93,17.43,11.13l4.78,4.74m26.71-32.34c-11.08,0-20.5,4.6-28.22,21.13-8.93-8.86-15.61-12.59-20.7-12.59-12.65,0-15.4,23.14-18.31,47.8-1.11,9.41-2.25,19-4,27.71-.08.42-.16.83-.25,1.24-.06,5.85,0,23.28,4.49,28.82q3.93-9.92,10.7-9.91c.33,0,.65,0,1,0a30.92,30.92,0,0,1-5,14.69c8.09,4,30.2,6.3,53.61,6.28,34.85,0,72.6-5.29,71.37-18.22a9.41,9.41,0,0,0,3.32.64c6.17,0,10.06-7.32,12.12-17.89,0-1.52,0-3,0-4.59a121.63,121.63,0,0,0,1.87-18.33c-.09-20.68-4-43-10-50.86-7.47-9.76-31.11-9-40.09-10.57-11.81-2.11-22.43-5.41-31.86-5.4"/><path class="cls-17" d="M1173.45,50.74c-10.86,0-17.67,5.09-23.48,17.54l-3.22,6.88L1142,70.42c-9.28-9.2-14.6-11.13-17.43-11.13-7.32,0-9.8,16.33-12.74,41.24-1.14,9.65-2.32,19.6-4.14,28.72a116,116,0,0,0,.6,13.42,13.16,13.16,0,0,1,8.94-3.57,11,11,0,0,1,1.4.07l5.9.59-.7,8.24a44.26,44.26,0,0,1-1.57,8.52c10,2.21,26.67,3.61,44.57,3.59,16.34,0,31.92-1.19,43.83-3.3,15.41-2.73,20.36-6.2,21.77-7.56l-1-10.12,8.17,3a5.26,5.26,0,0,0,1.87.39c.86,0,3.46,0,5.74-8.11,2.55-9.09,3.27-24.16,1.85-39.34-1.52-16.26-4.87-27-7.52-30.49-4.24-5.55-19.89-6.87-28.29-7.58-3.43-.28-6.38-.53-8.67-.94-3.89-.69-7.63-1.51-11.23-2.3-7.19-1.57-14-3.05-19.91-3"/><path class="cls-16" d="M1262.65,262.47c-1,0-2.2-.18-2.72-1-2.18-3.6-.57-17.72.51-27,1-8.59,2-17.47,1.69-25.11,4.28-28.44,14.54-34.2,29.67-34.22,5.94,0,12.39,1,19.23,2,7.5,1.1,15.25,2.24,23.07,2.23h.38c6.13,0,12.31-.68,18.29-1.3h.2c5.76,0,9.24,25.43,14.46,25.42,10.13,0,19-7.54,25.53-7.54,4.36,0,7.64,3.36,9.51,14.62,3.24,19.51,2,34.53-3.74,44.64-7.1,12.56-21.61,18.94-43.1,19-2.23,0-4.57-.07-7-.2-6-.34-12.09-.86-18-1.37-9.06-.78-18.42-1.59-27.84-1.75h-.18c-2.16,0-5.45.71-10,1.69-5.87,1.28-13.18,2.86-18.59,2.86a21,21,0,0,1-2.34-.12c.1-.19.22-.4.35-.6l10.32-17.63-15.88,4.85a13.78,13.78,0,0,1-3.88.69m29.16-95.32c-16.73,0-30.09,7.19-35.15,40.12-.08.49-.15,1-.23,1.5.75,12.24-2.94,30.15-3.22,43.51-.21,10.45,1.68,18.12,9.44,18.12a17.78,17.78,0,0,0,5.07-.87c-6.29,10.73-1.53,13.69,6.35,13.68,4.87,0,10.93-1.14,16.31-2.27s10.12-2.28,12.29-2.28h.1c12.9.22,25.53,1.65,38.31,2.62,2.45.18,4.89.35,7.35.49s4.77.21,7.18.2c1.37,0,2.75,0,4.13-.08,19.9-.79,39.56-7.48,47-30.09-1-3.89-1.68-6.58-1.73-6.58v.05c-1.16-9.52.29-24.42,2.68-38.22-5.75-32-20.53-38.23-38.22-38.22-11,0-23.2,2.44-35,2.51h-.37a150.81,150.81,0,0,1-21.79-2.09c-7.14-1.05-14.07-2.1-20.5-2.1"/><path class="cls-17" d="M1291.8,175.07c-15.13,0-25.39,5.78-29.67,34.22.3,7.64-.71,16.52-1.69,25.11-1.08,9.33-2.69,23.45-.51,27,.52.84,1.76,1,2.72,1a13.78,13.78,0,0,0,3.88-.69l15.88-4.85-10.32,17.63c-.13.2-.25.41-.35.6a21,21,0,0,0,2.34.12c5.41,0,12.72-1.58,18.59-2.86,4.55-1,7.84-1.69,10-1.69h.18c9.42.16,18.78,1,27.84,1.75,5.89.51,12,1,18,1.37,2.39.13,4.73.2,7,.2,21.49,0,36-6.4,43.1-19,5.72-10.11,7-25.13,3.74-44.64-1.87-11.26-5.15-14.63-9.51-14.62-6.51,0-15.4,7.53-25.53,7.54-5.22,0-8.7-25.43-14.46-25.42h-.2c-6,.62-12.16,1.27-18.29,1.3h-.38c-7.82,0-15.57-1.13-23.07-2.23-6.84-1-13.29-2-19.23-2"/><path class="cls-16" d="M1303.57,69.24q.43,0,.87,0l1.78-.08,1.43-1.5a58.67,58.67,0,0,0,10.46-15.78c11.67.63,23.42,1.85,35,3.65h.11c2.75.35,5.58.57,8.58.81,12.9,1,27.54,2.16,34.73,14.35,12.44,21.07,8.43,41.67,4.93,52.08-7,21-23,35.71-38.7,35.73h-.15c-9.29,0-19.79-22-29-23.24a7.75,7.75,0,0,0-1-.07c-9.41,0-18.29,18.1-28.09,18.11l-1.72,0c-1.39,0-3.49.48-7.75,1.44-5.54,1.26-13.13,3-17.86,3a6.85,6.85,0,0,1-2.27-.24,5.14,5.14,0,0,1,2.24,3.49,8.49,8.49,0,0,1,.23,2.7l-5.32-12.54a12.66,12.66,0,0,1-5.58,1.69,4.14,4.14,0,0,1-3.7-1.92c-1.37-2-3.63-7.36-3.58-21.82,1.45-7.66,1.79-16.45,2.15-25.73.61-16,1.24-32.53,7.82-40.4,4.22-5,7.61-7.59,10.1-7.59,2.06,0,4,1.8,7,4.75,4.16,4.08,9.34,9.14,17.24,9.13M1315,43.76a53,53,0,0,1-10.71,17.53c-.24,0-.47,0-.7,0-5.7,0-9.64-3.47-13.22-6.93s-6.81-7-11.06-7c-3.58,0-7.89,2.48-13.76,9.49-9.54,11.4-9.2,33.68-10.08,52.73a121.63,121.63,0,0,1-1.87,18.33c0,1.54,0,3.07,0,4.59.35,15,3.36,28.19,12.89,28.18a16.7,16.7,0,0,0,7.56-2.19c-4.41,5.41-1.9,7.08,3.14,7.08,8.13,0,22.83-4.37,25.68-4.42h1.65c19.48,0,38.73,5.1,58.07,5.2h.17c17.29,0,33.89-15.23,42.25-36a76.91,76.91,0,0,0,5.38-34.74,69.83,69.83,0,0,0-9.5-30c-10.59-18-31.8-16-47.14-18A356.87,356.87,0,0,0,1315,43.76"/><path class="cls-17" d="M1318.11,51.85a58.67,58.67,0,0,1-10.46,15.78l-1.43,1.5-1.78.08q-.43,0-.87,0c-7.9,0-13.08-5-17.24-9.13-3-3-5-4.75-7-4.75-2.49,0-5.88,2.55-10.1,7.59-6.58,7.87-7.21,24.41-7.82,40.4-.36,9.28-.7,18.07-2.15,25.73,0,14.46,2.21,19.87,3.58,21.82a4.14,4.14,0,0,0,3.7,1.92,12.66,12.66,0,0,0,5.58-1.69l5.32,12.54a8.49,8.49,0,0,0-.23-2.7,5.14,5.14,0,0,0-2.24-3.49,6.85,6.85,0,0,0,2.27.24c4.73,0,12.32-1.72,17.86-3,4.26-1,6.36-1.42,7.75-1.44l1.72,0c9.8,0,18.68-18.1,28.09-18.11a7.75,7.75,0,0,1,1,.07c9.25,1.23,19.75,23.19,29,23.24h.15c15.73,0,31.65-14.71,38.7-35.73,3.5-10.41,7.51-31-4.93-52.08-7.19-12.19-21.83-13.34-34.73-14.35-3-.24-5.83-.46-8.58-.81h-.11c-11.58-1.8-23.33-3-35-3.65"/><path class="cls-16" d="M1419.45,186q-3.24-.14-5.89-4.18,2.65,4,5.89,4.18m25.25-10.88c7,0,14.72-.48,22.93-1,9.06-.56,18.43-1.14,27.67-1.15,35.89,0,53.74,9.19,57.83,30.5a19.22,19.22,0,0,0-3.36,1.05l-6.45,2.69.27,0-.64.11-1.08.45,4.89,8.88c.67,2.24,1.38,11.75.26,25.79-1.23,15.28-3.63,22.92-4.64,24.32l-4.88,4.38a.8.8,0,0,1-.27,0c-5.4,0-37.7-36.31-53.41-36.3-17.06,0-13.68,36.21-29.49,36.22a7.86,7.86,0,0,1-.84,0c-12.53-.95-23.35-1.78-30.1-1.77a37,37,0,0,0-5.61.33c-1.27-4.06-3.27-11.09-6.36-23.11-.32-1.27-.59-2.31-.78-3-.05-.16-.1-.33-.14-.49-1.13-11.59,2-33.8,5.91-49.71a9.39,9.39,0,0,0,3.25.59v-8.86l6.76,3.46a24.6,24.6,0,0,0,.79-6.07l-7.55,0v-.09a19.39,19.39,0,0,1,1.52-2.91,15,15,0,0,0-3.07-5.79,15,15,0,0,1,3.07,5.79,13.24,13.24,0,0,1,7.59-5.69,74.46,74.46,0,0,0,15.92,1.33m50.61-10.06c-8.91,0-18,.54-26.58,1.08s-16.8,1.06-24,1.07c-1.53,0-3,0-4.45-.08a57,57,0,0,1-11.56-1.39q-11.07,2.69-15.15,16.08a201.51,201.51,0,0,0-5.86,25.21c-2.39,13.8-3.84,28.7-2.68,38.22v-.05s.73,2.69,1.73,6.58c.81,3.13,1.83,7,2.9,10.93,2.4,8.76,5.08,17.52,6.22,17.52.27,0,.46-.51.53-1.66.06-.92,2.61-1.28,6.95-1.29,1.73,0,3.75.06,6,.16l.26-2.07a159.3,159.3,0,0,0,18.76,3.32l12.14.92c4.3.33,8.74.65,13.24.94,3.62.12,7.25.17,10.83.17,15.59,0,30.4-1.1,40.93-3l.32,3.5c10.61-1,18.36-3.23,20.78-7.36-.38-.13-.75-.28-1.11-.43,3.63-3.27,6.12-17,7.17-30.76,1-13.47.69-26.93-1.3-30.54a13.77,13.77,0,0,1,5.4-1.08,16.12,16.12,0,0,1,2.89.27c-.91-25.86-14.42-37.72-32.78-42.8-9.57-2.65-20.47-3.46-31.58-3.45"/><path class="cls-17" d="M1419.67,186h0m.54,0,.21,0-.21,0m75.09-13c-9.24,0-18.61.59-27.67,1.15-8.21.51-16,1-22.93,1a74.46,74.46,0,0,1-15.92-1.33,13.24,13.24,0,0,0-7.59,5.69,12,12,0,0,1,.38,3,12,12,0,0,0-.38-3,19.39,19.39,0,0,0-1.52,2.91v.09l7.55,0a24.6,24.6,0,0,1-.79,6.07l-6.76-3.46V194a9.39,9.39,0,0,1-3.25-.59c-3.94,15.91-7,38.12-5.91,49.71,0,.16.09.33.14.49.19.73.46,1.77.78,3,3.09,12,5.09,19,6.36,23.11a37,37,0,0,1,5.61-.33c6.75,0,17.57.82,30.1,1.77a7.86,7.86,0,0,0,.84,0c15.81,0,12.43-36.2,29.49-36.22,15.71,0,48,36.3,53.41,36.3a.8.8,0,0,0,.27,0l4.88-4.38c1-1.4,3.41-9,4.64-24.32,1.12-14,.41-23.55-.26-25.79l-4.89-8.88,1.08-.45a154.72,154.72,0,0,1-23.66,1.88,152.11,152.11,0,0,1-24.29-1.95,151.94,151.94,0,0,1,24.3-2,154.82,154.82,0,0,1,24,1.9l6.45-2.69a19.22,19.22,0,0,1,3.36-1.05C1549,182.19,1531.19,173,1495.3,173"/><path class="cls-16" d="M1445.39,294.23c7.45,6.92,17.27,29.54,25.61,29.53h.32c8.06-.58,15-17.35,22.28-27.32-2.92.08-5.9.12-8.91.12a311.3,311.3,0,0,1-39.3-2.32m80.6-11.38.74,8.17c8.42,1.63,15.49,4.55,18.34,9.59,4.84,8.56,4.18,10.71,2.43,16.46a51.78,51.78,0,0,0-2.78,18.8,47.83,47.83,0,0,0,3.62,16.1c2.12,5.66,3.4,9.07-1.14,21.31-4.81,13-6.45,14.61-15.62,19.88-3.95,2.26-18.31,4.55-41.47,4.57l-7-23.27c-16.79,0-27.87,19.73-41.08,19.74a13.33,13.33,0,0,1-2.17-.18c-23.6-3.94-27.13-9.06-27.27-9.28-5.65-8.92-6.36-29-1.81-51.22s12.65-38.37,18.35-42.15l-1.54-.38,1-7.8c-7.11,2.93-14.33,16.39-19.43,33.15-1.4,4.58-2.63,9.41-3.66,14.33a160.56,160.56,0,0,0-3.06,21.77,112,112,0,0,0,0,16.07c.67,8.59,2.55,16.11,6,21.51,4,6.38,20.17,10.71,39.64,13.16a344.49,344.49,0,0,0,42,2.48c14.43,0,27.48-.93,35.91-2.67a27.75,27.75,0,0,0,7.7-2.5c10.41-6,13.11-9,18.51-23.57,9.08-24.48-1.19-25.68-1.85-41.53-.74-17.79,10.23-20.08-.86-39.71-4-7.1-12.6-10.94-23.51-12.83"/><path class="cls-17" d="M1526.73,291l.22,2.42a230.18,230.18,0,0,1-33.35,3c-7.31,10-14.22,26.74-22.28,27.32H1471c-8.34,0-18.16-22.61-25.61-29.53-5.8-.76-11.28-1.71-16.22-2.86-5.7,3.78-13.77,19.81-18.35,42.15s-3.84,42.3,1.81,51.22c.14.22,3.67,5.34,27.27,9.28a13.33,13.33,0,0,0,2.17.18c13.21,0,24.29-19.72,41.08-19.74l7,23.27c23.16,0,37.52-2.31,41.47-4.57,9.17-5.27,10.81-6.88,15.62-19.88,4.54-12.24,3.26-15.65,1.14-21.31a47.83,47.83,0,0,1-3.62-16.1,51.78,51.78,0,0,1,2.78-18.8c1.75-5.75,2.41-7.9-2.43-16.46-2.85-5-9.92-8-18.34-9.59"/><path class="cls-14" d="M1525.84,281.23c-2.62.25-5.42.43-8.36.55,3,.25,5.81.6,8.51,1.07l-.15-1.62m-96.48-3.77-.74,5.73,26.44.65c4.88-.29,10.09-.67,15.46-1.06,6.68-.47,13.6-.95,20.46-1.25-5.7-.24-11.51-.58-17.22-1-8.67-.27-17.32-.87-25.38-1.86-7.27-.55-13.8-1-19-1.25"/><path class="cls-17" d="M1525.52,277.73c-10.53,1.91-25.34,3-40.93,3-3.58,0-7.21-.05-10.83-.17,5.71.38,11.52.72,17.22,1,4.15-.17,8.28-.28,12.31-.29,4.9,0,9.67.15,14.19.54,2.94-.12,5.74-.3,8.36-.55l-.32-3.5m-95.9-2.34-.26,2.07c5.22.23,11.75.7,19,1.25a159.3,159.3,0,0,1-18.76-3.32"/><path class="cls-17" d="M1503.29,281.24c-4,0-8.16.12-12.31.29-6.86.3-13.78.78-20.46,1.25-5.37.39-10.58.77-15.46,1.06l71.18,1.75c-10.82,2-25.74,3-41.37,3-20,0-41.16-1.69-56.25-5.44l-1,7.8,1.54.38,0,0a66,66,0,0,0,12.41.9,6,6,0,0,1,3.78,2,311.3,311.3,0,0,0,39.3,2.32c3,0,6,0,8.91-.12,3.12-4.25,6.31-7.27,9.69-7.27a127.81,127.81,0,0,1,23.44,1.86l-.74-8.17c-2.7-.47-5.55-.82-8.51-1.07-4.52-.39-9.29-.54-14.19-.54"/><path class="cls-18" d="M1429.2,291.34l0,0c4.94,1.15,10.42,2.1,16.22,2.86a6,6,0,0,0-3.78-2,66,66,0,0,1-12.41-.9m74.09-2.18c-3.38,0-6.57,3-9.69,7.27a230.18,230.18,0,0,0,33.35-3l-.22-2.42a127.81,127.81,0,0,0-23.44-1.86"/><path class="cls-17" d="M1428.62,283.19c15.09,3.75,36.24,5.46,56.25,5.44,15.63,0,30.55-1.08,41.37-3l-71.18-1.75-26.44-.65"/><path class="cls-16" d="M1451.13,528.44c8.93,0,18.07-.84,26.91-1.65,8.55-.77,17.4-1.58,25.73-1.59,10.13,0,18.17,1.13,25.32,3.57,12.57,4.29,27.33,38.31,25.94,54.29-.32,3.78-1.3,4.93-4.19,4.93-.29,0-.6,0-.92,0l-13.57-1.35,8.89,14.44c1.27,2.08,4.14,7.21,3.21,10.08-.83,2.52-7.76,15.08-63.79,15.13-16.5,0-31.48-1.06-39.53-1.64-2.14-.15-3.69-.27-4.71-.32-2.46-.11-4.68-.18-6.83-.25-8.5-.27-14.1-.44-17-3.36s-4.69-10.09-6.24-24.31c-1.29-12,0-28.55,3.29-42.22,2.09-8.62,6.79-23.37,15.27-27.93a99.3,99.3,0,0,0,22.24,2.22m52.63-11.16c-8.55,0-17.35.81-26.19,1.62s-17.7,1.61-26.4,1.61a93.78,93.78,0,0,1-22.73-2.44c-10.8,4.45-17.72,20.79-21.29,38.66-2.89,14.43-3.59,29.86-2.4,40.85,4,37.27,10.87,33.43,35.47,34.63,4.66.23,23.44,2,44.45,2,38.6,0,84.73-6,64.84-38.32a12.23,12.23,0,0,0,1.33.07c23.4,0,.86-67.58-20.39-74.85-8.43-2.87-17.41-3.8-26.69-3.79"/><path class="cls-17" d="M1503.77,525.2c-8.33,0-17.18.82-25.73,1.59-8.84.81-18,1.64-26.91,1.65a99.3,99.3,0,0,1-22.24-2.22c-8.48,4.56-13.18,19.31-15.27,27.93-3.29,13.67-4.58,30.24-3.29,42.22,1.55,14.22,3.42,21.49,6.24,24.31s8.52,3.09,17,3.36c2.15.07,4.37.14,6.83.25,1,.05,2.57.17,4.71.32,8,.58,23,1.65,39.53,1.64,56,0,63-12.61,63.79-15.13.93-2.87-1.94-8-3.21-10.08l-8.89-14.44,13.57,1.35c.32,0,.63,0,.92,0,2.89,0,3.87-1.15,4.19-4.93,1.39-16-13.37-50-25.94-54.29-7.15-2.44-15.19-3.58-25.32-3.57"/><path class="cls-16" d="M1456.58,750.24c-1.19,0-4.1-1.31-5.41-1.43-29.64-2.74-39.62-3.65-39.53-42.91.06-24.71,3.3-40.92,9.9-49.53,5.29-6.9,13.17-9.85,26.37-9.87,5.6,0,22.34,38.14,28.78,38.68h.18c7.12,0,4.16-36.43,12.07-36.44,1.45,0,2.88,0,4.27-.06,2.5-.09,5-.2,7.58-.31,4.56-.2,9.27-.41,13.77-.41,13,0,27.25,1.49,34.13,12.75,4.47,7.32,6,18.65,4.61,34.57a19.74,19.74,0,0,0-2.91,7.52c-.69,3.33-1.15,7.5-1.63,11.92-.53,4.83-1.07,9.83-1.94,13.95s-1.68,5.49-1.92,5.81c-.32-.05-1.56-.4-4-2.92l-8.52-9-.52,14.95c-.34,9.78-12.71,15.16-34.85,15.18-11.56,0-23.63-1.44-32.46-2.49-2-.23-9.42-9.16-10.93-9.16-.73,0-.08,2.1,3.26,8.29.36.66.16.89-.35.89m-8.67-111.66c-20.8,0-36.07,6.69-40.56,42.82a182.1,182.1,0,0,1-1.35,27.19c.51,46.85,17.66,45.45,50.54,48.67,8.8.86,24.94,3.4,40.52,3.38,20.42,0,39.87-4.42,40.5-22.73,3,3.17,5.44,4.51,7.41,4.51,5.51,0,7.47-10.51,8.75-21s1.84-21,4.55-21l.24,0c5.91-53.58-17.35-60.39-44-60.37-7.09,0-14.4.5-21.47.72-1.41,0-2.82.07-4.22.07-7.41,0-14.6-.56-21.47-1.12s-13.42-1.12-19.49-1.12"/><path class="cls-17" d="M1447.91,646.5c-13.2,0-21.08,3-26.37,9.87-6.6,8.61-9.84,24.82-9.9,49.53-.09,39.26,9.89,40.17,39.53,42.91,1.31.12,4.22,1.43,5.41,1.43.51,0,.71-.23.35-.89-3.34-6.19-4-8.29-3.26-8.29,1.51,0,8.95,8.93,10.93,9.16,8.83,1,20.9,2.5,32.46,2.49,22.14,0,34.51-5.4,34.85-15.18l.52-14.95,8.52,9c2.39,2.52,3.63,2.87,4,2.92.24-.32,1-1.62,1.92-5.81s1.41-9.12,1.94-13.95c.48-4.42.94-8.59,1.63-11.92a19.74,19.74,0,0,1,2.91-7.52c1.38-15.92-.14-27.25-4.61-34.57-6.88-11.26-21.12-12.77-34.13-12.75-4.5,0-9.21.21-13.77.41-2.54.11-5.08.22-7.58.31-1.39,0-2.82.06-4.27.06-7.91,0-5,36.44-12.07,36.44h-.18c-6.44-.54-23.18-38.68-28.78-38.68"/><path class="cls-16" d="M1320.57,648.77c5.62,0,12.44-1,19.65-1.95,8.33-1.15,16.94-2.34,25-2.35,12.47,0,20.49,2.87,24.49,8.83,2.5,3.7,3.58,9,3.28,16.1l-.72,17.33,9.18-9.94c1,16.37-1,41.09-6.62,52.52-2.55,5.14-4.69,5.17-5.41,5.18h0a6.08,6.08,0,0,1-3-.94l-37-34,29.34,43.38c.13.66.08.75,0,1-.72,1.31-5.81,7.91-35.06,7.93-12,0-23.52-1.06-30.43-1.7l-3.46-.31c-3.17-.26-6.19-.45-9.12-.64-25.63-1.66-37.33-2.41-42.11-35.62-3.23-22.45-1.91-38.91,3.94-48.93,2.08-3.57,4.75-4.92,7.84-4.92,9.31,0,22.39,12.14,34.47,12.13,4.69,0,9.15-23.12,13.59-23.12h.06c.65,0,1.32,0,2,0m44.68-12.22a181.11,181.11,0,0,0-23.84,2.15l-.85.12c-7.45,1-14.39,2-19.94,2-.65,0-1.28,0-1.88,0-4.71-.21-9.45-.39-14.1-.38-21.86,0-42,4-49.87,26.8,3,14.8,2.18,33.13-1.67,47.84v.1c6.3,43.71,25.7,40,56.43,42.58,5.49.46,19.66,2,34.23,2,21.33,0,43.5-3.46,40.56-18.89a10.21,10.21,0,0,0,5.1,1.53c9,0,14.26-15.81,16.57-33.82a182.1,182.1,0,0,0,1.35-27.19c-.21-7.59-.94-14.23-2.12-18.68l-6.57,7.12c1-24.81-12.08-32.08-28.62-33.15-1.57-.1-3.17-.14-4.79-.14"/><path class="cls-17" d="M1365.25,644.47c-8.09,0-16.7,1.2-25,2.35-7.21,1-14,1.94-19.65,1.95-.7,0-1.37,0-2,0h-.06c-4.44,0-8.9,23.12-13.59,23.12-12.08,0-25.16-12.14-34.47-12.13-3.09,0-5.76,1.35-7.84,4.92-5.85,10-7.17,26.48-3.94,48.93,4.78,33.21,16.48,34,42.11,35.62,2.93.19,6,.38,9.12.64l3.46.31c6.91.64,18.47,1.71,30.43,1.7,29.25,0,34.34-6.62,35.06-7.93.12-.22.17-.31,0-1l-29.34-43.38,37,34a6.08,6.08,0,0,0,3,.94h0c.72,0,2.86,0,5.41-5.18,5.66-11.43,7.65-36.15,6.62-52.52l-9.18,9.94.72-17.33c.3-7.12-.78-12.4-3.28-16.1-4-6-12-8.84-24.49-8.83"/><path class="cls-16" d="M1160.71,750.25l-4.11-.07c-26.49-.45-43-2.1-49.3-29.19-2-8.63,13.65-24.41,16.75-40.25,3.16-16.18-6.59-29.9-1.78-33.92,1.79-1.5,10.38-4,31.3-4.05a314.88,314.88,0,0,1,53.54,4.72c21.41,3.9,29.54,8.73,30.85,10.73a5.29,5.29,0,0,1-.39-3.48l9.65,7.11a69.72,69.72,0,0,1,3.66,20.85c.44,11.3-28.33,14.43-31.34,24.1-1.65,5.28,21,26.45,13.62,26.46l-.46,0-5.89-.37,0,8.26c0,6.52-9.52,11.25-22.56,11.26a57.25,57.25,0,0,1-21.37-4.16c-5.92-2.5-10.42-6-12-9.31l-11.2-23.23,1.09,34.56m-7.15-115.4c-16.55,0-30,1.64-34.17,5.16-6.46,5.4-11.83,19.61-15.16,35.35,1.91,15.78,1.2,34.68-2.7,46.21.12.65.25,1.28.38,1.88,8.91,38.48,36.45,33.73,64.71,34.91q-.24-7.5-.47-15c5.1,10.57,22.41,17,38.06,16.94,14.83,0,28.17-5.77,28.22-19.15.24,0,.49,0,.73,0,9.07,0,16-11.2,19.94-26.12,3.85-14.71,4.71-33,1.67-47.84-1.37-6.65-3.52-12.58-6.55-17.16a35,35,0,0,0-5.22,6.86c2.81-13.66-51.51-22.11-89.44-22.07"/><path class="cls-17" d="M1153.57,642.77c-20.92,0-29.51,2.55-31.3,4.05-4.81,4,4.94,17.74,1.78,33.92-3.1,15.84-18.75,31.62-16.75,40.25,6.26,27.09,22.81,28.74,49.3,29.19l4.11.07-1.09-34.56,11.2,23.23c1.61,3.33,6.11,6.81,12,9.31a57.25,57.25,0,0,0,21.37,4.16c13,0,22.54-4.74,22.56-11.26l0-8.26,5.89.37.46,0c7.41,0-15.27-21.18-13.62-26.46,3-9.67,31.78-12.8,31.34-24.1a69.72,69.72,0,0,0-3.66-20.85l-9.65-7.11a5.29,5.29,0,0,0,.39,3.48c-1.31-2-9.44-6.83-30.85-10.73a314.88,314.88,0,0,0-53.54-4.72"/><path class="cls-16" d="M958.09,613.31c-1.06,0-1.75-.25-2.05-.76-2.4-4-.11-21.29,1.4-32.7.35-2.64.71-5.31,1-8,2.25-18,4-28.08,7.58-33.52,3.16-4.86,8.67-7.36,21-9.56a.82.82,0,0,1,.22,0c5.52,0,22.08,32.36,39.08,32.34,15.66,0,28-31.44,38.62-31.45a4.94,4.94,0,0,1,1,.1c18.11,3.59,21.65,9.06,22.18,10.12.18.37.28.57,0,1.51l-6.67,25.38,15.83-16.8c2,8.92,1,18.22,0,28.63-.58,5.79-1.19,11.76-1.31,18-5.75,26.68-15.55,32.09-29.44,32.1A125.15,125.15,0,0,1,1049,627c-3.6-.51-7.31-1-11.11-1.44a73.52,73.52,0,0,0-8-.38,218.52,218.52,0,0,0-22.05,1.55c-7.49.77-15.22,1.57-22.46,1.57a62.85,62.85,0,0,1-15.29-1.6L981.28,603l-16,8c-3.71,1.87-6,2.26-7.21,2.27m66.67-94.71c-17.34,0-32.65,1.33-38.39,2.35-25.49,4.55-28.67,11.16-33.46,49.59-.93,7.41-2,15-2.76,21.92-.31,2.93-.55,5.75-.68,8.4-.58,11.86,1,20.37,8.61,20.37,2.4,0,5.4-.86,9.11-2.73-2,4.35-4.1,8.7-6.14,13,6.82,3.39,14.72,4.55,23.06,4.65,6.8-1.26,17.38-2.08,29.31-2.11,5.68-.56,11.24-1,16.5-1a71.66,71.66,0,0,1,7.57.36c10.37,1.09,20.23,3.23,29.08,3.22,14.89,0,26.94-6.1,33.84-33.42.43-1.71.85-3.51,1.24-5.39.12-11.85,2.28-23.3,2.49-34.58.16-8.55-.8-17-4.63-25.48l-6,6.36c5.48-20.81-35.38-25.58-68.75-25.55"/><path class="cls-17" d="M987.29,528.8a.82.82,0,0,0-.22,0c-12.35,2.2-17.86,4.7-21,9.56-3.55,5.44-5.33,15.56-7.58,33.52-.32,2.64-.68,5.31-1,8-1.51,11.41-3.8,28.65-1.4,32.7.3.51,1,.76,2.05.76,1.24,0,3.5-.4,7.21-2.27l16-8-11.16,23.69a62.85,62.85,0,0,0,15.29,1.6c7.24,0,15-.8,22.46-1.57a218.52,218.52,0,0,1,22.05-1.55,73.52,73.52,0,0,1,8,.38c3.8.4,7.51.93,11.11,1.44a125.15,125.15,0,0,0,17.55,1.75c13.89,0,23.69-5.42,29.44-32.1.12-6.24.73-12.21,1.31-18,1.05-10.41,2-19.71,0-28.63l-15.83,16.8,6.67-25.38c.25-.94.15-1.14,0-1.51-.53-1.06-4.07-6.53-22.18-10.12a4.94,4.94,0,0,0-1-.1c-10.59,0-23,31.44-38.62,31.45-17,0-33.56-32.35-39.08-32.34"/><path class="cls-16" d="M955.93,731.4c-.18-4.46.63-13,1.14-18.46.47-5,1-10.13,1.23-15.18,1-17.94,1.8-29.41,4.79-37.5,2-5.57,5.81-11.75,18-15.35,5.94-1.75,18.78-2.89,32.72-2.9,36.54,0,66.2,7.11,72.12,17.38a4,4,0,0,1,.62,2.92l-3.72,24.38L1096,669.77c.44-.57.88-1.14,1.32-1.73,3.37,15.57,3.17,39.67-1.22,51.18-1.9,5-3.56,5-4.13,5h0c-.92,0-3-.53-6.27-4.08l-8.08-8.65-1,14.21c-.61,9-.77,15.11-.79,19.22A28,28,0,0,0,1066,749c-3.13,1.9-7.86,2.83-14.46,2.84-3.63,0-7.38-.27-11-.52-3.39-.24-6.59-.46-9.5-.46h-.33c-3.75,0-7.84.29-12.17.56-4.91.32-10,.65-15,.66-26.81,0-31.15-10.73-31.87-21.24l-1-14.27-8.11,8.75a39.43,39.43,0,0,1-6.64,6.07m57.93-97.31h-.44c-11.93,0-22.51.85-29.31,2.11-1.59.3-3,.62-4.12.95-24,7-25.4,24.88-27.32,60-1.08,19.68-5.67,43,1.68,42.94,2.42,0,6.13-2.52,11.67-8.5,1.64,24.22,19.16,28.42,37.49,28.4,9.55,0,19.31-1.16,27.17-1.22h.16c3,0,6.32.25,9.88.49s7.16.48,10.75.48c6.22,0,12.21-.75,16.73-3.5,4.93-3,8-3.59,10-3.59a10.38,10.38,0,0,1,1.53.11,8.09,8.09,0,0,0,1,.12c1.63,0-.11-2.71,1.53-26.44,3.71,4,6.93,5.71,9.7,5.71,4.27,0,7.44-4.15,9.62-10.6,3.9-11.53,4.61-30.43,2.7-46.21-1-8.38-2.77-15.87-5.18-20.92-2.25,3.26-4.55,6.44-6.93,9.51,3.51-23-43.09-29.89-78.26-29.86"/><path class="cls-17" d="M1013.86,642c-13.94,0-26.78,1.15-32.72,2.9-12.24,3.6-16,9.78-18,15.35-3,8.09-3.8,19.56-4.79,37.5-.27,5-.76,10.21-1.23,15.18-.51,5.5-1.32,14-1.14,18.46a39.43,39.43,0,0,0,6.64-6.07l8.11-8.75,1,14.27c.72,10.51,5.06,21.26,31.87,21.24,5,0,10.07-.34,15-.66,4.33-.27,8.42-.53,12.17-.56h.33c2.91,0,6.11.22,9.5.46,3.62.25,7.37.52,11,.52,6.6,0,11.33-.94,14.46-2.84a28,28,0,0,1,9.84-4.06c0-4.11.18-10.22.79-19.22l1-14.21,8.08,8.65c3.32,3.55,5.35,4.08,6.27,4.08h0c.57,0,2.23,0,4.13-5,4.39-11.51,4.59-35.61,1.22-51.18-.44.59-.88,1.16-1.32,1.73l-13.07,16.92,3.72-24.38a4,4,0,0,0-.62-2.92c-5.92-10.27-35.58-17.41-72.12-17.38"/><path class="cls-16" d="M836.21,748.18c-11.63-2.11-19.32-3.49-23.75-7.67-3.36-3.18-6.09-8.88-8.45-26.43-2.8-20.79-.89-36.42,5.83-47.79,9.6-16.24,29.16-24.15,59.8-24.18,16.09,0,32.25,2.1,46.5,3.95,4.24.55,8.23,1.07,11.93,1.49,6.16.79,10.77,4.52,14,11.38,3,6.35-16.74,14.67-16.43,25.15.29,9.39,20.86,20.32,18.93,29-3.39,15.27-6.17,20.77-12.89,29.9-1.18-1.44-2.63-3.48-3.56-4.79-3.63-5.12-6.25-8.82-9.82-8.81-2.74,0-5.14,2.39-6.12,6.09l-.53,2,.24,2.07c.33,2.88-.26,4.32-.88,5.34-1.55,2.58-7.56,8.57-29.48,8.59-16.23,0-32.36-35.86-41.81-37.58l-3.55,32.31m33.44-114c-29.23,0-57.51,7-68.12,35.39,2.58,15.24,1.25,33.18-3.37,43.6.09.79.19,1.58.3,2.39,4.75,35.28,12.17,36,38.48,40.74,9.18,1.66,27.66,5.08,44.63,5.07,20.09,0,38-4.86,35.94-23.15.17-.64.45-.93.82-.93,1.34,0,3.86,3.75,6.53,7.49s5.47,7.48,7.4,7.47a1.45,1.45,0,0,0,1.19-.65C942.2,740,945.92,733.82,950,715.43c6-27.12,4.33-72.48-21.47-75.78-15.83-1.81-37.61-5.48-58.89-5.46"/><path class="cls-17" d="M869.64,642.11c-30.64,0-50.2,7.94-59.8,24.18-6.72,11.37-8.63,27-5.83,47.79,2.36,17.55,5.09,23.25,8.45,26.43,4.43,4.18,12.12,5.56,23.75,7.67l3.55-32.31c9.45,1.72,25.58,37.59,41.81,37.58,21.92,0,27.93-6,29.48-8.59.62-1,1.21-2.46.88-5.34l-.24-2.07.53-2c1-3.7,3.38-6.09,6.12-6.09,3.57,0,6.19,3.69,9.82,8.81.93,1.31,2.38,3.35,3.56,4.79,6.72-9.13,9.5-14.63,12.89-29.9,1.93-8.68-18.64-19.61-18.93-29-.31-10.48,19.45-18.8,16.43-25.15-3.27-6.86-7.88-10.59-14-11.38-3.7-.42-7.69-.94-11.93-1.49-14.25-1.85-30.41-4-46.5-3.95"/><path class="cls-16" d="M714.56,648.62c3.23,0,7.85-.45,13.7-1,8.13-.8,18.24-1.79,27.78-1.8,22.52,0,27.22,5.69,28.12,7.44.22.42.73,1.41.05,4.33l-4.86,20.77L794.61,665c3.83,13.62,3.13,32.52-.67,42.62-1.6,4.23-3.42,6.39-5.43,6.39h-.26l-7.74-.59-14.39,9.82c2.11,11.3,17.22,16.51,16.29,18.2-1.35,2.45-4.39,3-6.71,3-4.26,0-10-1.72-16.63-5l-23.47-9,16,17.83a3.59,3.59,0,0,1,0,.85s-1.77,3.13-12.63,3.14c-13.23,0-31.9-4.49-48.37-8.45C677.9,740.65,666.9,738,660.55,738a14.52,14.52,0,0,0-3.78.42c-4.84-5.1-6.06-16.31-4.62-25.74,1.24-8.21,5-17.81,11.46-17.85l12.14-.07-7.84-13c-6.65-11,6.94-16.73,8.4-21.13,2.85-8.59,5.59-13,13.82-13,6,0,11.86.34,17.08.64,2.18.14,4.23.25,6.1.33.38,0,.79,0,1.25,0M756,637.88c-8.17,0-16.66.71-24,1.41s-13.67,1.4-17.43,1.4l-1.06,0c-6.31-.28-14.79-1-23.36-1-25.2,0-51.34,6.18-26.55,47.21-18.9.12-24.62,49.36-7.33,60.24.61-.85,2.1-1.21,4.29-1.22,6.81,0,20.42,3.54,35.33,7.09S727,760.1,739,760.09c11.63,0,19.34-3.35,18.18-13.22,6.82,3.35,13.24,5.42,18.51,5.42,10.43,0,16.4-8.11,12.25-30.42a5.33,5.33,0,0,0,.56,0c4,0,7.28-3.37,9.66-8.71,4.62-10.42,6-28.36,3.37-43.6a59.11,59.11,0,0,0-4.76-15.85c-2.4,2.09-4.79,4.2-7.19,6.3,3.31-14.18-7-19.75-21.13-21.49l-.23.05c-.78-.12-1.56-.23-2.36-.32-3.15-.28-6.46-.4-9.82-.39"/><path class="cls-17" d="M756,645.8c-9.54,0-19.65,1-27.78,1.8-5.85.57-10.47,1-13.7,1-.46,0-.87,0-1.25,0-1.87-.08-3.92-.19-6.1-.33-5.22-.3-11.13-.64-17.08-.64-8.23,0-11,4.44-13.82,13-1.46,4.4-15,10.12-8.4,21.13l7.84,13-12.14.07c-6.46,0-10.22,9.64-11.46,17.85-1.44,9.43-.22,20.64,4.62,25.74a14.52,14.52,0,0,1,3.78-.42c6.35,0,17.35,2.65,30.09,5.71,16.47,4,35.14,8.47,48.37,8.45,10.86,0,12.62-3.14,12.63-3.14a3.59,3.59,0,0,0,0-.85l-16-17.83,23.47,9c6.62,3.25,12.37,5,16.63,5,2.32,0,5.36-.52,6.71-3,.93-1.69-14.18-6.9-16.29-18.2l14.39-9.82,7.74.59h.26c2,0,3.83-2.16,5.43-6.39,3.8-10.1,4.5-29,.67-42.62l-15.26,13.38,4.86-20.77c.68-2.92.17-3.91-.05-4.33-.9-1.75-5.6-7.46-28.12-7.44"/><path class="cls-16" d="M675.22,548.27a5,5,0,0,0,3-1.09c.26,0-4.52-21.23-3.46-21.23,6,0,17.84,2.3,26.46,4,6.15,1.2,9.43,1.84,11.17,1.91q.79,0,1.68,0a160.52,160.52,0,0,0,17-1.46,5.92,5.92,0,0,1,.84,0c7.66,0,13.42,12,21.5,12,14.64,0,22.83-7.43,25.61-7.43a.9.9,0,0,1,.85.45c.38.66,1.4,2.42.69,7.06l-15.86,14.18,23-5a4.16,4.16,0,0,1,1.61-.4c3,0,4.72,8.18,5.06,15.78,1.08,24.07-8.41,59.54-26.32,63.55a132.75,132.75,0,0,0-18.32-1.08c-7.83,0-16.28.45-24.46.88-8.43.44-17.17.9-25.52.91-9.35,0-22-.48-33-4.06a32.43,32.43,0,0,0,1.71-7.36l9.67-7.7L664,610.83a18.22,18.22,0,0,0-4.72-.62,18.66,18.66,0,0,0-6.4,1.16c-.91-8.38-.12-17.72.66-26.83.31-3.61.63-7.34.83-10.95.08-1.34.16-2.43.24-3.3h.48c4.6,0,8.56-3.76,12.1-11.5,3.94-8.6,0-16.19-1.82-19.83a22,22,0,0,1-1.59-3.56h0c.15,0,1.45,3.22,3.49,6.44s4.82,6.44,7.92,6.43M674.8,518c-1.95,0-3.4.22-4.11.73-25.76,18.59-3,24.43-8.24,35.78-3,6.52-5.4,7.85-7.34,7.86a6.85,6.85,0,0,1-1.82-.31,5.92,5.92,0,0,0-1.52-.32c-1.52,0-2.48,1.77-3,11.23-.88,15.65-4,33.64.34,49a17,17,0,0,1,10.2-3.82,14.53,14.53,0,0,1,3.68.48,18.88,18.88,0,0,1-6.31,12.54c11.66,6.46,26.94,8.09,43.14,8.08,8.33,0,16.9-.45,25.35-.89s16.78-.89,24.63-.9a134.3,134.3,0,0,1,16.07.83c.8.09,1.58.2,2.36.32l.23-.05c33.28-6.46,40.58-95.21,20.94-95.2a8.35,8.35,0,0,0-3.28.74c2.92-19.17-11.85-23.64-29.4-23.62a212,212,0,0,0-23.47,1.75c-7.5.86-14.29,1.73-19.09,1.74-.53,0-1,0-1.52,0-4.2-.19-27.74-5.91-37.83-5.9"/><path class="cls-17" d="M674.81,526c-1.06,0,3.72,21.19,3.46,21.23a5,5,0,0,1-3,1.09c-3.1,0-5.88-3.21-7.92-6.43s-3.34-6.44-3.49-6.44h0a22,22,0,0,0,1.59,3.56c1.87,3.64,5.76,11.23,1.82,19.83-3.54,7.74-7.5,11.5-12.1,11.5h-.48c-.08.87-.16,2-.24,3.3-.2,3.61-.52,7.34-.83,10.95-.78,9.11-1.57,18.45-.66,26.83a18.66,18.66,0,0,1,6.4-1.16,18.22,18.22,0,0,1,4.72.62l14.2,1.35-9.67,7.7a32.43,32.43,0,0,1-1.71,7.36c10.94,3.58,23.63,4.06,33,4.06,8.35,0,17.09-.47,25.52-.91,8.18-.43,16.63-.87,24.46-.88a132.75,132.75,0,0,1,18.32,1.08c17.91-4,27.4-39.48,26.32-63.55-.34-7.6-2.07-15.78-5.06-15.78a4.16,4.16,0,0,0-1.61.4l-23,5,15.86-14.18c.71-4.64-.31-6.4-.69-7.06a.9.9,0,0,0-.85-.45c-2.78,0-11,7.42-25.61,7.43-8.08,0-13.84-12-21.5-12a5.92,5.92,0,0,0-.84,0,160.52,160.52,0,0,1-17,1.46q-.89,0-1.68,0c-1.74-.07-5-.71-11.17-1.91-8.62-1.68-20.42-4-26.46-4"/><path class="cls-16" d="M665.45,503.3a6.36,6.36,0,0,1-1.44-.16l7-2.46-8-9.94c-10.18-12.69-16.36-44.41-3.29-67.27,5.77-10.09,10.64-12.12,16.62-12.13a66.59,66.59,0,0,1,9,.89,103,103,0,0,0,12.19,1.19c1.49,0,3,.06,4.64.06,7.51,0,15.27-.45,22.78-.87s15.2-.84,22.62-.85a140.12,140.12,0,0,1,14.59.68,69.79,69.79,0,0,0,7,.29h2.23c5.27,0,9.07.28,14,3.78-.1.77-.22,1.58-.32,2.25-.86,6-21.44,14.76-17.3,19.77L788.77,440l2.31-.21a11.09,11.09,0,0,0,4.47-1.35,101.76,101.76,0,0,1-5.14,49.93c-3.13,8.18-10.14,22.13-22.19,24.76-24.92-3.73-52.31-26.5-80.3-27h0c-2.1,0-5.53,4.29-9.52,8.57s-8.57,8.58-12.92,8.58m10.86-99.88c-7.52,0-14,2.85-21,15.1-14.95,26.13-8.44,62.72,3.94,78.15-33.19,11.76,24.43,18,30.25,18.11a597.61,597.61,0,0,1,78.84,6.37c14-2.54,24.33-18,29.76-37.06a114.74,114.74,0,0,0,3.8-41.22,79.13,79.13,0,0,0-3.91-18.6c-1.3,4.78-3.7,7.33-7.23,7.65-3.09-3.74,2.23-18.29-.31-20.45-7.47-6.37-12.92-6.68-19.2-6.68H769a58.58,58.58,0,0,1-6.44-.28,147.54,147.54,0,0,0-15-.68c-7.53,0-15.19.43-22.82.85s-15.23.86-22.66.86c-1.5,0-3,0-4.49-.05-8.32-.21-15.13-2.09-21.26-2.08"/><path class="cls-17" d="M676.31,411.34c-6,0-10.85,2-16.62,12.13-13.07,22.86-6.89,54.58,3.29,67.27l8,9.94-7,2.46a6.36,6.36,0,0,0,1.44.16c4.35,0,8.92-4.29,12.92-8.58s7.42-8.57,9.52-8.57h0c28,.52,55.38,23.29,80.3,27,12-2.63,19.06-16.58,22.19-24.76a101.76,101.76,0,0,0,5.14-49.93,11.09,11.09,0,0,1-4.47,1.35l-2.31.21-21.13-1.52c-4.14-5,16.44-13.79,17.3-19.77.1-.67.22-1.48.32-2.25-4.89-3.5-8.69-3.79-14-3.78h-2.23a69.79,69.79,0,0,1-7-.29,140.12,140.12,0,0,0-14.59-.68c-7.42,0-15.15.44-22.62.85s-15.27.86-22.78.87c-1.59,0-3.15,0-4.64-.06a103,103,0,0,1-12.19-1.19,66.59,66.59,0,0,0-9-.89"/><path class="cls-16" d="M722.91,275.74c-30.23,0-59.5-2.78-68.84-23.3-5.36-11.77-4-30.05,4-54.32,6.69-20.22,16.25-24.38,28.54-24.39,5.79,0,12.08,1,18.74,2.07,7.45,1.2,15.15,2.44,23.1,2.43h.36c3.51,0,8.4-.84,14-1.78,6.38-1.07,13.61-2.27,19.11-2.28a15.94,15.94,0,0,1,5.62.72l.7.27.74,0c4.76.09-1.22,18.71,3.29,20.8-.16,4.05,4.88,2.51,6.21,6.33l6.83-6.95L785.33,211h0c1,0,5.1-16,6-16a7.68,7.68,0,0,0,3.38-.77c4.2,13.75,3.77,32.79-1.47,50.26-5.41,18-14.45,29.95-24.28,32.15a169.65,169.65,0,0,0-23-1.15c-3.63,0-7.29.05-11.15.09s-7.93.09-12,.1M758,168c-10.24.67-23.36,3.89-29.74,3.92h-.34a131.4,131.4,0,0,1-20.83-2.1c-2.29.06-4.58.09-6.84.09a144.55,144.55,0,0,1-23-1.55c-10.18,2.35-18.79,9.74-24.84,28.06-21.56,65.14,4.88,82.8,40,87.37a233.7,233.7,0,0,0,29.94,1.5c4,0,7.91-.05,11.78-.09s7.71-.1,11.41-.1a160.15,160.15,0,0,1,23,1.21c13.57-2.47,24.42-19.08,30-39.24A110.26,110.26,0,0,0,802,205a62.55,62.55,0,0,0-6.45-21.66c-1,3.58-2.58,5.36-4.74,5.37a5,5,0,0,1-1.47-.25,22,22,0,0,1-.35-13.41,39.72,39.72,0,0,0-20.36-6.23A91.2,91.2,0,0,0,758,168"/><path class="cls-17" d="M686.64,173.73c-12.29,0-21.85,4.17-28.54,24.39-8,24.27-9.39,42.55-4,54.32,9.34,20.52,38.61,23.32,68.84,23.3,4,0,8.05-.06,12-.1s7.52-.09,11.15-.09a169.65,169.65,0,0,1,23,1.15c9.83-2.2,18.87-14.14,24.28-32.15,5.24-17.47,5.67-36.51,1.47-50.26a7.68,7.68,0,0,1-3.38.77c-.88,0-5,16-6,16h0l.06-15.67-6.83,6.95c-1.33-3.82-6.37-2.28-6.21-6.33-4.51-2.09,1.47-20.71-3.29-20.8l-.74,0-.7-.27a15.94,15.94,0,0,0-5.62-.72c-5.5,0-12.73,1.21-19.11,2.28-5.65.94-10.54,1.76-14,1.78h-.36c-8,0-15.65-1.23-23.1-2.43-6.66-1.06-13-2.08-18.74-2.07"/><path class="cls-16" d="M674.81,69.25a2.19,2.19,0,0,1-1.17-.29c-1-.62-3.55-5.89-2.66-7.35,0-.07,1-1.54,6.25-2.43,4.62-.78,10.61-.81,16.95-.84,3,0,6,0,9.08-.12,2-.06,4-.09,6-.1a267.11,267.11,0,0,1,52.44,5.56c24.79,5.06,32,7.85,33,37.79.71,21.87-5.87,48.56-26.69,52.4a128,128,0,0,0-15.83-.8c-7.78,0-16.11.41-24.93.84-9.07.45-18.45.91-27.45.92-2.09,0-4.34,0-6.66-.08l-12.37-16-9.14-2.93c-4.65-1.49-8.42-2.33-11.44-3-2.6-.57-5.84-1.29-6.46-2-1.06-1.79-.56-13.67-.36-18.14.16-3.77,0-12,2.21-15,1-1.42,2.85-1.71,4.86-1.71.71,0,1.43,0,2.15.07s1.42.08,2.09.08a8.33,8.33,0,0,0,2.33-.27,34.81,34.81,0,0,1,5.39-1.64,6.06,6.06,0,0,1,.75,0,15,15,0,0,1,3.14.45,14.62,14.62,0,0,0,3.09.46,5.32,5.32,0,0,0,1.2-.13c5.37-1.18,5.52-15.08,5.36-21.1a5.36,5.36,0,0,0-.29-1.91,3,3,0,0,0-1.15-1.24,11.42,11.42,0,0,0-6-2.07h-.09a8.5,8.5,0,0,0-1.72.28,8.21,8.21,0,0,1-1.78.28m34.93-25.14q-3,0-6,.11c-25,.86-52-4.34-29.31,35.07C670.88,86.78,667,88,663.24,88c-.85,0-1.68-.06-2.5-.12s-1.62-.12-2.4-.12c-5.17,0-9.26,2.71-10.14,26-1.32,35.16.93,26.49,22.48,34.34l-16.19,11.75c6.1,4.47,13.94,7.09,22.76,8.53a144.55,144.55,0,0,0,23,1.55c2.26,0,4.55,0,6.84-.09,6.68-.17,13.45-.54,20.08-.91,8.92-.49,17.59-1,25.49-1,1.82,0,3.6,0,5.34.08a91.2,91.2,0,0,1,10.58.88c23.86-4.34,33.14-36.75,32.25-67.85-1.14-40-12.07-44.51-37.67-50.45a240.72,240.72,0,0,0-53.42-6.43"/><path class="cls-17" d="M746.84,101.59c-24.34,0-44.08-1.55-44.08-1.55s19.74-1.6,44.08-1.62S790.92,100,790.92,100s-19.73,1.6-44.08,1.63M709.22,58.12c-2,0-4,0-6,.1-3,.09-6.12.1-9.08.12-6.34,0-12.33.06-16.95.84-5.26.89-6.21,2.36-6.25,2.43-.89,1.46,1.67,6.73,2.66,7.35a2.19,2.19,0,0,0,1.17.29,8.21,8.21,0,0,0,1.78-.28,8.5,8.5,0,0,1,1.72-.28h.09a11.42,11.42,0,0,1,6,2.07A3,3,0,0,1,685.57,72a5.36,5.36,0,0,1,.29,1.91c.16,6,0,19.92-5.36,21.1a5.32,5.32,0,0,1-1.2.13,14.62,14.62,0,0,1-3.09-.46,15,15,0,0,0-3.14-.45,6.06,6.06,0,0,0-.75,0,34.81,34.81,0,0,0-5.39,1.64,8.33,8.33,0,0,1-2.33.27c-.67,0-1.37,0-2.09-.08s-1.44-.07-2.15-.07c-2,0-3.87.29-4.86,1.71-2.17,3-2,11.23-2.21,15-.2,4.47-.7,16.35.36,18.14.62.68,3.86,1.4,6.46,2,3,.67,6.79,1.51,11.44,3l9.14,2.93,12.37,16c2.32.06,4.57.08,6.66.08,9,0,18.38-.47,27.45-.92,8.82-.43,17.15-.83,24.93-.84a128,128,0,0,1,15.83.8c20.82-3.84,27.4-30.53,26.69-52.4-1-29.94-8.17-32.73-33-37.79a267.11,267.11,0,0,0-52.44-5.56"/><path class="cls-16" d="M746.84,98.42c-24.34,0-44.08,1.62-44.08,1.62s19.74,1.57,44.08,1.55S790.92,100,790.92,100s-19.73-1.56-44.08-1.54"/><path class="cls-16" d="M865,70c-13.12,0-23.74,1-23.74,1s10.62,1,23.74,1c8.53,0,16-.45,20.19-.76l.43,0c2-.15,3.11-.26,3.11-.26s-1-.09-2.67-.22l-1.24-.09c-4.25-.3-11.54-.7-19.82-.69"/><path class="cls-16" d="M999.15,129c-11.08,0-20.06.58-20.06.58s9,.55,20.06.54,20.06-.58,20.06-.58-9-.55-20.06-.54"/><path class="cls-16" d="M1158.19,184a101.7,101.7,0,0,0-19.21,1.87,100.45,100.45,0,0,0,38.43,0,101.49,101.49,0,0,0-19.22-1.84"/><path class="cls-16" d="M871.94,560.39c-24.34,0-44.08,1.63-44.08,1.63s19.74,1.56,44.08,1.54S916,561.94,916,561.94s-19.74-1.57-44.09-1.55"/><path class="cls-16" d="M1471.94,427a253,253,0,0,0-26.85,1.47,251.82,251.82,0,0,0,53.69-.05,252.1,252.1,0,0,0-26.84-1.42"/><path class="cls-16" d="M1519.3,205.34a151.94,151.94,0,0,0-24.3,2,152.11,152.11,0,0,0,24.29,1.95A154.72,154.72,0,0,0,1543,207.4l.64-.11-.27,0a154.82,154.82,0,0,0-24-1.9"/><path class="cls-16" d="M1216,358.75a132.11,132.11,0,0,0-18.94,1.39,130.06,130.06,0,0,0,37.86,0,131.35,131.35,0,0,0-18.92-1.36"/></g></g><g class="cls-2"><polygon class="cls-19" points="1397.84 881.62 1397.34 1017.28 -13.73 962.04 -13.23 826.36 1397.84 881.62"/><polygon class="cls-20" points="1397.84 881.62 2087 790.05 2086.5 925.71 1397.34 1017.28 1397.84 881.62"/><polygon class="cls-21" points="-13.23 826.36 675.93 734.79 2087 790.05 1397.84 881.62 -13.23 826.36"/></g><polygon class="cls-22" points="494.31 237.28 481.29 219.37 486.26 190.37 502.35 190.37 507.32 219.37 494.31 237.28"/><path class="cls-23" d="M625.59,215.78c0,26.79-22.63,48.51-50.54,48.51s-50.53-21.72-50.53-48.51"/><path class="cls-23" d="M660.36,231.18c0,26.79-37.11,48.51-82.88,48.51S494.6,258,494.6,231.18"/><g class="cls-2"><g class="cls-24"><path class="cls-25" d="M597.06,207.57l-1.2.11c.52,37-8.43,67.92-20,69s-21.34-28.12-21.87-65.1l-1.2.11c.28,19.76,2.88,38,7.31,51.44,4.36,13.15,10,20.09,15.85,19.55s11.27-8.52,15.24-22.45c4-14.2,6.12-32.9,5.84-52.66"/></g></g><polygon class="cls-22" points="625.3 219.58 612.28 201.66 617.25 172.66 633.34 172.66 638.32 201.66 625.3 219.58"/><polygon class="cls-22" points="524.22 224.97 511.2 207.05 516.18 178.06 532.27 178.06 537.24 207.05 524.22 224.97"/><polygon class="cls-22" points="553.33 217.27 540.31 199.35 545.29 170.35 561.38 170.35 566.35 199.35 553.33 217.27"/><polygon class="cls-22" points="596.19 214.96 583.17 197.04 588.14 168.05 604.23 168.05 609.21 197.04 596.19 214.96"/><polygon class="cls-22" points="660.07 239.59 647.05 221.68 652.02 192.68 668.11 192.68 673.09 221.68 660.07 239.59"/><rect x="571.41" y="41.01" width="6.47" height="223.28" rx="3.23" ry="3.23"/><ellipse cx="574.65" cy="40.62" rx="25.87" ry="11.93"/></g></g></svg>
